<?xml version="1.0" standalone="no"?>
<!DOCTYPE svg PUBLIC "-//W3C//DTD SVG 1.1//EN" "http://www.w3.org/Graphics/SVG/1.1/DTD/svg11.dtd" >
<svg xmlns="http://www.w3.org/2000/svg" xmlns:xlink="http://www.w3.org/1999/xlink" version="1.1">
<metadata>
Created by FontForge 20150824 at Fri Dec 18 12:12:08 2015
 By Everything Fonts
(c)2012 Kai Bernau and Susana Carvalho with Christian Schwartz under exclusive license to Schwartzco Inc./Commercial Type. All rights reserved.
</metadata>
<defs>
<font id="AtlasGroteskBoldItalic" horiz-adv-x="600" >
  <font-face 
    font-family="AtlasGroteskBoldItalic"
    font-weight="700"
    font-style="italic"
    font-stretch="normal"
    units-per-em="1000"
    panose-1="0 0 0 0 0 0 0 0 0 0"
    ascent="812"
    descent="-188"
    x-height="536"
    cap-height="765"
    bbox="-240 -225 1224 1196"
    underline-thickness="50"
    underline-position="-150"
    slope="-11"
    unicode-range="U+0020-FB02"
  />
<missing-glyph horiz-adv-x="500" 
 />
    <glyph glyph-name="f_f" unicode="ff" horiz-adv-x="707" 
d="M279 426l-82 -426h-153l83 426h-73l22 110h72l12 62q20 102 74 142t146 40q57 0 74 -7l-21 -109q-8 2 -34 2q-39 0 -59.5 -16.5t-27.5 -54.5l-11 -59h191l15 75q19 102 73.5 142.5t146.5 40.5q31 0 79 -8l-21 -109q-15 3 -40 3q-38 0 -59 -16.5t-28 -54.5l-14 -73h102
l-21 -110h-102l-83 -426h-152l83 426h-192z" />
    <glyph glyph-name="fi" unicode="fi" horiz-adv-x="655" 
d="M504 629l29 144h157l-28 -144h-158zM383 0l104 536h156l-104 -536h-156zM280 426l-83 -426h-153l83 426h-73l22 110h72l15 75q19 102 72.5 142.5t143.5 40.5q35 0 75 -8l-21 -109q-12 3 -35 3q-36 0 -56 -16.5t-27 -54.5l-14 -73h102l-22 -110h-101z" />
    <glyph glyph-name="fl" unicode="fl" horiz-adv-x="654" 
d="M383 0l153 788h156l-153 -788h-156zM280 426l-83 -426h-153l83 426h-73l22 110h72l15 75q19 102 72.5 142.5t143.5 40.5q35 0 75 -8l-21 -109q-12 3 -35 3q-36 0 -56 -16.5t-27 -54.5l-14 -73h102l-22 -110h-101z" />
    <glyph glyph-name=".notdef" horiz-adv-x="500" 
 />
    <glyph glyph-name=".null" horiz-adv-x="0" 
 />
    <glyph glyph-name="nonmarkingreturn" horiz-adv-x="333" 
 />
    <glyph glyph-name="space" unicode=" " horiz-adv-x="224" 
 />
    <glyph glyph-name="exclam" unicode="!" horiz-adv-x="317" 
d="M95 243l79 544h180l-144 -544h-115zM194 0h-172l29 152h172z" />
    <glyph glyph-name="quotedbl" unicode="&#x22;" horiz-adv-x="471" 
d="M331 504l31 261h145l-80 -261h-96zM129 504l31 261h145l-80 -261h-96z" />
    <glyph glyph-name="numbersign" unicode="#" horiz-adv-x="671" 
d="M290 373h115l48 142h-115zM95 99l60 179h-105l18 95h120l47 142h-110l18 95h124l52 155h102l-51 -155h114l52 155h104l-53 -155h109l-18 -95h-123l-47 -142h112l-18 -95h-127l-59 -179h-104l60 179h-115l-60 -179h-102z" />
    <glyph glyph-name="dollar" unicode="$" horiz-adv-x="649" 
d="M330 462l34 174q-48 -4 -76.5 -27.5t-28.5 -62.5q0 -37 16 -54.5t55 -29.5zM329 104q52 5 85.5 30t33.5 68q0 38 -18 59t-64 34zM218 -116l21 107q-113 12 -168.5 73t-47.5 152h157q-2 -47 17 -74t64 -35l40 206l-33 9q-169 46 -169 191q0 108 79.5 170t206.5 64l16 81
l69 1l-17 -86q99 -14 150.5 -70t43.5 -141h-151q3 79 -64 99l-37 -187l35 -10q96 -26 138 -73t42 -129q0 -109 -80.5 -175t-222.5 -69l-20 -103z" />
    <glyph glyph-name="percent" unicode="%" horiz-adv-x="872" 
d="M74 -40l660 821h117l-660 -821h-117zM97 525q0 94 56 155t139 61q72 0 113.5 -39t41.5 -107q0 -93 -55.5 -154t-139.5 -61q-71 0 -113 39t-42 106zM257 464q40 0 61.5 40.5t21.5 91.5q0 62 -53 62q-38 0 -60.5 -39.5t-23.5 -92.5q0 -62 54 -62zM623 -7q-71 0 -113 38.5
t-42 105.5q0 94 55.5 155t139.5 61q72 0 113.5 -39t41.5 -106q0 -93 -55.5 -154t-139.5 -61zM628 77q39 0 60 38.5t23 89.5q2 65 -53 65q-39 0 -61 -38.5t-24 -92.5q0 -62 55 -62z" />
    <glyph glyph-name="ampersand" unicode="&#x26;" horiz-adv-x="754" 
d="M324 589q0 -45 41 -107q54 28 83.5 58t29.5 73q0 33 -19 53.5t-49 20.5q-39 0 -62.5 -28.5t-23.5 -69.5zM286 348l-5 -3q-91 -57 -91 -136q0 -49 31 -78.5t85 -29.5q65 0 119 43zM671 -1h-25q-59 0 -93 12.5t-64 45.5q-93 -72 -213 -72q-106 0 -173 53.5t-66 146.5
q0 154 195 246q-47 72 -47 148q0 95 66 151t162 56q87 1 142.5 -43.5t54.5 -121.5q0 -73 -50 -123.5t-138 -98.5l93 -141q28 48 80 154h133q-10 -19 -33 -63.5t-36.5 -69t-34 -59t-39.5 -60.5q20 -21 43 -29t66 -10z" />
    <glyph glyph-name="quotesingle" unicode="'" horiz-adv-x="269" 
d="M129 504l31 261h145l-80 -261h-96z" />
    <glyph glyph-name="parenleft" unicode="(" horiz-adv-x="351" 
d="M257 -130h-108q-84 164 -84 333q0 305 255 585h120q-115 -148 -176.5 -292t-62.5 -307q-1 -166 56 -319z" />
    <glyph glyph-name="parenright" unicode=")" horiz-adv-x="351" 
d="M125 788h109q83 -162 83 -333q0 -163 -70.5 -312t-183.5 -273h-121q115 148 176.5 292t62.5 307q1 171 -56 319z" />
    <glyph glyph-name="asterisk" unicode="*" horiz-adv-x="441" 
d="M280 542h-3l-87 -124l-83 70l122 94v4l-131 25l58 108l106 -72l2 2l2 139h114l-53 -142l2 -3l132 64l16 -112l-140 -14v-4l83 -101l-102 -61z" />
    <glyph glyph-name="plus" unicode="+" horiz-adv-x="616" 
d="M378 300l-38 -196h-129l38 196h-182l22 116h182l38 194h129l-38 -194h184l-22 -116h-184z" />
    <glyph glyph-name="comma" unicode="," horiz-adv-x="282" 
d="M-24 -117l86 276h163l-145 -276h-104z" />
    <glyph glyph-name="hyphen" unicode="-" horiz-adv-x="412" 
d="M55 251l23 123h309l-24 -123h-308z" />
    <glyph glyph-name="period" unicode="." horiz-adv-x="285" 
d="M12 0l30 159h166l-31 -159h-165z" />
    <glyph glyph-name="slash" unicode="/" horiz-adv-x="562" 
d="M-91 -130l618 918h126l-617 -918h-127z" />
    <glyph glyph-name="zero" unicode="0" horiz-adv-x="688" 
d="M61 255q0 62 11 127t37.5 132t66 119t102 85t138.5 33q119 0 187 -72.5t67 -206.5q-1 -65 -12 -130t-37.5 -130t-65 -114.5t-99.5 -80.5t-136 -31q-122 0 -190.5 69.5t-68.5 199.5zM323 104q56 0 99 66.5t62 153t19 169.5q0 140 -97 140q-56 0 -98.5 -67.5t-61.5 -154
t-19 -167.5q0 -140 96 -140z" />
    <glyph glyph-name="one" unicode="1" horiz-adv-x="428" 
d="M122 0l98 508h-143l19 102h17q71 0 114 31q40 31 58 101h137l-144 -742h-156z" />
    <glyph glyph-name="two" unicode="2" horiz-adv-x="626" 
d="M259 495h-156q20 124 96.5 190.5t200.5 66.5q102 0 166 -49t62 -144q-2 -81 -53.5 -146t-156.5 -148l-173 -137v-1h308l-24 -127h-537l17 92l306 252q38 32 58.5 50t46 46t36.5 55t11 56q0 39 -21.5 61.5t-59.5 21.5q-107 -2 -127 -139z" />
    <glyph glyph-name="three" unicode="3" horiz-adv-x="637" 
d="M334 320h-68l22 112h52q55 1 88.5 31.5t33.5 82.5q0 41 -26 63.5t-65 22.5q-101 0 -116 -108h-153q11 98 84.5 163t194.5 65q104 0 170 -47.5t66 -142.5q0 -70 -40.5 -118t-104.5 -65v-3q53 -15 82.5 -55.5t29.5 -100.5q0 -109 -82 -172t-208 -63q-124 0 -196.5 60.5
t-64.5 169.5h158q-2 -51 26.5 -79t82.5 -28q58 0 92 33.5t34 87.5q0 41 -22.5 66t-69.5 25z" />
    <glyph glyph-name="four" unicode="4" horiz-adv-x="653" 
d="M192 284h195l63 319h-2q-24 -40 -59 -83zM602 165h-88l-32 -165h-153l32 165h-343l20 110l402 466h186l-88 -455h88z" />
    <glyph glyph-name="five" unicode="5" horiz-adv-x="631" 
d="M428 269q0 47 -23.5 74.5t-69.5 28.5q-77 1 -123 -53h-130l115 422h429l-25 -126h-309l-50 -187h2q25 27 65 45t87 18q90 0 141 -55.5t51 -148.5q0 -134 -89.5 -218t-223.5 -84q-119 0 -186.5 59t-53.5 165h151q-3 -49 22 -75.5t74 -26.5q66 0 106 47.5t40 114.5z" />
    <glyph glyph-name="six" unicode="6" horiz-adv-x="649" 
d="M647 565h-147q-7 73 -78 73q-62 0 -111 -64t-76 -182h4q62 94 178 94q88 0 138.5 -56t50.5 -146q1 -130 -84 -214.5t-213 -84.5q-126 0 -188 72t-62 193q0 127 45 240.5t133.5 187.5t199.5 74q200 -2 210 -187zM316 105q60 0 95.5 49t35.5 114q0 46 -25.5 73.5
t-69.5 27.5q-58 0 -94.5 -48t-36.5 -113q0 -47 25 -75t70 -28z" />
    <glyph glyph-name="seven" unicode="7" horiz-adv-x="555" 
d="M36 0l383 614h-326l25 127h508l-18 -90l-407 -651h-165z" />
    <glyph glyph-name="eight" unicode="8" horiz-adv-x="645" 
d="M387 752q101 0 170.5 -49t69.5 -141q0 -73 -40 -118.5t-103 -66.5v-3q111 -43 111 -154q0 -104 -83.5 -170t-211.5 -66q-122 0 -194 53.5t-72 145.5q0 79 48 131.5t125 72.5v4q-89 41 -89 138t77.5 160t191.5 63zM382 641q-53 0 -84.5 -36.5t-31.5 -88.5q0 -42 26 -64.5
t69 -22.5q49 0 82.5 33.5t33.5 88.5q0 42 -26.5 66t-68.5 24zM303 92q62 0 98.5 37.5t36.5 92.5q0 49 -32 74t-82 25q-57 0 -94 -35t-37 -94q0 -49 30.5 -74.5t79.5 -25.5z" />
    <glyph glyph-name="nine" unicode="9" horiz-adv-x="649" 
d="M382 630q-62 0 -97.5 -46.5t-35.5 -109.5q1 -45 27 -71.5t71 -26.5q62 0 98.5 45t36.5 108q-2 46 -28 73.5t-72 27.5zM268 -15q-106 1 -167.5 50.5t-53.5 143.5h147q-1 -42 21 -60t60 -18q143 0 190 248h-4q-58 -88 -177 -88q-89 0 -140 53t-52 143q-1 128 85 211.5
t213 83.5q126 0 187 -71t61 -186q0 -105 -24.5 -197t-70.5 -162t-117 -110.5t-158 -40.5z" />
    <glyph glyph-name="colon" unicode=":" horiz-adv-x="293" 
d="M89 368l31 159h164l-31 -159h-164zM182 0h-164l30 159h164z" />
    <glyph glyph-name="semicolon" unicode=";" horiz-adv-x="308" 
d="M110 368l31 159h164l-31 -159h-164zM84 -117h-104l86 276h162z" />
    <glyph glyph-name="less" unicode="&#x3c;" horiz-adv-x="603" 
d="M495 50l-439 248l15 74l534 246l-26 -141l-339 -149l279 -155z" />
    <glyph glyph-name="equal" unicode="=" horiz-adv-x="629" 
d="M107 400l23 115h471l-23 -115h-471zM538 195h-470l22 115h471z" />
    <glyph glyph-name="greater" unicode="&#x3e;" horiz-adv-x="603" 
d="M140 618l439 -246l-14 -75l-534 -246l26 140l340 151l-280 154z" />
    <glyph glyph-name="question" unicode="?" horiz-adv-x="584" 
d="M362 239h-138l11 57q10 51 26.5 76t63.5 57l65 44q75 51 75 118q0 39 -25.5 61.5t-70.5 22.5q-57 0 -90.5 -36t-35.5 -107h-149q4 119 77 191t208 72q106 0 172.5 -51.5t66.5 -139.5q0 -71 -32 -120.5t-96 -91.5l-72 -48q-26 -17 -35 -31.5t-15 -43.5zM162 0l29 152h172
l-30 -152h-171z" />
    <glyph glyph-name="at" unicode="@" horiz-adv-x="1006" 
d="M720 54q-60 0 -95.5 24.5t-41.5 72.5h-3q-54 -95 -155 -95q-73 0 -114.5 48.5t-41.5 129.5q0 112 61.5 194.5t162.5 82.5q46 0 77.5 -21t42.5 -53h2l11 58h128l-58 -275q-19 -92 48 -92q53 0 96 58.5t43 170.5q0 143 -91 230.5t-243 87.5q-171 0 -294.5 -124.5
t-123.5 -310.5q0 -166 94.5 -263t250.5 -97q153 0 262 84l39 -47q-127 -102 -312 -102t-299 116.5t-114 307.5q0 140 68.5 255.5t183.5 180.5t249 65q183 0 297 -103.5t114 -272.5q0 -79 -21.5 -141t-57 -97.5t-77.5 -53.5t-88 -18zM470 146q37 0 67 32t40 84l9 44
q9 48 -8 82t-57 34q-56 0 -87 -59t-31 -129q0 -88 67 -88z" />
    <glyph glyph-name="A" unicode="A" horiz-adv-x="746" 
d="M428 627q-7 -29 -51 -118l-106 -219h199l-29 215l-11 122h-2zM513 0l-26 172h-274l-85 -172h-159l397 765h180l129 -765h-162z" />
    <glyph glyph-name="B" unicode="B" horiz-adv-x="716" 
d="M364 0h-337l148 765h278q112 0 177 -45t65 -134q0 -145 -157 -183v-4q60 -13 95 -54.5t35 -102.5q0 -118 -82.5 -180t-221.5 -62zM275 449h131q66 0 99.5 31t33.5 85q0 41 -27 63.5t-79 22.5h-119zM210 117h152q68 0 110 32t42 96q0 96 -121 96h-139z" />
    <glyph glyph-name="C" unicode="C" horiz-adv-x="760" 
d="M757 506h-168q2 72 -28.5 111t-94.5 38q-60 -1 -106 -36.5t-71 -92.5t-37.5 -119.5t-12.5 -128.5q0 -75 34 -124t111 -49q135 0 169 155h164q-22 -130 -112 -203t-226 -73q-148 0 -230 79t-82 236q0 91 26 175t74.5 152.5t128 109t177.5 40.5q130 0 207 -66t77 -204z" />
    <glyph glyph-name="D" unicode="D" horiz-adv-x="758" 
d="M27 0l147 765h242q150 0 238 -79.5t88 -228.5q0 -96 -27.5 -178t-80.5 -144.5t-137 -98.5t-190 -36h-280zM211 123h105q68 0 119 29.5t80 79.5t43 109.5t14 127.5q0 174 -172 174h-88z" />
    <glyph glyph-name="E" unicode="E" horiz-adv-x="636" 
d="M27 0l148 765h489l-24 -125h-328l-38 -197h311l-24 -122h-311l-38 -197h340l-24 -124h-501z" />
    <glyph glyph-name="F" unicode="F" horiz-adv-x="592" 
d="M245 295l-57 -295h-161l148 765h471l-24 -125h-310l-43 -222h292l-23 -123h-293z" />
    <glyph glyph-name="G" unicode="G" horiz-adv-x="792" 
d="M761 533h-167q2 60 -29 92.5t-90 32.5q-51 0 -93 -26t-68.5 -66t-44 -91.5t-25 -100t-7.5 -93.5q0 -77 34.5 -128t109.5 -51q144 0 188 173l4 16h-167l23 117h327l-79 -408h-128l21 108h-3q-25 -55 -82.5 -89.5t-137.5 -34.5q-133 0 -206.5 81t-73.5 223q0 73 16 142.5
t50 132.5t82 110.5t117 75t150 27.5q127 -1 203.5 -62t75.5 -181z" />
    <glyph glyph-name="H" unicode="H" horiz-adv-x="772" 
d="M249 319l-62 -319h-161l148 765h161l-62 -320h299l62 320h162l-148 -765h-162l62 319h-299z" />
    <glyph glyph-name="I" unicode="I" horiz-adv-x="312" 
d="M27 0l148 765h162l-148 -765h-162z" />
    <glyph glyph-name="J" unicode="J" horiz-adv-x="436" 
d="M66 -3h-83l26 130h54q75 0 102.5 27.5t40.5 95.5l102 515h159l-104 -533q-26 -131 -92 -183t-205 -52z" />
    <glyph glyph-name="K" unicode="K" horiz-adv-x="721" 
d="M232 228l-44 -228h-161l148 765h161l-66 -342l332 342h185l-335 -332l200 -433h-173l-149 325z" />
    <glyph glyph-name="L" unicode="L" horiz-adv-x="597" 
d="M27 0l148 765h161l-123 -637h323l-25 -128h-484z" />
    <glyph glyph-name="M" unicode="M" horiz-adv-x="942" 
d="M27 0l147 765h228l51 -401l11 -128h3q26 64 56 123l207 406h236l-148 -765h-153l117 601h-3q-34 -77 -76 -159l-228 -442h-117l-54 442q-4 36 -7 76t-4 62l-1 21h-3l-117 -601h-145z" />
    <glyph glyph-name="N" unicode="N" horiz-adv-x="765" 
d="M27 0l148 765h171l158 -425q11 -29 19 -57.5t11 -42.5l2 -13h3l104 538h145l-148 -765h-158l-166 431q-12 30 -20.5 59.5t-11.5 43.5l-3 14h-3l-106 -548h-145z" />
    <glyph glyph-name="O" unicode="O" horiz-adv-x="804" 
d="M67 294q0 132 48.5 241t142.5 175t215 66q137 0 224 -81.5t86 -233.5q0 -94 -26.5 -179t-76 -152t-127.5 -106.5t-173 -39.5q-139 0 -225.5 77t-87.5 233zM613 481q0 77 -34.5 127t-110.5 50q-49 0 -89.5 -25.5t-66 -65t-43 -91t-25 -101.5t-7.5 -98q0 -75 35 -124
t114 -49q57 0 102.5 37t71.5 95.5t39.5 121.5t13.5 123z" />
    <glyph glyph-name="P" unicode="P" horiz-adv-x="654" 
d="M351 262h-113l-50 -262h-161l148 765h243q119 0 187.5 -54.5t68.5 -161.5q0 -140 -89 -213.5t-234 -73.5zM262 383h101q73 0 113 41.5t40 119.5q0 103 -114 103h-89z" />
    <glyph glyph-name="Q" unicode="Q" horiz-adv-x="804" 
d="M373 -13q-137 0 -221.5 77.5t-84.5 229.5q0 130 47 238.5t141 176t218 67.5q137 0 223.5 -81.5t86.5 -233.5q0 -141 -51.5 -242t-138.5 -155v-6q53 -10 85.5 -35t59.5 -75l-145 -80q-38 68 -73 95t-92 27q-8 0 -25 -1.5t-30 -1.5zM388 102q58 0 103 36t70.5 94
t38.5 121.5t13 127.5q0 77 -34.5 127t-110.5 50q-49 0 -89.5 -25.5t-66 -65t-43 -91t-25 -101.5t-7.5 -98q0 -75 35.5 -125t115.5 -50z" />
    <glyph glyph-name="R" unicode="R" horiz-adv-x="699" 
d="M266 408h119q68 0 106.5 36t38.5 107q0 51 -28.5 75.5t-92.5 24.5h-96zM244 291l-56 -291h-161l147 765h252q89 0 153 -29q113 -51 113 -182q0 -183 -176 -237v-2l125 -315h-168l-111 291h-118z" />
    <glyph glyph-name="S" unicode="S" horiz-adv-x="673" 
d="M28 222h168q-2 -58 29.5 -87.5t98.5 -29.5q59 0 99 29.5t40 80.5q0 36 -21.5 56t-70.5 34l-94 27q-91 26 -132.5 76t-41.5 127q0 112 84 176.5t210 64.5q121 0 194.5 -58t66.5 -164h-163q3 48 -25 75.5t-80 27.5q-54 0 -88 -27t-34 -74q0 -32 22.5 -50.5t68.5 -31.5
l95 -27q93 -26 133.5 -74.5t40.5 -123.5q0 -119 -86.5 -192t-223.5 -73q-139 0 -218 62t-72 176z" />
    <glyph glyph-name="T" unicode="T" horiz-adv-x="644" 
d="M477 636l-123 -636h-162l123 636h-219l25 129h599l-25 -129h-218z" />
    <glyph glyph-name="U" unicode="U" horiz-adv-x="744" 
d="M76 295l91 470h161l-90 -461q-20 -102 9 -145q31 -45 113 -45q76 0 117 44q20 22 29 49.5t18 77.5l93 480h159l-98 -507q-53 -274 -325 -274q-160 0 -233.5 80.5t-43.5 230.5z" />
    <glyph glyph-name="V" unicode="V" horiz-adv-x="725" 
d="M223 0l-104 765h162l56 -486q4 -34 5.5 -65t1.5 -45l-1 -14h2q12 43 47 113l252 497h161l-397 -765h-185z" />
    <glyph glyph-name="W" unicode="W" horiz-adv-x="1035" 
d="M329 0h-161l-51 765h161l20 -426q2 -43 1.5 -74t-1.5 -48l-1 -17h2q15 52 48 126l198 439h146l32 -428q3 -37 3.5 -71.5t-0.5 -49.5v-16h2q13 53 44 126l188 439h151l-342 -765h-157l-29 448q-3 38 -3.5 70.5t0.5 45.5v14h-2q-13 -45 -45 -118z" />
    <glyph glyph-name="X" unicode="X" horiz-adv-x="732" 
d="M-24 0l323 401l-157 364h174l100 -250h1l194 250h174l-301 -370l175 -395h-179l-113 279h-1l-217 -279h-173z" />
    <glyph glyph-name="Y" unicode="Y" horiz-adv-x="683" 
d="M212 0l64 330l-166 435h170l103 -301h2l217 301h169l-337 -452l-61 -313h-161z" />
    <glyph glyph-name="Z" unicode="Z" horiz-adv-x="644" 
d="M127 638l25 127h547l-22 -112l-470 -525h373l-24 -128h-570l22 112l470 526h-351z" />
    <glyph glyph-name="bracketleft" unicode="[" horiz-adv-x="379" 
d="M16 -130l179 918h259l-19 -96h-130l-141 -726h130l-19 -96h-259z" />
    <glyph glyph-name="backslash" unicode="\" horiz-adv-x="548" 
d="M381 -130l-267 918h116l269 -918h-118z" />
    <glyph glyph-name="bracketright" unicode="]" horiz-adv-x="387" 
d="M393 788l-179 -918h-258l18 96h130l142 726h-130l19 96h258z" />
    <glyph glyph-name="asciicircum" unicode="^" horiz-adv-x="434" 
d="M373 788l95 -293h-101l-67 173h-1l-131 -173h-108l209 293h104z" />
    <glyph glyph-name="underscore" unicode="_" horiz-adv-x="392" 
d="M-66 -190l19 99h385l-19 -99h-385z" />
    <glyph glyph-name="grave" unicode="`" horiz-adv-x="313" 
d="M253 788l36 -174h-115l-73 174h152z" />
    <glyph glyph-name="a" unicode="a" horiz-adv-x="576" 
d="M239 94q43 0 73 35.5t42 97.5l3 15q-79 -2 -113 -9q-72 -15 -72 -74q0 -31 18 -48t49 -17zM226 377h-150q9 78 72 124.5t169 46.5q124 0 174 -61.5t30 -165.5l-31 -162q-6 -28 3.5 -39t34.5 -11l-22 -110h-45q-95 0 -112 69h-3q-36 -39 -71.5 -56.5t-91.5 -17.5
q-71 0 -118 38.5t-47 112.5q0 124 140 163q54 15 215 17l5 28q8 45 -9.5 69t-58.5 24q-74 0 -84 -69z" />
    <glyph glyph-name="b" unicode="b" horiz-adv-x="633" 
d="M18 0l153 788h156l-66 -337h2q59 96 168 96q83 0 128 -56.5t45 -155.5q0 -48 -9 -95.5t-30 -93.5t-51 -81t-76 -56.5t-101 -21.5q-50 0 -92 23t-60 72h-2l-15 -82h-150zM308 93q46 0 79 40t46 91.5t13 104.5q0 109 -84 109q-47 0 -83.5 -35.5t-47.5 -93.5l-12 -66
q-14 -65 8 -107.5t81 -42.5z" />
    <glyph glyph-name="c" unicode="c" horiz-adv-x="591" 
d="M570 344h-156q2 45 -17 72t-61 27q-46 0 -79 -38.5t-47 -90t-14 -106.5q0 -53 23 -83.5t69 -30.5t74.5 29.5t36.5 75.5h151q-12 -103 -87.5 -158t-181.5 -55q-111 0 -178 57t-67 171q0 142 81 238.5t224 96.5q108 0 170 -55t59 -150z" />
    <glyph glyph-name="d" unicode="d" horiz-adv-x="638" 
d="M338 439q-45 0 -78 -37t-48 -89.5t-15 -110.5q0 -109 82 -109q48 0 85 36t48 95l12 64q14 67 -7 109t-79 42zM675 788l-153 -788h-149l15 80h-2q-64 -94 -164 -94q-88 0 -136 59t-48 157q0 83 29 160t92 131t148 54q109 0 147 -86h2l63 327h156z" />
    <glyph glyph-name="e" unicode="e" horiz-adv-x="589" 
d="M405 321l1 7q17 122 -76 122q-46 0 -77.5 -35t-46.5 -94h199zM529 156q-17 -83 -85.5 -126.5t-167.5 -43.5q-112 0 -176.5 60t-64.5 166q0 90 34 165.5t104.5 123.5t163.5 48q129 0 183.5 -81.5t31.5 -199.5l-7 -37h-352q-1 -8 -1 -25q0 -113 92 -113q38 0 61.5 17.5
t29.5 45.5h154z" />
    <glyph glyph-name="f" unicode="f" horiz-adv-x="363" 
d="M280 426l-83 -426h-153l83 426h-73l22 110h72l15 75q19 102 73.5 142.5t146.5 40.5q39 0 79 -8l-21 -109q-12 3 -39 3q-39 0 -59.5 -16.5t-27.5 -54.5l-14 -73h102l-22 -110h-101z" />
    <glyph glyph-name="g" unicode="g" horiz-adv-x="633" 
d="M414 239l11 55q12 64 -7.5 104.5t-76.5 40.5q-69 0 -106 -68.5t-37 -153.5q2 -102 90 -102q47 0 81.5 35.5t44.5 88.5zM7 -31h147q1 -32 24.5 -49t61.5 -17q108 0 132 127l14 67h-2q-60 -84 -159 -84q-88 0 -137 51.5t-49 148.5q0 85 31 160t94 124.5t145 49.5
q116 0 150 -93h2l16 82h150l-97 -498q-24 -122 -97.5 -179.5t-199.5 -57.5q-115 0 -171 45t-55 123z" />
    <glyph glyph-name="h" unicode="h" horiz-adv-x="628" 
d="M363 0l58 304q8 38 8 59q0 70 -68 70q-52 0 -85.5 -39.5t-47.5 -112.5l-54 -281h-156l153 788h156l-67 -341h2q58 100 177 100q87 0 125 -56.5t17 -164.5l-63 -326h-155z" />
    <glyph glyph-name="i" unicode="i" horiz-adv-x="289" 
d="M139 629l28 144h157l-28 -144h-157zM18 0l104 536h156l-104 -536h-156z" />
    <glyph glyph-name="j" unicode="j" horiz-adv-x="293" 
d="M143 629l28 144h157l-28 -144h-157zM-40 -206q-51 0 -81 12l21 108q20 -5 41 -5q63 0 75 68l109 559h156l-111 -569q-34 -173 -210 -173z" />
    <glyph glyph-name="k" unicode="k" horiz-adv-x="588" 
d="M199 142l-28 -142h-153l153 788h153l-92 -472l215 220h171l-227 -224l135 -312h-160l-95 217z" />
    <glyph glyph-name="l" unicode="l" horiz-adv-x="289" 
d="M18 0l153 788h156l-153 -788h-156z" />
    <glyph glyph-name="m" unicode="m" horiz-adv-x="958" 
d="M689 0l59 304q7 38 7 59q0 70 -66 70q-46 0 -79.5 -39.5t-47.5 -112.5l-53 -281h-155l58 304q8 35 8 59q0 70 -66 70q-47 0 -80 -39.5t-47 -112.5l-53 -281h-156l104 536h150l-19 -94h2q66 105 179 105q121 0 134 -116h2q73 116 197 116q87 0 124 -57t16 -164l-63 -326
h-155z" />
    <glyph glyph-name="n" unicode="n" horiz-adv-x="632" 
d="M363 0l58 304q8 35 8 59q0 70 -68 70q-52 0 -86 -40t-48 -113l-53 -280h-156l104 536h150l-19 -94h2q63 105 184 105q87 0 125 -56t17 -164l-63 -327h-155z" />
    <glyph glyph-name="o" unicode="o" horiz-adv-x="606" 
d="M276 -14q-109 0 -174.5 58.5t-65.5 167.5q0 138 80.5 237.5t219.5 99.5q109 0 175.5 -60.5t66.5 -164.5q0 -146 -82 -242t-220 -96zM419 335q0 45 -19.5 76.5t-66.5 31.5q-37 0 -65 -24t-43.5 -61.5t-23 -76.5t-7.5 -77q0 -111 88 -111q39 0 67.5 25t42.5 65t20.5 78
t6.5 74z" />
    <glyph glyph-name="p" unicode="p" horiz-adv-x="633" 
d="M308 93q45 0 77.5 38t46.5 90t14 108q0 109 -84 109q-47 0 -83.5 -35.5t-47.5 -93.5l-12 -65q-14 -65 8 -108t81 -43zM-19 -188l141 724h150l-17 -88h2q26 44 72 71.5t103 27.5q83 0 127.5 -57t44.5 -155q0 -61 -15.5 -120t-46 -111.5t-84 -84.5t-121.5 -32
q-51 0 -91 23.5t-56 63.5h-2l-51 -262h-156z" />
    <glyph glyph-name="q" unicode="q" horiz-adv-x="636" 
d="M626 536l-141 -724h-156l50 258h-2q-59 -84 -153 -84q-90 0 -138 59t-48 157q0 84 28 160.5t91 130.5t150 54q111 0 151 -89h2l16 78h150zM279 93q48 0 85 36t48 95l12 64q14 67 -7 109t-79 42q-45 0 -78 -37t-48 -89.5t-15 -110.5q0 -109 82 -109z" />
    <glyph glyph-name="r" unicode="r" horiz-adv-x="419" 
d="M18 0l104 536h147l-23 -116h2q68 125 195 125h7l-28 -149h-10q-84 0 -130 -34t-64 -124l-46 -238h-154z" />
    <glyph glyph-name="s" unicode="s" horiz-adv-x="525" 
d="M495 384h-136q1 32 -20.5 48t-56.5 16q-34 0 -55 -15.5t-21 -42.5q0 -22 15 -34t50 -20l66 -15q74 -17 105 -51.5t31 -95.5q0 -90 -66 -139.5t-171 -49.5q-102 0 -164 45t-58 129h142q-2 -36 21 -54.5t64 -18.5q38 0 63 15.5t25 47.5q0 40 -60 54l-63 14
q-141 31 -141 152q0 86 64 133t160 47q95 0 153 -43.5t53 -121.5z" />
    <glyph glyph-name="t" unicode="t" horiz-adv-x="393" 
d="M205 687h129l-29 -151h116l-22 -110h-115l-46 -237q-9 -47 2.5 -63.5t52.5 -16.5l44 5l-22 -114q-35 -7 -78 -7q-189 0 -153 186l48 247h-77l22 109h16q49 0 69.5 21t34.5 91z" />
    <glyph glyph-name="u" unicode="u" horiz-adv-x="623" 
d="M272 536l-60 -306q-6 -30 -6 -54q-1 -72 67 -72q48 0 81 39t47 113l55 280h155l-104 -536h-149l18 92h-2q-64 -102 -174 -102q-91 0 -130 55.5t-18 161.5l64 329h156z" />
    <glyph glyph-name="v" unicode="v" horiz-adv-x="561" 
d="M155 0l-87 536h152l33 -262q4 -29 6 -61.5t2 -50.5v-17h2q24 64 53 122l133 269h154l-287 -536h-161z" />
    <glyph glyph-name="w" unicode="w" horiz-adv-x="831" 
d="M119 0l-56 536h142l19 -256q2 -28 2.5 -61.5t-0.5 -52.5v-19h2q22 69 47 122l126 267h130l26 -263l5 -127h3q19 70 41 120l119 270h137l-245 -536h-149l-22 220q-3 31 -5 71t-3 65v24h-2q-34 -88 -62 -149l-107 -231h-148z" />
    <glyph glyph-name="x" unicode="x" horiz-adv-x="559" 
d="M-39 0l233 288l-115 248h159l66 -162h2l116 162h164l-213 -262l127 -274h-163l-74 184h-2l-135 -184h-165z" />
    <glyph glyph-name="y" unicode="y" horiz-adv-x="560" 
d="M161 -1l-91 537h157l33 -281q3 -26 4.5 -54t1.5 -43l-1 -15h2q19 51 42 100l136 293h155l-298 -568q-48 -91 -101.5 -129t-147.5 -38q-63 0 -83 10l23 114q21 -6 52 -6q43 0 67.5 14.5t41.5 50.5z" />
    <glyph glyph-name="z" unicode="z" horiz-adv-x="535" 
d="M87 421l23 115h438l-21 -104l-321 -315h264l-22 -117h-453l19 104l322 317h-249z" />
    <glyph glyph-name="braceleft" unicode="{" horiz-adv-x="413" 
d="M84 279h-30l22 109h29q36 0 50 14t22 53l30 162q21 107 89 147t193 28l-18 -92q-72 4 -102.5 -20.5t-41.5 -84.5l-28 -143q-10 -53 -31 -79.5t-70 -33.5v-4q75 -21 52 -135l-25 -127q-13 -61 10 -86t96 -29l-18 -92q-126 4 -179 51.5t-32 159.5l26 132q14 70 -44 70z" />
    <glyph glyph-name="bar" unicode="|" horiz-adv-x="281" 
d="M16 -130l179 918h106l-179 -918h-106z" />
    <glyph glyph-name="braceright" unicode="}" horiz-adv-x="419" 
d="M362 382h29l-21 -109h-30q-36 0 -49.5 -14t-21.5 -53l-31 -162q-21 -107 -88.5 -147t-192.5 -28l17 92q73 -4 103.5 20.5t41.5 84.5l25 135q10 53 33 84t71 37v4q-76 21 -53 135l26 127q12 61 -10.5 86t-95.5 29l18 92q126 -4 179 -52t31 -161l-26 -130q-13 -70 45 -70z
" />
    <glyph glyph-name="asciitilde" unicode="~" horiz-adv-x="477" 
d="M31 254q10 77 48 123.5t104 46.5q34 0 78 -25.5t60 -25.5q40 0 49 52h101q-17 -170 -146 -170q-34 0 -81 25.5t-63 25.5q-19 0 -33.5 -13.5t-16.5 -38.5h-100z" />
    <glyph glyph-name="uni00A0" unicode="&#xa0;" horiz-adv-x="224" 
 />
    <glyph glyph-name="exclamdown" unicode="&#xa1;" horiz-adv-x="318" 
d="M257 431l-79 -544h-180l144 544h115zM158 674h172l-29 -152h-172z" />
    <glyph glyph-name="cent" unicode="&#xa2;" horiz-adv-x="591" 
d="M237 96l69 352q-57 -17 -87 -88t-30 -150q0 -88 48 -114zM404 199h146q-12 -102 -85.5 -156.5t-177.5 -56.5l-20 -102h-71l21 107q-84 16 -132.5 71.5t-48.5 151.5q0 138 76.5 233.5t212.5 101.5l17 86h71l-17 -90q84 -13 130 -65t44 -136h-151q3 80 -43 101l-70 -359
q41 6 66 36.5t32 76.5z" />
    <glyph glyph-name="sterling" unicode="&#xa3;" horiz-adv-x="635" 
d="M559 126l-24 -126h-521l17 92l33 21q65 41 92.5 79.5t21.5 109.5h-114l19 97h81l-6 42q-22 144 45 227.5t218 83.5q121 0 179.5 -63.5t42.5 -159.5h-149q8 54 -13.5 84.5t-68.5 30.5q-61 0 -89 -46.5t-17 -129.5l8 -69h198l-18 -97l-170 -1q-1 -53 -24 -91t-76 -75
l-10 -7v-2h345z" />
    <glyph glyph-name="currency" unicode="&#xa4;" horiz-adv-x="631" 
d="M226 348q0 -42 24.5 -68.5t63.5 -26.5q40 0 64.5 26.5t24.5 68.5t-24.5 68.5t-64.5 26.5q-39 0 -63.5 -26.5t-24.5 -68.5zM129 348q0 42 18 83l-97 96l86 86l96 -98q38 19 82 19t84 -20l98 100l86 -86l-101 -98q19 -38 19 -82q0 -46 -19 -82l100 -98l-86 -86l-98 99
q-36 -18 -83 -18q-45 0 -82 17l-97 -99l-85 86l98 96q-19 40 -19 85z" />
    <glyph glyph-name="yen" unicode="&#xa5;" horiz-adv-x="640" 
d="M193 0l29 148h-194l15 76h193l16 81h-195l14 76h185l-142 360h163l86 -242h2l176 242h171l-282 -360h184l-14 -76h-195l-16 -81h196l-14 -76h-196l-29 -148h-153z" />
    <glyph glyph-name="brokenbar" unicode="&#xa6;" horiz-adv-x="290" 
d="M297 788l-79 -404h-106l79 404h106zM118 -130h-106l81 417h106z" />
    <glyph glyph-name="section" unicode="&#xa7;" horiz-adv-x="626" 
d="M269 426q-28 -3 -48.5 -20t-20.5 -45q0 -38 49 -64l100 -53l26 -15q29 3 48 20.5t19 46.5q0 20 -13 36t-46 33l-93 49q-16 9 -21 12zM61 332q0 54 34 92t94 56v1q-38 47 -38 103q0 84 63.5 134t168.5 50q101 0 159 -49t50 -122h-141q3 32 -15.5 51t-56.5 19
q-35 0 -56.5 -16.5t-21.5 -47.5q0 -22 13.5 -36t46.5 -31l120 -63q52 -28 77 -62t25 -86q0 -113 -126 -154v-1q33 -34 33 -91q0 -95 -68 -144t-174 -49q-107 0 -162.5 49t-49.5 127h137q-3 -35 18.5 -55t63.5 -20q35 0 60.5 16t25.5 48q0 37 -44 60l-125 67q-57 31 -84 64.5
t-27 89.5z" />
    <glyph glyph-name="dieresis" unicode="&#xa8;" horiz-adv-x="362" 
d="M291 636l27 137h133l-27 -137h-133zM86 636l27 137h134l-27 -137h-134z" />
    <glyph glyph-name="copyright" unicode="&#xa9;" horiz-adv-x="893" 
d="M72 380q0 169 112.5 283t281.5 114t282 -114t113 -283q0 -168 -113 -282t-282 -114t-281.5 113.5t-112.5 282.5zM466 41q141 0 235.5 97.5t94.5 241.5t-94.5 242t-235.5 98t-235 -97.5t-94 -242.5q0 -144 94 -241.5t235 -97.5zM656 443h-111q5 74 -59 74q-54 0 -82.5 -55
t-28.5 -123q0 -87 72 -87q35 0 58 22.5t29 57.5h107q-9 -80 -65.5 -122t-139.5 -42q-77 0 -126 43.5t-49 127.5q0 109 61.5 185t168.5 76q82 0 125 -41t40 -116z" />
    <glyph glyph-name="ordfeminine" unicode="&#xaa;" horiz-adv-x="499" 
d="M265 397q27 0 53 24t35 72l3 16q-84 -2 -112 -20q-26 -16 -26 -50q0 -42 47 -42zM263 614h-131q3 55 54.5 96.5t137.5 41.5q101 0 144 -48t26 -134l-23 -121q-4 -22 2 -30t22 -8l-18 -92h-29q-52 0 -73.5 10.5t-30.5 46.5h-3q-42 -62 -126 -62q-59 0 -93.5 30.5
t-34.5 83.5q0 91 84 125q24 10 57.5 15t55 6t83.5 2l3 18q12 69 -48 69q-52 0 -59 -49z" />
    <glyph glyph-name="guillemotleft" unicode="&#xab;" horiz-adv-x="533" 
d="M410 464h116l-139 -206l58 -201h-114l-66 206zM195 464h116l-138 -206l58 -201h-115l-66 206z" />
    <glyph glyph-name="logicalnot" unicode="&#xac;" horiz-adv-x="616" 
d="M59 300l23 116h496l-61 -312h-125l38 196h-371z" />
    <glyph glyph-name="registered" unicode="&#xae;" horiz-adv-x="496" 
d="M91 557q5 93 69.5 156t157.5 63t152 -63t54 -156t-70.5 -155.5t-158.5 -62.5t-151 62.5t-53 155.5zM297 377q74 0 126 51.5t57 128.5q4 77 -43 129t-121 52t-125.5 -52t-55.5 -129q-5 -77 41.5 -128.5t120.5 -51.5zM282 578h29q39 0 42 34q1 14 -8.5 21t-25.5 7h-28z
M277 538l-13 -86h-55l32 225h96q33 0 52.5 -18t17.5 -47q-3 -48 -53 -65l34 -95h-59l-28 86h-24z" />
    <glyph glyph-name="macron" unicode="&#xaf;" horiz-adv-x="336" 
d="M71 636l20 104h335l-19 -104h-336z" />
    <glyph glyph-name="degree" unicode="&#xb0;" horiz-adv-x="416" 
d="M103 594q2 72 50.5 120.5t120.5 48.5q73 0 120.5 -48.5t46.5 -120.5q-1 -74 -50 -121t-123 -47q-73 0 -120 48t-45 120zM270 503q38 0 62 25.5t25 65.5t-22 66t-62 26q-38 0 -62 -26t-24 -66q-2 -40 21.5 -65.5t61.5 -25.5z" />
    <glyph glyph-name="plusminus" unicode="&#xb1;" horiz-adv-x="626" 
d="M393 369l-33 -170h-125l33 170h-185l22 116h185l32 168h125l-32 -168h186l-23 -116h-185zM12 0l21 115h496l-22 -115h-495z" />
    <glyph glyph-name="twosuperior" unicode="&#xb2;" horiz-adv-x="414" 
d="M234 674h-110q7 71 56 109.5t134 38.5q66 0 106 -29.5t40 -85.5q0 -49 -29 -85.5t-83 -75.5l-105 -77v-2h181l-16 -83h-352l12 61l196 152q62 49 74 64q13 18 13 39q0 20 -14 32t-36 12q-59 0 -67 -70z" />
    <glyph glyph-name="threesuperior" unicode="&#xb3;" horiz-adv-x="421" 
d="M280 568h-54l14 68h48q31 0 50.5 17.5t19.5 44.5q0 21 -14.5 33t-37.5 12q-56 0 -66 -56h-109q6 58 53.5 96.5t129.5 38.5q72 0 113.5 -28.5t41.5 -78.5q0 -87 -95 -110v-2q72 -21 72 -89q0 -66 -52.5 -102.5t-137.5 -36.5q-81 0 -125.5 35t-38.5 101h108
q-1 -26 15.5 -40.5t45.5 -14.5q33 0 52 18t19 46q0 48 -52 48z" />
    <glyph glyph-name="acute" unicode="&#xb4;" horiz-adv-x="362" 
d="M164 614l82 174h156l-120 -174h-118z" />
    <glyph glyph-name="paragraph" unicode="&#xb6;" horiz-adv-x="575" 
d="M512 765h97l-148 -765h-97zM260 374q-79 2 -126 48.5t-47 123.5q0 103 69 161t174 58h103l-148 -765h-97z" />
    <glyph glyph-name="periodcentered" unicode="&#xb7;" horiz-adv-x="323" 
d="M75 267l31 159h166l-31 -159h-166z" />
    <glyph glyph-name="cedilla" unicode="&#xb8;" horiz-adv-x="507" 
d="M158 24h55l-45 -90h2q20 15 50 15q31 0 50.5 -19t19.5 -50q0 -48 -33 -76.5t-94 -28.5q-43 0 -73 19.5t-27 58.5h77q3 -20 29 -20q17 0 27 9.5t10 24.5q0 29 -28 29q-19 0 -30 -13h-62z" />
    <glyph glyph-name="onesuperior" unicode="&#xb9;" horiz-adv-x="294" 
d="M140 384l59 280h-94l17 79h15q44 0 69 16q27 18 34 56h103l-91 -431h-112z" />
    <glyph glyph-name="ordmasculine" unicode="&#xba;" horiz-adv-x="500" 
d="M278 310q-89 0 -143.5 46.5t-54.5 131.5q0 108 65.5 185.5t179.5 77.5q89 0 144 -48t55 -130q0 -117 -66 -190t-180 -73zM388 578q0 33 -15.5 55.5t-49.5 22.5q-36 0 -60.5 -30t-33.5 -67t-9 -75q0 -80 66 -80q38 0 62.5 32.5t32 68.5t7.5 73z" />
    <glyph glyph-name="guillemotright" unicode="&#xbb;" horiz-adv-x="533" 
d="M127 57h-117l140 206l-59 201h115l64 -205zM347 57h-116l139 206l-58 201h115l65 -205z" />
    <glyph glyph-name="onequarter" unicode="&#xbc;" horiz-adv-x="870" 
d="M130 334l59 280h-94l17 78h15q41 0 69 16q27 18 34 57h103l-91 -431h-112zM33 -40l694 821h108l-694 -821h-108zM551 169h118l39 183h-2q-18 -35 -53 -73zM808 91h-56l-19 -91h-103l19 91h-220l15 75l247 265h133l-54 -256h56z" />
    <glyph glyph-name="onehalf" unicode="&#xbd;" horiz-adv-x="913" 
d="M22 -40l694 821h108l-694 -821h-108zM130 334l59 280h-94l17 78h15q41 0 69 16q27 18 34 57h103l-91 -431h-112zM650 290h-110q8 70 57 108.5t133 38.5q66 0 106 -29t40 -85q0 -49 -29 -85.5t-83 -75.5l-105 -77v-2h181l-16 -83h-352l12 60l196 153q6 4 17 13t15.5 12.5
t13 10t11.5 9.5l9 9t8 9.5t5.5 8.5t4.5 9.5t2 9.5t1 11q0 20 -13.5 32t-36.5 12q-59 0 -67 -69z" />
    <glyph glyph-name="threequarters" unicode="&#xbe;" horiz-adv-x="968" 
d="M270 518h-54l14 67h48q31 0 50.5 18t19.5 45q0 21 -14.5 32.5t-37.5 11.5q-56 0 -66 -55h-109q6 57 53.5 95.5t129.5 38.5q72 0 113.5 -28.5t41.5 -78.5q0 -85 -95 -110v-2q72 -21 72 -89q0 -66 -52.5 -102t-137.5 -36q-81 0 -125.5 35t-38.5 101h108q-1 -27 15 -41
t46 -14q33 0 52 18t19 45q0 49 -52 49zM142 -40l694 821h108l-694 -821h-108zM649 169h118l39 183h-2q-18 -35 -53 -73zM906 91h-56l-19 -91h-103l19 91h-220l15 75l247 265h133l-54 -256h56z" />
    <glyph glyph-name="questiondown" unicode="&#xbf;" horiz-adv-x="585" 
d="M250 435h138l-11 -57q-10 -51 -26.5 -76t-63.5 -57l-65 -44q-75 -51 -75 -118q0 -39 25.5 -61.5t70.5 -22.5q57 0 90.5 36t35.5 107h149q-4 -119 -77 -191t-208 -72q-106 0 -172.5 51.5t-66.5 139.5q0 71 32 120.5t96 91.5l72 48q26 17 35 31.5t15 43.5zM450 674
l-29 -152h-172l30 152h171z" />
    <glyph glyph-name="Agrave" unicode="&#xc0;" horiz-adv-x="746" 
d="M428 627q-7 -29 -51 -118l-106 -219h199l-29 215l-11 122h-2zM513 0l-26 172h-274l-85 -172h-159l397 765h180l129 -765h-162zM489 960l40 -133h-112l-76 133h148z" />
    <glyph glyph-name="Aacute" unicode="&#xc1;" horiz-adv-x="746" 
d="M428 627q-7 -29 -51 -118l-106 -219h199l-29 215l-11 122h-2zM513 0l-26 172h-274l-85 -172h-159l397 765h180l129 -765h-162zM402 827l82 133h154l-120 -133h-116z" />
    <glyph glyph-name="Acircumflex" unicode="&#xc2;" horiz-adv-x="746" 
d="M428 627q-7 -29 -51 -118l-106 -219h199l-29 215l-11 122h-2zM513 0l-26 172h-274l-85 -172h-159l397 765h180l129 -765h-162zM553 960l79 -133h-107l-51 56h-1l-69 -56h-110l126 133h133z" />
    <glyph glyph-name="Atilde" unicode="&#xc3;" horiz-adv-x="746" 
d="M428 627q-7 -29 -51 -118l-106 -219h199l-29 215l-11 122h-2zM513 0l-26 172h-274l-85 -172h-159l397 765h180l129 -765h-162zM280 820q7 62 46 108t101 46q33 0 70.5 -25t57.5 -25q19 0 31.5 11t20.5 40h77q-7 -67 -43.5 -110.5t-93.5 -43.5q-40 0 -80.5 25t-56.5 25
q-33 0 -54 -51h-76z" />
    <glyph glyph-name="Adieresis" unicode="&#xc4;" horiz-adv-x="746" 
d="M428 627q-7 -29 -51 -118l-106 -219h199l-29 215l-11 122h-2zM513 0l-26 172h-274l-85 -172h-159l397 765h180l129 -765h-162zM507 828l27 137h133l-27 -137h-133zM296 828l26 137h134l-27 -137h-133z" />
    <glyph glyph-name="Aring" unicode="&#xc5;" horiz-adv-x="746" 
d="M428 627q-7 -29 -51 -118l-106 -219h199l-29 215l-11 122h-2zM513 0l-26 172h-274l-85 -172h-159l397 765h180l129 -765h-162zM475 796q-55 1 -90.5 29.5t-35.5 81.5q0 60 38 97.5t98 37.5q61 0 94 -30.5t33 -80.5q0 -61 -38.5 -98t-98.5 -37zM486 979q-27 0 -43 -19
t-16 -50q0 -24 12.5 -38t36.5 -14q25 0 41 19t16 50q0 52 -47 52z" />
    <glyph glyph-name="AE" unicode="&#xc6;" horiz-adv-x="1055" 
d="M503 303l65 337h-54q-36 -66 -68 -118l-135 -219h192zM444 0l35 183h-242l-113 -183h-176l488 765h647l-24 -125h-330l-38 -197h313l-24 -122h-313l-38 -197h340l-23 -124h-502z" />
    <glyph glyph-name="Ccedilla" unicode="&#xc7;" horiz-adv-x="760" 
d="M315 -225q-43 0 -73 19.5t-27 58.5h77q3 -20 29 -20q17 0 27 9.5t10 24.5q0 29 -28 29q-19 0 -30 -13h-62l55 109q-109 21 -167.5 98t-58.5 209q0 91 26 175t74.5 152.5t128 109t177.5 40.5q130 0 207 -66t77 -204h-168q2 72 -28.5 111t-94.5 38q-60 -1 -106 -36.5
t-71 -92.5t-37.5 -119.5t-12.5 -128.5q0 -75 34 -124t111 -49q135 0 169 155h164q-22 -130 -112 -203t-226 -73q-23 0 -33 1l-26 -51h2q20 15 50 15q31 0 50.5 -19t19.5 -50q0 -48 -33 -76.5t-94 -28.5z" />
    <glyph glyph-name="Egrave" unicode="&#xc8;" horiz-adv-x="636" 
d="M454 960l40 -133h-112l-76 133h148zM27 0l148 765h489l-24 -125h-328l-38 -197h311l-24 -122h-311l-38 -197h340l-24 -124h-501z" />
    <glyph glyph-name="Eacute" unicode="&#xc9;" horiz-adv-x="636" 
d="M367 827l82 133h154l-120 -133h-116zM27 0l148 765h489l-24 -125h-328l-38 -197h311l-24 -122h-311l-38 -197h340l-24 -124h-501z" />
    <glyph glyph-name="Ecircumflex" unicode="&#xca;" horiz-adv-x="636" 
d="M523 960l79 -133h-107l-51 56h-1l-69 -56h-110l126 133h133zM27 0l148 765h489l-24 -125h-328l-38 -197h311l-24 -122h-311l-38 -197h340l-24 -124h-501z" />
    <glyph glyph-name="Edieresis" unicode="&#xcb;" horiz-adv-x="636" 
d="M27 0l148 765h489l-24 -125h-328l-38 -197h311l-24 -122h-311l-38 -197h340l-24 -124h-501zM472 828l27 137h133l-27 -137h-133zM261 828l26 137h134l-27 -137h-133z" />
    <glyph glyph-name="Igrave" unicode="&#xcc;" horiz-adv-x="312" 
d="M27 0l148 765h162l-148 -765h-162zM289 960l40 -133h-112l-76 133h148z" />
    <glyph glyph-name="Iacute" unicode="&#xcd;" horiz-adv-x="312" 
d="M27 0l148 765h162l-148 -765h-162zM201 827l82 133h154l-120 -133h-116z" />
    <glyph glyph-name="Icircumflex" unicode="&#xce;" horiz-adv-x="312" 
d="M27 0l148 765h162l-148 -765h-162zM358 960l79 -133h-107l-51 56h-1l-69 -56h-110l126 133h133z" />
    <glyph glyph-name="Idieresis" unicode="&#xcf;" horiz-adv-x="312" 
d="M27 0l148 765h162l-148 -765h-162zM307 828l27 137h133l-27 -137h-133zM96 828l26 137h134l-27 -137h-133z" />
    <glyph glyph-name="Eth" unicode="&#xd0;" horiz-adv-x="764" 
d="M313 0h-280l64 329h-75l22 111h74l63 325h241q150 0 238 -79.5t88 -228.5q0 -96 -27.5 -178t-80.5 -144.5t-137 -98.5t-190 -36zM217 123h105q68 0 119 29.5t80 79.5t43 109.5t14 127.5q0 174 -172 174h-88l-39 -203h162l-22 -111h-162z" />
    <glyph glyph-name="Ntilde" unicode="&#xd1;" horiz-adv-x="765" 
d="M306 820q7 62 46 108t101 46q33 0 70.5 -25t57.5 -25q19 0 31.5 11t20.5 40h77q-7 -67 -43.5 -110.5t-93.5 -43.5q-40 0 -80.5 25t-56.5 25q-33 0 -54 -51h-76zM27 0l148 765h171l158 -425q11 -29 19 -57.5t11 -42.5l2 -13h3l104 538h145l-148 -765h-158l-166 431
q-12 30 -20.5 59.5t-11.5 43.5l-3 14h-3l-106 -548h-145z" />
    <glyph glyph-name="Ograve" unicode="&#xd2;" horiz-adv-x="804" 
d="M530 960l40 -133h-112l-76 133h148zM67 294q0 132 48.5 241t142.5 175t215 66q137 0 224 -81.5t86 -233.5q0 -94 -26.5 -179t-76 -152t-127.5 -106.5t-173 -39.5q-139 0 -225.5 77t-87.5 233zM613 481q0 77 -34.5 127t-110.5 50q-49 0 -89.5 -25.5t-66 -65t-43 -91
t-25 -101.5t-7.5 -98q0 -75 35 -124t114 -49q57 0 102.5 37t71.5 95.5t39.5 121.5t13.5 123z" />
    <glyph glyph-name="Oacute" unicode="&#xd3;" horiz-adv-x="804" 
d="M442 827l82 133h154l-120 -133h-116zM67 294q0 132 48.5 241t142.5 175t215 66q137 0 224 -81.5t86 -233.5q0 -94 -26.5 -179t-76 -152t-127.5 -106.5t-173 -39.5q-139 0 -225.5 77t-87.5 233zM613 481q0 77 -34.5 127t-110.5 50q-49 0 -89.5 -25.5t-66 -65t-43 -91
t-25 -101.5t-7.5 -98q0 -75 35 -124t114 -49q57 0 102.5 37t71.5 95.5t39.5 121.5t13.5 123z" />
    <glyph glyph-name="Ocircumflex" unicode="&#xd4;" horiz-adv-x="804" 
d="M598 960l79 -133h-107l-51 56h-1l-69 -56h-110l126 133h133zM67 294q0 132 48.5 241t142.5 175t215 66q137 0 224 -81.5t86 -233.5q0 -94 -26.5 -179t-76 -152t-127.5 -106.5t-173 -39.5q-139 0 -225.5 77t-87.5 233zM613 481q0 77 -34.5 127t-110.5 50
q-49 0 -89.5 -25.5t-66 -65t-43 -91t-25 -101.5t-7.5 -98q0 -75 35 -124t114 -49q57 0 102.5 37t71.5 95.5t39.5 121.5t13.5 123z" />
    <glyph glyph-name="Otilde" unicode="&#xd5;" horiz-adv-x="804" 
d="M319 820q7 62 46 108t101 46q33 0 70.5 -25t57.5 -25q19 0 31.5 11t20.5 40h77q-7 -67 -43.5 -110.5t-93.5 -43.5q-40 0 -80.5 25t-56.5 25q-33 0 -54 -51h-76zM67 294q0 132 48.5 241t142.5 175t215 66q137 0 224 -81.5t86 -233.5q0 -94 -26.5 -179t-76 -152
t-127.5 -106.5t-173 -39.5q-139 0 -225.5 77t-87.5 233zM613 481q0 77 -34.5 127t-110.5 50q-49 0 -89.5 -25.5t-66 -65t-43 -91t-25 -101.5t-7.5 -98q0 -75 35 -124t114 -49q57 0 102.5 37t71.5 95.5t39.5 121.5t13.5 123z" />
    <glyph glyph-name="Odieresis" unicode="&#xd6;" horiz-adv-x="804" 
d="M548 828l27 137h133l-27 -137h-133zM337 828l26 137h134l-27 -137h-133zM67 294q0 132 48.5 241t142.5 175t215 66q137 0 224 -81.5t86 -233.5q0 -94 -26.5 -179t-76 -152t-127.5 -106.5t-173 -39.5q-139 0 -225.5 77t-87.5 233zM613 481q0 77 -34.5 127t-110.5 50
q-49 0 -89.5 -25.5t-66 -65t-43 -91t-25 -101.5t-7.5 -98q0 -75 35 -124t114 -49q57 0 102.5 37t71.5 95.5t39.5 121.5t13.5 123z" />
    <glyph glyph-name="multiply" unicode="&#xd7;" horiz-adv-x="637" 
d="M139 97l-76 97l187 159l-134 168l102 86l131 -168l184 162l78 -98l-187 -159l133 -168l-103 -87l-129 170z" />
    <glyph glyph-name="Oslash" unicode="&#xd8;" horiz-adv-x="804" 
d="M468 659q-62 0 -110.5 -39.5t-75 -100.5t-39 -123t-12.5 -119q0 -12 2 -34l355 362q-38 54 -120 54zM386 103q58 0 105.5 39t74 98.5t40 122t13.5 118.5q0 23 -3 42l-356 -363q36 -57 126 -57zM783 461q0 -94 -26.5 -179t-76 -152t-127.5 -106.5t-173 -39.5
q-139 0 -221 73l-81 -82h-107l139 142q-43 73 -43 177q0 132 48.5 241t142.5 175t215 66q129 0 212 -71l85 86h109l-143 -146q47 -75 47 -184z" />
    <glyph glyph-name="Ugrave" unicode="&#xd9;" horiz-adv-x="744" 
d="M502 960l40 -133h-112l-76 133h148zM76 295l91 470h161l-90 -461q-20 -102 9 -145q31 -45 113 -45q76 0 117 44q20 22 29 49.5t18 77.5l93 480h159l-98 -507q-53 -274 -325 -274q-160 0 -233.5 80.5t-43.5 230.5z" />
    <glyph glyph-name="Uacute" unicode="&#xda;" horiz-adv-x="744" 
d="M414 827l82 133h154l-120 -133h-116zM76 295l91 470h161l-90 -461q-20 -102 9 -145q31 -45 113 -45q76 0 117 44q20 22 29 49.5t18 77.5l93 480h159l-98 -507q-53 -274 -325 -274q-160 0 -233.5 80.5t-43.5 230.5z" />
    <glyph glyph-name="Ucircumflex" unicode="&#xdb;" horiz-adv-x="744" 
d="M570 960l79 -133h-107l-51 56h-1l-69 -56h-110l126 133h133zM76 295l91 470h161l-90 -461q-20 -102 9 -145q31 -45 113 -45q76 0 117 44q20 22 29 49.5t18 77.5l93 480h159l-98 -507q-53 -274 -325 -274q-160 0 -233.5 80.5t-43.5 230.5z" />
    <glyph glyph-name="Udieresis" unicode="&#xdc;" horiz-adv-x="744" 
d="M76 295l91 470h161l-90 -461q-20 -102 9 -145q31 -45 113 -45q76 0 117 44q20 22 29 49.5t18 77.5l93 480h159l-98 -507q-53 -274 -325 -274q-160 0 -233.5 80.5t-43.5 230.5zM520 828l27 137h133l-27 -137h-133zM309 828l26 137h134l-27 -137h-133z" />
    <glyph glyph-name="Yacute" unicode="&#xdd;" horiz-adv-x="683" 
d="M212 0l64 330l-166 435h170l103 -301h2l217 301h169l-337 -452l-61 -313h-161zM389 827l82 133h154l-120 -133h-116z" />
    <glyph glyph-name="Thorn" unicode="&#xde;" horiz-adv-x="649" 
d="M345 274h6q63 2 100.5 34.5t38.5 93.5q3 108 -126 108h-77l-46 -236h104zM354 159h-135l-31 -159h-161l148 765h161l-28 -143h85q119 0 188.5 -53.5t66.5 -163.5q-4 -125 -83.5 -185.5t-210.5 -60.5z" />
    <glyph glyph-name="germandbls" unicode="&#xdf;" horiz-adv-x="636" 
d="M14 0l110 572q19 103 88 161t184 58q95 0 155.5 -48t60.5 -139q-1 -69 -38 -120t-104 -69v-3q56 -14 89 -58t33 -109q0 -118 -82 -181.5t-216 -63.5h-56l22 116h33q63 0 101.5 35t38.5 101q0 49 -27 78t-75 29h-11l22 114h14q55 0 84 33t29 92q0 39 -21.5 64t-58.5 25
q-41 0 -69.5 -28.5t-39.5 -85.5l-110 -573h-156z" />
    <glyph glyph-name="agrave" unicode="&#xe0;" horiz-adv-x="576" 
d="M239 94q43 0 73 35.5t42 97.5l3 15q-79 -2 -113 -9q-72 -15 -72 -74q0 -31 18 -48t49 -17zM226 377h-150q9 78 72 124.5t169 46.5q124 0 174 -61.5t30 -165.5l-31 -162q-6 -28 3.5 -39t34.5 -11l-22 -110h-45q-95 0 -112 69h-3q-36 -39 -71.5 -56.5t-91.5 -17.5
q-71 0 -118 38.5t-47 112.5q0 124 140 163q54 15 215 17l5 28q8 45 -9.5 69t-58.5 24q-74 0 -84 -69zM370 788l36 -174h-115l-73 174h152z" />
    <glyph glyph-name="aacute" unicode="&#xe1;" horiz-adv-x="576" 
d="M239 94q43 0 73 35.5t42 97.5l3 15q-79 -2 -113 -9q-72 -15 -72 -74q0 -31 18 -48t49 -17zM226 377h-150q9 78 72 124.5t169 46.5q124 0 174 -61.5t30 -165.5l-31 -162q-6 -28 3.5 -39t34.5 -11l-22 -110h-45q-95 0 -112 69h-3q-36 -39 -71.5 -56.5t-91.5 -17.5
q-71 0 -118 38.5t-47 112.5q0 124 140 163q54 15 215 17l5 28q8 45 -9.5 69t-58.5 24q-74 0 -84 -69zM277 614l82 174h156l-120 -174h-118z" />
    <glyph glyph-name="acircumflex" unicode="&#xe2;" horiz-adv-x="576" 
d="M239 94q43 0 73 35.5t42 97.5l3 15q-79 -2 -113 -9q-72 -15 -72 -74q0 -31 18 -48t49 -17zM226 377h-150q9 78 72 124.5t169 46.5q124 0 174 -61.5t30 -165.5l-31 -162q-6 -28 3.5 -39t34.5 -11l-22 -110h-45q-95 0 -112 69h-3q-36 -39 -71.5 -56.5t-91.5 -17.5
q-71 0 -118 38.5t-47 112.5q0 124 140 163q54 15 215 17l5 28q8 45 -9.5 69t-58.5 24q-74 0 -84 -69zM437 788l72 -174h-103l-48 78l-73 -78h-108l137 174h123z" />
    <glyph glyph-name="atilde" unicode="&#xe3;" horiz-adv-x="576" 
d="M239 94q43 0 73 35.5t42 97.5l3 15q-79 -2 -113 -9q-72 -15 -72 -74q0 -31 18 -48t49 -17zM226 377h-150q9 78 72 124.5t169 46.5q124 0 174 -61.5t30 -165.5l-31 -162q-6 -28 3.5 -39t34.5 -11l-22 -110h-45q-95 0 -112 69h-3q-36 -39 -71.5 -56.5t-91.5 -17.5
q-71 0 -118 38.5t-47 112.5q0 124 140 163q54 15 215 17l5 28q8 45 -9.5 69t-58.5 24q-74 0 -84 -69zM159 614q6 69 44 116.5t101 47.5q32 0 69.5 -25.5t54.5 -25.5q35 0 55 52h76q-7 -71 -44 -118t-100 -47q-32 0 -71.5 25.5t-56.5 25.5q-36 0 -53 -51h-75z" />
    <glyph glyph-name="adieresis" unicode="&#xe4;" horiz-adv-x="576" 
d="M239 94q43 0 73 35.5t42 97.5l3 15q-79 -2 -113 -9q-72 -15 -72 -74q0 -31 18 -48t49 -17zM226 377h-150q9 78 72 124.5t169 46.5q124 0 174 -61.5t30 -165.5l-31 -162q-6 -28 3.5 -39t34.5 -11l-22 -110h-45q-95 0 -112 69h-3q-36 -39 -71.5 -56.5t-91.5 -17.5
q-71 0 -118 38.5t-47 112.5q0 124 140 163q54 15 215 17l5 28q8 45 -9.5 69t-58.5 24q-74 0 -84 -69zM383 636l27 137h133l-27 -137h-133zM178 636l27 137h134l-27 -137h-134z" />
    <glyph glyph-name="aring" unicode="&#xe5;" horiz-adv-x="576" 
d="M239 94q43 0 73 35.5t42 97.5l3 15q-79 -2 -113 -9q-72 -15 -72 -74q0 -31 18 -48t49 -17zM226 377h-150q9 78 72 124.5t169 46.5q124 0 174 -61.5t30 -165.5l-31 -162q-6 -28 3.5 -39t34.5 -11l-22 -110h-45q-95 0 -112 69h-3q-36 -39 -71.5 -56.5t-91.5 -17.5
q-71 0 -118 38.5t-47 112.5q0 124 140 163q54 15 215 17l5 28q8 45 -9.5 69t-58.5 24q-74 0 -84 -69zM358 602q-55 1 -90.5 29.5t-35.5 80.5q0 60 38.5 98t97.5 38q61 0 94.5 -31t33.5 -80q0 -61 -38.5 -98t-99.5 -37zM369 785q-27 0 -42.5 -19t-15.5 -51q0 -23 12.5 -37
t35.5 -14q26 0 42 18.5t16 49.5q0 24 -12.5 38.5t-35.5 14.5z" />
    <glyph glyph-name="ae" unicode="&#xe6;" horiz-adv-x="905" 
d="M724 321l1 7q17 122 -76 122q-44 0 -75.5 -35.5t-47.5 -93.5h198zM239 94q88 0 115 133l3 15q-79 -2 -113 -9q-72 -15 -72 -74q0 -31 18 -48t49 -17zM845 156q-17 -83 -81 -124t-165 -41q-147 0 -201 100h-2q-39 -47 -86 -72t-124 -25q-74 0 -121 38.5t-47 111.5
q0 125 140 164q54 15 215 17l5 28q8 45 -10 69t-59 24q-75 0 -83 -69h-150q9 82 72.5 126.5t171.5 44.5q115 0 159 -79h1q68 80 177 80q87 0 140.5 -39.5t69.5 -101.5t1 -140l-7 -37h-349q-1 -8 -1 -25q0 -114 91 -114q38 0 62 18t30 46h151z" />
    <glyph glyph-name="ccedilla" unicode="&#xe7;" horiz-adv-x="591" 
d="M219 -225q-43 0 -73 19.5t-27 58.5h77q3 -20 29 -20q17 0 27 9.5t10 24.5q0 29 -28 29q-19 0 -30 -13h-62l57 112q-76 19 -119.5 74t-43.5 145q0 142 81 238.5t224 96.5q108 0 170 -55t59 -150h-156q2 45 -17 72t-61 27q-46 0 -79 -38.5t-47 -90t-14 -106.5
q0 -53 23 -83.5t69 -30.5t74.5 29.5t36.5 75.5h151q-12 -103 -87.5 -158t-181.5 -55q-20 0 -30 1l-27 -53h2q20 15 50 15q31 0 50.5 -19t19.5 -50q0 -48 -33 -76.5t-94 -28.5z" />
    <glyph glyph-name="egrave" unicode="&#xe8;" horiz-adv-x="589" 
d="M405 321l1 7q17 122 -76 122q-46 0 -77.5 -35t-46.5 -94h199zM529 156q-17 -83 -85.5 -126.5t-167.5 -43.5q-112 0 -176.5 60t-64.5 166q0 90 34 165.5t104.5 123.5t163.5 48q129 0 183.5 -81.5t31.5 -199.5l-7 -37h-352q-1 -8 -1 -25q0 -113 92 -113q38 0 61.5 17.5
t29.5 45.5h154zM391 788l36 -174h-115l-73 174h152z" />
    <glyph glyph-name="eacute" unicode="&#xe9;" horiz-adv-x="589" 
d="M299 614l82 174h156l-120 -174h-118zM405 321l1 7q17 122 -76 122q-46 0 -77.5 -35t-46.5 -94h199zM529 156q-17 -83 -85.5 -126.5t-167.5 -43.5q-112 0 -176.5 60t-64.5 166q0 90 34 165.5t104.5 123.5t163.5 48q129 0 183.5 -81.5t31.5 -199.5l-7 -37h-352
q-1 -8 -1 -25q0 -113 92 -113q38 0 61.5 17.5t29.5 45.5h154z" />
    <glyph glyph-name="ecircumflex" unicode="&#xea;" horiz-adv-x="589" 
d="M459 788l72 -174h-103l-48 78l-73 -78h-108l137 174h123zM405 321l1 7q17 122 -76 122q-46 0 -77.5 -35t-46.5 -94h199zM529 156q-17 -83 -85.5 -126.5t-167.5 -43.5q-112 0 -176.5 60t-64.5 166q0 90 34 165.5t104.5 123.5t163.5 48q129 0 183.5 -81.5t31.5 -199.5
l-7 -37h-352q-1 -8 -1 -25q0 -113 92 -113q38 0 61.5 17.5t29.5 45.5h154z" />
    <glyph glyph-name="edieresis" unicode="&#xeb;" horiz-adv-x="589" 
d="M405 636l27 137h133l-27 -137h-133zM200 636l27 137h134l-27 -137h-134zM405 321l1 7q17 122 -76 122q-46 0 -77.5 -35t-46.5 -94h199zM529 156q-17 -83 -85.5 -126.5t-167.5 -43.5q-112 0 -176.5 60t-64.5 166q0 90 34 165.5t104.5 123.5t163.5 48q129 0 183.5 -81.5
t31.5 -199.5l-7 -37h-352q-1 -8 -1 -25q0 -113 92 -113q38 0 61.5 17.5t29.5 45.5h154z" />
    <glyph glyph-name="igrave" unicode="&#xec;" horiz-adv-x="289" 
d="M18 0l104 536h156l-104 -536h-156zM241 788l36 -174h-115l-73 174h152z" />
    <glyph glyph-name="iacute" unicode="&#xed;" horiz-adv-x="289" 
d="M148 614l82 174h156l-120 -174h-118zM18 0l104 536h156l-104 -536h-156z" />
    <glyph glyph-name="icircumflex" unicode="&#xee;" horiz-adv-x="289" 
d="M309 788l60 -174h-100l-39 78l-63 -78h-108l127 174h123zM18 0l104 536h156l-104 -536h-156z" />
    <glyph glyph-name="idieresis" unicode="&#xef;" horiz-adv-x="289" 
d="M249 636l26 137h114l-27 -137h-113zM76 636l27 137h113l-27 -137h-113zM18 0l104 536h156l-104 -536h-156z" />
    <glyph glyph-name="eth" unicode="&#xf0;" horiz-adv-x="608" 
d="M276 -14q-110 0 -175 58.5t-65 169.5q0 82 30.5 156t94.5 124.5t149 50.5q75 0 111 -46h2q-21 69 -81 129l-152 -55l-18 61l114 42q-43 31 -107 65l124 55q68 -30 119 -70l110 40l20 -61l-77 -28q108 -118 108 -285q0 -203 -83 -304.5t-224 -101.5zM419 335
q0 49 -20.5 80t-64.5 31q-37 0 -65.5 -24t-44 -62.5t-23 -78t-7.5 -77.5q0 -51 21.5 -81t66.5 -30q39 0 67 24.5t42.5 64t21 78t6.5 75.5z" />
    <glyph glyph-name="ntilde" unicode="&#xf1;" horiz-adv-x="632" 
d="M363 0l58 304q8 35 8 59q0 70 -68 70q-52 0 -86 -40t-48 -113l-53 -280h-156l104 536h150l-19 -94h2q63 105 184 105q87 0 125 -56t17 -164l-63 -327h-155zM201 614q6 69 44 116.5t101 47.5q32 0 69.5 -25.5t54.5 -25.5q35 0 55 52h76q-7 -71 -44 -118t-100 -47
q-32 0 -71.5 25.5t-56.5 25.5q-36 0 -53 -51h-75z" />
    <glyph glyph-name="ograve" unicode="&#xf2;" horiz-adv-x="606" 
d="M276 -14q-109 0 -174.5 58.5t-65.5 167.5q0 138 80.5 237.5t219.5 99.5q109 0 175.5 -60.5t66.5 -164.5q0 -146 -82 -242t-220 -96zM419 335q0 45 -19.5 76.5t-66.5 31.5q-37 0 -65 -24t-43.5 -61.5t-23 -76.5t-7.5 -77q0 -111 88 -111q39 0 67.5 25t42.5 65t20.5 78
t6.5 74zM391 788l36 -174h-115l-73 174h152z" />
    <glyph glyph-name="oacute" unicode="&#xf3;" horiz-adv-x="606" 
d="M298 614l82 174h156l-120 -174h-118zM276 -14q-109 0 -174.5 58.5t-65.5 167.5q0 138 80.5 237.5t219.5 99.5q109 0 175.5 -60.5t66.5 -164.5q0 -146 -82 -242t-220 -96zM419 335q0 45 -19.5 76.5t-66.5 31.5q-37 0 -65 -24t-43.5 -61.5t-23 -76.5t-7.5 -77
q0 -111 88 -111q39 0 67.5 25t42.5 65t20.5 78t6.5 74z" />
    <glyph glyph-name="ocircumflex" unicode="&#xf4;" horiz-adv-x="606" 
d="M459 788l72 -174h-103l-48 78l-73 -78h-108l137 174h123zM276 -14q-109 0 -174.5 58.5t-65.5 167.5q0 138 80.5 237.5t219.5 99.5q109 0 175.5 -60.5t66.5 -164.5q0 -146 -82 -242t-220 -96zM419 335q0 45 -19.5 76.5t-66.5 31.5q-37 0 -65 -24t-43.5 -61.5t-23 -76.5
t-7.5 -77q0 -111 88 -111q39 0 67.5 25t42.5 65t20.5 78t6.5 74z" />
    <glyph glyph-name="otilde" unicode="&#xf5;" horiz-adv-x="606" 
d="M276 -14q-109 0 -174.5 58.5t-65.5 167.5q0 138 80.5 237.5t219.5 99.5q109 0 175.5 -60.5t66.5 -164.5q0 -146 -82 -242t-220 -96zM419 335q0 45 -19.5 76.5t-66.5 31.5q-37 0 -65 -24t-43.5 -61.5t-23 -76.5t-7.5 -77q0 -111 88 -111q39 0 67.5 25t42.5 65t20.5 78
t6.5 74zM180 614q6 69 44 116.5t101 47.5q32 0 69.5 -25.5t54.5 -25.5q35 0 55 52h76q-7 -71 -44 -118t-100 -47q-32 0 -71.5 25.5t-56.5 25.5q-36 0 -53 -51h-75z" />
    <glyph glyph-name="odieresis" unicode="&#xf6;" horiz-adv-x="606" 
d="M404 636l27 137h133l-27 -137h-133zM199 636l27 137h134l-27 -137h-134zM276 -14q-109 0 -174.5 58.5t-65.5 167.5q0 138 80.5 237.5t219.5 99.5q109 0 175.5 -60.5t66.5 -164.5q0 -146 -82 -242t-220 -96zM419 335q0 45 -19.5 76.5t-66.5 31.5q-37 0 -65 -24
t-43.5 -61.5t-23 -76.5t-7.5 -77q0 -111 88 -111q39 0 67.5 25t42.5 65t20.5 78t6.5 74z" />
    <glyph glyph-name="divide" unicode="&#xf7;" horiz-adv-x="618" 
d="M279 492l28 143h150l-28 -143h-150zM82 300l22 116h471l-22 -116h-471zM348 78h-149l28 144h149z" />
    <glyph glyph-name="oslash" unicode="&#xf8;" horiz-adv-x="606" 
d="M333 447q-38 0 -67 -24.5t-45 -62.5t-24 -78t-8 -78v-11l217 219q-23 35 -73 35zM282 89q40 0 69.5 26t44 66t21.5 79t7 76l-214 -216q23 -31 72 -31zM578 324q0 -146 -82 -242t-220 -96q-95 0 -156 43l-66 -67h-93l113 114q-38 55 -38 136q0 138 80.5 237.5t219.5 99.5
q97 0 159 -47l69 70h93l-116 -117q37 -54 37 -131z" />
    <glyph glyph-name="ugrave" unicode="&#xf9;" horiz-adv-x="623" 
d="M272 536l-60 -306q-6 -30 -6 -54q-1 -72 67 -72q48 0 81 39t47 113l55 280h155l-104 -536h-149l18 92h-2q-64 -102 -174 -102q-91 0 -130 55.5t-18 161.5l64 329h156zM406 788l36 -174h-115l-73 174h152z" />
    <glyph glyph-name="uacute" unicode="&#xfa;" horiz-adv-x="623" 
d="M313 614l82 174h156l-120 -174h-118zM272 536l-60 -306q-6 -30 -6 -54q-1 -72 67 -72q48 0 81 39t47 113l55 280h155l-104 -536h-149l18 92h-2q-64 -102 -174 -102q-91 0 -130 55.5t-18 161.5l64 329h156z" />
    <glyph glyph-name="ucircumflex" unicode="&#xfb;" horiz-adv-x="623" 
d="M473 788l72 -174h-103l-48 78l-73 -78h-108l137 174h123zM272 536l-60 -306q-6 -30 -6 -54q-1 -72 67 -72q48 0 81 39t47 113l55 280h155l-104 -536h-149l18 92h-2q-64 -102 -174 -102q-91 0 -130 55.5t-18 161.5l64 329h156z" />
    <glyph glyph-name="udieresis" unicode="&#xfc;" horiz-adv-x="623" 
d="M419 636l27 137h133l-27 -137h-133zM214 636l27 137h134l-27 -137h-134zM272 536l-60 -306q-6 -30 -6 -54q-1 -72 67 -72q48 0 81 39t47 113l55 280h155l-104 -536h-149l18 92h-2q-64 -102 -174 -102q-91 0 -130 55.5t-18 161.5l64 329h156z" />
    <glyph glyph-name="yacute" unicode="&#xfd;" horiz-adv-x="560" 
d="M161 -1l-91 537h157l33 -281q3 -26 4.5 -54t1.5 -43l-1 -15h2q19 51 42 100l136 293h155l-298 -568q-48 -91 -101.5 -129t-147.5 -38q-63 0 -83 10l23 114q21 -6 52 -6q43 0 67.5 14.5t41.5 50.5zM290 614l82 174h156l-120 -174h-118z" />
    <glyph glyph-name="thorn" unicode="&#xfe;" horiz-adv-x="633" 
d="M308 93q45 0 77.5 38t46.5 90t14 108q0 109 -84 109q-47 0 -83.5 -35.5t-47.5 -93.5l-12 -65q-14 -65 8 -108t81 -43zM-19 -188l190 976h156l-66 -337h2q59 96 167 96q84 0 129 -56.5t45 -155.5q0 -61 -15.5 -120t-46 -111.5t-84 -84.5t-121.5 -32q-51 0 -91 23.5
t-56 63.5h-2l-51 -262h-156z" />
    <glyph glyph-name="ydieresis" unicode="&#xff;" horiz-adv-x="560" 
d="M161 -1l-91 537h157l33 -281q3 -26 4.5 -54t1.5 -43l-1 -15h2q19 51 42 100l136 293h155l-298 -568q-48 -91 -101.5 -129t-147.5 -38q-63 0 -83 10l23 114q21 -6 52 -6q43 0 67.5 14.5t41.5 50.5zM396 636l27 137h133l-27 -137h-133zM191 636l27 137h134l-27 -137h-134z
" />
    <glyph glyph-name="Amacron" unicode="&#x100;" horiz-adv-x="746" 
d="M428 627q-7 -29 -51 -118l-106 -219h199l-29 215l-11 122h-2zM513 0l-26 172h-274l-85 -172h-159l397 765h180l129 -765h-162zM303 838l20 104h336l-21 -104h-335z" />
    <glyph glyph-name="amacron" unicode="&#x101;" horiz-adv-x="576" 
d="M239 94q43 0 73 35.5t42 97.5l3 15q-79 -2 -113 -9q-72 -15 -72 -74q0 -31 18 -48t49 -17zM226 377h-150q9 78 72 124.5t169 46.5q124 0 174 -61.5t30 -165.5l-31 -162q-6 -28 3.5 -39t34.5 -11l-22 -110h-45q-95 0 -112 69h-3q-36 -39 -71.5 -56.5t-91.5 -17.5
q-71 0 -118 38.5t-47 112.5q0 124 140 163q54 15 215 17l5 28q8 45 -9.5 69t-58.5 24q-74 0 -84 -69zM180 636l20 104h335l-19 -104h-336z" />
    <glyph glyph-name="Abreve" unicode="&#x102;" horiz-adv-x="746" 
d="M428 627q-7 -29 -51 -118l-106 -219h199l-29 215l-11 122h-2zM513 0l-26 172h-274l-85 -172h-159l397 765h180l129 -765h-162zM329 967h94q-2 -29 13 -46.5t42 -17.5q28 0 48.5 17t29.5 47h100q-16 -82 -66.5 -119.5t-123.5 -37.5q-68 0 -108.5 41.5t-28.5 115.5z" />
    <glyph glyph-name="abreve" unicode="&#x103;" horiz-adv-x="576" 
d="M239 94q43 0 73 35.5t42 97.5l3 15q-79 -2 -113 -9q-72 -15 -72 -74q0 -31 18 -48t49 -17zM226 377h-150q9 78 72 124.5t169 46.5q124 0 174 -61.5t30 -165.5l-31 -162q-6 -28 3.5 -39t34.5 -11l-22 -110h-45q-95 0 -112 69h-3q-36 -39 -71.5 -56.5t-91.5 -17.5
q-71 0 -118 38.5t-47 112.5q0 124 140 163q54 15 215 17l5 28q8 45 -9.5 69t-58.5 24q-74 0 -84 -69zM352 612q-76 0 -116 46t-23 130h98q-7 -35 6.5 -54t42.5 -19t49.5 19t27.5 54h103q-12 -89 -65.5 -132.5t-122.5 -43.5z" />
    <glyph glyph-name="Aogonek" unicode="&#x104;" horiz-adv-x="746" 
d="M636 -188h-26q-67 0 -98 18t-31 57q0 68 90 113h-58l-26 172h-274l-85 -172h-159l397 765h180l127 -760q-65 -39 -65 -75q0 -29 45 -29zM428 627q-7 -29 -51 -118l-106 -219h199l-29 215l-11 122h-2z" />
    <glyph glyph-name="aogonek" unicode="&#x105;" horiz-adv-x="576" 
d="M422 -2v3q-31 9 -48 23.5t-25 43.5h-3q-36 -39 -71.5 -56.5t-91.5 -17.5q-71 0 -118 39t-47 112q0 124 140 163q54 15 215 17l5 28q8 45 -9.5 69t-58.5 24q-74 0 -84 -69h-150q9 79 72.5 125t169.5 46q124 0 173.5 -62t28.5 -170l-30 -157q-6 -29 3 -39.5t35 -10.5
l-22 -106q-65 -38 -65 -75q0 -27 45 -27l-17 -89h-29q-68 0 -97 18.5t-29 59.5q0 37 29.5 64.5t78.5 43.5zM239 94q44 0 73.5 36t41.5 96l3 16q-79 -2 -113 -9q-72 -15 -72 -74q0 -31 18 -48t49 -17z" />
    <glyph glyph-name="Cacute" unicode="&#x106;" horiz-adv-x="760" 
d="M757 506h-168q2 72 -28.5 111t-94.5 38q-60 -1 -106 -36.5t-71 -92.5t-37.5 -119.5t-12.5 -128.5q0 -75 34 -124t111 -49q135 0 169 155h164q-22 -130 -112 -203t-226 -73q-148 0 -230 79t-82 236q0 91 26 175t74.5 152.5t128 109t177.5 40.5q130 0 207 -66t77 -204z
M432 827l82 133h154l-120 -133h-116z" />
    <glyph glyph-name="cacute" unicode="&#x107;" horiz-adv-x="591" 
d="M302 614l82 174h156l-120 -174h-118zM570 344h-156q2 45 -17 72t-61 27q-46 0 -79 -38.5t-47 -90t-14 -106.5q0 -53 23 -83.5t69 -30.5t74.5 29.5t36.5 75.5h151q-12 -103 -87.5 -158t-181.5 -55q-111 0 -178 57t-67 171q0 142 81 238.5t224 96.5q108 0 170 -55t59 -150z
" />
    <glyph glyph-name="Ccircumflex" unicode="&#x108;" horiz-adv-x="760" 
d="M581 960l79 -133h-107l-51 56h-1l-69 -56h-110l126 133h133zM757 506h-168q2 72 -28.5 111t-94.5 38q-60 -1 -106 -36.5t-71 -92.5t-37.5 -119.5t-12.5 -128.5q0 -75 34 -124t111 -49q135 0 169 155h164q-22 -130 -112 -203t-226 -73q-148 0 -230 79t-82 236q0 91 26 175
t74.5 152.5t128 109t177.5 40.5q130 0 207 -66t77 -204z" />
    <glyph glyph-name="ccircumflex" unicode="&#x109;" horiz-adv-x="591" 
d="M462 788l72 -174h-103l-48 78l-73 -78h-108l137 174h123zM570 344h-156q2 45 -17 72t-61 27q-46 0 -79 -38.5t-47 -90t-14 -106.5q0 -53 23 -83.5t69 -30.5t74.5 29.5t36.5 75.5h151q-12 -103 -87.5 -158t-181.5 -55q-111 0 -178 57t-67 171q0 142 81 238.5t224 96.5
q108 0 170 -55t59 -150z" />
    <glyph glyph-name="Cdotaccent" unicode="&#x10a;" horiz-adv-x="760" 
d="M757 506h-168q2 72 -28.5 111t-94.5 38q-60 -1 -106 -36.5t-71 -92.5t-37.5 -119.5t-12.5 -128.5q0 -75 34 -124t111 -49q135 0 169 155h164q-22 -130 -112 -203t-226 -73q-148 0 -230 79t-82 236q0 91 26 175t74.5 152.5t128 109t177.5 40.5q130 0 207 -66t77 -204z
M436 833l27 137h135l-27 -137h-135z" />
    <glyph glyph-name="cdotaccent" unicode="&#x10b;" horiz-adv-x="591" 
d="M570 344h-156q2 45 -17 72t-61 27q-46 0 -79 -38.5t-47 -90t-14 -106.5q0 -53 23 -83.5t69 -30.5t74.5 29.5t36.5 75.5h151q-12 -103 -87.5 -158t-181.5 -55q-111 0 -178 57t-67 171q0 142 81 238.5t224 96.5q108 0 170 -55t59 -150zM305 636l27 137h135l-27 -137h-135z
" />
    <glyph glyph-name="Ccaron" unicode="&#x10c;" horiz-adv-x="760" 
d="M416 827l-81 133h108l52 -56h1l70 56h113l-130 -133h-133zM757 506h-168q2 72 -28.5 111t-94.5 38q-60 -1 -106 -36.5t-71 -92.5t-37.5 -119.5t-12.5 -128.5q0 -75 34 -124t111 -49q135 0 169 155h164q-22 -130 -112 -203t-226 -73q-148 0 -230 79t-82 236q0 91 26 175
t74.5 152.5t128 109t177.5 40.5q130 0 207 -66t77 -204z" />
    <glyph glyph-name="ccaron" unicode="&#x10d;" horiz-adv-x="591" 
d="M306 614l-72 174h103l46 -77l76 77h107l-137 -174h-123zM570 344h-156q2 45 -17 72t-61 27q-46 0 -79 -38.5t-47 -90t-14 -106.5q0 -53 23 -83.5t69 -30.5t74.5 29.5t36.5 75.5h151q-12 -103 -87.5 -158t-181.5 -55q-111 0 -178 57t-67 171q0 142 81 238.5t224 96.5
q108 0 170 -55t59 -150z" />
    <glyph glyph-name="Dcaron" unicode="&#x10e;" horiz-adv-x="758" 
d="M371 827l-81 133h108l52 -56h1l70 56h113l-130 -133h-133zM27 0l147 765h242q150 0 238 -79.5t88 -228.5q0 -96 -27.5 -178t-80.5 -144.5t-137 -98.5t-190 -36h-280zM211 123h105q68 0 119 29.5t80 79.5t43 109.5t14 127.5q0 174 -172 174h-88z" />
    <glyph glyph-name="dcaron" unicode="&#x10f;" horiz-adv-x="638" 
d="M700 601l42 187h123l-91 -187h-74zM338 439q-45 0 -78 -37t-48 -89.5t-15 -110.5q0 -109 82 -109q48 0 85 36t48 95l12 64q14 67 -7 109t-79 42zM675 788l-153 -788h-149l15 80h-2q-64 -94 -164 -94q-88 0 -136 59t-48 157q0 83 29 160t92 131t148 54q109 0 147 -86h2
l63 327h156z" />
    <glyph glyph-name="Dcroat" unicode="&#x110;" horiz-adv-x="764" 
d="M313 0h-280l64 329h-75l22 111h74l63 325h241q150 0 238 -79.5t88 -228.5q0 -96 -27.5 -178t-80.5 -144.5t-137 -98.5t-190 -36zM217 123h105q68 0 119 29.5t80 79.5t43 109.5t14 127.5q0 174 -172 174h-88l-39 -203h162l-22 -111h-162z" />
    <glyph glyph-name="dcroat" unicode="&#x111;" horiz-adv-x="638" 
d="M338 439q-45 0 -78 -37t-48 -89.5t-15 -110.5q0 -109 82 -109q48 0 85 36t48 95l12 64q14 67 -7 109t-79 42zM386 80q-64 -94 -164 -94q-88 0 -136 59t-48 157q0 83 29 160t92 131t148 54q109 0 147 -86h2l28 146h-147l17 93h148l17 88h156l-17 -88h76l-18 -93h-76
l-118 -607h-149l15 80h-2z" />
    <glyph glyph-name="Emacron" unicode="&#x112;" horiz-adv-x="636" 
d="M27 0l148 765h489l-24 -125h-328l-38 -197h311l-24 -122h-311l-38 -197h340l-24 -124h-501zM268 838l20 104h336l-21 -104h-335z" />
    <glyph glyph-name="emacron" unicode="&#x113;" horiz-adv-x="589" 
d="M405 321l1 7q17 122 -76 122q-46 0 -77.5 -35t-46.5 -94h199zM529 156q-17 -83 -85.5 -126.5t-167.5 -43.5q-112 0 -176.5 60t-64.5 166q0 90 34 165.5t104.5 123.5t163.5 48q129 0 183.5 -81.5t31.5 -199.5l-7 -37h-352q-1 -8 -1 -25q0 -113 92 -113q38 0 61.5 17.5
t29.5 45.5h154zM201 636l20 104h335l-19 -104h-336z" />
    <glyph glyph-name="Ebreve" unicode="&#x114;" horiz-adv-x="636" 
d="M27 0l148 765h489l-24 -125h-328l-38 -197h311l-24 -122h-311l-38 -197h340l-24 -124h-501zM293 972h94q-2 -29 13 -46.5t42 -17.5q28 0 48.5 17t29.5 47h100q-16 -82 -66.5 -119.5t-123.5 -37.5q-68 0 -108.5 41.5t-28.5 115.5z" />
    <glyph glyph-name="ebreve" unicode="&#x115;" horiz-adv-x="589" 
d="M405 321l1 7q17 122 -76 122q-46 0 -77.5 -35t-46.5 -94h199zM529 156q-17 -83 -85.5 -126.5t-167.5 -43.5q-112 0 -176.5 60t-64.5 166q0 90 34 165.5t104.5 123.5t163.5 48q129 0 183.5 -81.5t31.5 -199.5l-7 -37h-352q-1 -8 -1 -25q0 -113 92 -113q38 0 61.5 17.5
t29.5 45.5h154zM374 612q-76 0 -116 46t-23 130h98q-7 -35 6.5 -54t42.5 -19t49.5 19t27.5 54h103q-12 -89 -65.5 -132.5t-122.5 -43.5z" />
    <glyph glyph-name="Edotaccent" unicode="&#x116;" horiz-adv-x="636" 
d="M366 833l27 137h135l-27 -137h-135zM27 0l148 765h489l-24 -125h-328l-38 -197h311l-24 -122h-311l-38 -197h340l-24 -124h-501z" />
    <glyph glyph-name="edotaccent" unicode="&#x117;" horiz-adv-x="589" 
d="M405 321l1 7q17 122 -76 122q-46 0 -77.5 -35t-46.5 -94h199zM529 156q-17 -83 -85.5 -126.5t-167.5 -43.5q-112 0 -176.5 60t-64.5 166q0 90 34 165.5t104.5 123.5t163.5 48q129 0 183.5 -81.5t31.5 -199.5l-7 -37h-352q-1 -8 -1 -25q0 -113 92 -113q38 0 61.5 17.5
t29.5 45.5h154zM302 636l27 137h135l-27 -137h-135z" />
    <glyph glyph-name="Eogonek" unicode="&#x118;" horiz-adv-x="636" 
d="M509 -99l-17 -89h-29q-67 0 -96.5 19t-29.5 59q0 34 24.5 63t69.5 47h-404l148 765h489l-24 -125h-328l-38 -197h311l-24 -122h-311l-38 -197h340l-24 -124q-64 -38 -64 -72q0 -27 45 -27z" />
    <glyph glyph-name="eogonek" unicode="&#x119;" horiz-adv-x="589" 
d="M405 321l1 7q17 122 -78 122q-45 0 -76 -35t-46 -94h199zM386 -99l-17 -89h-29q-67 0 -96.5 18t-29.5 58q0 64 83 98v2q-12 -2 -24 -2q-107 0 -172.5 59t-65.5 167q0 90 34 165.5t104.5 123.5t163.5 48q54 0 96 -15t67.5 -41.5t41 -62t16.5 -76.5t-6 -86l-7 -37h-352
q-1 -8 -1 -25q0 -113 92 -113q38 0 61.5 17.5t29.5 45.5h154q-20 -95 -115 -144q-74 -37 -74 -81q0 -30 46 -30z" />
    <glyph glyph-name="Ecaron" unicode="&#x11a;" horiz-adv-x="636" 
d="M366 827l-81 133h108l52 -56h1l70 56h113l-130 -133h-133zM27 0l148 765h489l-24 -125h-328l-38 -197h311l-24 -122h-311l-38 -197h340l-24 -124h-501z" />
    <glyph glyph-name="ecaron" unicode="&#x11b;" horiz-adv-x="589" 
d="M303 614l-72 174h103l46 -77l76 77h107l-137 -174h-123zM405 321l1 7q17 122 -76 122q-46 0 -77.5 -35t-46.5 -94h199zM529 156q-17 -83 -85.5 -126.5t-167.5 -43.5q-112 0 -176.5 60t-64.5 166q0 90 34 165.5t104.5 123.5t163.5 48q129 0 183.5 -81.5t31.5 -199.5
l-7 -37h-352q-1 -8 -1 -25q0 -113 92 -113q38 0 61.5 17.5t29.5 45.5h154z" />
    <glyph glyph-name="Gcircumflex" unicode="&#x11c;" horiz-adv-x="792" 
d="M596 960l79 -133h-107l-51 56h-1l-69 -56h-110l126 133h133zM761 533h-167q2 60 -29 92.5t-90 32.5q-51 0 -93 -26t-68.5 -66t-44 -91.5t-25 -100t-7.5 -93.5q0 -77 34.5 -128t109.5 -51q144 0 188 173l4 16h-167l23 117h327l-79 -408h-128l21 108h-3
q-25 -55 -82.5 -89.5t-137.5 -34.5q-133 0 -206.5 81t-73.5 223q0 73 16 142.5t50 132.5t82 110.5t117 75t150 27.5q127 -1 203.5 -62t75.5 -181z" />
    <glyph glyph-name="gcircumflex" unicode="&#x11d;" horiz-adv-x="633" 
d="M473 788l72 -174h-103l-48 78l-73 -78h-108l137 174h123zM414 239l11 55q12 64 -7.5 104.5t-76.5 40.5q-69 0 -106 -68.5t-37 -153.5q2 -102 90 -102q47 0 81.5 35.5t44.5 88.5zM7 -31h147q1 -32 24.5 -49t61.5 -17q108 0 132 127l14 67h-2q-60 -84 -159 -84
q-88 0 -137 51.5t-49 148.5q0 85 31 160t94 124.5t145 49.5q116 0 150 -93h2l16 82h150l-97 -498q-24 -122 -97.5 -179.5t-199.5 -57.5q-115 0 -171 45t-55 123z" />
    <glyph glyph-name="Gbreve" unicode="&#x11e;" horiz-adv-x="792" 
d="M366 972h94q-2 -29 13 -46.5t42 -17.5q28 0 48.5 17t29.5 47h100q-16 -82 -66.5 -119.5t-123.5 -37.5q-68 0 -108.5 41.5t-28.5 115.5zM761 533h-167q2 60 -29 92.5t-90 32.5q-51 0 -93 -26t-68.5 -66t-44 -91.5t-25 -100t-7.5 -93.5q0 -77 34.5 -128t109.5 -51
q144 0 188 173l4 16h-167l23 117h327l-79 -408h-128l21 108h-3q-25 -55 -82.5 -89.5t-137.5 -34.5q-133 0 -206.5 81t-73.5 223q0 73 16 142.5t50 132.5t82 110.5t117 75t150 27.5q127 -1 203.5 -62t75.5 -181z" />
    <glyph glyph-name="gbreve" unicode="&#x11f;" horiz-adv-x="633" 
d="M414 239l11 55q12 64 -7.5 104.5t-76.5 40.5q-69 0 -106 -68.5t-37 -153.5q2 -102 90 -102q47 0 81.5 35.5t44.5 88.5zM7 -31h147q1 -32 24.5 -49t61.5 -17q108 0 132 127l14 67h-2q-60 -84 -159 -84q-88 0 -137 51.5t-49 148.5q0 85 31 160t94 124.5t145 49.5
q116 0 150 -93h2l16 82h150l-97 -498q-24 -122 -97.5 -179.5t-199.5 -57.5q-115 0 -171 45t-55 123zM388 612q-76 0 -116 46t-23 130h98q-7 -35 6.5 -54t42.5 -19t49.5 19t27.5 54h103q-12 -89 -65.5 -132.5t-122.5 -43.5z" />
    <glyph glyph-name="Gdotaccent" unicode="&#x120;" horiz-adv-x="792" 
d="M440 833l27 137h135l-27 -137h-135zM761 533h-167q2 60 -29 92.5t-90 32.5q-51 0 -93 -26t-68.5 -66t-44 -91.5t-25 -100t-7.5 -93.5q0 -77 34.5 -128t109.5 -51q144 0 188 173l4 16h-167l23 117h327l-79 -408h-128l21 108h-3q-25 -55 -82.5 -89.5t-137.5 -34.5
q-133 0 -206.5 81t-73.5 223q0 73 16 142.5t50 132.5t82 110.5t117 75t150 27.5q127 -1 203.5 -62t75.5 -181z" />
    <glyph glyph-name="gdotaccent" unicode="&#x121;" horiz-adv-x="633" 
d="M414 239l11 55q12 64 -7.5 104.5t-76.5 40.5q-69 0 -106 -68.5t-37 -153.5q2 -102 90 -102q47 0 81.5 35.5t44.5 88.5zM7 -31h147q1 -32 24.5 -49t61.5 -17q108 0 132 127l14 67h-2q-60 -84 -159 -84q-88 0 -137 51.5t-49 148.5q0 85 31 160t94 124.5t145 49.5
q116 0 150 -93h2l16 82h150l-97 -498q-24 -122 -97.5 -179.5t-199.5 -57.5q-115 0 -171 45t-55 123zM316 636l27 137h135l-27 -137h-135z" />
    <glyph glyph-name="Gcommaaccent" unicode="&#x122;" horiz-adv-x="792" 
d="M208 -220l55 156h151l-102 -156h-104zM761 533h-167q2 60 -29 92.5t-90 32.5q-51 0 -93 -26t-68.5 -66t-44 -91.5t-25 -100t-7.5 -93.5q0 -77 34.5 -128t109.5 -51q144 0 188 173l4 16h-167l23 117h327l-79 -408h-128l21 108h-3q-25 -55 -82.5 -89.5t-137.5 -34.5
q-133 0 -206.5 81t-73.5 223q0 73 16 142.5t50 132.5t82 110.5t117 75t150 27.5q127 -1 203.5 -62t75.5 -181z" />
    <glyph glyph-name="gcommaaccent" unicode="&#x123;" horiz-adv-x="633" 
d="M503 782l-58 -165h-154l110 165h102zM414 239l11 55q12 64 -7.5 104.5t-76.5 40.5q-69 0 -106 -68.5t-37 -153.5q2 -102 90 -102q47 0 81.5 35.5t44.5 88.5zM7 -31h147q1 -32 24.5 -49t61.5 -17q108 0 132 127l14 67h-2q-60 -84 -159 -84q-88 0 -137 51.5t-49 148.5
q0 85 31 160t94 124.5t145 49.5q116 0 150 -93h2l16 82h150l-97 -498q-24 -122 -97.5 -179.5t-199.5 -57.5q-115 0 -171 45t-55 123z" />
    <glyph glyph-name="Hcircumflex" unicode="&#x124;" horiz-adv-x="772" 
d="M250 319l-62 -319h-161l148 765h161l-62 -320h299l62 320h162l-148 -765h-162l62 319h-299zM584 960l79 -133h-107l-51 56h-1l-69 -56h-110l126 133h133z" />
    <glyph glyph-name="hcircumflex" unicode="&#x125;" horiz-adv-x="628" 
d="M363 0l58 304q8 38 8 59q0 70 -68 70q-52 0 -85.5 -39.5t-47.5 -112.5l-54 -281h-156l153 788h156l-67 -341h2q58 100 177 100q87 0 125 -56.5t17 -164.5l-63 -326h-155zM520 960l79 -133h-107l-51 56h-1l-69 -56h-110l126 133h133z" />
    <glyph glyph-name="Hbar" unicode="&#x126;" horiz-adv-x="772" 
d="M274 445h299l23 119h-299zM250 319l-62 -319h-161l109 564h-78l19 94h77l21 107h161l-21 -107h299l21 107h162l-21 -107h77l-19 -94h-76l-109 -564h-162l62 319h-299z" />
    <glyph glyph-name="hbar" unicode="&#x127;" horiz-adv-x="628" 
d="M228 281l-54 -281h-156l118 607h-77l18 93h77l17 88h156l-17 -88h146l-17 -93h-148l-31 -160h2q58 100 177 100q87 0 125 -56.5t17 -164.5l-63 -326h-155l58 304q8 38 8 59q0 70 -68 70q-52 0 -85.5 -39.5t-47.5 -112.5z" />
    <glyph glyph-name="Itilde" unicode="&#x128;" horiz-adv-x="312" 
d="M27 0l148 765h162l-148 -765h-162zM80 820q7 62 46 108t101 46q33 0 70.5 -25t57.5 -25q19 0 31.5 11t20.5 40h77q-7 -67 -43.5 -110.5t-93.5 -43.5q-40 0 -80.5 25t-56.5 25q-33 0 -54 -51h-76z" />
    <glyph glyph-name="itilde" unicode="&#x129;" horiz-adv-x="289" 
d="M51 614q9 70 43 117t90 47q29 0 62.5 -25.5t48.5 -25.5q31 0 52 52h67q-11 -72 -43.5 -118.5t-87.5 -46.5q-29 0 -66 25.5t-51 25.5q-30 0 -49 -51h-66zM18 0l104 536h156l-104 -536h-156z" />
    <glyph glyph-name="Imacron" unicode="&#x12a;" horiz-adv-x="312" 
d="M27 0l148 765h162l-148 -765h-162zM103 838l20 104h336l-21 -104h-335z" />
    <glyph glyph-name="imacron" unicode="&#x12b;" horiz-adv-x="289" 
d="M82 636l20 104h273l-19 -104h-274zM18 0l104 536h156l-104 -536h-156z" />
    <glyph glyph-name="Ibreve" unicode="&#x12c;" horiz-adv-x="312" 
d="M27 0l148 765h162l-148 -765h-162zM133 972h94q-2 -29 13 -46.5t42 -17.5q28 0 48.5 17t29.5 47h100q-16 -82 -66.5 -119.5t-123.5 -37.5q-68 0 -108.5 41.5t-28.5 115.5z" />
    <glyph glyph-name="ibreve" unicode="&#x12d;" horiz-adv-x="289" 
d="M219 612q-68 0 -102 46t-15 130h88q-8 -35 3 -54t37 -19q57 0 74 73h92q-15 -90 -64 -133t-113 -43zM18 0l104 536h156l-104 -536h-156z" />
    <glyph glyph-name="Iogonek" unicode="&#x12e;" horiz-adv-x="312" 
d="M27 0l148 765h162l-148 -761q-66 -40 -66 -76q0 -27 45 -27l-17 -89h-29q-67 0 -96.5 18t-29.5 58q0 34 24.5 64t69.5 48h-63z" />
    <glyph glyph-name="iogonek" unicode="&#x12f;" horiz-adv-x="289" 
d="M139 629l28 144h157l-28 -144h-157zM18 0l104 536h156l-104 -533q-66 -39 -66 -75q0 -27 45 -27l-17 -89h-29q-67 0 -96.5 18t-29.5 58q0 34 24 63.5t70 48.5h-57z" />
    <glyph glyph-name="Idotaccent" unicode="&#x130;" horiz-adv-x="312" 
d="M27 0l148 765h162l-148 -765h-162zM201 833l27 137h135l-27 -137h-135z" />
    <glyph glyph-name="dotlessi" unicode="&#x131;" horiz-adv-x="289" 
d="M18 0l104 536h156l-104 -536h-156z" />
    <glyph glyph-name="IJ" unicode="&#x132;" horiz-adv-x="709" 
d="M27 0l148 765h162l-148 -765h-162zM339 -3h-51l25 130h22q76 0 103.5 27.5t40.5 95.5l101 515h160l-104 -533q-26 -131 -92 -183t-205 -52z" />
    <glyph glyph-name="ij" unicode="&#x133;" horiz-adv-x="582" 
d="M139 629l28 144h157l-28 -144h-157zM18 0l104 536h156l-104 -536h-156zM432 629l28 144h157l-28 -144h-157zM249 -206q-51 0 -81 12l21 108q20 -5 41 -5q63 0 75 68l109 559h156l-111 -569q-34 -173 -210 -173z" />
    <glyph glyph-name="Jcircumflex" unicode="&#x134;" horiz-adv-x="436" 
d="M488 960l79 -133h-107l-51 56h-1l-69 -56h-110l126 133h133zM64 -3h-83l26 130h54q75 0 102.5 27.5t40.5 95.5l102 515h159l-104 -533q-26 -131 -92 -183t-205 -52z" />
    <glyph glyph-name="jcircumflex" unicode="&#x135;" horiz-adv-x="293" 
d="M313 788l60 -174h-101l-38 78l-63 -78h-108l127 174h123zM-121 -194l21 108q20 -5 41 -5q63 0 75 68l109 559h156l-111 -569q-34 -173 -210 -173q-51 0 -81 12z" />
    <glyph glyph-name="Kcommaaccent" unicode="&#x136;" horiz-adv-x="721" 
d="M190 -220l55 156h151l-102 -156h-104zM232 228l-44 -228h-161l148 765h161l-66 -342l332 342h185l-335 -332l200 -433h-173l-149 325z" />
    <glyph glyph-name="kcommaaccent" unicode="&#x137;" horiz-adv-x="588" 
d="M125 -220l55 156h151l-102 -156h-104zM199 142l-28 -142h-153l153 788h153l-92 -472l215 220h171l-227 -224l135 -312h-160l-95 217z" />
    <glyph glyph-name="kgreenlandic" unicode="&#x138;" horiz-adv-x="596" 
d="M199 142l-28 -142h-153l103 536h154l-43 -220l215 220h171l-227 -224l135 -312h-160l-95 217z" />
    <glyph glyph-name="Lacute" unicode="&#x139;" horiz-adv-x="597" 
d="M213 827l82 133h154l-120 -133h-116zM27 0l148 765h161l-123 -637h323l-25 -128h-484z" />
    <glyph glyph-name="lacute" unicode="&#x13a;" horiz-adv-x="289" 
d="M190 827l82 133h154l-120 -133h-116zM18 0l153 788h156l-153 -788h-156z" />
    <glyph glyph-name="Lcommaaccent" unicode="&#x13b;" horiz-adv-x="597" 
d="M131 -220l55 156h151l-102 -156h-104zM27 0l148 765h161l-123 -637h323l-25 -128h-484z" />
    <glyph glyph-name="lcommaaccent" unicode="&#x13c;" horiz-adv-x="289" 
d="M-42 -220l55 156h151l-102 -156h-104zM18 0l153 788h156l-153 -788h-156z" />
    <glyph glyph-name="Lcaron" unicode="&#x13d;" horiz-adv-x="597" 
d="M381 577l63 211h127l-112 -211h-78zM27 0l148 765h161l-123 -637h323l-25 -128h-484z" />
    <glyph glyph-name="lcaron" unicode="&#x13e;" horiz-adv-x="289" 
d="M352 601l42 187h123l-91 -187h-74zM18 0l153 788h156l-153 -788h-156z" />
    <glyph glyph-name="Ldot" unicode="&#x13f;" horiz-adv-x="597" 
d="M27 0l148 765h161l-123 -637h323l-25 -128h-484zM392 345l30 155h163l-31 -155h-162z" />
    <glyph glyph-name="ldot" unicode="&#x140;" horiz-adv-x="463" 
d="M18 0l153 788h156l-153 -788h-156zM312 325l29 150h157l-30 -150h-156z" />
    <glyph glyph-name="Lslash" unicode="&#x141;" horiz-adv-x="598" 
d="M27 0l52 267l-83 -26l23 121l83 26l73 377h162l-62 -322l231 74l-24 -121l-231 -74l-37 -194h322l-24 -128h-485z" />
    <glyph glyph-name="lslash" unicode="&#x142;" horiz-adv-x="291" 
d="M174 0h-156l57 294l-83 -44l24 121l83 44l72 373h156l-55 -281l83 44l-24 -121l-82 -44z" />
    <glyph glyph-name="Nacute" unicode="&#x143;" horiz-adv-x="765" 
d="M427 827l82 133h154l-120 -133h-116zM27 0l148 765h171l158 -425q11 -29 19 -57.5t11 -42.5l2 -13h3l104 538h145l-148 -765h-158l-166 431q-12 30 -20.5 59.5t-11.5 43.5l-3 14h-3l-106 -548h-145z" />
    <glyph glyph-name="nacute" unicode="&#x144;" horiz-adv-x="632" 
d="M319 614l82 174h156l-120 -174h-118zM363 0l58 304q8 35 8 59q0 70 -68 70q-52 0 -86 -40t-48 -113l-53 -280h-156l104 536h150l-19 -94h2q63 105 184 105q87 0 125 -56t17 -164l-63 -327h-155z" />
    <glyph glyph-name="Ncommaaccent" unicode="&#x145;" horiz-adv-x="765" 
d="M195 -220l55 156h151l-102 -156h-104zM27 0l148 765h171l158 -425q11 -29 19 -57.5t11 -42.5l2 -13h3l104 538h145l-148 -765h-158l-166 431q-12 30 -20.5 59.5t-11.5 43.5l-3 14h-3l-106 -548h-145z" />
    <glyph glyph-name="ncommaaccent" unicode="&#x146;" horiz-adv-x="632" 
d="M128 -220l55 156h151l-102 -156h-104zM363 0l58 304q8 35 8 59q0 70 -68 70q-52 0 -86 -40t-48 -113l-53 -280h-156l104 536h150l-19 -94h2q63 105 184 105q87 0 125 -56t17 -164l-63 -327h-155z" />
    <glyph glyph-name="Ncaron" unicode="&#x147;" horiz-adv-x="765" 
d="M426 827l-81 133h108l52 -56h1l70 56h113l-130 -133h-133zM27 0l148 765h171l158 -425q11 -29 19 -57.5t11 -42.5l2 -13h3l104 538h145l-148 -765h-158l-166 431q-12 30 -20.5 59.5t-11.5 43.5l-3 14h-3l-106 -548h-145z" />
    <glyph glyph-name="ncaron" unicode="&#x148;" horiz-adv-x="632" 
d="M319 614l-72 174h103l46 -77l76 77h107l-137 -174h-123zM363 0l58 304q8 35 8 59q0 70 -68 70q-52 0 -86 -40t-48 -113l-53 -280h-156l104 536h150l-19 -94h2q63 105 184 105q87 0 125 -56t17 -164l-63 -327h-155z" />
    <glyph glyph-name="napostrophe" unicode="&#x149;" horiz-adv-x="632" 
d="M83 619l55 156h151l-102 -156h-104zM363 0l58 304q8 35 8 59q0 70 -68 70q-52 0 -86 -40t-48 -113l-53 -280h-156l104 536h150l-19 -94h2q63 105 184 105q87 0 125 -56t17 -164l-63 -327h-155z" />
    <glyph glyph-name="Eng" unicode="&#x14a;" horiz-adv-x="765" 
d="M354 -181h-65l24 120h36q57 0 88 13t47 44l-168 435q-12 30 -20.5 59.5t-11.5 43.5l-3 14h-3l-106 -548h-145l148 765h171l158 -425q11 -29 19 -57.5t11 -42.5l2 -13h3l104 538h145l-119 -618l-2 -9l-1 -6l-16 -78q-26 -131 -91.5 -183t-204.5 -52z" />
    <glyph glyph-name="eng" unicode="&#x14b;" horiz-adv-x="632" 
d="M302 -206q-48 0 -81 13l21 108q12 -6 41 -6q62 0 75 68l27 139l36 188q8 35 8 59q0 70 -68 70q-52 0 -86 -40t-48 -113l-53 -280h-156l104 536h150l-19 -94h2q63 105 184 105q87 0 125 -56t17 -164l-41 -211h1l-29 -149q-34 -173 -210 -173z" />
    <glyph glyph-name="Omacron" unicode="&#x14c;" horiz-adv-x="804" 
d="M343 838l20 104h336l-21 -104h-335zM67 294q0 132 48.5 241t142.5 175t215 66q137 0 224 -81.5t86 -233.5q0 -94 -26.5 -179t-76 -152t-127.5 -106.5t-173 -39.5q-139 0 -225.5 77t-87.5 233zM613 481q0 77 -34.5 127t-110.5 50q-49 0 -89.5 -25.5t-66 -65t-43 -91
t-25 -101.5t-7.5 -98q0 -75 35 -124t114 -49q57 0 102.5 37t71.5 95.5t39.5 121.5t13.5 123z" />
    <glyph glyph-name="omacron" unicode="&#x14d;" horiz-adv-x="606" 
d="M201 636l20 104h335l-19 -104h-336zM276 -14q-109 0 -174.5 58.5t-65.5 167.5q0 138 80.5 237.5t219.5 99.5q109 0 175.5 -60.5t66.5 -164.5q0 -146 -82 -242t-220 -96zM419 335q0 45 -19.5 76.5t-66.5 31.5q-37 0 -65 -24t-43.5 -61.5t-23 -76.5t-7.5 -77
q0 -111 88 -111q39 0 67.5 25t42.5 65t20.5 78t6.5 74z" />
    <glyph glyph-name="Obreve" unicode="&#x14e;" horiz-adv-x="804" 
d="M373 972h94q-2 -29 13 -46.5t42 -17.5q28 0 48.5 17t29.5 47h100q-16 -82 -66.5 -119.5t-123.5 -37.5q-68 0 -108.5 41.5t-28.5 115.5zM67 294q0 132 48.5 241t142.5 175t215 66q137 0 224 -81.5t86 -233.5q0 -94 -26.5 -179t-76 -152t-127.5 -106.5t-173 -39.5
q-139 0 -225.5 77t-87.5 233zM613 481q0 77 -34.5 127t-110.5 50q-49 0 -89.5 -25.5t-66 -65t-43 -91t-25 -101.5t-7.5 -98q0 -75 35 -124t114 -49q57 0 102.5 37t71.5 95.5t39.5 121.5t13.5 123z" />
    <glyph glyph-name="obreve" unicode="&#x14f;" horiz-adv-x="606" 
d="M276 -14q-109 0 -174.5 58.5t-65.5 167.5q0 138 80.5 237.5t219.5 99.5q109 0 175.5 -60.5t66.5 -164.5q0 -146 -82 -242t-220 -96zM419 335q0 45 -19.5 76.5t-66.5 31.5q-37 0 -65 -24t-43.5 -61.5t-23 -76.5t-7.5 -77q0 -111 88 -111q39 0 67.5 25t42.5 65t20.5 78
t6.5 74zM374 612q-76 0 -116 46t-23 130h98q-7 -35 6.5 -54t42.5 -19t49.5 19t27.5 54h103q-12 -89 -65.5 -132.5t-122.5 -43.5z" />
    <glyph glyph-name="Ohungarumlaut" unicode="&#x150;" horiz-adv-x="804" 
d="M539 831l60 133h123l-93 -133h-90zM377 831l47 133h123l-81 -133h-89zM67 294q0 132 48.5 241t142.5 175t215 66q137 0 224 -81.5t86 -233.5q0 -94 -26.5 -179t-76 -152t-127.5 -106.5t-173 -39.5q-139 0 -225.5 77t-87.5 233zM613 481q0 77 -34.5 127t-110.5 50
q-49 0 -89.5 -25.5t-66 -65t-43 -91t-25 -101.5t-7.5 -98q0 -75 35 -124t114 -49q57 0 102.5 37t71.5 95.5t39.5 121.5t13.5 123z" />
    <glyph glyph-name="ohungarumlaut" unicode="&#x151;" horiz-adv-x="606" 
d="M389 614l85 174h125l-119 -174h-91zM229 614l72 174h125l-106 -174h-91zM276 -14q-109 0 -174.5 58.5t-65.5 167.5q0 138 80.5 237.5t219.5 99.5q109 0 175.5 -60.5t66.5 -164.5q0 -146 -82 -242t-220 -96zM419 335q0 45 -19.5 76.5t-66.5 31.5q-37 0 -65 -24
t-43.5 -61.5t-23 -76.5t-7.5 -77q0 -111 88 -111q39 0 67.5 25t42.5 65t20.5 78t6.5 74z" />
    <glyph glyph-name="OE" unicode="&#x152;" horiz-adv-x="1139" 
d="M387 104q74 0 129.5 58t74.5 155l22 111q10 39 6 80t-17 74.5t-47.5 54.5t-84.5 21q-49 0 -89.5 -25.5t-66 -65t-43 -91t-25 -101.5t-7.5 -98q0 -75 35 -124t113 -49zM542 78q-74 -94 -199 -94q-53 0 -100.5 17t-88 52t-64 97t-23.5 143q1 208 110.5 345t284.5 137
q70 0 121 -27t75 -76h2l18 93h489l-24 -125h-328l-38 -197h311l-23 -122h-312l-38 -197h340l-24 -124h-501l15 78h-3z" />
    <glyph glyph-name="oe" unicode="&#x153;" horiz-adv-x="961" 
d="M777 321l1 7q17 122 -76 122q-44 0 -75.5 -35.5t-47.5 -93.5h198zM419 335q0 108 -86 108q-37 0 -65 -24t-43.5 -61.5t-23 -76.5t-7.5 -77q0 -111 88 -111q39 0 67.5 25t42.5 65t20.5 78t6.5 74zM901 156q-17 -82 -84.5 -126t-168.5 -44q-136 0 -185 87q-72 -87 -195 -87
q-106 0 -169 58t-63 168q0 138 80.5 237.5t219.5 99.5q132 0 178 -91q76 91 196 91q127 0 181.5 -81t32.5 -200l-7 -37h-352q-1 -8 -1 -25q0 -114 91 -114q38 0 62 18t30 46h154z" />
    <glyph glyph-name="Racute" unicode="&#x154;" horiz-adv-x="699" 
d="M376 827l82 133h154l-120 -133h-116zM266 408h119q68 0 106.5 36t38.5 107q0 51 -28.5 75.5t-92.5 24.5h-96zM244 291l-56 -291h-161l147 765h252q89 0 153 -29q113 -51 113 -182q0 -183 -176 -237v-2l125 -315h-168l-111 291h-118z" />
    <glyph glyph-name="racute" unicode="&#x155;" horiz-adv-x="419" 
d="M234 614l82 174h156l-120 -174h-118zM18 0l104 536h147l-23 -116h2q68 125 195 125h7l-28 -149h-10q-84 0 -130 -34t-64 -124l-46 -238h-154z" />
    <glyph glyph-name="Rcommaaccent" unicode="&#x156;" horiz-adv-x="699" 
d="M186 -220l55 156h151l-102 -156h-104zM266 408h119q68 0 106.5 36t38.5 107q0 51 -28.5 75.5t-92.5 24.5h-96zM244 291l-56 -291h-161l147 765h252q89 0 153 -29q113 -51 113 -182q0 -183 -176 -237v-2l125 -315h-168l-111 291h-118z" />
    <glyph glyph-name="rcommaaccent" unicode="&#x157;" horiz-adv-x="419" 
d="M-47 -220l55 156h151l-102 -156h-104zM18 0l104 536h147l-23 -116h2q68 125 195 125h7l-28 -149h-10q-84 0 -130 -34t-64 -124l-46 -238h-154z" />
    <glyph glyph-name="Rcaron" unicode="&#x158;" horiz-adv-x="699" 
d="M361 827l-81 133h108l52 -56h1l70 56h113l-130 -133h-133zM266 408h119q68 0 106.5 36t38.5 107q0 51 -28.5 75.5t-92.5 24.5h-96zM244 291l-56 -291h-161l147 765h252q89 0 153 -29q113 -51 113 -182q0 -183 -176 -237v-2l125 -315h-168l-111 291h-118z" />
    <glyph glyph-name="rcaron" unicode="&#x159;" horiz-adv-x="419" 
d="M238 614l-72 174h103l46 -77l76 77h107l-137 -174h-123zM18 0l104 536h147l-23 -116h2q68 125 195 125h7l-28 -149h-10q-84 0 -130 -34t-64 -124l-46 -238h-154z" />
    <glyph glyph-name="Sacute" unicode="&#x15a;" horiz-adv-x="673" 
d="M28 222h168q-2 -58 29.5 -87.5t98.5 -29.5q59 0 99 29.5t40 80.5q0 36 -21.5 56t-70.5 34l-94 27q-91 26 -132.5 76t-41.5 127q0 112 84 176.5t210 64.5q121 0 194.5 -58t66.5 -164h-163q3 48 -25 75.5t-80 27.5q-54 0 -88 -27t-34 -74q0 -32 22.5 -50.5t68.5 -31.5
l95 -27q93 -26 133.5 -74.5t40.5 -123.5q0 -119 -86.5 -192t-223.5 -73q-139 0 -218 62t-72 176zM358 827l82 133h154l-120 -133h-116z" />
    <glyph glyph-name="sacute" unicode="&#x15b;" horiz-adv-x="525" 
d="M246 614l82 174h156l-120 -174h-118zM495 384h-136q1 32 -20.5 48t-56.5 16q-34 0 -55 -15.5t-21 -42.5q0 -22 15 -34t50 -20l66 -15q74 -17 105 -51.5t31 -95.5q0 -90 -66 -139.5t-171 -49.5q-102 0 -164 45t-58 129h142q-2 -36 21 -54.5t64 -18.5q38 0 63 15.5t25 47.5
q0 40 -60 54l-63 14q-141 31 -141 152q0 86 64 133t160 47q95 0 153 -43.5t53 -121.5z" />
    <glyph glyph-name="Scircumflex" unicode="&#x15c;" horiz-adv-x="673" 
d="M510 960l79 -133h-107l-51 56h-1l-69 -56h-110l126 133h133zM28 222h168q-2 -58 29.5 -87.5t98.5 -29.5q59 0 99 29.5t40 80.5q0 36 -21.5 56t-70.5 34l-94 27q-91 26 -132.5 76t-41.5 127q0 112 84 176.5t210 64.5q121 0 194.5 -58t66.5 -164h-163q3 48 -25 75.5
t-80 27.5q-54 0 -88 -27t-34 -74q0 -32 22.5 -50.5t68.5 -31.5l95 -27q93 -26 133.5 -74.5t40.5 -123.5q0 -119 -86.5 -192t-223.5 -73q-139 0 -218 62t-72 176z" />
    <glyph glyph-name="scircumflex" unicode="&#x15d;" horiz-adv-x="525" 
d="M406 788l72 -174h-103l-48 78l-73 -78h-108l137 174h123zM495 384h-136q1 32 -20.5 48t-56.5 16q-34 0 -55 -15.5t-21 -42.5q0 -22 15 -34t50 -20l66 -15q74 -17 105 -51.5t31 -95.5q0 -90 -66 -139.5t-171 -49.5q-102 0 -164 45t-58 129h142q-2 -36 21 -54.5t64 -18.5
q38 0 63 15.5t25 47.5q0 40 -60 54l-63 14q-141 31 -141 152q0 86 64 133t160 47q95 0 153 -43.5t53 -121.5z" />
    <glyph glyph-name="Scedilla" unicode="&#x15e;" horiz-adv-x="673" 
d="M263 -225q-43 0 -73 19.5t-27 58.5h77q3 -20 29 -20q17 0 27 9.5t10 24.5q0 29 -28 29q-19 0 -30 -13h-62l54 107q-104 16 -161 75.5t-51 156.5h168q-2 -58 29.5 -87.5t98.5 -29.5q59 0 99 29.5t40 80.5q0 36 -21.5 56t-70.5 34l-94 27q-91 26 -132.5 76t-41.5 127
q0 112 84 176.5t210 64.5q121 0 194.5 -58t66.5 -164h-163q3 48 -25 75.5t-80 27.5q-54 0 -88 -27t-34 -74q0 -32 22.5 -50.5t68.5 -31.5l95 -27q93 -26 133.5 -74.5t40.5 -123.5q0 -119 -86.5 -192t-223.5 -73q-17 0 -25 1l-25 -51h2q20 15 50 15q31 0 50.5 -19t19.5 -50
q0 -48 -33 -76.5t-94 -28.5z" />
    <glyph glyph-name="scedilla" unicode="&#x15f;" horiz-adv-x="525" 
d="M181 -225q-43 0 -73 19.5t-27 58.5h77q3 -20 29 -20q17 0 27 9.5t10 24.5q0 29 -28 29q-19 0 -30 -13h-62l56 109q-70 15 -109.5 57.5t-36.5 109.5h142q-2 -36 21 -54.5t64 -18.5q38 0 63 15.5t25 47.5q0 40 -60 54l-63 14q-141 31 -141 152q0 86 64 133t160 47
q95 0 153 -43.5t53 -121.5h-136q1 32 -20.5 48t-56.5 16q-34 0 -55 -15.5t-21 -42.5q0 -22 15 -34t50 -20l66 -15q74 -17 105 -51.5t31 -95.5q0 -90 -66 -139.5t-171 -49.5q-16 0 -24 1l-26 -52h2q20 15 50 15q31 0 50.5 -19t19.5 -50q0 -48 -33 -76.5t-94 -28.5z" />
    <glyph glyph-name="Scaron" unicode="&#x160;" horiz-adv-x="673" 
d="M353 827l-81 133h108l52 -56h1l70 56h113l-130 -133h-133zM28 222h168q-2 -58 29.5 -87.5t98.5 -29.5q59 0 99 29.5t40 80.5q0 36 -21.5 56t-70.5 34l-94 27q-91 26 -132.5 76t-41.5 127q0 112 84 176.5t210 64.5q121 0 194.5 -58t66.5 -164h-163q3 48 -25 75.5t-80 27.5
q-54 0 -88 -27t-34 -74q0 -32 22.5 -50.5t68.5 -31.5l95 -27q93 -26 133.5 -74.5t40.5 -123.5q0 -119 -86.5 -192t-223.5 -73q-139 0 -218 62t-72 176z" />
    <glyph glyph-name="scaron" unicode="&#x161;" horiz-adv-x="525" 
d="M245 614l-72 174h103l46 -77l76 77h107l-137 -174h-123zM495 384h-136q1 32 -20.5 48t-56.5 16q-34 0 -55 -15.5t-21 -42.5q0 -22 15 -34t50 -20l66 -15q74 -17 105 -51.5t31 -95.5q0 -90 -66 -139.5t-171 -49.5q-102 0 -164 45t-58 129h142q-2 -36 21 -54.5t64 -18.5
q38 0 63 15.5t25 47.5q0 40 -60 54l-63 14q-141 31 -141 152q0 86 64 133t160 47q95 0 153 -43.5t53 -121.5z" />
    <glyph glyph-name="Tcommaaccent" unicode="&#x162;" horiz-adv-x="644" 
d="M136 -220l55 156h151l-102 -156h-104zM477 636l-123 -636h-162l123 636h-219l25 129h599l-25 -129h-218z" />
    <glyph glyph-name="tcommaaccent" unicode="&#x163;" horiz-adv-x="393" 
d="M46 -220l55 156h151l-102 -156h-104zM205 687h129l-29 -151h116l-22 -110h-115l-46 -237q-9 -47 2.5 -63.5t52.5 -16.5l44 5l-22 -114q-35 -7 -78 -7q-189 0 -153 186l48 247h-77l22 109h16q49 0 69.5 21t34.5 91z" />
    <glyph glyph-name="Tcaron" unicode="&#x164;" horiz-adv-x="644" 
d="M367 827l-81 133h108l52 -56h1l70 56h113l-130 -133h-133zM477 636l-123 -636h-162l123 636h-219l25 129h599l-25 -129h-218z" />
    <glyph glyph-name="tcaron" unicode="&#x165;" horiz-adv-x="393" 
d="M386 601l42 187h123l-91 -187h-74zM205 687h129l-29 -151h116l-22 -110h-115l-46 -237q-9 -47 2.5 -63.5t52.5 -16.5l44 5l-22 -114q-35 -7 -78 -7q-189 0 -153 186l48 247h-77l22 109h16q49 0 69.5 21t34.5 91z" />
    <glyph glyph-name="Tbar" unicode="&#x166;" horiz-adv-x="644" 
d="M426 372l-72 -372h-162l72 372h-173l19 100h173l32 164h-219l25 129h599l-25 -129h-218l-32 -164h172l-19 -100h-172z" />
    <glyph glyph-name="tbar" unicode="&#x167;" horiz-adv-x="393" 
d="M315 0q-35 -7 -78 -7q-189 0 -153 186l10 51h-78l19 98h78l19 98h-77l22 109h16q49 0 69.5 21t34.5 91l8 40h129l-29 -151h116l-22 -110h-115l-19 -98h116l-19 -98h-116l-8 -41q-9 -47 2.5 -63.5t52.5 -16.5l44 5z" />
    <glyph glyph-name="Utilde" unicode="&#x168;" horiz-adv-x="744" 
d="M76 295l91 470h161l-90 -461q-20 -102 9 -145q31 -45 113 -45q76 0 117 44q20 22 29 49.5t18 77.5l93 480h159l-98 -507q-53 -274 -325 -274q-160 0 -233.5 80.5t-43.5 230.5zM293 820q7 62 46 108t101 46q33 0 70.5 -25t57.5 -25q19 0 31.5 11t20.5 40h77
q-7 -67 -43.5 -110.5t-93.5 -43.5q-40 0 -80.5 25t-56.5 25q-33 0 -54 -51h-76z" />
    <glyph glyph-name="utilde" unicode="&#x169;" horiz-adv-x="623" 
d="M272 536l-60 -306q-6 -30 -6 -54q-1 -72 67 -72q48 0 81 39t47 113l55 280h155l-104 -536h-149l18 92h-2q-64 -102 -174 -102q-91 0 -130 55.5t-18 161.5l64 329h156zM194 614q6 69 44 116.5t101 47.5q32 0 69.5 -25.5t54.5 -25.5q35 0 55 52h76q-7 -71 -44 -118
t-100 -47q-32 0 -71.5 25.5t-56.5 25.5q-36 0 -53 -51h-75z" />
    <glyph glyph-name="Umacron" unicode="&#x16a;" horiz-adv-x="744" 
d="M76 295l91 470h161l-90 -461q-20 -102 9 -145q31 -45 113 -45q76 0 117 44q20 22 29 49.5t18 77.5l93 480h159l-98 -507q-53 -274 -325 -274q-160 0 -233.5 80.5t-43.5 230.5zM315 838l20 104h336l-21 -104h-335z" />
    <glyph glyph-name="umacron" unicode="&#x16b;" horiz-adv-x="623" 
d="M272 536l-60 -306q-6 -30 -6 -54q-1 -72 67 -72q48 0 81 39t47 113l55 280h155l-104 -536h-149l18 92h-2q-64 -102 -174 -102q-91 0 -130 55.5t-18 161.5l64 329h156zM215 636l20 104h335l-19 -104h-336z" />
    <glyph glyph-name="Ubreve" unicode="&#x16c;" horiz-adv-x="744" 
d="M76 295l91 470h161l-90 -461q-20 -102 9 -145q31 -45 113 -45q76 0 117 44q20 22 29 49.5t18 77.5l93 480h159l-98 -507q-53 -274 -325 -274q-160 0 -233.5 80.5t-43.5 230.5zM345 972h94q-2 -29 13 -46.5t42 -17.5q28 0 48.5 17t29.5 47h100q-16 -82 -66.5 -119.5
t-123.5 -37.5q-68 0 -108.5 41.5t-28.5 115.5z" />
    <glyph glyph-name="ubreve" unicode="&#x16d;" horiz-adv-x="623" 
d="M272 536l-60 -306q-6 -30 -6 -54q-1 -72 67 -72q48 0 81 39t47 113l55 280h155l-104 -536h-149l18 92h-2q-64 -102 -174 -102q-91 0 -130 55.5t-18 161.5l64 329h156zM387 612q-76 0 -116 46t-23 130h98q-7 -35 6.5 -54t42.5 -19t49.5 19t27.5 54h103
q-12 -89 -65.5 -132.5t-122.5 -43.5z" />
    <glyph glyph-name="Uring" unicode="&#x16e;" horiz-adv-x="744" 
d="M76 295l91 470h161l-90 -461q-20 -102 9 -145q31 -45 113 -45q76 0 117 44q20 22 29 49.5t18 77.5l93 480h159l-98 -507q-53 -274 -325 -274q-160 0 -233.5 80.5t-43.5 230.5zM493 796q-55 1 -90.5 29.5t-35.5 81.5q0 60 38 97.5t98 37.5q61 0 94 -30.5t33 -80.5
q0 -61 -38.5 -98t-98.5 -37zM504 979q-27 0 -43 -19t-16 -50q0 -24 12.5 -38t36.5 -14q25 0 41 19t16 50q0 52 -47 52z" />
    <glyph glyph-name="uring" unicode="&#x16f;" horiz-adv-x="623" 
d="M394 602q-55 1 -90.5 29.5t-35.5 80.5q0 60 38.5 98t97.5 38q61 0 94.5 -31t33.5 -80q0 -61 -38.5 -98t-99.5 -37zM405 785q-27 0 -42.5 -19t-15.5 -51q0 -23 12.5 -37t35.5 -14q26 0 42 18.5t16 49.5q0 24 -12.5 38.5t-35.5 14.5zM272 536l-60 -306q-6 -30 -6 -54
q-1 -72 67 -72q48 0 81 39t47 113l55 280h155l-104 -536h-149l18 92h-2q-64 -102 -174 -102q-91 0 -130 55.5t-18 161.5l64 329h156z" />
    <glyph glyph-name="Uhungarumlaut" unicode="&#x170;" horiz-adv-x="744" 
d="M515 831l60 133h123l-93 -133h-90zM353 831l47 133h123l-81 -133h-89zM76 295l91 470h161l-90 -461q-20 -102 9 -145q31 -45 113 -45q76 0 117 44q20 22 29 49.5t18 77.5l93 480h159l-98 -507q-53 -274 -325 -274q-160 0 -233.5 80.5t-43.5 230.5z" />
    <glyph glyph-name="uhungarumlaut" unicode="&#x171;" horiz-adv-x="623" 
d="M272 536l-60 -306q-6 -30 -6 -54q-1 -72 67 -72q48 0 81 39t47 113l55 280h155l-104 -536h-149l18 92h-2q-64 -102 -174 -102q-91 0 -130 55.5t-18 161.5l64 329h156zM403 614l85 174h125l-119 -174h-91zM243 614l72 174h125l-106 -174h-91z" />
    <glyph glyph-name="Uogonek" unicode="&#x172;" horiz-adv-x="744" 
d="M280 -9q-111 11 -171 88t-33 216l91 470h161l-90 -461q-20 -102 10 -146q31 -44 112 -44q72 0 110 38q22 22 33 51.5t21 81.5l93 480h159l-98 -507q-24 -125 -87 -186t-163 -79q-94 -17 -94 -62q0 -30 46 -30l-18 -89h-29q-67 0 -96 18t-29 58q0 63 72 102v1z" />
    <glyph glyph-name="uogonek" unicode="&#x173;" horiz-adv-x="623" 
d="M358 0l18 92h-2q-64 -102 -174 -102q-91 0 -130 55.5t-18 161.5l64 329h156l-60 -306q-6 -30 -6 -54q-1 -72 67 -72q48 0 81 39t47 113l55 280h155l-103 -533q-66 -40 -66 -75q0 -27 46 -27l-18 -89h-29q-67 0 -96 18t-29 58q0 34 23.5 63.5t68.5 48.5h-50z" />
    <glyph glyph-name="Wcircumflex" unicode="&#x174;" horiz-adv-x="1035" 
d="M719 960l79 -133h-107l-51 56h-1l-69 -56h-110l126 133h133zM329 0h-161l-51 765h161l20 -426q2 -43 1.5 -74t-1.5 -48l-1 -17h2q15 52 48 126l198 439h146l32 -428q3 -37 3.5 -71.5t-0.5 -49.5v-16h2q13 53 44 126l188 439h151l-342 -765h-157l-29 448q-3 38 -3.5 70.5
t0.5 45.5v14h-2q-13 -45 -45 -118z" />
    <glyph glyph-name="wcircumflex" unicode="&#x175;" horiz-adv-x="831" 
d="M572 788l72 -174h-103l-48 78l-73 -78h-108l137 174h123zM119 0l-56 536h142l19 -256q2 -28 2.5 -61.5t-0.5 -52.5v-19h2q22 69 47 122l126 267h130l26 -263l5 -127h3q19 70 41 120l119 270h137l-245 -536h-149l-22 220q-3 31 -5 71t-3 65v24h-2q-34 -88 -62 -149
l-107 -231h-148z" />
    <glyph glyph-name="Ycircumflex" unicode="&#x176;" horiz-adv-x="683" 
d="M212 0l64 330l-166 435h170l103 -301h2l217 301h169l-337 -452l-61 -313h-161zM543 960l79 -133h-107l-51 56h-1l-69 -56h-110l126 133h133z" />
    <glyph glyph-name="ycircumflex" unicode="&#x177;" horiz-adv-x="560" 
d="M161 -1l-91 537h157l33 -281q3 -26 4.5 -54t1.5 -43l-1 -15h2q19 51 42 100l136 293h155l-298 -568q-48 -91 -101.5 -129t-147.5 -38q-63 0 -83 10l23 114q21 -6 52 -6q43 0 67.5 14.5t41.5 50.5zM450 788l72 -174h-103l-48 78l-73 -78h-108l137 174h123z" />
    <glyph glyph-name="Ydieresis" unicode="&#x178;" horiz-adv-x="683" 
d="M212 0l64 330l-166 435h170l103 -301h2l217 301h169l-337 -452l-61 -313h-161zM494 828l27 137h133l-27 -137h-133zM283 828l26 137h134l-27 -137h-133z" />
    <glyph glyph-name="Zacute" unicode="&#x179;" horiz-adv-x="644" 
d="M363 827l82 133h154l-120 -133h-116zM127 638l25 127h547l-22 -112l-470 -525h373l-24 -128h-570l22 112l470 526h-351z" />
    <glyph glyph-name="zacute" unicode="&#x17a;" horiz-adv-x="535" 
d="M272 614l82 174h156l-120 -174h-118zM87 421l23 115h438l-21 -104l-321 -315h264l-22 -117h-453l19 104l322 317h-249z" />
    <glyph glyph-name="Zdotaccent" unicode="&#x17b;" horiz-adv-x="644" 
d="M127 638l25 127h547l-22 -112l-470 -525h373l-24 -128h-570l22 112l470 526h-351zM362 833l27 137h135l-27 -137h-135z" />
    <glyph glyph-name="zdotaccent" unicode="&#x17c;" horiz-adv-x="535" 
d="M87 421l23 115h438l-21 -104l-321 -315h264l-22 -117h-453l19 104l322 317h-249zM275 636l27 137h135l-27 -137h-135z" />
    <glyph glyph-name="Zcaron" unicode="&#x17d;" horiz-adv-x="644" 
d="M362 827l-81 133h108l52 -56h1l70 56h113l-130 -133h-133zM127 638l25 127h547l-22 -112l-470 -525h373l-24 -128h-570l22 112l470 526h-351z" />
    <glyph glyph-name="zcaron" unicode="&#x17e;" horiz-adv-x="535" 
d="M276 614l-72 174h103l46 -77l76 77h107l-137 -174h-123zM87 421l23 115h438l-21 -104l-321 -315h264l-22 -117h-453l19 104l322 317h-249z" />
    <glyph glyph-name="florin" unicode="&#x192;" horiz-adv-x="461" 
d="M303 348l-123 -537h-150l121 537h-112l20 111h117l28 124q25 117 82.5 163t145.5 46q44 0 74 -6l-13 -116q-16 4 -41 4q-38 0 -61 -20t-35 -77l-27 -118h112l-20 -111h-118z" />
    <glyph glyph-name="Aringacute" unicode="&#x1fa;" horiz-adv-x="746" 
d="M428 627q-7 -29 -51 -118l-106 -219h199l-29 215l-11 122h-2zM513 0l-26 172h-274l-85 -172h-159l397 765h180l129 -765h-162zM447 1063l82 133h154l-120 -133h-116zM478 793q-55 1 -90.5 29.5t-35.5 81.5q0 60 38 97.5t98 37.5q61 0 94 -30.5t33 -80.5q0 -61 -38.5 -98
t-98.5 -37zM489 976q-27 0 -43 -19t-16 -50q0 -24 12.5 -38t36.5 -14q25 0 41 19t16 50q0 52 -47 52z" />
    <glyph glyph-name="aringacute" unicode="&#x1fb;" horiz-adv-x="576" 
d="M239 94q43 0 73 35.5t42 97.5l3 15q-79 -2 -113 -9q-72 -15 -72 -74q0 -31 18 -48t49 -17zM226 377h-150q9 78 72 124.5t169 46.5q124 0 174 -61.5t30 -165.5l-31 -162q-6 -28 3.5 -39t34.5 -11l-22 -110h-45q-95 0 -112 69h-3q-36 -39 -71.5 -56.5t-91.5 -17.5
q-71 0 -118 38.5t-47 112.5q0 124 140 163q54 15 215 17l5 28q8 45 -9.5 69t-58.5 24q-74 0 -84 -69zM355 586q-55 1 -90.5 29.5t-35.5 80.5q0 60 38.5 98t97.5 38q61 0 94.5 -31t33.5 -80q0 -61 -38.5 -98t-99.5 -37zM366 769q-27 0 -42.5 -19t-15.5 -51q0 -23 12.5 -37
t35.5 -14q26 0 42 18.5t16 49.5q0 24 -12.5 38.5t-35.5 14.5zM324 864l82 133h154l-120 -133h-116z" />
    <glyph glyph-name="AEacute" unicode="&#x1fc;" horiz-adv-x="1055" 
d="M642 827l82 133h154l-120 -133h-116zM503 303l65 337h-54q-36 -66 -68 -118l-135 -219h192zM444 0l35 183h-242l-113 -183h-176l488 765h647l-24 -125h-330l-38 -197h313l-24 -122h-313l-38 -197h340l-23 -124h-502z" />
    <glyph glyph-name="aeacute" unicode="&#x1fd;" horiz-adv-x="905" 
d="M456 614l82 174h156l-120 -174h-118zM724 321l1 7q17 122 -76 122q-44 0 -75.5 -35.5t-47.5 -93.5h198zM239 94q88 0 115 133l3 15q-79 -2 -113 -9q-72 -15 -72 -74q0 -31 18 -48t49 -17zM845 156q-17 -83 -81 -124t-165 -41q-147 0 -201 100h-2q-39 -47 -86 -72
t-124 -25q-74 0 -121 38.5t-47 111.5q0 125 140 164q54 15 215 17l5 28q8 45 -10 69t-59 24q-75 0 -83 -69h-150q9 82 72.5 126.5t171.5 44.5q115 0 159 -79h1q68 80 177 80q87 0 140.5 -39.5t69.5 -101.5t1 -140l-7 -37h-349q-1 -8 -1 -25q0 -114 91 -114q38 0 62 18t30 46
h151z" />
    <glyph glyph-name="Oslashacute" unicode="&#x1fe;" horiz-adv-x="804" 
d="M468 659q-62 0 -110.5 -39.5t-75 -100.5t-39 -123t-12.5 -119q0 -12 2 -34l355 362q-38 54 -120 54zM386 103q58 0 105.5 39t74 98.5t40 122t13.5 118.5q0 23 -3 42l-356 -363q36 -57 126 -57zM783 461q0 -94 -26.5 -179t-76 -152t-127.5 -106.5t-173 -39.5
q-139 0 -221 73l-81 -82h-107l139 142q-43 73 -43 177q0 132 48.5 241t142.5 175t215 66q129 0 212 -71l85 86h109l-143 -146q47 -75 47 -184zM441 827l82 133h154l-120 -133h-116z" />
    <glyph glyph-name="oslashacute" unicode="&#x1ff;" horiz-adv-x="606" 
d="M333 447q-38 0 -67 -24.5t-45 -62.5t-24 -78t-8 -78v-11l217 219q-23 35 -73 35zM282 89q40 0 69.5 26t44 66t21.5 79t7 76l-214 -216q23 -31 72 -31zM578 324q0 -146 -82 -242t-220 -96q-95 0 -156 43l-66 -67h-93l113 114q-38 55 -38 136q0 138 80.5 237.5t219.5 99.5
q97 0 159 -47l69 70h93l-116 -117q37 -54 37 -131zM296 614l82 174h156l-120 -174h-118z" />
    <glyph glyph-name="Scommaaccent" unicode="&#x218;" horiz-adv-x="673" 
d="M165 -220l55 156h151l-102 -156h-104zM28 222h168q-2 -58 29.5 -87.5t98.5 -29.5q59 0 99 29.5t40 80.5q0 36 -21.5 56t-70.5 34l-94 27q-91 26 -132.5 76t-41.5 127q0 112 84 176.5t210 64.5q121 0 194.5 -58t66.5 -164h-163q3 48 -25 75.5t-80 27.5q-54 0 -88 -27
t-34 -74q0 -32 22.5 -50.5t68.5 -31.5l95 -27q93 -26 133.5 -74.5t40.5 -123.5q0 -119 -86.5 -192t-223.5 -73q-139 0 -218 62t-72 176z" />
    <glyph glyph-name="scommaaccent" unicode="&#x219;" horiz-adv-x="525" 
d="M85 -220l55 156h151l-102 -156h-104zM495 384h-136q1 32 -20.5 48t-56.5 16q-34 0 -55 -15.5t-21 -42.5q0 -22 15 -34t50 -20l66 -15q74 -17 105 -51.5t31 -95.5q0 -90 -66 -139.5t-171 -49.5q-102 0 -164 45t-58 129h142q-2 -36 21 -54.5t64 -18.5q38 0 63 15.5t25 47.5
q0 40 -60 54l-63 14q-141 31 -141 152q0 86 64 133t160 47q95 0 153 -43.5t53 -121.5z" />
    <glyph glyph-name="uni021A" unicode="&#x21a;" horiz-adv-x="644" 
d="M136 -220l55 156h151l-102 -156h-104zM477 636l-123 -636h-162l123 636h-219l25 129h599l-25 -129h-218z" />
    <glyph glyph-name="uni021B" unicode="&#x21b;" horiz-adv-x="393" 
d="M46 -220l55 156h151l-102 -156h-104zM205 687h129l-29 -151h116l-22 -110h-115l-46 -237q-9 -47 2.5 -63.5t52.5 -16.5l44 5l-22 -114q-35 -7 -78 -7q-189 0 -153 186l48 247h-77l22 109h16q49 0 69.5 21t34.5 91z" />
    <glyph glyph-name="uni0237" unicode="&#x237;" horiz-adv-x="293" 
d="M-121 -194l21 108q20 -5 41 -5q63 0 75 68l109 559h156l-111 -569q-34 -173 -210 -173q-51 0 -81 12z" />
    <glyph glyph-name="circumflex" unicode="&#x2c6;" horiz-adv-x="362" 
d="M347 788l72 -174h-103l-48 78l-73 -78h-108l137 174h123z" />
    <glyph glyph-name="caron" unicode="&#x2c7;" horiz-adv-x="350" 
d="M182 614l-72 174h103l46 -77l76 77h107l-137 -174h-123z" />
    <glyph glyph-name="breve" unicode="&#x2d8;" horiz-adv-x="363" 
d="M259 612q-76 0 -116 46t-23 130h98q-7 -35 6.5 -54t42.5 -19t49.5 19t27.5 54h103q-12 -89 -65.5 -132.5t-122.5 -43.5z" />
    <glyph glyph-name="dotaccent" unicode="&#x2d9;" horiz-adv-x="299" 
d="M158 636l27 137h135l-27 -137h-135z" />
    <glyph glyph-name="ring" unicode="&#x2da;" horiz-adv-x="366" 
d="M263 602q-55 1 -90.5 29.5t-35.5 80.5q0 60 38.5 98t97.5 38q61 0 94.5 -31t33.5 -80q0 -61 -38.5 -98t-99.5 -37zM274 785q-27 0 -42.5 -19t-15.5 -51q0 -23 12.5 -37t35.5 -14q26 0 42 18.5t16 49.5q0 24 -12.5 38.5t-35.5 14.5z" />
    <glyph glyph-name="ogonek" unicode="&#x2db;" horiz-adv-x="367" 
d="M138 9l71 -6q-65 -39 -65 -75q0 -27 45 -27l-17 -89h-29q-67 0 -96.5 18t-29.5 58q0 39 32 72.5t89 48.5z" />
    <glyph glyph-name="tilde" unicode="&#x2dc;" horiz-adv-x="363" 
d="M64 614q6 69 44 116.5t101 47.5q32 0 69.5 -25.5t54.5 -25.5q35 0 55 52h76q-7 -71 -44 -118t-100 -47q-32 0 -71.5 25.5t-56.5 25.5q-36 0 -53 -51h-75z" />
    <glyph glyph-name="hungarumlaut" unicode="&#x2dd;" horiz-adv-x="398" 
d="M266 614l85 174h125l-119 -174h-91zM106 614l72 174h125l-106 -174h-91z" />
    <glyph glyph-name="Wgrave" unicode="&#x1e80;" horiz-adv-x="1035" 
d="M651 960l40 -133h-112l-76 133h148zM329 0h-161l-51 765h161l20 -426q2 -43 1.5 -74t-1.5 -48l-1 -17h2q15 52 48 126l198 439h146l32 -428q3 -37 3.5 -71.5t-0.5 -49.5v-16h2q13 53 44 126l188 439h151l-342 -765h-157l-29 448q-3 38 -3.5 70.5t0.5 45.5v14h-2
q-13 -45 -45 -118z" />
    <glyph glyph-name="wgrave" unicode="&#x1e81;" horiz-adv-x="831" 
d="M119 0l-56 536h142l19 -256q2 -28 2.5 -61.5t-0.5 -52.5v-19h2q22 69 47 122l126 267h130l26 -263l5 -127h3q19 70 41 120l119 270h137l-245 -536h-149l-22 220q-3 31 -5 71t-3 65v24h-2q-34 -88 -62 -149l-107 -231h-148zM503 788l36 -174h-115l-73 174h152z" />
    <glyph glyph-name="Wacute" unicode="&#x1e82;" horiz-adv-x="1035" 
d="M563 827l82 133h154l-120 -133h-116zM329 0h-161l-51 765h161l20 -426q2 -43 1.5 -74t-1.5 -48l-1 -17h2q15 52 48 126l198 439h146l32 -428q3 -37 3.5 -71.5t-0.5 -49.5v-16h2q13 53 44 126l188 439h151l-342 -765h-157l-29 448q-3 38 -3.5 70.5t0.5 45.5v14h-2
q-13 -45 -45 -118z" />
    <glyph glyph-name="wacute" unicode="&#x1e83;" horiz-adv-x="831" 
d="M414 614l82 174h156l-120 -174h-118zM119 0l-56 536h142l19 -256q2 -28 2.5 -61.5t-0.5 -52.5v-19h2q22 69 47 122l126 267h130l26 -263l5 -127h3q19 70 41 120l119 270h137l-245 -536h-149l-22 220q-3 31 -5 71t-3 65v24h-2q-34 -88 -62 -149l-107 -231h-148z" />
    <glyph glyph-name="Wdieresis" unicode="&#x1e84;" horiz-adv-x="1035" 
d="M669 828l27 137h133l-27 -137h-133zM458 828l26 137h134l-27 -137h-133zM329 0h-161l-51 765h161l20 -426q2 -43 1.5 -74t-1.5 -48l-1 -17h2q15 52 48 126l198 439h146l32 -428q3 -37 3.5 -71.5t-0.5 -49.5v-16h2q13 53 44 126l188 439h151l-342 -765h-157l-29 448
q-3 38 -3.5 70.5t0.5 45.5v14h-2q-13 -45 -45 -118z" />
    <glyph glyph-name="wdieresis" unicode="&#x1e85;" horiz-adv-x="831" 
d="M520 636l27 137h133l-27 -137h-133zM315 636l27 137h134l-27 -137h-134zM119 0l-56 536h142l19 -256q2 -28 2.5 -61.5t-0.5 -52.5v-19h2q22 69 47 122l126 267h130l26 -263l5 -127h3q19 70 41 120l119 270h137l-245 -536h-149l-22 220q-3 31 -5 71t-3 65v24h-2
q-34 -88 -62 -149l-107 -231h-148z" />
    <glyph glyph-name="Ygrave" unicode="&#x1ef2;" horiz-adv-x="683" 
d="M212 0l64 330l-166 435h170l103 -301h2l217 301h169l-337 -452l-61 -313h-161zM476 960l40 -133h-112l-76 133h148z" />
    <glyph glyph-name="ygrave" unicode="&#x1ef3;" horiz-adv-x="560" 
d="M161 -1l-91 537h157l33 -281q3 -26 4.5 -54t1.5 -43l-1 -15h2q19 51 42 100l136 293h155l-298 -568q-48 -91 -101.5 -129t-147.5 -38q-63 0 -83 10l23 114q21 -6 52 -6q43 0 67.5 14.5t41.5 50.5zM383 788l36 -174h-115l-73 174h152z" />
    <glyph glyph-name="uni2009" unicode="&#x2009;" horiz-adv-x="18" 
 />
    <glyph glyph-name="endash" unicode="&#x2013;" horiz-adv-x="513" 
d="M55 256l22 113h410l-22 -113h-410z" />
    <glyph glyph-name="emdash" unicode="&#x2014;" horiz-adv-x="883" 
d="M56 258l21 109h779l-21 -109h-779z" />
    <glyph glyph-name="quoteleft" unicode="&#x2018;" horiz-adv-x="284" 
d="M329 765l-85 -261h-159l146 261h98z" />
    <glyph glyph-name="quoteright" unicode="&#x2019;" horiz-adv-x="284" 
d="M101 504l86 261h159l-145 -261h-100z" />
    <glyph glyph-name="quotesinglbase" unicode="&#x201a;" horiz-adv-x="284" 
d="M-18 -113l86 261h158l-144 -261h-100z" />
    <glyph glyph-name="quotedblleft" unicode="&#x201c;" horiz-adv-x="486" 
d="M531 765l-86 -261h-155l142 261h99zM327 765l-85 -261h-155l142 261h98z" />
    <glyph glyph-name="quotedblright" unicode="&#x201d;" horiz-adv-x="489" 
d="M308 504l86 261h155l-142 -261h-99zM105 504l85 261h156l-142 -261h-99z" />
    <glyph glyph-name="quotedblbase" unicode="&#x201e;" horiz-adv-x="484" 
d="M186 -113l85 261h155l-141 -261h-99zM-18 -113l86 261h155l-141 -261h-100z" />
    <glyph glyph-name="dagger" unicode="&#x2020;" horiz-adv-x="318" 
d="M270 558l-52 -268h-108l52 268h-85l20 105h85l20 102h108l-20 -102h86l-20 -105h-86z" />
    <glyph glyph-name="daggerdbl" unicode="&#x2021;" horiz-adv-x="318" 
d="M240 392l-20 -102h-108l20 102h-85l18 93h85l16 85h-85l18 93h85l20 102h108l-20 -102h86l-18 -93h-86l-16 -85h86l-18 -93h-86z" />
    <glyph glyph-name="bullet" unicode="&#x2022;" horiz-adv-x="378" 
d="M194 185q-53 0 -86.5 34t-33.5 89q0 53 35 88t86 35q53 0 86.5 -34.5t33.5 -88.5t-35 -88.5t-86 -34.5z" />
    <glyph glyph-name="ellipsis" unicode="&#x2026;" horiz-adv-x="854" 
d="M581 0l30 159h166l-30 -159h-166zM296 0l30 159h166l-30 -159h-166zM12 0l30 159h166l-31 -159h-165z" />
    <glyph glyph-name="perthousand" unicode="&#x2030;" horiz-adv-x="1275" 
d="M79 -40l660 821h117l-659 -821h-118zM104 525q0 94 55.5 155t139.5 61q71 0 113 -39.5t42 -106.5q0 -93 -55.5 -154t-139.5 -61q-71 0 -113 39t-42 106zM263 464q40 0 61.5 40.5t21.5 91.5q0 62 -53 62q-38 0 -60 -39t-24 -93q0 -62 54 -62zM1029 -7q-71 0 -113 38.5
t-42 105.5q0 94 55.5 155t139.5 61q71 0 113 -39t42 -106q0 -93 -55.5 -154t-139.5 -61zM629 -7q-71 0 -113 39t-42 105q0 94 56 155t140 61q71 0 112.5 -39t41.5 -106q0 -93 -55.5 -154t-139.5 -61zM1033 77q40 0 61.5 40t21.5 92q0 61 -53 61q-38 0 -60 -38.5t-24 -92.5
q0 -62 54 -62zM634 77q40 0 61.5 40t21.5 92q0 61 -53 61q-38 0 -60 -38.5t-24 -92.5q0 -62 54 -62z" />
    <glyph glyph-name="uni2032" unicode="&#x2032;" horiz-adv-x="262" 
d="M86 504l71 261h156l-129 -261h-98z" />
    <glyph glyph-name="uni2033" unicode="&#x2033;" horiz-adv-x="465" 
d="M289 504l72 261h154l-127 -261h-99zM86 504l71 261h156l-129 -261h-98z" />
    <glyph glyph-name="guilsinglleft" unicode="&#x2039;" horiz-adv-x="319" 
d="M195 464h116l-138 -206l58 -201h-115l-66 206z" />
    <glyph glyph-name="guilsinglright" unicode="&#x203a;" horiz-adv-x="313" 
d="M127 57h-117l139 206l-58 201h115l65 -205z" />
    <glyph glyph-name="fraction" unicode="&#x2044;" horiz-adv-x="296" 
d="M-240 -40l694 821h108l-694 -821h-108z" />
    <glyph glyph-name="Euro" unicode="&#x20ac;" horiz-adv-x="682" 
d="M637 215q-19 -102 -97 -165.5t-194 -63.5q-120 0 -185.5 67.5t-66.5 196.5h-84l16 77h72q5 46 13 81h-72l15 77h77q42 123 124.5 195t205.5 71q111 -1 172 -61t51 -173h-152q7 54 -14.5 87.5t-71.5 34.5q-104 1 -157 -154h178l-15 -77h-184q-10 -51 -13 -81h183l-15 -77
h-174q-6 -150 106 -150q49 0 83 31.5t46 83.5h153z" />
    <glyph glyph-name="trademark" unicode="&#x2122;" horiz-adv-x="693" 
d="M253 699l-46 -240h-74l46 240h-89l13 66h253l-13 -66h-90zM332 459l59 306h114l18 -157l2 -47h3q7 20 20 47l78 157h125l-59 -306h-73l43 224h-3q-12 -28 -30 -62l-85 -162h-67l-23 161l-5 63h-4l-43 -224h-70z" />
    <glyph glyph-name="onethird" unicode="&#x2153;" horiz-adv-x="914" 
d="M691 184h-54l15 67h47q31 0 51 18t20 45q0 21 -15 32.5t-38 11.5q-55 0 -65 -55h-110q6 57 53.5 95.5t130.5 38.5q72 0 113 -28.5t41 -78.5q0 -85 -95 -110v-2q72 -21 72 -89q0 -66 -52.5 -102t-136.5 -36q-82 0 -126.5 35t-38.5 101h108q-1 -27 15 -41t46 -14
q33 0 52.5 18t19.5 45q0 49 -53 49zM130 334l59 280h-94l17 78h15q41 0 69 16q27 18 34 57h103l-91 -431h-112zM17 -40l694 821h108l-694 -821h-108z" />
    <glyph glyph-name="twothirds" unicode="&#x2154;" horiz-adv-x="1020" 
d="M797 184h-54l15 67h47q31 0 51 18t20 45q0 21 -15 32.5t-38 11.5q-55 0 -65 -55h-110q6 57 53.5 95.5t130.5 38.5q72 0 113 -28.5t41 -78.5q0 -85 -95 -110v-2q72 -21 72 -89q0 -66 -52.5 -102t-136.5 -36q-82 0 -126.5 35t-38.5 101h108q-1 -27 15 -41t46 -14
q33 0 52.5 18t19.5 45q0 49 -53 49zM224 624h-110q7 70 55 108.5t132 38.5q66 0 107.5 -30.5t41.5 -86.5q0 -48 -28 -82t-84 -76l-105 -77v-2h181l-16 -83h-352l12 60l196 153q6 4 17 13t15.5 12.5t13 10t11.5 9.5l9 9t8 9.5t5.5 8.5t4.5 9.5t2 9.5t1 11q0 20 -13.5 32
t-36.5 12q-59 0 -67 -69zM138 -40l694 821h108l-694 -821h-108z" />
    <glyph glyph-name="oneeighth" unicode="&#x215b;" horiz-adv-x="912" 
d="M723 437q72 0 112.5 -28.5t40.5 -78.5q0 -81 -92 -109v-3q73 -24 73 -91q0 -61 -49 -98.5t-142 -37.5q-170 0 -170 115q0 47 28.5 77t76.5 42v3q-52 23 -52 79q0 58 48 94t126 36zM719 363q-31 0 -47 -18.5t-16 -44.5q0 -47 51 -47q27 0 45 17t18 47q0 21 -14.5 33.5
t-36.5 12.5zM672 63q32 0 52 19t20 52q0 25 -17 38.5t-43 13.5q-37 0 -55 -20.5t-18 -50.5q0 -52 61 -52zM130 334l59 280h-94l17 78h15q41 0 69 16q27 18 34 57h103l-91 -431h-112zM20 -40l694 821h108l-694 -821h-108z" />
    <glyph glyph-name="threeeighths" unicode="&#x215c;" horiz-adv-x="999" 
d="M810 438q72 0 112.5 -28.5t40.5 -78.5q0 -81 -92 -109v-3q73 -24 73 -91q0 -61 -49 -98.5t-142 -37.5q-170 0 -170 115q0 47 28.5 77t76.5 42v3q-52 23 -52 79q0 58 48 94t126 36zM806 364q-31 0 -47 -18.5t-16 -44.5q0 -47 51 -47q27 0 45 17t18 47q0 21 -14.5 33.5
t-36.5 12.5zM759 64q32 0 52 19t20 52q0 25 -17 38.5t-43 13.5q-37 0 -55 -20.5t-18 -50.5q0 -52 61 -52zM127 -40l694 821h108l-694 -821h-108zM270 518h-54l14 67h48q31 0 50.5 18t19.5 45q0 21 -14.5 32.5t-37.5 11.5q-56 0 -66 -55h-109q6 57 53.5 95.5t129.5 38.5
q72 0 113.5 -28.5t41.5 -78.5q0 -85 -95 -110v-2q72 -21 72 -89q0 -66 -52.5 -102t-137.5 -36q-81 0 -125.5 35t-38.5 101h108q-1 -27 15 -41t46 -14q33 0 52 18t19 45q0 49 -52 49z" />
    <glyph glyph-name="fiveeighths" unicode="&#x215d;" horiz-adv-x="991" 
d="M803 437q72 0 112.5 -28.5t40.5 -78.5q0 -81 -92 -109v-3q73 -24 73 -91q0 -61 -49 -98.5t-142 -37.5q-170 0 -170 115q0 47 28.5 77t76.5 42v3q-52 23 -52 79q0 58 48 94t126 36zM799 363q-31 0 -47 -18.5t-16 -44.5q0 -47 51 -47q27 0 45 17t18 47q0 21 -14.5 33.5
t-36.5 12.5zM752 63q32 0 52 19t20 52q0 25 -17 38.5t-43 13.5q-37 0 -55 -20.5t-18 -50.5q0 -52 61 -52zM326 488q0 55 -56 55q-38 0 -70 -32h-94l72 254h287l-18 -88h-201l-28 -98h2q41 38 103 38q57 0 86.5 -31t29.5 -83q0 -83 -55 -130.5t-147 -47.5q-80 0 -121 33
t-35 100h109q-1 -24 14.5 -38.5t42.5 -14.5q35 0 57 23.5t22 59.5zM117 -40l694 821h108l-694 -821h-108z" />
    <glyph glyph-name="seveneighths" unicode="&#x215e;" horiz-adv-x="925" 
d="M737 437q72 0 112.5 -28.5t40.5 -78.5q0 -81 -92 -109v-3q73 -24 73 -91q0 -61 -49 -98.5t-142 -37.5q-170 0 -170 115q0 47 28.5 77t76.5 42v3q-52 23 -52 79q0 58 48 94t126 36zM733 363q-31 0 -47 -18.5t-16 -44.5q0 -47 51 -47q27 0 45 17t18 47q0 21 -14.5 33.5
t-36.5 12.5zM686 63q32 0 52 19t20 52q0 25 -17 38.5t-43 13.5q-37 0 -55 -20.5t-18 -50.5q0 -52 61 -52zM80 334l232 344h-202l19 87h333l-13 -62l-250 -369h-119zM21 -40l694 821h108l-694 -821h-108z" />
    <glyph glyph-name="minus" unicode="&#x2212;" horiz-adv-x="618" 
d="M82 300l22 116h471l-22 -116h-471z" />
    <glyph glyph-name="approxequal" unicode="&#x2248;" horiz-adv-x="570" 
d="M79 380q9 75 52 120t114 45q35 0 93.5 -23t80.5 -23q45 0 54 50h97q-10 -79 -50 -122t-107 -43q-37 0 -98.5 23t-82.5 23q-41 0 -54 -50h-99zM40 181q9 75 51.5 120t113.5 45q35 0 94 -23t80 -23q45 0 54 50h98q-11 -79 -51 -122t-107 -43q-37 0 -98 23t-83 23
q-42 0 -54 -50h-98z" />
    <glyph glyph-name="notequal" unicode="&#x2260;" horiz-adv-x="629" 
d="M269 195l-68 -105h-92l68 105h-109l22 115h161l58 90h-202l23 115h253l71 111h92l-71 -111h126l-23 -115h-177l-58 -90h218l-23 -115h-269z" />
    <glyph glyph-name="lessequal" unicode="&#x2264;" horiz-adv-x="623" 
d="M529 154l-439 248l15 73l534 246l-26 -140l-340 -150l280 -154zM500 0h-485l22 115h485z" />
    <glyph glyph-name="greaterequal" unicode="&#x2265;" horiz-adv-x="623" 
d="M165 718l439 -245l-15 -75l-534 -246l26 140l340 151l-280 154zM512 0h-484l22 115h485z" />
    <glyph glyph-name="uni24C5" unicode="&#x24c5;" horiz-adv-x="890" 
d="M72 380q0 169 112.5 283t281.5 114t282 -114t113 -283q0 -168 -113 -282t-282 -114t-281.5 113.5t-112.5 282.5zM466 41q141 0 235.5 97.5t94.5 241.5t-94.5 242t-235.5 98t-235 -97.5t-94 -242.5q0 -144 94 -241.5t235 -97.5zM283 172l81 422h153q70 0 111.5 -33
t40.5 -96q-1 -80 -52 -121t-134 -41h-70l-26 -131h-104zM427 382h55q77 0 79 78q1 28 -15 42.5t-46 14.5h-46z" />
    <glyph glyph-name="quotedblright.sc" horiz-adv-x="489" 
d="M284 383l86 261h155l-142 -261h-99zM81 383l85 261h156l-142 -261h-99z" />
    <glyph glyph-name="Ibreve.sc" horiz-adv-x="304" 
d="M28 0l127 644h154l-127 -644h-154zM255 718q-76 0 -116 46t-23 130h98q-7 -35 6.5 -54t42.5 -19t49.5 19t27.5 54h103q-12 -89 -65.5 -132.5t-122.5 -43.5z" />
    <glyph glyph-name="exclamdown.uc" horiz-adv-x="309" 
d="M267 522l-79 -544h-180l144 544h115zM168 765h172l-29 -152h-172z" />
    <glyph glyph-name="hyphen.uc" horiz-adv-x="412" 
d="M64 296l23 123h309l-24 -123h-308z" />
    <glyph glyph-name="endash.uc" horiz-adv-x="513" 
d="M64 301l22 113h410l-22 -113h-410z" />
    <glyph glyph-name="emdash.uc" horiz-adv-x="883" 
d="M65 303l21 109h779l-21 -109h-779z" />
    <glyph glyph-name="guilsinglleft.uc" horiz-adv-x="310" 
d="M200 524h116l-139 -206l58 -201h-115l-65 206z" />
    <glyph glyph-name="guilsinglright.uc" horiz-adv-x="307" 
d="M138 117h-117l139 206l-58 201h115l65 -205z" />
    <glyph glyph-name="guillemotleft.uc" horiz-adv-x="525" 
d="M414 524h116l-139 -206l58 -201h-114l-66 206zM199 524h116l-138 -206l58 -201h-115l-66 206z" />
    <glyph glyph-name="guillemotright.uc" horiz-adv-x="528" 
d="M138 117h-117l140 206l-59 201h115l64 -205zM358 117h-116l139 206l-58 201h115l65 -205z" />
    <glyph glyph-name="parenleft.uc" horiz-adv-x="351" 
d="M257 -100h-108q-84 164 -84 333q0 305 255 585h120q-115 -148 -176.5 -292t-62.5 -307q-1 -166 56 -319z" />
    <glyph glyph-name="parenright.uc" horiz-adv-x="351" 
d="M121 818h109q83 -162 83 -333q0 -163 -70.5 -312t-183.5 -273h-121q115 148 176.5 292t62.5 307q1 171 -56 319z" />
    <glyph glyph-name="space_uni0326" horiz-adv-x="364" 
d="M42 -220l55 156h151l-102 -156h-104z" />
    <glyph glyph-name="grave.uc" horiz-adv-x="364" 
d="M287 960l40 -133h-112l-76 133h148z" />
    <glyph glyph-name="bracketleft.uc" horiz-adv-x="382" 
d="M20 -100l179 918h259l-19 -96h-130l-141 -726h130l-19 -96h-259z" />
    <glyph glyph-name="bracketright.uc" horiz-adv-x="393" 
d="M398 818l-179 -918h-258l19 96h130l141 726h-130l19 96h258z" />
    <glyph glyph-name="braceleft.uc" horiz-adv-x="406" 
d="M78 309h-29l21 109h30q36 0 49.5 14t21.5 53l31 162q21 107 88.5 147t192.5 28l-18 -92q-72 4 -102.5 -20.5t-41.5 -84.5l-27 -143q-10 -52 -31.5 -79t-70.5 -34v-4q76 -21 53 -135l-26 -127q-12 -61 10.5 -86t95.5 -29l-18 -92q-126 4 -179 51.5t-31 159.5l26 132
q13 70 -45 70z" />
    <glyph glyph-name="braceright.uc" horiz-adv-x="419" 
d="M367 412h29l-21 -109h-29q-36 0 -50 -14.5t-22 -53.5l-31 -162q-21 -107 -88.5 -146.5t-192.5 -27.5l18 91q72 -4 102.5 21t41.5 84l26 136q10 53 33 84t70 37v4q-75 21 -52 134l25 128q13 61 -10 86t-96 29l18 92q126 -5 179 -53t31 -160l-26 -130q-13 -70 45 -70z" />
    <glyph glyph-name="slash.uc" horiz-adv-x="562" 
d="M-82 -91l606 902h126l-605 -902h-127z" />
    <glyph glyph-name="backslash.uc" horiz-adv-x="548" 
d="M378 -91l-263 902h116l265 -902h-118z" />
    <glyph glyph-name="bar.uc" horiz-adv-x="281" 
d="M13 -91l175 902h106l-175 -902h-106z" />
    <glyph glyph-name="acute.uc" horiz-adv-x="364" 
d="M161 827l82 133h154l-120 -133h-116z" />
    <glyph glyph-name="at.uc" horiz-adv-x="1021" 
d="M752 126q-60 0 -95.5 24.5t-41.5 72.5h-3q-54 -95 -155 -95q-73 0 -114.5 48.5t-41.5 129.5q0 112 61.5 194.5t162.5 82.5q46 0 77.5 -21t42.5 -53h2l11 58h128l-58 -275q-19 -92 48 -92q53 0 96 58.5t43 170.5q0 143 -91 230.5t-243 87.5q-171 0 -294.5 -124.5
t-123.5 -310.5q0 -166 94.5 -263t250.5 -97q153 0 262 84l39 -47q-127 -102 -312 -102t-299 116.5t-114 307.5q0 140 68.5 255.5t183.5 180.5t249 65q183 0 297 -103.5t114 -272.5q0 -79 -21.5 -141t-57 -97.5t-77.5 -53.5t-88 -18zM502 218q37 0 67 32t40 84l9 44
q9 48 -8 82t-57 34q-56 0 -87 -59t-31 -129q0 -88 67 -88z" />
    <glyph glyph-name="f.short" horiz-adv-x="363" 
d="M280 426l-83 -426h-153l83 426h-73l22 110h72l15 75q19 102 73.5 142.5t146.5 40.5q39 0 79 -8l-21 -109q-12 3 -39 3q-39 0 -59.5 -16.5t-27.5 -54.5l-14 -73h102l-22 -110h-101z" />
    <glyph glyph-name="f_f.short" horiz-adv-x="707" 
d="M279 426l-82 -426h-153l83 426h-73l22 110h72l12 62q20 102 74 142t146 40q57 0 74 -7l-21 -109q-8 2 -34 2q-39 0 -59.5 -16.5t-27.5 -54.5l-11 -59h191l15 75q19 102 73.5 142.5t146.5 40.5q31 0 79 -8l-21 -109q-15 3 -40 3q-38 0 -59 -16.5t-28 -54.5l-14 -73h102
l-21 -110h-102l-83 -426h-152l83 426h-192z" />
    <glyph glyph-name="macron.uc" horiz-adv-x="364" 
d="M85 838l20 104h336l-21 -104h-335z" />
    <glyph glyph-name="circumflex.uc" horiz-adv-x="364" 
d="M341 960l79 -133h-107l-51 56h-1l-69 -56h-110l126 133h133z" />
    <glyph glyph-name="caron.uc" horiz-adv-x="364" 
d="M185 827l-81 133h108l52 -56h1l70 56h113l-130 -133h-133z" />
    <glyph glyph-name="breve.uc" horiz-adv-x="364" 
d="M117 972h94q-2 -29 13 -46.5t42 -17.5q28 0 48.5 17t29.5 47h100q-16 -82 -66.5 -119.5t-123.5 -37.5q-68 0 -108.5 41.5t-28.5 115.5z" />
    <glyph glyph-name="caron.alt" horiz-adv-x="364" 
d="M168 601l42 187h123l-91 -187h-74z" />
    <glyph glyph-name="dotaccent.uc" horiz-adv-x="364" 
d="M185 833l27 137h135l-27 -137h-135z" />
    <glyph glyph-name="ring.uc" horiz-adv-x="364" 
d="M250 796q-55 1 -90.5 29.5t-35.5 81.5q0 60 38 97.5t98 37.5q61 0 94 -30.5t33 -80.5q0 -61 -38.5 -98t-98.5 -37zM261 979q-27 0 -43 -19t-16 -50q0 -24 12.5 -38t36.5 -14q25 0 41 19t16 50q0 52 -47 52z" />
    <glyph glyph-name="sterling.tab" horiz-adv-x="592" 
d="M534 126l-24 -126h-508l17 92l33 21q68 43 95 82t21 107h-116l19 97h82l-7 42q-23 139 38 225t205 86q115 0 171 -61t44 -162h-144q9 54 -11 83.5t-64 29.5q-58 0 -81.5 -45t-12.5 -129l9 -69h200l-18 -97l-172 1q1 -56 -21.5 -94t-75.5 -72l-14 -9v-2h335z" />
    <glyph glyph-name="tilde.uc" horiz-adv-x="364" 
d="M60 820q7 62 46 108t101 46q33 0 70.5 -25t57.5 -25q19 0 31.5 11t20.5 40h77q-7 -67 -43.5 -110.5t-93.5 -43.5q-40 0 -80.5 25t-56.5 25q-33 0 -54 -51h-76z" />
    <glyph glyph-name="cent.tab" 
d="M251 96l69 352q-57 -17 -87 -88t-30 -150q0 -88 48 -114zM418 199h146q-12 -102 -85.5 -156.5t-177.5 -56.5l-20 -102h-71l21 107q-84 16 -132.5 71.5t-48.5 151.5q0 138 76.5 233.5t212.5 101.5l17 86h71l-17 -90q84 -13 130 -65t44 -136h-151q3 80 -43 101l-70 -359
q41 6 66 36.5t32 76.5z" />
    <glyph glyph-name="plus.tab" 
d="M375 300l-38 -196h-129l38 196h-182l22 116h183l38 194h129l-38 -194h183l-22 -116h-184z" />
    <glyph glyph-name="minus.tab" 
d="M77 300l22 116h471l-22 -116h-471z" />
    <glyph glyph-name="multiply.tab" 
d="M119 97l-75 97l186 159l-133 168l102 86l131 -168l184 162l78 -98l-187 -159l133 -168l-103 -87l-129 170z" />
    <glyph glyph-name="divide.tab" 
d="M271 492l28 143h150l-28 -143h-150zM74 300l22 116h471l-22 -116h-471zM340 78h-149l28 144h149z" />
    <glyph glyph-name="equal.tab" 
d="M93 400l23 115h471l-23 -115h-471zM525 195h-471l22 115h471z" />
    <glyph glyph-name="less.tab" 
d="M496 50l-440 248l15 74l535 246l-26 -141l-340 -149l279 -155z" />
    <glyph glyph-name="greater.tab" 
d="M127 618l439 -246l-15 -75l-533 -246l26 140l339 151l-280 154z" />
    <glyph glyph-name="florin.tab" 
d="M378 348l-123 -537h-150l121 537h-112l20 111h117l28 124q25 116 82.5 162.5t144.5 46.5q45 0 75 -6l-13 -116q-20 4 -41 4q-38 0 -61 -20t-36 -77l-27 -118h113l-21 -111h-117z" />
    <glyph glyph-name="plusminus.tab" 
d="M384 369l-33 -170h-125l33 170h-185l23 116h184l33 168h125l-33 -168h186l-23 -116h-185zM3 0l22 115h495l-22 -115h-495z" />
    <glyph glyph-name="notequal.tab" 
d="M257 195l-68 -105h-92l68 105h-110l22 115h162l58 90h-202l23 115h253l71 111h92l-71 -111h126l-23 -115h-177l-58 -90h217l-22 -115h-269z" />
    <glyph glyph-name="approxequal.tab" 
d="M91 380q10 75 52.5 120t113.5 45q35 0 94 -23t80 -23q45 0 54 50h98q-11 -80 -51 -122.5t-107 -42.5q-37 0 -98 23t-83 23q-41 0 -54 -50h-99zM52 181q9 75 51.5 120t113.5 45q35 0 94 -23t81 -23q45 0 54 50h97q-10 -79 -50.5 -122t-107.5 -43q-36 0 -97.5 23t-82.5 23
q-41 0 -54 -50h-99z" />
    <glyph glyph-name="lessequal.tab" 
d="M526 154l-440 248l15 73l535 246l-26 -140l-340 -150l279 -154zM496 0h-485l23 115h485z" />
    <glyph glyph-name="greaterequal.tab" 
d="M148 718l440 -245l-15 -75l-534 -246l26 140l340 151l-280 154zM496 0h-484l22 115h485z" />
    <glyph glyph-name="period.tab" horiz-adv-x="300" 
d="M43 0l30 159h166l-30 -159h-166z" />
    <glyph glyph-name="comma.tab" horiz-adv-x="300" 
d="M-2 -117l86 276h163l-145 -276h-104z" />
    <glyph glyph-name="colon.tab" horiz-adv-x="300" 
d="M89 368l31 159h164l-31 -159h-164zM182 0h-164l31 159h163z" />
    <glyph glyph-name="semicolon.tab" horiz-adv-x="300" 
d="M95 368l31 159h164l-31 -159h-164zM69 -117h-104l86 276h163z" />
    <glyph glyph-name="hungarumlaut.uc" horiz-adv-x="407" 
d="M287 831l60 133h123l-93 -133h-90zM125 831l47 133h123l-81 -133h-89z" />
    <glyph glyph-name="currency.tab" 
d="M210 348q0 -42 24.5 -68.5t63.5 -26.5q40 0 64.5 26.5t24.5 68.5t-24.5 68.5t-64.5 26.5q-39 0 -63.5 -26.5t-24.5 -68.5zM113 348q0 42 18 83l-97 96l86 86l96 -98q38 19 82 19t84 -20l98 100l86 -86l-101 -98q19 -38 19 -82q0 -46 -19 -82l100 -98l-86 -86l-98 99
q-36 -18 -83 -18q-45 0 -82 17l-97 -99l-85 86l98 96q-19 40 -19 85z" />
    <glyph glyph-name="percent.tab" horiz-adv-x="900" 
d="M86 -40l660 821h117l-659 -821h-118zM113 522q0 94 55.5 156.5t137.5 62.5q73 0 112 -38.5t39 -106.5q0 -93 -55.5 -154.5t-138.5 -61.5q-70 0 -110 38t-40 104zM271 463q40 0 61 39.5t21 90.5q0 66 -54 66q-39 0 -61 -39.5t-22 -94.5q0 -62 55 -62zM633 -7
q-70 0 -110 37.5t-40 103.5q0 94 55.5 156.5t137.5 62.5q72 0 111.5 -38.5t39.5 -105.5q0 -93 -55.5 -154.5t-138.5 -61.5zM641 76q40 0 61 39.5t21 90.5q0 66 -54 66q-39 0 -61 -40t-22 -94q0 -62 55 -62z" />
    <glyph glyph-name="perthousand.tab" horiz-adv-x="1200" 
d="M39 -40l660 821h117l-660 -821h-117zM75 522q0 93 54 155t137 63q67 1 106 -38.5t40 -108.5q1 -92 -53.5 -152t-136.5 -60q-68 0 -107.5 36.5t-39.5 104.5zM230 464q38 0 58 39.5t20 89.5q0 29 -12.5 47t-37.5 18q-38 0 -58.5 -39.5t-20.5 -94.5q0 -28 13.5 -44t37.5 -16
zM973 -7q-68 0 -107 37t-39 104q0 93 54 155.5t136 63.5q68 0 106.5 -39t39.5 -109q1 -91 -53 -151.5t-137 -60.5zM582 -7q-68 0 -107 37t-39 104q0 94 53.5 156t136.5 63q67 0 106 -39.5t40 -108.5q1 -91 -53 -151.5t-137 -60.5zM981 77q38 0 58.5 39t20.5 90q0 28 -13 46
t-38 18q-37 0 -57.5 -39.5t-20.5 -93.5q0 -27 13 -43.5t37 -16.5zM590 77q38 0 58 39t20 90q0 28 -13 46t-37 18q-37 0 -58 -39.5t-21 -93.5q0 -28 13.5 -44t37.5 -16z" />
    <glyph glyph-name="idotaccent" horiz-adv-x="289" 
d="M139 629l28 144h157l-28 -144h-157zM18 0l104 536h156l-104 -536h-156z" />
    <glyph glyph-name="A.sc" horiz-adv-x="660" 
d="M375 526q-6 -24 -42 -100l-88 -187h166l-26 182q-4 29 -6 55.5t-2 37.5v12h-2zM447 0l-21 137h-232l-68 -137h-148l338 644h172l112 -644h-153z" />
    <glyph glyph-name="AE.sc" horiz-adv-x="956" 
d="M457 252l55 279h-31q-30 -50 -56 -88l-124 -191h156zM407 0l29 148h-202l-96 -148h-170l439 644h561l-23 -113h-280l-31 -155h270l-23 -110h-268l-31 -154h290l-22 -112h-443z" />
    <glyph glyph-name="B.sc" horiz-adv-x="646" 
d="M331 0h-303l128 644h246q102 0 158 -37.5t56 -110.5q0 -126 -143 -157v-3q56 -12 88 -47t32 -89q0 -97 -71 -148.5t-191 -51.5zM256 378h106q54 0 79.5 26.5t25.5 67.5q0 69 -87 69h-92zM201 103h124q55 0 88 26t33 76q0 78 -97 78h-111z" />
    <glyph glyph-name="C.sc" horiz-adv-x="678" 
d="M660 420h-159q5 52 -18.5 87.5t-72.5 35.5q-62 0 -106 -50.5t-62 -119.5t-18 -145q0 -59 26 -95t84 -37q104 0 134 126h162q-19 -109 -100.5 -172t-201.5 -63q-125 0 -197 61t-72 182q0 184 94 303.5t269 119.5q116 0 181 -63.5t57 -169.5z" />
    <glyph glyph-name="D.sc" horiz-adv-x="681" 
d="M28 0l127 644h224q125 0 201 -67t76 -190q0 -170 -98 -278.5t-277 -108.5h-253zM204 111h78q102 0 156.5 81t54.5 201q0 71 -38.5 106t-105.5 35h-62z" />
    <glyph glyph-name="Dcroat.sc" horiz-adv-x="681" 
d="M281 0h-253l54 273h-62l21 99h60l54 272h224q125 0 201 -67t76 -190q0 -170 -98 -278.5t-277 -108.5zM204 111h78q102 0 156.5 81t54.5 201q0 71 -38.5 106t-105.5 35h-62l-32 -162h129l-20 -99h-128z" />
    <glyph glyph-name="E.sc" horiz-adv-x="577" 
d="M28 0l128 644h433l-23 -112h-278l-31 -156h267l-22 -110h-267l-31 -155h290l-22 -111h-444z" />
    <glyph glyph-name="Eng.sc" horiz-adv-x="688" 
d="M319 -151h-62l24 109h39q45 0 68.5 11t34.5 37l-134 337q-11 27 -19.5 52.5t-11.5 37.5l-3 12h-2l-87 -445h-138l128 644h160l122 -335q10 -27 17 -53t9 -38l3 -12h3l85 438h138l-102 -516l-15 -79q-22 -113 -79 -156.5t-178 -43.5z" />
    <glyph glyph-name="Eth.sc" horiz-adv-x="681" 
d="M281 0h-253l54 273h-62l21 99h60l54 272h224q125 0 201 -67t76 -190q0 -170 -98 -278.5t-277 -108.5zM204 111h78q102 0 156.5 81t54.5 201q0 71 -38.5 106t-105.5 35h-62l-32 -162h129l-20 -99h-128z" />
    <glyph glyph-name="F.sc" horiz-adv-x="543" 
d="M230 243l-48 -243h-154l128 644h418l-24 -113h-262l-36 -177h252l-22 -111h-252z" />
    <glyph glyph-name="G.sc" horiz-adv-x="697" 
d="M667 444h-154q1 49 -25 77.5t-72 28.5q-65 0 -111.5 -52.5t-66 -121.5t-19.5 -141q0 -144 118 -144q61 -1 100.5 40.5t55.5 102.5l4 15h-138l20 99h285l-69 -348h-122l17 89h-3q-23 -45 -72.5 -74t-121.5 -29q-112 0 -173 66.5t-61 175.5q0 185 100 305t266 120
q126 0 185.5 -58.5t56.5 -150.5z" />
    <glyph glyph-name="H.sc" horiz-adv-x="699" 
d="M234 264l-52 -264h-154l127 644h154l-52 -266h240l52 266h155l-127 -644h-155l52 264h-240z" />
    <glyph glyph-name="I.sc" horiz-adv-x="304" 
d="M28 0l127 644h154l-127 -644h-154z" />
    <glyph glyph-name="IJ.sc" horiz-adv-x="656" 
d="M30 0l127 644h154l-127 -644h-154zM316 -3h-48l24 119h28q57 0 77.5 22.5t31.5 78.5l86 427h152l-89 -444q-23 -115 -81.5 -159t-180.5 -44z" />
    <glyph glyph-name="J.sc" horiz-adv-x="413" 
d="M74 -3h-75l25 119h54q56 0 77 22.5t32 78.5l85 427h152l-88 -444q-23 -115 -81.5 -159t-180.5 -44z" />
    <glyph glyph-name="K.sc" horiz-adv-x="650" 
d="M219 193l-38 -193h-153l128 644h152l-55 -280l269 280h174l-283 -282l170 -362h-160l-126 271z" />
    <glyph glyph-name="L.sc" horiz-adv-x="535" 
d="M28 0l128 644h154l-105 -528h268l-23 -116h-422z" />
    <glyph glyph-name="M.sc" horiz-adv-x="850" 
d="M28 0l127 644h212l39 -320l9 -108h2q20 53 46 104l164 324h229l-128 -644h-146l98 496h-3q-29 -67 -68 -142l-182 -354h-112l-41 354q-4 33 -6 68t-2 54l-1 19h-3l-98 -495h-136z" />
    <glyph glyph-name="N.sc" horiz-adv-x="688" 
d="M28 0l128 644h160l122 -335q10 -27 17 -53t9 -38l3 -12h3l85 438h138l-127 -644h-146l-131 343q-10 27 -18.5 53t-11.5 39l-3 13h-3l-87 -448h-138z" />
    <glyph glyph-name="O.sc" horiz-adv-x="714" 
d="M62 250q0 53 9.5 105t34.5 107t63 96.5t100.5 68t141.5 26.5q119 0 195.5 -67t76.5 -200q0 -52 -9.5 -103.5t-34.5 -106t-63 -95.5t-100 -67.5t-141 -26.5q-120 0 -196.5 63.5t-76.5 199.5zM518 412q0 61 -27.5 97.5t-84.5 36.5q-48 0 -84.5 -31t-56 -81t-29 -102
t-9.5 -104q0 -59 26.5 -96.5t87.5 -37.5q46 0 81.5 30.5t55.5 79.5t30 102.5t10 105.5z" />
    <glyph glyph-name="OE.sc" horiz-adv-x="994" 
d="M342 94q56 0 98 43t58 120l20 98q14 79 -13 135t-96 56q-50 0 -87.5 -31.5t-56.5 -82t-28 -102t-9 -102.5q0 -59 26.5 -96.5t87.5 -37.5zM455 61q-57 -71 -162 -71q-42 0 -80.5 12.5t-74 40t-56 80t-20.5 124.5q1 172 90 288.5t242 116.5q122 0 165 -77h3l12 69h432
l-23 -112h-277l-31 -156h266l-22 -110h-266l-31 -155h290l-23 -111h-442l11 61h-3z" />
    <glyph glyph-name="Oslash.sc" horiz-adv-x="714" 
d="M409 546q-50 0 -88.5 -30.5t-60 -80t-32 -102t-10.5 -105.5v-11l286 284q-31 45 -95 45zM336 94q49 0 87 30.5t59.5 79t32.5 101.5t11 105v16l-288 -285q29 -47 98 -47zM682 392q0 -53 -9.5 -105t-35 -107.5t-64.5 -97t-103 -68.5t-145 -27q-113 0 -183 58l-67 -66h-97
l119 118q-36 61 -36 149q0 53 9.5 105.5t35 108t64.5 97.5t103 69t145 27q107 0 180 -59l73 73h98l-126 -125q39 -61 39 -150z" />
    <glyph glyph-name="P.sc" horiz-adv-x="604" 
d="M317 214h-93l-42 -214h-154l128 644h220q105 0 168.5 -46.5t63.5 -136.5q0 -120 -81 -183.5t-210 -63.5zM246 325h83q59 0 93.5 34t34.5 96q0 41 -25.5 61.5t-70.5 20.5h-73z" />
    <glyph glyph-name="Q.sc" horiz-adv-x="714" 
d="M326 -11q-115 0 -189.5 63.5t-74.5 198.5q0 53 9.5 105t35 106.5t63.5 96t100.5 68t140.5 26.5q121 0 196.5 -67.5t75.5 -198.5q0 -119 -43.5 -205t-117.5 -132v-5q43 -10 67 -30t44 -61l-131 -70q-31 57 -60.5 82t-76.5 25q-8 0 -17 -1t-22 -1zM342 93q45 0 80.5 29.5
t55.5 77t30.5 101.5t10.5 110q0 60 -28 97.5t-84 37.5q-48 0 -84.5 -31t-56.5 -80.5t-29.5 -102t-9.5 -104.5q0 -59 27 -97t88 -38z" />
    <glyph glyph-name="R.sc" horiz-adv-x="646" 
d="M249 344h94q56 0 89.5 29.5t33.5 86.5q0 81 -105 81h-74zM229 242l-48 -242h-153l127 644h223q74 0 131 -21q113 -42 113 -160q0 -72 -39 -124.5t-117 -76.5v-2l110 -260h-160l-97 242h-90z" />
    <glyph glyph-name="S.sc" horiz-adv-x="608" 
d="M32 187h157q0 -92 102 -92q49 0 79.5 22t30.5 61q0 29 -15.5 47t-52.5 28l-71 20q-86 24 -121.5 66.5t-35.5 107.5q0 93 65.5 149.5t180.5 56.5q118 0 181.5 -51t58.5 -135h-155q2 37 -21 57.5t-66 20.5q-42 0 -68 -20t-26 -56q0 -29 17 -44t55 -26l77 -22
q88 -25 120.5 -64t32.5 -104q0 -102 -75 -162.5t-199 -60.5q-125 0 -191 55.5t-60 145.5z" />
    <glyph glyph-name="T.sc" horiz-adv-x="592" 
d="M429 527l-104 -527h-156l104 527h-187l24 117h528l-23 -117h-186z" />
    <glyph glyph-name="Tbar.sc" horiz-adv-x="592" 
d="M383 292l-58 -292h-156l58 292h-145l19 99h145l27 136h-187l24 117h528l-23 -117h-186l-27 -136h145l-20 -99h-144z" />
    <glyph glyph-name="Thorn.sc" horiz-adv-x="594" 
d="M307 232h6q116 3 116 102q0 86 -104 86h-60l-37 -188h79zM305 128h-98l-25 -128h-154l128 644h154l-24 -123h64q104 0 166.5 -44t62.5 -136q0 -110 -74 -161.5t-200 -51.5z" />
    <glyph glyph-name="U.sc" horiz-adv-x="668" 
d="M70 246l79 398h156l-79 -390q-15 -82 10 -115q25 -34 84 -34q58 0 91 33q25 26 39 98l80 408h154l-86 -435q-43 -223 -290 -223q-136 0 -199 69.5t-39 190.5z" />
    <glyph glyph-name="V.sc" horiz-adv-x="633" 
d="M187 0l-91 644h152l45 -396l8 -104h2q13 41 42 100l198 400h154l-334 -644h-176z" />
    <glyph glyph-name="W.sc" horiz-adv-x="907" 
d="M301 0h-155l-45 644h150l16 -340q1 -36 0.5 -61.5t-1.5 -40.5l-1 -14h3q12 44 40 106l155 350h137l28 -342q3 -31 3.5 -59.5t0.5 -41.5l-1 -13h3q10 45 36 106l146 350h146l-282 -644h-152l-23 361q-2 32 -2.5 59t-0.5 38l1 11h-3q-10 -41 -40 -109z" />
    <glyph glyph-name="X.sc" horiz-adv-x="643" 
d="M-22 0l280 341l-134 303h161l81 -202h2l151 202h167l-258 -313l151 -331h-164l-94 230h-2l-174 -230h-167z" />
    <glyph glyph-name="Y.sc" horiz-adv-x="601" 
d="M174 0l56 281l-142 363h154l87 -250h2l174 250h158l-284 -378l-53 -266h-152z" />
    <glyph glyph-name="Z.sc" horiz-adv-x="583" 
d="M115 531l23 113h477l-19 -100l-391 -430h310l-23 -114h-495l20 101l390 430h-292z" />
    <glyph glyph-name="ampersand.sc" horiz-adv-x="656" 
d="M279 492q0 -40 37 -88q44 20 67 43.5t23 59.5q0 25 -15 41.5t-41 16.5q-32 0 -51.5 -22t-19.5 -51zM243 283l-5 -3q-74 -35 -74 -102q0 -37 24.5 -58.5t70.5 -21.5q49 0 96 36zM584 0h-27q-50 0 -79 10.5t-55 36.5q-81 -60 -193 -60q-96 0 -152.5 44t-56.5 127
q0 72 44 118.5t125 82.5q-41 57 -41 116q0 82 60 129.5t146 47.5q78 1 126.5 -37t47.5 -102q0 -109 -165 -181l76 -102q34 52 69 115h131q-96 -161 -129 -206q19 -19 39 -25.5t55 -6.5z" />
    <glyph glyph-name="uni0237.sc" horiz-adv-x="413" 
d="M74 -3h-75l25 119h54q56 0 77 22.5t32 78.5l85 427h152l-88 -444q-23 -115 -81.5 -159t-180.5 -44z" />
    <glyph glyph-name="exclam.sc" horiz-adv-x="322" 
d="M101 206l60 438h173l-125 -438h-108zM199 0h-165l26 138h165z" />
    <glyph glyph-name="exclamdown.sc" horiz-adv-x="322" 
d="M268 438l-60 -438h-173l125 438h108zM170 644h165l-26 -138h-165z" />
    <glyph glyph-name="germandbls.sc" horiz-adv-x="1216" 
d="M32 187h157q0 -92 102 -92q49 0 79.5 22t30.5 61q0 29 -15.5 47t-52.5 28l-71 20q-86 24 -121.5 66.5t-35.5 107.5q0 93 65.5 149.5t180.5 56.5q118 0 181.5 -51t58.5 -135h-155q2 37 -21 57.5t-66 20.5q-42 0 -68 -20t-26 -56q0 -29 17 -44t55 -26l77 -22
q88 -25 120.5 -64t32.5 -104q0 -102 -75 -162.5t-199 -60.5q-125 0 -191 55.5t-60 145.5zM640 187h157q0 -92 102 -92q49 0 79.5 22t30.5 61q0 29 -15.5 47t-52.5 28l-71 20q-86 24 -121.5 66.5t-35.5 107.5q0 93 65.5 149.5t180.5 56.5q118 0 181.5 -51t58.5 -135h-155
q2 37 -21 57.5t-66 20.5q-42 0 -68 -20t-26 -56q0 -29 17 -44t55 -26l77 -22q88 -25 120.5 -64t32.5 -104q0 -102 -75 -162.5t-199 -60.5q-125 0 -191 55.5t-60 145.5z" />
    <glyph glyph-name="question.sc" horiz-adv-x="580" 
d="M353 204h-132l7 33q8 37 22.5 60.5t46.5 45.5l66 45q56 38 56 92q0 30 -21.5 49t-56.5 19q-94 0 -99 -109h-142q2 91 68 153.5t185 62.5q102 0 159.5 -47.5t57.5 -121.5q0 -57 -27.5 -97.5t-82.5 -75.5l-66 -42q-21 -14 -28 -24.5t-11 -30.5zM165 0l26 138h165l-26 -138
h-165z" />
    <glyph glyph-name="questiondown.sc" horiz-adv-x="566" 
d="M250 440h132l-7 -33q-8 -37 -22.5 -60.5t-46.5 -45.5l-66 -45q-56 -38 -56 -92q0 -30 21.5 -49t56.5 -19q94 0 99 109h142q-2 -91 -68 -153.5t-185 -62.5q-102 0 -159.5 47.5t-57.5 121.5q0 57 27.5 97.5t82.5 75.5l66 42q21 14 28 24.5t11 30.5zM438 644l-26 -138h-165
l26 138h165z" />
    <glyph glyph-name="quotedblleft.sc" horiz-adv-x="486" 
d="M507 644l-86 -261h-155l142 261h99zM303 644l-85 -261h-155l142 261h98z" />
    <glyph glyph-name="space.tab" horiz-adv-x="300" 
 />
    <glyph glyph-name="quoteleft.sc" horiz-adv-x="284" 
d="M305 644l-85 -261h-159l146 261h98z" />
    <glyph glyph-name="quoteright.sc" horiz-adv-x="284" 
d="M77 383l86 261h159l-145 -261h-100z" />
    <glyph glyph-name="Lslash.sc" horiz-adv-x="535" 
d="M29 0l44 222l-72 -22l22 108l71 21l62 315h154l-53 -265l194 58l-21 -108l-194 -58l-31 -155h268l-23 -116h-421z" />
    <glyph glyph-name="AEacute.sc" horiz-adv-x="956" 
d="M569 720l82 174h156l-120 -174h-118zM457 252l55 279h-31q-30 -50 -56 -88l-124 -191h156zM407 0l29 148h-202l-96 -148h-170l439 644h561l-23 -113h-280l-31 -155h270l-23 -110h-268l-31 -154h290l-22 -112h-443z" />
    <glyph glyph-name="Aacute.sc" horiz-adv-x="660" 
d="M354 720l82 174h156l-120 -174h-118zM375 526q-6 -24 -42 -100l-88 -187h166l-26 182q-4 29 -6 55.5t-2 37.5v12h-2zM447 0l-21 137h-232l-68 -137h-148l338 644h172l112 -644h-153z" />
    <glyph glyph-name="Abreve.sc" horiz-adv-x="660" 
d="M375 526q-6 -24 -42 -100l-88 -187h166l-26 182q-4 29 -6 55.5t-2 37.5v12h-2zM447 0l-21 137h-232l-68 -137h-148l338 644h172l112 -644h-153zM423 718q-76 0 -116 46t-23 130h98q-7 -35 6.5 -54t42.5 -19t49.5 19t27.5 54h103q-12 -89 -65.5 -132.5t-122.5 -43.5z" />
    <glyph glyph-name="Acircumflex.sc" horiz-adv-x="660" 
d="M508 894l72 -174h-103l-48 78l-73 -78h-108l137 174h123zM375 526q-6 -24 -42 -100l-88 -187h166l-26 182q-4 29 -6 55.5t-2 37.5v12h-2zM447 0l-21 137h-232l-68 -137h-148l338 644h172l112 -644h-153z" />
    <glyph glyph-name="Adieresis.sc" horiz-adv-x="660" 
d="M454 742l27 137h133l-27 -137h-133zM249 742l27 137h134l-27 -137h-134zM375 526q-6 -24 -42 -100l-88 -187h166l-26 182q-4 29 -6 55.5t-2 37.5v12h-2zM447 0l-21 137h-232l-68 -137h-148l338 644h172l112 -644h-153z" />
    <glyph glyph-name="Agrave.sc" horiz-adv-x="660" 
d="M375 526q-6 -24 -42 -100l-88 -187h166l-26 182q-4 29 -6 55.5t-2 37.5v12h-2zM447 0l-21 137h-232l-68 -137h-148l338 644h172l112 -644h-153zM441 894l36 -174h-115l-73 174h152z" />
    <glyph glyph-name="Amacron.sc" horiz-adv-x="660" 
d="M375 526q-6 -24 -42 -100l-88 -187h166l-26 182q-4 29 -6 55.5t-2 37.5v12h-2zM447 0l-21 137h-232l-68 -137h-148l338 644h172l112 -644h-153zM251 742l20 104h335l-19 -104h-336z" />
    <glyph glyph-name="Aogonek.sc" horiz-adv-x="660" 
d="M375 526q-6 -24 -42 -100l-88 -187h166l-26 182q-4 29 -6 55.5t-2 37.5v12h-2zM580 -102l-17 -89h-29q-67 0 -96.5 18t-29.5 58q0 36 27 67t75 48h-63l-21 137h-232l-68 -137h-148l338 644h172l112 -644q-65 -39 -65 -75q0 -27 45 -27z" />
    <glyph glyph-name="Aring.sc" horiz-adv-x="660" 
d="M430 708q-55 1 -90.5 29.5t-35.5 80.5q0 60 38.5 98t97.5 38q61 0 94.5 -31t33.5 -80q0 -61 -38.5 -98t-99.5 -37zM441 891q-27 0 -42.5 -19t-15.5 -51q0 -23 12.5 -37t35.5 -14q26 0 42 18.5t16 49.5q0 24 -12.5 38.5t-35.5 14.5zM375 526q-6 -24 -42 -100l-88 -187h166
l-26 182q-4 29 -6 55.5t-2 37.5v12h-2zM447 0l-21 137h-232l-68 -137h-148l338 644h172l112 -644h-153z" />
    <glyph glyph-name="uni01FA.sc" horiz-adv-x="660" 
d="M430 708q-55 1 -90.5 29.5t-35.5 80.5q0 60 38.5 98t97.5 38q61 0 94.5 -31t33.5 -80q0 -61 -38.5 -98t-99.5 -37zM441 891q-27 0 -42.5 -19t-15.5 -51q0 -23 12.5 -37t35.5 -14q26 0 42 18.5t16 49.5q0 24 -12.5 38.5t-35.5 14.5zM375 526q-6 -24 -42 -100l-88 -187h166
l-26 182q-4 29 -6 55.5t-2 37.5v12h-2zM447 0l-21 137h-232l-68 -137h-148l338 644h172l112 -644h-153zM399 1004l82 133h154l-120 -133h-116z" />
    <glyph glyph-name="Atilde.sc" horiz-adv-x="660" 
d="M375 526q-6 -24 -42 -100l-88 -187h166l-26 182q-4 29 -6 55.5t-2 37.5v12h-2zM447 0l-21 137h-232l-68 -137h-148l338 644h172l112 -644h-153zM229 720q6 69 44 116.5t101 47.5q32 0 69.5 -25.5t54.5 -25.5q35 0 55 52h76q-7 -71 -44 -118t-100 -47q-32 0 -71.5 25.5
t-56.5 25.5q-36 0 -53 -51h-75z" />
    <glyph glyph-name="Cacute.sc" horiz-adv-x="678" 
d="M381 720l82 174h156l-120 -174h-118zM660 420h-159q5 52 -18.5 87.5t-72.5 35.5q-62 0 -106 -50.5t-62 -119.5t-18 -145q0 -59 26 -95t84 -37q104 0 134 126h162q-19 -109 -100.5 -172t-201.5 -63q-125 0 -197 61t-72 182q0 184 94 303.5t269 119.5q116 0 181 -63.5
t57 -169.5z" />
    <glyph glyph-name="Ccaron.sc" horiz-adv-x="678" 
d="M368 720l-72 174h103l46 -77l76 77h107l-137 -174h-123zM660 420h-159q5 52 -18.5 87.5t-72.5 35.5q-62 0 -106 -50.5t-62 -119.5t-18 -145q0 -59 26 -95t84 -37q104 0 134 126h162q-19 -109 -100.5 -172t-201.5 -63q-125 0 -197 61t-72 182q0 184 94 303.5t269 119.5
q116 0 181 -63.5t57 -169.5z" />
    <glyph glyph-name="Ccedilla.sc" horiz-adv-x="678" 
d="M275 -225q-43 0 -73 19.5t-27 58.5h77q3 -20 29 -20q17 0 27 9.5t10 24.5q0 29 -28 29q-19 0 -30 -13h-62l56 110q-92 16 -143.5 76t-51.5 161q0 184 94 303.5t269 119.5q116 0 181 -63.5t57 -169.5h-159q5 52 -18.5 87.5t-72.5 35.5q-62 0 -106 -50.5t-62 -119.5
t-18 -145q0 -59 26 -95t84 -37q104 0 134 126h162q-19 -109 -100.5 -172t-201.5 -63h-21l-27 -53h2q20 15 50 15q31 0 50.5 -19t19.5 -50q0 -48 -33 -76.5t-94 -28.5z" />
    <glyph glyph-name="Ccircumflex.sc" horiz-adv-x="678" 
d="M535 894l72 -174h-103l-48 78l-73 -78h-108l137 174h123zM660 420h-159q5 52 -18.5 87.5t-72.5 35.5q-62 0 -106 -50.5t-62 -119.5t-18 -145q0 -59 26 -95t84 -37q104 0 134 126h162q-19 -109 -100.5 -172t-201.5 -63q-125 0 -197 61t-72 182q0 184 94 303.5t269 119.5
q116 0 181 -63.5t57 -169.5z" />
    <glyph glyph-name="Cdotaccent.sc" horiz-adv-x="678" 
d="M660 420h-159q5 52 -18.5 87.5t-72.5 35.5q-62 0 -106 -50.5t-62 -119.5t-18 -145q0 -59 26 -95t84 -37q104 0 134 126h162q-19 -109 -100.5 -172t-201.5 -63q-125 0 -197 61t-72 182q0 184 94 303.5t269 119.5q116 0 181 -63.5t57 -169.5zM377 742l27 137h135l-27 -137
h-135z" />
    <glyph glyph-name="Dcaron.sc" horiz-adv-x="681" 
d="M28 0l127 644h224q125 0 201 -67t76 -190q0 -170 -98 -278.5t-277 -108.5h-253zM204 111h78q102 0 156.5 81t54.5 201q0 71 -38.5 106t-105.5 35h-62zM332 720l-72 174h103l46 -77l76 77h107l-137 -174h-123z" />
    <glyph glyph-name="Eacute.sc" horiz-adv-x="577" 
d="M326 720l82 174h156l-120 -174h-118zM28 0l128 644h433l-23 -112h-278l-31 -156h267l-22 -110h-267l-31 -155h290l-22 -111h-444z" />
    <glyph glyph-name="Ecaron.sc" horiz-adv-x="577" 
d="M314 720l-72 174h103l46 -77l76 77h107l-137 -174h-123zM28 0l128 644h433l-23 -112h-278l-31 -156h267l-22 -110h-267l-31 -155h290l-22 -111h-444z" />
    <glyph glyph-name="Ecircumflex.sc" horiz-adv-x="577" 
d="M480 894l72 -174h-103l-48 78l-73 -78h-108l137 174h123zM28 0l128 644h433l-23 -112h-278l-31 -156h267l-22 -110h-267l-31 -155h290l-22 -111h-444z" />
    <glyph glyph-name="Edieresis.sc" horiz-adv-x="577" 
d="M426 742l27 137h133l-27 -137h-133zM221 742l27 137h134l-27 -137h-134zM28 0l128 644h433l-23 -112h-278l-31 -156h267l-22 -110h-267l-31 -155h290l-22 -111h-444z" />
    <glyph glyph-name="Edotaccent.sc" horiz-adv-x="577" 
d="M323 742l27 137h135l-27 -137h-135zM28 0l128 644h433l-23 -112h-278l-31 -156h267l-22 -110h-267l-31 -155h290l-22 -111h-444z" />
    <glyph glyph-name="Egrave.sc" horiz-adv-x="577" 
d="M413 894l36 -174h-115l-73 174h152zM28 0l128 644h433l-23 -112h-278l-31 -156h267l-22 -110h-267l-31 -155h290l-22 -111h-444z" />
    <glyph glyph-name="Emacron.sc" horiz-adv-x="577" 
d="M222 742l20 104h335l-19 -104h-336zM28 0l128 644h433l-23 -112h-278l-31 -156h267l-22 -110h-267l-31 -155h290l-22 -111h-444z" />
    <glyph glyph-name="Eogonek.sc" horiz-adv-x="577" 
d="M452 -102l-17 -89h-29q-67 0 -96.5 18t-29.5 58q0 36 27 67t75 48h-354l128 644h433l-23 -112h-278l-31 -156h267l-22 -110h-267l-31 -155h290l-22 -111q-65 -39 -65 -75q0 -27 45 -27z" />
    <glyph glyph-name="Gbreve.sc" horiz-adv-x="697" 
d="M667 444h-154q1 49 -25 77.5t-72 28.5q-65 0 -111.5 -52.5t-66 -121.5t-19.5 -141q0 -144 118 -144q61 -1 100.5 40.5t55.5 102.5l4 15h-138l20 99h285l-69 -348h-122l17 89h-3q-23 -45 -72.5 -74t-121.5 -29q-112 0 -173 66.5t-61 175.5q0 185 100 305t266 120
q126 0 185.5 -58.5t56.5 -150.5zM455 718q-76 0 -116 46t-23 130h98q-7 -35 6.5 -54t42.5 -19t49.5 19t27.5 54h103q-12 -89 -65.5 -132.5t-122.5 -43.5z" />
    <glyph glyph-name="Gcircumflex.sc" horiz-adv-x="697" 
d="M541 894l72 -174h-103l-48 78l-73 -78h-108l137 174h123zM667 444h-154q1 49 -25 77.5t-72 28.5q-65 0 -111.5 -52.5t-66 -121.5t-19.5 -141q0 -144 118 -144q61 -1 100.5 40.5t55.5 102.5l4 15h-138l20 99h285l-69 -348h-122l17 89h-3q-23 -45 -72.5 -74t-121.5 -29
q-112 0 -173 66.5t-61 175.5q0 185 100 305t266 120q126 0 185.5 -58.5t56.5 -150.5z" />
    <glyph glyph-name="Gcommaaccent.sc" horiz-adv-x="697" 
d="M171 -220l55 156h151l-102 -156h-104zM667 444h-154q1 49 -25 77.5t-72 28.5q-65 0 -111.5 -52.5t-66 -121.5t-19.5 -141q0 -144 118 -144q61 -1 100.5 40.5t55.5 102.5l4 15h-138l20 99h285l-69 -348h-122l17 89h-3q-23 -45 -72.5 -74t-121.5 -29q-112 0 -173 66.5
t-61 175.5q0 185 100 305t266 120q126 0 185.5 -58.5t56.5 -150.5z" />
    <glyph glyph-name="Gdotaccent.sc" horiz-adv-x="697" 
d="M667 444h-154q1 49 -25 77.5t-72 28.5q-65 0 -111.5 -52.5t-66 -121.5t-19.5 -141q0 -144 118 -144q61 -1 100.5 40.5t55.5 102.5l4 15h-138l20 99h285l-69 -348h-122l17 89h-3q-23 -45 -72.5 -74t-121.5 -29q-112 0 -173 66.5t-61 175.5q0 185 100 305t266 120
q126 0 185.5 -58.5t56.5 -150.5zM383 742l27 137h135l-27 -137h-135z" />
    <glyph glyph-name="Hcircumflex.sc" horiz-adv-x="699" 
d="M537 894l72 -174h-103l-48 78l-73 -78h-108l137 174h123zM234 264l-52 -264h-154l127 644h154l-52 -266h240l52 266h155l-127 -644h-155l52 264h-240z" />
    <glyph glyph-name="Iacute.sc" horiz-adv-x="304" 
d="M186 720l82 174h156l-120 -174h-118zM28 0l127 644h154l-127 -644h-154z" />
    <glyph glyph-name="questiondown.uc" horiz-adv-x="585" 
d="M273 526h138l-11 -57q-10 -51 -26.5 -76t-63.5 -57l-65 -44q-75 -51 -75 -118q0 -39 25.5 -61.5t70.5 -22.5q57 0 90.5 36t35.5 107h149q-4 -119 -77 -191t-208 -72q-106 0 -172.5 51.5t-66.5 139.5q0 71 32 120.5t96 91.5l72 48q26 17 35 31.5t15 43.5zM473 765
l-29 -152h-172l30 152h171z" />
    <glyph glyph-name="Icircumflex.sc" horiz-adv-x="304" 
d="M340 894l72 -174h-103l-48 78l-73 -78h-108l137 174h123zM28 0l127 644h154l-127 -644h-154z" />
    <glyph glyph-name="Idieresis.sc" horiz-adv-x="304" 
d="M286 742l27 137h133l-27 -137h-133zM81 742l27 137h134l-27 -137h-134zM28 0l127 644h154l-127 -644h-154z" />
    <glyph glyph-name="Igrave.sc" horiz-adv-x="304" 
d="M28 0l127 644h154l-127 -644h-154zM273 894l36 -174h-115l-73 174h152z" />
    <glyph glyph-name="Imacron.sc" horiz-adv-x="304" 
d="M28 0l127 644h154l-127 -644h-154zM83 742l20 104h335l-19 -104h-336z" />
    <glyph glyph-name="Iogonek.sc" horiz-adv-x="304" 
d="M163 -99l-17 -89h-29q-67 0 -96.5 18t-29.5 58q0 34 24.5 64t69.5 48h-57l127 644h154l-127 -644q-64 -38 -64 -72q0 -27 45 -27z" />
    <glyph glyph-name="Itilde.sc" horiz-adv-x="304" 
d="M28 0l127 644h154l-127 -644h-154zM61 720q6 69 44 116.5t101 47.5q32 0 69.5 -25.5t54.5 -25.5q35 0 55 52h76q-7 -71 -44 -118t-100 -47q-32 0 -71.5 25.5t-56.5 25.5q-36 0 -53 -51h-75z" />
    <glyph glyph-name="Jcircumflex.sc" horiz-adv-x="413" 
d="M454 894l72 -174h-103l-48 78l-73 -78h-108l137 174h123zM74 -3h-75l25 119h54q56 0 77 22.5t32 78.5l85 427h152l-88 -444q-23 -115 -81.5 -159t-180.5 -44z" />
    <glyph glyph-name="Kcommaaccent.sc" horiz-adv-x="650" 
d="M155 -220l55 156h151l-102 -156h-104zM219 193l-38 -193h-153l128 644h152l-55 -280l269 280h174l-283 -282l170 -362h-160l-126 271z" />
    <glyph glyph-name="Lacute.sc" horiz-adv-x="535" 
d="M28 0l128 644h154l-105 -528h268l-23 -116h-422zM193 729l82 174h156l-120 -174h-118z" />
    <glyph glyph-name="Lcaron.sc" horiz-adv-x="535" 
d="M28 0l128 644h154l-105 -528h268l-23 -116h-422zM352 457l42 187h123l-91 -187h-74z" />
    <glyph glyph-name="Lcommaaccent.sc" horiz-adv-x="535" 
d="M28 0l128 644h154l-105 -528h268l-23 -116h-422zM103 -220l55 156h151l-102 -156h-104z" />
    <glyph glyph-name="Nacute.sc" horiz-adv-x="688" 
d="M385 720l82 174h156l-120 -174h-118zM28 0l128 644h160l122 -335q10 -27 17 -53t9 -38l3 -12h3l85 438h138l-127 -644h-146l-131 343q-10 27 -18.5 53t-11.5 39l-3 13h-3l-87 -448h-138z" />
    <glyph glyph-name="Ncaron.sc" horiz-adv-x="688" 
d="M372 720l-72 174h103l46 -77l76 77h107l-137 -174h-123zM28 0l128 644h160l122 -335q10 -27 17 -53t9 -38l3 -12h3l85 438h138l-127 -644h-146l-131 343q-10 27 -18.5 53t-11.5 39l-3 13h-3l-87 -448h-138z" />
    <glyph glyph-name="Ncommaaccent.sc" horiz-adv-x="688" 
d="M169 -220l55 156h151l-102 -156h-104zM28 0l128 644h160l122 -335q10 -27 17 -53t9 -38l3 -12h3l85 438h138l-127 -644h-146l-131 343q-10 27 -18.5 53t-11.5 39l-3 13h-3l-87 -448h-138z" />
    <glyph glyph-name="Ntilde.sc" horiz-adv-x="688" 
d="M28 0l128 644h160l122 -335q10 -27 17 -53t9 -38l3 -12h3l85 438h138l-127 -644h-146l-131 343q-10 27 -18.5 53t-11.5 39l-3 13h-3l-87 -448h-138zM260 720q6 69 44 116.5t101 47.5q32 0 69.5 -25.5t54.5 -25.5q35 0 55 52h76q-7 -71 -44 -118t-100 -47
q-32 0 -71.5 25.5t-56.5 25.5q-36 0 -53 -51h-75z" />
    <glyph glyph-name="Oacute.sc" horiz-adv-x="714" 
d="M62 250q0 53 9.5 105t34.5 107t63 96.5t100.5 68t141.5 26.5q119 0 195.5 -67t76.5 -200q0 -52 -9.5 -103.5t-34.5 -106t-63 -95.5t-100 -67.5t-141 -26.5q-120 0 -196.5 63.5t-76.5 199.5zM518 412q0 61 -27.5 97.5t-84.5 36.5q-48 0 -84.5 -31t-56 -81t-29 -102
t-9.5 -104q0 -59 26.5 -96.5t87.5 -37.5q46 0 81.5 30.5t55.5 79.5t30 102.5t10 105.5zM384 720l82 174h156l-120 -174h-118z" />
    <glyph glyph-name="Obreve.sc" horiz-adv-x="714" 
d="M62 250q0 53 9.5 105t34.5 107t63 96.5t100.5 68t141.5 26.5q119 0 195.5 -67t76.5 -200q0 -52 -9.5 -103.5t-34.5 -106t-63 -95.5t-100 -67.5t-141 -26.5q-120 0 -196.5 63.5t-76.5 199.5zM518 412q0 61 -27.5 97.5t-84.5 36.5q-48 0 -84.5 -31t-56 -81t-29 -102
t-9.5 -104q0 -59 26.5 -96.5t87.5 -37.5q46 0 81.5 30.5t55.5 79.5t30 102.5t10 105.5zM452 718q-76 0 -116 46t-23 130h98q-7 -35 6.5 -54t42.5 -19t49.5 19t27.5 54h103q-12 -89 -65.5 -132.5t-122.5 -43.5z" />
    <glyph glyph-name="Ocircumflex.sc" horiz-adv-x="714" 
d="M537 894l72 -174h-103l-48 78l-73 -78h-108l137 174h123zM62 250q0 53 9.5 105t34.5 107t63 96.5t100.5 68t141.5 26.5q119 0 195.5 -67t76.5 -200q0 -52 -9.5 -103.5t-34.5 -106t-63 -95.5t-100 -67.5t-141 -26.5q-120 0 -196.5 63.5t-76.5 199.5zM518 412
q0 61 -27.5 97.5t-84.5 36.5q-48 0 -84.5 -31t-56 -81t-29 -102t-9.5 -104q0 -59 26.5 -96.5t87.5 -37.5q46 0 81.5 30.5t55.5 79.5t30 102.5t10 105.5z" />
    <glyph glyph-name="Odieresis.sc" horiz-adv-x="714" 
d="M483 742l27 137h133l-27 -137h-133zM278 742l27 137h134l-27 -137h-134zM62 250q0 53 9.5 105t34.5 107t63 96.5t100.5 68t141.5 26.5q119 0 195.5 -67t76.5 -200q0 -52 -9.5 -103.5t-34.5 -106t-63 -95.5t-100 -67.5t-141 -26.5q-120 0 -196.5 63.5t-76.5 199.5z
M518 412q0 61 -27.5 97.5t-84.5 36.5q-48 0 -84.5 -31t-56 -81t-29 -102t-9.5 -104q0 -59 26.5 -96.5t87.5 -37.5q46 0 81.5 30.5t55.5 79.5t30 102.5t10 105.5z" />
    <glyph glyph-name="Ograve.sc" horiz-adv-x="714" 
d="M62 250q0 53 9.5 105t34.5 107t63 96.5t100.5 68t141.5 26.5q119 0 195.5 -67t76.5 -200q0 -52 -9.5 -103.5t-34.5 -106t-63 -95.5t-100 -67.5t-141 -26.5q-120 0 -196.5 63.5t-76.5 199.5zM518 412q0 61 -27.5 97.5t-84.5 36.5q-48 0 -84.5 -31t-56 -81t-29 -102
t-9.5 -104q0 -59 26.5 -96.5t87.5 -37.5q46 0 81.5 30.5t55.5 79.5t30 102.5t10 105.5zM470 894l36 -174h-115l-73 174h152z" />
    <glyph glyph-name="Ohungarumlaut.sc" horiz-adv-x="714" 
d="M62 250q0 53 9.5 105t34.5 107t63 96.5t100.5 68t141.5 26.5q119 0 195.5 -67t76.5 -200q0 -52 -9.5 -103.5t-34.5 -106t-63 -95.5t-100 -67.5t-141 -26.5q-120 0 -196.5 63.5t-76.5 199.5zM518 412q0 61 -27.5 97.5t-84.5 36.5q-48 0 -84.5 -31t-56 -81t-29 -102
t-9.5 -104q0 -59 26.5 -96.5t87.5 -37.5q46 0 81.5 30.5t55.5 79.5t30 102.5t10 105.5zM462 720l85 174h125l-119 -174h-91zM302 720l72 174h125l-106 -174h-91z" />
    <glyph glyph-name="Omacron.sc" horiz-adv-x="714" 
d="M62 250q0 53 9.5 105t34.5 107t63 96.5t100.5 68t141.5 26.5q119 0 195.5 -67t76.5 -200q0 -52 -9.5 -103.5t-34.5 -106t-63 -95.5t-100 -67.5t-141 -26.5q-120 0 -196.5 63.5t-76.5 199.5zM518 412q0 61 -27.5 97.5t-84.5 36.5q-48 0 -84.5 -31t-56 -81t-29 -102
t-9.5 -104q0 -59 26.5 -96.5t87.5 -37.5q46 0 81.5 30.5t55.5 79.5t30 102.5t10 105.5zM279 742l20 104h335l-19 -104h-336z" />
    <glyph glyph-name="Oslashacute.sc" horiz-adv-x="714" 
d="M390 720l82 174h156l-120 -174h-118zM409 546q-50 0 -88.5 -30.5t-60 -80t-32 -102t-10.5 -105.5v-11l286 284q-31 45 -95 45zM336 94q49 0 87 30.5t59.5 79t32.5 101.5t11 105v16l-288 -285q29 -47 98 -47zM682 392q0 -53 -9.5 -105t-35 -107.5t-64.5 -97t-103 -68.5
t-145 -27q-113 0 -183 58l-67 -66h-97l119 118q-36 61 -36 149q0 53 9.5 105.5t35 108t64.5 97.5t103 69t145 27q107 0 180 -59l73 73h98l-126 -125q39 -61 39 -150z" />
    <glyph glyph-name="Otilde.sc" horiz-adv-x="714" 
d="M62 250q0 53 9.5 105t34.5 107t63 96.5t100.5 68t141.5 26.5q119 0 195.5 -67t76.5 -200q0 -52 -9.5 -103.5t-34.5 -106t-63 -95.5t-100 -67.5t-141 -26.5q-120 0 -196.5 63.5t-76.5 199.5zM518 412q0 61 -27.5 97.5t-84.5 36.5q-48 0 -84.5 -31t-56 -81t-29 -102
t-9.5 -104q0 -59 26.5 -96.5t87.5 -37.5q46 0 81.5 30.5t55.5 79.5t30 102.5t10 105.5zM259 720q6 69 44 116.5t101 47.5q32 0 69.5 -25.5t54.5 -25.5q35 0 55 52h76q-7 -71 -44 -118t-100 -47q-32 0 -71.5 25.5t-56.5 25.5q-36 0 -53 -51h-75z" />
    <glyph glyph-name="Racute.sc" horiz-adv-x="646" 
d="M336 720l82 174h156l-120 -174h-118zM249 344h94q56 0 89.5 29.5t33.5 86.5q0 81 -105 81h-74zM229 242l-48 -242h-153l127 644h223q74 0 131 -21q113 -42 113 -160q0 -72 -39 -124.5t-117 -76.5v-2l110 -260h-160l-97 242h-90z" />
    <glyph glyph-name="Rcaron.sc" horiz-adv-x="646" 
d="M323 720l-72 174h103l46 -77l76 77h107l-137 -174h-123zM249 344h94q56 0 89.5 29.5t33.5 86.5q0 81 -105 81h-74zM229 242l-48 -242h-153l127 644h223q74 0 131 -21q113 -42 113 -160q0 -72 -39 -124.5t-117 -76.5v-2l110 -260h-160l-97 242h-90z" />
    <glyph glyph-name="Rcommaaccent.sc" horiz-adv-x="639" 
d="M158 -220l55 156h151l-102 -156h-104zM249 344h94q56 0 89.5 29.5t33.5 86.5q0 81 -105 81h-74zM229 242l-48 -242h-153l127 644h223q74 0 131 -21q113 -42 113 -160q0 -72 -39 -124.5t-117 -76.5v-2l110 -260h-160l-97 242h-90z" />
    <glyph glyph-name="Sacute.sc" horiz-adv-x="608" 
d="M319 720l82 174h156l-120 -174h-118zM32 187h157q0 -92 102 -92q49 0 79.5 22t30.5 61q0 29 -15.5 47t-52.5 28l-71 20q-86 24 -121.5 66.5t-35.5 107.5q0 93 65.5 149.5t180.5 56.5q118 0 181.5 -51t58.5 -135h-155q2 37 -21 57.5t-66 20.5q-42 0 -68 -20t-26 -56
q0 -29 17 -44t55 -26l77 -22q88 -25 120.5 -64t32.5 -104q0 -102 -75 -162.5t-199 -60.5q-125 0 -191 55.5t-60 145.5z" />
    <glyph glyph-name="Scaron.sc" horiz-adv-x="608" 
d="M307 720l-72 174h103l46 -77l76 77h107l-137 -174h-123zM32 187h157q0 -92 102 -92q49 0 79.5 22t30.5 61q0 29 -15.5 47t-52.5 28l-71 20q-86 24 -121.5 66.5t-35.5 107.5q0 93 65.5 149.5t180.5 56.5q118 0 181.5 -51t58.5 -135h-155q2 37 -21 57.5t-66 20.5
q-42 0 -68 -20t-26 -56q0 -29 17 -44t55 -26l77 -22q88 -25 120.5 -64t32.5 -104q0 -102 -75 -162.5t-199 -60.5q-125 0 -191 55.5t-60 145.5z" />
    <glyph glyph-name="Scedilla.sc" horiz-adv-x="608" 
d="M214 -225q-43 0 -73 19.5t-27 58.5h77q3 -20 29 -20q17 0 27 9.5t10 24.5q0 29 -28 29q-19 0 -30 -13h-62l57 112q-83 18 -125 69t-37 123h157q0 -92 102 -92q49 0 79.5 22t30.5 61q0 29 -15.5 47t-52.5 28l-71 20q-86 24 -121.5 66.5t-35.5 107.5q0 93 65.5 149.5
t180.5 56.5q118 0 181.5 -51t58.5 -135h-155q2 37 -21 57.5t-66 20.5q-42 0 -68 -20t-26 -56q0 -29 17 -44t55 -26l77 -22q88 -25 120.5 -64t32.5 -104q0 -102 -75 -162.5t-199 -60.5q-25 0 -37 1l-27 -53h2q20 15 50 15q31 0 50.5 -19t19.5 -50q0 -48 -33 -76.5t-94 -28.5z
" />
    <glyph glyph-name="Scircumflex.sc" horiz-adv-x="608" 
d="M473 894l72 -174h-103l-48 78l-73 -78h-108l137 174h123zM32 187h157q0 -92 102 -92q49 0 79.5 22t30.5 61q0 29 -15.5 47t-52.5 28l-71 20q-86 24 -121.5 66.5t-35.5 107.5q0 93 65.5 149.5t180.5 56.5q118 0 181.5 -51t58.5 -135h-155q2 37 -21 57.5t-66 20.5
q-42 0 -68 -20t-26 -56q0 -29 17 -44t55 -26l77 -22q88 -25 120.5 -64t32.5 -104q0 -102 -75 -162.5t-199 -60.5q-125 0 -191 55.5t-60 145.5z" />
    <glyph glyph-name="Scommaaccent.sc" horiz-adv-x="608" 
d="M109 -220l55 156h151l-102 -156h-104zM32 187h157q0 -92 102 -92q49 0 79.5 22t30.5 61q0 29 -15.5 47t-52.5 28l-71 20q-86 24 -121.5 66.5t-35.5 107.5q0 93 65.5 149.5t180.5 56.5q118 0 181.5 -51t58.5 -135h-155q2 37 -21 57.5t-66 20.5q-42 0 -68 -20t-26 -56
q0 -29 17 -44t55 -26l77 -22q88 -25 120.5 -64t32.5 -104q0 -102 -75 -162.5t-199 -60.5q-125 0 -191 55.5t-60 145.5z" />
    <glyph glyph-name="Tcaron.sc" horiz-adv-x="592" 
d="M429 527l-104 -527h-156l104 527h-187l24 117h528l-23 -117h-186zM316 720l-72 174h103l46 -77l76 77h107l-137 -174h-123z" />
    <glyph glyph-name="Tcommaaccent.sc" horiz-adv-x="592" 
d="M429 527l-104 -527h-156l104 527h-187l24 117h528l-23 -117h-186zM106 -220l55 156h151l-102 -156h-104z" />
    <glyph glyph-name="Uacute.sc" horiz-adv-x="668" 
d="M372 720l82 174h156l-120 -174h-118zM70 246l79 398h156l-79 -390q-15 -82 10 -115q25 -34 84 -34q58 0 91 33q25 26 39 98l80 408h154l-86 -435q-43 -223 -290 -223q-136 0 -199 69.5t-39 190.5z" />
    <glyph glyph-name="Ubreve.sc" horiz-adv-x="668" 
d="M70 246l79 398h156l-79 -390q-15 -82 10 -115q25 -34 84 -34q58 0 91 33q25 26 39 98l80 408h154l-86 -435q-43 -223 -290 -223q-136 0 -199 69.5t-39 190.5zM440 718q-76 0 -116 46t-23 130h98q-7 -35 6.5 -54t42.5 -19t49.5 19t27.5 54h103q-12 -89 -65.5 -132.5
t-122.5 -43.5z" />
    <glyph glyph-name="Ucircumflex.sc" horiz-adv-x="668" 
d="M525 894l72 -174h-103l-48 78l-73 -78h-108l137 174h123zM70 246l79 398h156l-79 -390q-15 -82 10 -115q25 -34 84 -34q58 0 91 33q25 26 39 98l80 408h154l-86 -435q-43 -223 -290 -223q-136 0 -199 69.5t-39 190.5z" />
    <glyph glyph-name="Udieresis.sc" horiz-adv-x="668" 
d="M471 742l27 137h133l-27 -137h-133zM266 742l27 137h134l-27 -137h-134zM70 246l79 398h156l-79 -390q-15 -82 10 -115q25 -34 84 -34q58 0 91 33q25 26 39 98l80 408h154l-86 -435q-43 -223 -290 -223q-136 0 -199 69.5t-39 190.5z" />
    <glyph glyph-name="Ugrave.sc" horiz-adv-x="668" 
d="M458 894l36 -174h-115l-73 174h152zM70 246l79 398h156l-79 -390q-15 -82 10 -115q25 -34 84 -34q58 0 91 33q25 26 39 98l80 408h154l-86 -435q-43 -223 -290 -223q-136 0 -199 69.5t-39 190.5z" />
    <glyph glyph-name="Uhungarumlaut.sc" horiz-adv-x="668" 
d="M450 720l85 174h125l-119 -174h-91zM290 720l72 174h125l-106 -174h-91zM70 246l79 398h156l-79 -390q-15 -82 10 -115q25 -34 84 -34q58 0 91 33q25 26 39 98l80 408h154l-86 -435q-43 -223 -290 -223q-136 0 -199 69.5t-39 190.5z" />
    <glyph glyph-name="Umacron.sc" horiz-adv-x="668" 
d="M268 742l20 104h335l-19 -104h-336zM70 246l79 398h156l-79 -390q-15 -82 10 -115q25 -34 84 -34q58 0 91 33q25 26 39 98l80 408h154l-86 -435q-43 -223 -290 -223q-136 0 -199 69.5t-39 190.5z" />
    <glyph glyph-name="Uogonek.sc" horiz-adv-x="668" 
d="M331 -188h-29q-68 0 -97 19t-29 63q0 57 72 91v5q-106 15 -152.5 82.5t-25.5 173.5l79 398h156l-79 -390q-15 -82 10 -115q25 -34 84 -34q58 0 91 33q25 26 39 98l80 408h154l-86 -435q-19 -100 -73.5 -151t-141.5 -66q-80 -14 -80 -57q0 -34 45 -34z" />
    <glyph glyph-name="Uring.sc" horiz-adv-x="668" 
d="M446 708q-55 1 -90.5 29.5t-35.5 80.5q0 60 38.5 98t97.5 38q61 0 94.5 -31t33.5 -80q0 -61 -38.5 -98t-99.5 -37zM457 891q-27 0 -42.5 -19t-15.5 -51q0 -23 12.5 -37t35.5 -14q26 0 42 18.5t16 49.5q0 24 -12.5 38.5t-35.5 14.5zM70 246l79 398h156l-79 -390
q-15 -82 10 -115q25 -34 84 -34q58 0 91 33q25 26 39 98l80 408h154l-86 -435q-43 -223 -290 -223q-136 0 -199 69.5t-39 190.5z" />
    <glyph glyph-name="Utilde.sc" horiz-adv-x="668" 
d="M70 246l79 398h156l-79 -390q-15 -82 10 -115q25 -34 84 -34q58 0 91 33q25 26 39 98l80 408h154l-86 -435q-43 -223 -290 -223q-136 0 -199 69.5t-39 190.5zM247 720q6 69 44 116.5t101 47.5q32 0 69.5 -25.5t54.5 -25.5q35 0 55 52h76q-7 -71 -44 -118t-100 -47
q-32 0 -71.5 25.5t-56.5 25.5q-36 0 -53 -51h-75z" />
    <glyph glyph-name="Wacute.sc" horiz-adv-x="907" 
d="M301 0h-155l-45 644h150l16 -340q1 -36 0.5 -61.5t-1.5 -40.5l-1 -14h3q12 44 40 106l155 350h137l28 -342q3 -31 3.5 -59.5t0.5 -41.5l-1 -13h3q10 45 36 106l146 350h146l-282 -644h-152l-23 361q-2 32 -2.5 59t-0.5 38l1 11h-3q-10 -41 -40 -109zM485 720l82 174h156
l-120 -174h-118z" />
    <glyph glyph-name="Wcircumflex.sc" horiz-adv-x="907" 
d="M638 894l72 -174h-103l-48 78l-73 -78h-108l137 174h123zM301 0h-155l-45 644h150l16 -340q1 -36 0.5 -61.5t-1.5 -40.5l-1 -14h3q12 44 40 106l155 350h137l28 -342q3 -31 3.5 -59.5t0.5 -41.5l-1 -13h3q10 45 36 106l146 350h146l-282 -644h-152l-23 361q-2 32 -2.5 59
t-0.5 38l1 11h-3q-10 -41 -40 -109z" />
    <glyph glyph-name="Wdieresis.sc" horiz-adv-x="907" 
d="M585 742l27 137h133l-27 -137h-133zM380 742l27 137h134l-27 -137h-134zM301 0h-155l-45 644h150l16 -340q1 -36 0.5 -61.5t-1.5 -40.5l-1 -14h3q12 44 40 106l155 350h137l28 -342q3 -31 3.5 -59.5t0.5 -41.5l-1 -13h3q10 45 36 106l146 350h146l-282 -644h-152l-23 361
q-2 32 -2.5 59t-0.5 38l1 11h-3q-10 -41 -40 -109z" />
    <glyph glyph-name="Wgrave.sc" horiz-adv-x="907" 
d="M301 0h-155l-45 644h150l16 -340q1 -36 0.5 -61.5t-1.5 -40.5l-1 -14h3q12 44 40 106l155 350h137l28 -342q3 -31 3.5 -59.5t0.5 -41.5l-1 -13h3q10 45 36 106l146 350h146l-282 -644h-152l-23 361q-2 32 -2.5 59t-0.5 38l1 11h-3q-10 -41 -40 -109zM572 894l36 -174
h-115l-73 174h152z" />
    <glyph glyph-name="Yacute.sc" horiz-adv-x="601" 
d="M333 720l82 174h156l-120 -174h-118zM174 0l56 281l-142 363h154l87 -250h2l174 250h158l-284 -378l-53 -266h-152z" />
    <glyph glyph-name="Ycircumflex.sc" horiz-adv-x="601" 
d="M487 894l72 -174h-103l-48 78l-73 -78h-108l137 174h123zM174 0l56 281l-142 363h154l87 -250h2l174 250h158l-284 -378l-53 -266h-152z" />
    <glyph glyph-name="Ydieresis.sc" horiz-adv-x="601" 
d="M433 742l27 137h133l-27 -137h-133zM228 742l27 137h134l-27 -137h-134zM174 0l56 281l-142 363h154l87 -250h2l174 250h158l-284 -378l-53 -266h-152z" />
    <glyph glyph-name="Ygrave.sc" horiz-adv-x="601" 
d="M174 0l56 281l-142 363h154l87 -250h2l174 250h158l-284 -378l-53 -266h-152zM420 894l36 -174h-115l-73 174h152z" />
    <glyph glyph-name="Zacute.sc" horiz-adv-x="583" 
d="M323 720l82 174h156l-120 -174h-118zM115 531l23 113h477l-19 -100l-391 -430h310l-23 -114h-495l20 101l390 430h-292z" />
    <glyph glyph-name="Zcaron.sc" horiz-adv-x="583" 
d="M311 720l-72 174h103l46 -77l76 77h107l-137 -174h-123zM115 531l23 113h477l-19 -100l-391 -430h310l-23 -114h-495l20 101l390 430h-292z" />
    <glyph glyph-name="Zdotaccent.sc" horiz-adv-x="583" 
d="M115 531l23 113h477l-19 -100l-391 -430h310l-23 -114h-495l20 101l390 430h-292zM320 742l27 137h135l-27 -137h-135z" />
    <glyph glyph-name="Ldot.sc" horiz-adv-x="543" 
d="M370 299l27 132h131l-28 -132h-130zM28 0l128 644h154l-105 -528h268l-23 -116h-422z" />
    <glyph glyph-name="napostrophe.sc" horiz-adv-x="688" 
d="M28 0l128 644h160l122 -335q10 -27 17 -53t9 -38l3 -12h3l85 438h138l-127 -644h-146l-131 343q-10 27 -18.5 53t-11.5 39l-3 13h-3l-87 -448h-138z" />
    <glyph glyph-name="Hbar.sc" horiz-adv-x="699" 
d="M497 378l18 95h-240l-18 -95h240zM234 264l-52 -264h-154l93 473h-62l17 85h62l17 86h154l-17 -86h240l17 86h155l-17 -86h64l-18 -85h-63l-93 -473h-155l52 264h-240z" />
    <glyph glyph-name="Idotaccent.sc" horiz-adv-x="304" 
d="M28 0l127 644h154l-127 -644h-154zM184 742l27 137h135l-27 -137h-135z" />
    <glyph glyph-name="Ebreve.sc" horiz-adv-x="577" 
d="M28 0l128 644h433l-23 -112h-278l-31 -156h267l-22 -110h-267l-31 -155h290l-22 -111h-444zM377 718q-76 0 -116 46t-23 130h98q-7 -35 6.5 -54t42.5 -19t49.5 19t27.5 54h103q-12 -89 -65.5 -132.5t-122.5 -43.5z" />
    <glyph glyph-name="yen.tab" 
d="M173 0l29 148h-178l15 76h177l16 81h-179l14 76h166l-133 360h159l81 -257h2l177 257h167l-274 -360h165l-14 -76h-178l-16 -81h180l-15 -76h-180l-29 -148h-152z" />
    <glyph glyph-name="eight.den" horiz-adv-x="426" 
d="M238 437q72 0 112.5 -28.5t40.5 -78.5q0 -81 -92 -109v-3q73 -24 73 -91q0 -61 -49 -98.5t-142 -37.5q-170 0 -170 115q0 47 28.5 77t76.5 42v3q-52 23 -52 79q0 58 48 94t126 36zM234 363q-31 0 -47 -18.5t-16 -44.5q0 -47 51 -47q27 0 45 17t18 47q0 21 -14.5 33.5
t-36.5 12.5zM187 63q32 0 52 19t20 52q0 25 -17 38.5t-43 13.5q-37 0 -55 -20.5t-18 -50.5q0 -52 61 -52z" />
    <glyph glyph-name="five.den" horiz-adv-x="424" 
d="M259 154q0 55 -56 55q-38 0 -70 -32h-94l72 254h287l-18 -88h-200l-29 -98h3q41 38 102 38q57 0 87 -31t30 -83q0 -83 -55 -130.5t-148 -47.5q-80 0 -121 33t-35 100h109q0 -25 15 -39t43 -14q34 0 56 23.5t22 59.5z" />
    <glyph glyph-name="four.den" horiz-adv-x="440" 
d="M121 169h118l39 183h-2q-18 -35 -53 -73zM378 91h-56l-19 -91h-103l19 91h-220l15 75l247 265h133l-54 -256h56z" />
    <glyph glyph-name="nine.den" horiz-adv-x="427" 
d="M217 362q-33 0 -52.5 -25t-19.5 -59q2 -56 54 -56q35 0 54.5 24.5t19.5 58.5q0 57 -56 57zM157 -9q-68 1 -105.5 30t-37.5 85h103q6 -42 52 -42q76 0 96 133h-2q-34 -49 -106 -49q-55 0 -89.5 35t-34.5 88q0 75 51.5 120.5t137.5 45.5t124.5 -44.5t38.5 -118.5
q0 -125 -59 -204.5t-169 -78.5z" />
    <glyph glyph-name="one.den" horiz-adv-x="294" 
d="M58 0l59 280h-93l16 78h15q41 0 69 16q26 18 35 57h102l-91 -431h-112z" />
    <glyph glyph-name="seven.den" horiz-adv-x="390" 
d="M14 0l231 344h-202l19 87h334l-14 -62l-249 -369h-119z" />
    <glyph glyph-name="six.den" horiz-adv-x="434" 
d="M382 166q1 -77 -50.5 -126.5t-139.5 -49.5q-81 0 -123.5 43.5t-42.5 120.5q0 120 60.5 201.5t170.5 81.5q68 0 105.5 -32t35.5 -82h-104q-5 41 -50 41q-72 0 -98 -131h3q39 49 106 49q60 0 93 -31.5t34 -84.5zM195 65q33 0 52 25t19 59q0 60 -54 60q-33 0 -52.5 -24.5
t-19.5 -59.5q0 -60 55 -60z" />
    <glyph glyph-name="three.den" horiz-adv-x="421" 
d="M198 184h-54l15 67h47q31 0 51 18t20 45q0 21 -15 32.5t-38 11.5q-55 0 -65 -55h-110q6 57 53.5 95.5t130.5 38.5q72 0 113 -28.5t41 -78.5q0 -85 -95 -110v-2q72 -21 72 -89q0 -66 -52.5 -102t-136.5 -36q-82 0 -126.5 35t-38.5 101h108q-1 -27 15 -41t46 -14
q33 0 52.5 18t19.5 45q0 49 -53 49z" />
    <glyph glyph-name="two.den" horiz-adv-x="418" 
d="M156 290h-110q8 70 57 108.5t133 38.5q66 0 106 -29t40 -85q0 -49 -29 -85.5t-83 -75.5l-105 -77v-2h181l-16 -83h-352l12 60l196 153q6 4 17 13t15.5 12.5t13 10t11.5 9.5l9 9t8 9.5t5.5 8.5t4.5 9.5t2 9.5t1 11q0 20 -13.5 32t-36.5 12q-59 0 -67 -69z" />
    <glyph glyph-name="zero.den" horiz-adv-x="465" 
d="M25 157q0 70 23.5 131.5t77.5 104.5t128 43q80 0 124.5 -42t43.5 -126q-1 -117 -60.5 -197t-169.5 -80q-81 0 -124 42.5t-43 123.5zM198 72q47 0 75 69t28 142q0 72 -52 72q-32 0 -56 -34.5t-35 -81.5t-11 -96q0 -71 51 -71z" />
    <glyph glyph-name="zero.num" horiz-adv-x="465" 
d="M97 491q0 70 23.5 131.5t77 104.5t127.5 43q80 0 125 -42.5t44 -125.5q-1 -117 -60.5 -197t-169.5 -80q-82 0 -124.5 42.5t-42.5 123.5zM270 406q47 0 75 69t28 142q0 72 -52 72q-32 0 -56 -34.5t-35 -81.5t-11 -96q0 -71 51 -71z" />
    <glyph glyph-name="one.num" horiz-adv-x="294" 
d="M130 334l59 280h-94l17 78h15q41 0 69 16q27 18 34 57h103l-91 -431h-112z" />
    <glyph glyph-name="two.num" horiz-adv-x="414" 
d="M224 624h-110q7 70 55 108.5t132 38.5q66 0 107.5 -30.5t41.5 -86.5q0 -48 -28 -82t-84 -76l-105 -77v-2h181l-16 -83h-352l12 60l196 153q6 4 17 13t15.5 12.5t13 10t11.5 9.5l9 9t8 9.5t5.5 8.5t4.5 9.5t2 9.5t1 11q0 20 -13.5 32t-36.5 12q-59 0 -67 -69z" />
    <glyph glyph-name="three.num" horiz-adv-x="421" 
d="M270 518h-54l14 67h48q31 0 50.5 18t19.5 45q0 21 -14.5 32.5t-37.5 11.5q-56 0 -66 -55h-109q6 57 53.5 95.5t129.5 38.5q72 0 113.5 -28.5t41.5 -78.5q0 -85 -95 -110v-2q72 -21 72 -89q0 -66 -52.5 -102t-137.5 -36q-81 0 -125.5 35t-38.5 101h108q-1 -27 15 -41
t46 -14q33 0 52 18t19 45q0 49 -52 49z" />
    <glyph glyph-name="four.num" horiz-adv-x="443" 
d="M196 503h118l39 183h-2q-18 -35 -53 -73zM453 425h-56l-19 -91h-102l19 91h-221l15 75l248 265h132l-54 -256h56z" />
    <glyph glyph-name="five.num" horiz-adv-x="424" 
d="M326 488q0 55 -56 55q-38 0 -70 -32h-94l72 254h287l-18 -88h-201l-28 -98h2q41 38 103 38q57 0 86.5 -31t29.5 -83q0 -83 -55 -130.5t-147 -47.5q-80 0 -121 33t-35 100h109q-1 -24 14.5 -38.5t42.5 -14.5q35 0 57 23.5t22 59.5z" />
    <glyph glyph-name="six.num" horiz-adv-x="434" 
d="M454 500q1 -77 -51 -126.5t-142 -49.5q-82 0 -122.5 42.5t-40.5 118.5q0 122 60 204t170 82q69 0 106.5 -32t35.5 -82h-105q-5 41 -49 41q-72 0 -98 -131h3q39 49 106 49q60 0 93 -31.5t34 -84.5zM267 399q32 0 51.5 25t19.5 59q0 60 -54 60q-33 0 -52.5 -24.5
t-19.5 -59.5q0 -60 55 -60z" />
    <glyph glyph-name="seven.num" horiz-adv-x="390" 
d="M80 334l232 344h-202l19 87h333l-13 -62l-250 -369h-119z" />
    <glyph glyph-name="eight.num" horiz-adv-x="424" 
d="M310 771q72 0 112.5 -28.5t40.5 -78.5q0 -81 -92 -109v-3q72 -23 72 -91q0 -61 -48.5 -98.5t-141.5 -37.5q-170 0 -170 115q0 47 28.5 77t75.5 42v3q-52 23 -52 79q0 58 48 94t127 36zM306 697q-31 0 -47 -18.5t-16 -44.5q0 -47 51 -47q27 0 44.5 17t17.5 47
q0 21 -14 33.5t-36 12.5zM259 397q31 0 51 19t20 52q0 25 -17 38.5t-43 13.5q-36 0 -54.5 -20.5t-18.5 -50.5q0 -52 62 -52z" />
    <glyph glyph-name="nine.num" horiz-adv-x="427" 
d="M289 696q-33 0 -52.5 -25t-19.5 -59q0 -56 53 -56q36 0 55.5 24t19.5 59q0 25 -14 41t-42 16zM229 325q-68 1 -106 30t-37 85h103q6 -42 52 -42q76 0 96 133h-3q-34 -49 -105 -49q-55 0 -89.5 35t-34.5 88q-1 75 51 120.5t138 45.5q85 0 124 -44.5t39 -118.5
q0 -124 -59 -204t-169 -79z" />
    <glyph glyph-name="minus.den" horiz-adv-x="412" 
d="M40 169l15 78h300l-17 -78h-298z" />
    <glyph glyph-name="plus.den" horiz-adv-x="412" 
d="M232 169l-24 -115h-92l24 115h-114l16 78h114l24 114h93l-24 -114h115l-16 -78h-116z" />
    <glyph glyph-name="parenleft.tab" horiz-adv-x="300" 
d="M250 -130h-108q-72 161 -72 334q0 162 67 313.5t176 270.5h119q-117 -148 -178 -288t-62 -294q-1 -173 58 -336z" />
    <glyph glyph-name="parenright.tab" horiz-adv-x="300" 
d="M85 788h108q72 -161 72 -334q0 -162 -67 -313.5t-176 -270.5h-119q117 148 178 288t62 294q1 173 -58 336z" />
    <glyph glyph-name="bracketleft.tab" horiz-adv-x="300" 
d="M3 -130l179 918h238l-19 -96h-117l-142 -726h117l-18 -96h-238z" />
    <glyph glyph-name="bracketright.tab" horiz-adv-x="300" 
d="M332 788l-179 -918h-238l19 96h117l142 726h-117l18 96h238z" />
    <glyph glyph-name="braceleft.tab" horiz-adv-x="300" 
d="M49 279h-23l22 109h23q34 0 48.5 14.5t19.5 52.5l24 162q15 109 76 148t185 27l-17 -92q-72 4 -97.5 -19.5t-33.5 -85.5l-21 -143q-7 -52 -26.5 -79t-68.5 -34v-4q77 -21 46 -135l-32 -127q-18 -60 -1 -85.5t88 -29.5l-18 -92q-124 4 -169 52t-16 159l33 132
q17 70 -42 70z" />
    <glyph glyph-name="braceright.tab" horiz-adv-x="300" 
d="M288 382h22l-21 -109h-23q-34 0 -48.5 -14.5t-19.5 -52.5l-24 -162q-15 -109 -76 -148t-186 -27l18 92q72 -4 97.5 19.5t33.5 85.5l19 135q7 54 28 84.5t69 36.5v4q-77 21 -46 135l32 127q18 60 1 85.5t-89 29.5l19 92q124 -4 169 -52.5t15 -160.5l-32 -130
q-18 -70 42 -70z" />
    <glyph glyph-name="eight.sub" horiz-adv-x="426" 
d="M227 377q72 0 112.5 -28.5t40.5 -78.5q0 -81 -92 -109v-3q73 -24 73 -91q0 -61 -49 -98.5t-142 -37.5q-170 0 -170 115q0 47 28.5 77t76.5 42v3q-52 23 -52 79q0 58 48 94t126 36zM223 303q-31 0 -47 -18.5t-16 -44.5q0 -47 51 -47q27 0 45 17t18 47q0 21 -14.5 33.5
t-36.5 12.5zM176 3q32 0 52 19t20 52q0 25 -17 38.5t-43 13.5q-37 0 -55 -20.5t-18 -50.5q0 -52 61 -52z" />
    <glyph glyph-name="eight.sup" horiz-adv-x="424" 
d="M320 822q72 0 112.5 -29t40.5 -79q0 -81 -92 -109v-2q72 -23 72 -91q0 -61 -48.5 -99t-141.5 -38q-170 0 -170 116q0 47 28.5 77t75.5 41v3q-52 23 -52 79q0 58 48.5 94.5t126.5 36.5zM316 747q-32 0 -47.5 -18t-15.5 -44q0 -48 51 -48q27 0 44.5 17t17.5 47q0 22 -14 34
t-36 12zM269 447q32 0 51.5 19t19.5 53q0 25 -16.5 38t-43.5 13q-36 0 -54.5 -20t-18.5 -50q0 -53 62 -53z" />
    <glyph glyph-name="five.sub" horiz-adv-x="424" 
d="M248 94q0 55 -56 55q-38 0 -70 -32h-94l72 254h287l-18 -88h-200l-29 -98h3q41 38 102 38q57 0 87 -31t30 -83q0 -83 -55 -130.5t-148 -47.5q-80 0 -121 33t-35 100h109q0 -25 15 -39t43 -14q34 0 56 23.5t22 59.5z" />
    <glyph glyph-name="five.sup" horiz-adv-x="424" 
d="M337 538q0 55 -56 56q-37 0 -70 -32h-94l72 253h287l-18 -87h-201l-28 -98h3q43 38 102 38q57 0 87 -31t30 -84q0 -83 -55 -130.5t-148 -47.5q-80 0 -121 33t-35 101h109q0 -53 58 -53q34 0 56 23t22 59z" />
    <glyph glyph-name="four.sub" horiz-adv-x="440" 
d="M110 109h118l39 183h-2q-18 -35 -53 -73zM367 31h-56l-19 -91h-103l19 91h-220l15 75l247 265h133l-54 -256h56z" />
    <glyph glyph-name="four.sup" horiz-adv-x="443" 
d="M206 553h118l39 183h-2q-18 -35 -53 -72zM463 475h-56l-19 -91h-102l19 91h-221l15 76l248 264h132l-54 -256h56z" />
    <glyph glyph-name="minus.sub" horiz-adv-x="412" 
d="M29 109l15 78h300l-17 -78h-298z" />
    <glyph glyph-name="minus.sup" horiz-adv-x="412" 
d="M117 553l15 79h299l-16 -79h-298z" />
    <glyph glyph-name="nine.sub" horiz-adv-x="427" 
d="M206 302q-33 0 -52.5 -25t-19.5 -59q2 -56 54 -56q35 0 54.5 24.5t19.5 58.5q0 57 -56 57zM146 -69q-68 1 -105.5 30t-37.5 85h103q6 -42 52 -42q76 0 96 133h-2q-34 -49 -106 -49q-54 0 -89 35t-35 88q0 75 51.5 120.5t137.5 45.5t124.5 -44.5t38.5 -118.5
q0 -125 -59 -204.5t-169 -78.5z" />
    <glyph glyph-name="nine.sup" horiz-adv-x="427" 
d="M299 746q-33 0 -52.5 -25t-19.5 -58q0 -57 53 -57q35 0 55 24.5t20 58.5q0 25 -14 41t-42 16zM239 375q-68 1 -106 30t-37 85h103q6 -42 52 -42q76 0 96 134h-3q-35 -50 -105 -50q-54 0 -89 35t-35 88q-1 76 51 121.5t138 45.5q85 0 124 -44.5t39 -118.5q0 -125 -59 -205
t-169 -79z" />
    <glyph glyph-name="one.sub" horiz-adv-x="294" 
d="M47 -60l59 280h-93l16 78h15q41 0 69 16q26 18 35 57h102l-91 -431h-112z" />
    <glyph glyph-name="one.sup" horiz-adv-x="294" 
d="M140 384l59 280h-94l17 79h15q44 0 69 16q27 18 34 56h103l-91 -431h-112z" />
    <glyph glyph-name="plus.sub" horiz-adv-x="412" 
d="M221 109l-24 -115h-92l24 115h-114l16 78h114l24 114h93l-24 -114h115l-16 -78h-116z" />
    <glyph glyph-name="plus.sup" horiz-adv-x="412" 
d="M309 554l-24 -116h-93l25 116h-115l17 77h114l24 114h92l-24 -114h115l-15 -77h-116z" />
    <glyph glyph-name="seven.sub" horiz-adv-x="390" 
d="M3 -60l231 344h-202l19 87h334l-14 -62l-249 -369h-119z" />
    <glyph glyph-name="seven.sup" horiz-adv-x="390" 
d="M90 384l232 345h-202l19 86h333l-13 -61l-250 -370h-119z" />
    <glyph glyph-name="six.sub" horiz-adv-x="434" 
d="M371 106q1 -77 -50.5 -126.5t-139.5 -49.5q-81 0 -123.5 43.5t-42.5 120.5q0 120 60.5 201.5t170.5 81.5q68 0 105.5 -32t35.5 -82h-104q-5 41 -50 41q-72 0 -98 -131h3q39 49 106 49q60 0 93 -31.5t34 -84.5zM184 5q33 0 52 25t19 59q0 60 -54 60q-33 0 -52.5 -24.5
t-19.5 -59.5q0 -60 55 -60z" />
    <glyph glyph-name="six.sup" horiz-adv-x="434" 
d="M464 550q1 -77 -51 -126t-142 -49q-82 0 -122.5 42.5t-40.5 118.5q0 122 60 203.5t170 81.5q69 0 106.5 -31.5t35.5 -81.5h-105q-5 40 -49 40q-72 0 -98 -131h3q40 50 106 50q60 0 93 -31.5t34 -85.5zM277 449q32 0 51.5 25t19.5 59q0 60 -54 60q-33 0 -52.5 -24
t-19.5 -60q0 -60 55 -60z" />
    <glyph glyph-name="three.sub" horiz-adv-x="421" 
d="M187 124h-54l15 67h47q31 0 51 18t20 45q0 21 -15 32.5t-38 11.5q-55 0 -65 -55h-110q6 57 53.5 95.5t130.5 38.5q72 0 113 -28.5t41 -78.5q0 -85 -95 -110v-2q72 -21 72 -89q0 -66 -52.5 -102t-136.5 -36q-82 0 -126.5 35t-38.5 101h108q-1 -27 15 -41t46 -14
q33 0 52.5 18t19.5 45q0 49 -53 49z" />
    <glyph glyph-name="three.sup" horiz-adv-x="421" 
d="M280 568h-54l14 68h48q31 0 50.5 17.5t19.5 44.5q0 21 -14.5 33t-37.5 12q-56 0 -66 -56h-109q6 58 53.5 96.5t129.5 38.5q72 0 113.5 -28.5t41.5 -78.5q0 -87 -95 -110v-2q72 -21 72 -89q0 -66 -52.5 -102.5t-137.5 -36.5q-81 0 -125.5 35t-38.5 101h108
q-1 -26 15.5 -40.5t45.5 -14.5q33 0 52 18t19 46q0 48 -52 48z" />
    <glyph glyph-name="two.sub" horiz-adv-x="418" 
d="M145 230h-110q8 70 57 108.5t133 38.5q66 0 106 -29t40 -85q0 -49 -29 -85.5t-83 -75.5l-105 -77v-2h181l-16 -83h-352l12 60l196 153q6 4 17 13t15.5 12.5t13 10t11.5 9.5l9 9t8 9.5t5.5 8.5t4.5 9.5t2 9.5t1 11q0 20 -13.5 32t-36.5 12q-59 0 -67 -69z" />
    <glyph glyph-name="two.sup" horiz-adv-x="414" 
d="M234 674h-110q7 71 56 109.5t134 38.5q66 0 106 -29.5t40 -85.5q0 -49 -29 -85.5t-83 -75.5l-105 -77v-2h181l-16 -83h-352l12 61l196 152q62 49 74 64q13 18 13 39q0 20 -14 32t-36 12q-59 0 -67 -70z" />
    <glyph glyph-name="zero.sub" horiz-adv-x="465" 
d="M14 97q0 70 23.5 131.5t77.5 104.5t128 43q80 0 124.5 -42t43.5 -126q-1 -117 -60.5 -197t-169.5 -80q-81 0 -124 42.5t-43 123.5zM187 12q47 0 75 69t28 142q0 72 -52 72q-32 0 -56 -34.5t-35 -81.5t-11 -96q0 -71 51 -71z" />
    <glyph glyph-name="zero.sup" horiz-adv-x="465" 
d="M107 541q0 70 23.5 131.5t77 104.5t127.5 43q80 0 125 -42t44 -125q-1 -118 -60.5 -198t-169.5 -80q-82 0 -124.5 42.5t-42.5 123.5zM280 456q47 0 75 69t28 142q0 72 -52 72q-32 0 -56 -34.5t-35 -81.5t-11 -96q0 -71 51 -71z" />
    <glyph glyph-name="Q.old" horiz-adv-x="804" 
d="M587 -92l-77 97q-59 -21 -130 -21q-139 0 -225.5 77.5t-87.5 233.5q0 133 48 241.5t141.5 174t216.5 65.5q137 0 224 -81.5t86 -233.5q0 -121 -43 -226t-124 -170l66 -84zM237 279q0 -77 35 -127.5t117 -50.5q25 0 42 4l-57 73l96 75l64 -82q79 97 79 309q0 78 -34.5 128
t-110.5 50q-50 0 -90.5 -25.5t-66 -65t-43 -91t-24.5 -101t-7 -96.5z" />
    <glyph glyph-name="Q.scold" horiz-adv-x="717" 
d="M511 -66l-60 73q-55 -20 -117 -20q-123 0 -198 64t-75 199q0 52 9 103.5t34 107t63 97t101 68.5t143 27q118 0 194.5 -66.5t76.5 -200.5q0 -98 -37 -185.5t-102 -141.5l50 -63zM222 229q0 -63 29 -100.5t91 -37.5q17 0 37 5l-55 67l84 64l54 -67q61 90 61 253
q0 60 -29.5 97t-86.5 37q-50 0 -87.5 -30t-57.5 -79t-30 -102t-10 -107z" />
    <glyph glyph-name="Euro.tab" horiz-adv-x="592" 
d="M566 215q-19 -105 -86 -168t-178 -63q-106 0 -160 69.5t-47 196.5h-78l15 77h71q5 42 12 81h-68l15 77h71q75 266 294 266q98 0 151 -67t39 -167h-126q3 59 -15 88.5t-64 29.5q-83 0 -130 -150h152l-16 -77h-156q-11 -62 -14 -81h156l-16 -77h-149q-6 -78 15 -113.5
t69 -35.5q42 0 71 30.5t43 83.5h129z" />
    <glyph glyph-name="dollar.tab" horiz-adv-x="592" 
d="M305 460l34 178q-44 -4 -72 -29t-28 -67q0 -58 66 -82zM302 104h5q49 6 80.5 35t31.5 73q0 66 -79 89zM260 -114h-65l21 107q-102 12 -155.5 69t-46.5 156h144q-4 -93 79 -111l41 212l-33 10q-153 45 -153 190q0 106 75.5 167.5t192.5 60.5l16 82l66 2l-17 -89
q90 -13 139.5 -65t43.5 -142h-139q5 79 -65 98l-37 -192l39 -12q159 -48 159 -190q0 -111 -76.5 -179t-208.5 -70z" />
    <glyph glyph-name="dieresis.uc" horiz-adv-x="364" 
d="M291 828l27 137h133l-27 -137h-133zM80 828l26 137h134l-27 -137h-133z" />
    <glyph glyph-name="zero.tab" 
d="M50 237q0 60 9.5 125t34 135.5t60.5 126t94 91.5t130 36q109 0 166.5 -65t57.5 -186q0 -62 -9.5 -128t-34 -136.5t-60.5 -125t-94 -90t-130 -35.5q-111 0 -167.5 65t-56.5 187zM284 107q45 0 81 50t54.5 120.5t28 131.5t9.5 99q0 120 -86 120q-46 0 -82 -48.5t-55 -118.5
t-28.5 -131.5t-9.5 -102.5q0 -120 88 -120z" />
    <glyph glyph-name="one.tab" 
d="M507 0h-457l23 120h165l76 388h-174l20 102h36q76 0 118 30q45 31 60 102h132l-121 -622h144z" />
    <glyph glyph-name="nine.tab" 
d="M458 530q0 47 -25.5 76.5t-70.5 29.5q-61 0 -95 -48.5t-34 -110.5q0 -45 24 -73t69 -28q63 0 97.5 44.5t34.5 109.5zM46 177h135q2 -38 22.5 -59t60.5 -21q131 0 180 247h-3q-59 -75 -162 -75q-86 0 -139 56t-52 152q1 118 82.5 196t198.5 78q115 1 174 -68t59 -178
q0 -67 -10 -135t-35.5 -138.5t-63 -124.5t-98 -88.5t-135.5 -34.5q-103 0 -158.5 55t-55.5 138z" />
    <glyph glyph-name="eight.tab" 
d="M388 752q91 0 156 -50.5t65 -135.5q-1 -68 -39.5 -119t-101.5 -71v-4q97 -45 96 -151q0 -111 -82 -173.5t-203 -62.5q-112 0 -179.5 51t-67.5 147q0 75 47.5 130t123.5 73v3q-78 46 -79 138q-1 104 73.5 164.5t190.5 60.5zM380 646q-54 0 -85 -37.5t-31 -91.5
q0 -43 25 -66.5t63 -23.5q54 0 86 39t31 90q0 42 -25 66t-64 24zM285 88q61 0 97 38t36 97q0 47 -30.5 73t-75.5 26q-60 0 -96 -38t-36 -97q0 -47 30 -73t75 -26z" />
    <glyph glyph-name="seven.tab" 
d="M43 0l410 620h-349l26 121h515l-20 -94l-425 -647h-157z" />
    <glyph glyph-name="six.tab" 
d="M602 563h-136q-1 36 -22 55.5t-58 19.5q-126 0 -175 -238h3q64 79 159 79q84 0 138 -55t53 -146q-1 -133 -81 -212.5t-203 -80.5q-112 -1 -171 65.5t-59 183.5q0 81 19 166t57 166.5t107.5 133.5t158.5 52q99 0 154.5 -53.5t55.5 -135.5zM292 103q60 1 96 51t36 115
q0 47 -26.5 75t-71.5 28q-59 0 -95 -48.5t-36 -113.5q0 -48 25.5 -77.5t71.5 -29.5z" />
    <glyph glyph-name="five.tab" 
d="M31 205h140q1 -51 27.5 -76.5t75.5 -25.5q63 0 99.5 46.5t37.5 116.5q1 49 -24.5 76.5t-68.5 27.5q-77 0 -120 -55h-121l98 426h419l-24 -125h-295l-42 -188h2q65 54 145 54q85 0 135.5 -53t49.5 -149q-1 -133 -85 -214t-215 -81q-121 0 -182 63t-52 157z" />
    <glyph glyph-name="space_uni0326.alt" horiz-adv-x="364" 
d="M348 782l-58 -165h-154l110 165h102z" />
    <glyph glyph-name="four.tab" 
d="M176 282h184l59 303h-3q-18 -32 -59 -83zM561 168h-83l-33 -168h-142l32 168h-314l20 107l382 466h166l-88 -455h82z" />
    <glyph glyph-name="three.tab" 
d="M311 318h-49l22 114h52q56 0 88 31t32 80q0 43 -25.5 68.5t-72.5 25.5q-49 0 -80.5 -29.5t-35.5 -83.5h-137q8 107 81.5 167.5t185.5 60.5q105 0 165 -53t60 -133q0 -68 -37 -118t-110 -72v-2q103 -41 103 -153q0 -109 -78.5 -172.5t-192.5 -63.5q-131 0 -194 65t-53 163
h140q0 -109 110 -109q63 0 96.5 35.5t33.5 86.5q0 43 -27.5 67.5t-76.5 24.5z" />
    <glyph glyph-name="uni021A.sc" horiz-adv-x="592" 
d="M429 527l-104 -527h-156l104 527h-187l24 117h528l-23 -117h-186zM106 -220l55 156h151l-102 -156h-104z" />
    <glyph glyph-name="two.tab" 
d="M98 497q6 126 78 190.5t198 64.5q98 0 158 -53.5t60 -139.5q0 -43 -12 -80t-39.5 -72t-52.5 -59.5t-71 -64.5l-185 -160v-1h308l-23 -122h-520l17 92l289 255q7 7 25 22.5t24.5 21t21 19t19.5 19.5t15.5 17.5t14.5 18.5t10.5 17.5t8.5 19.5t4 20t2 22q0 41 -23.5 64
t-65.5 23q-50 0 -82.5 -32t-36.5 -102h-142z" />
    </font>
</defs>
</svg>
