<?xml version="1.0" standalone="no"?>
<!DOCTYPE svg PUBLIC "-//W3C//DTD SVG 1.1//EN" "http://www.w3.org/Graphics/SVG/1.1/DTD/svg11.dtd" >
<svg xmlns="http://www.w3.org/2000/svg" xmlns:xlink="http://www.w3.org/1999/xlink" version="1.1">
<metadata>
Created by FontForge 20150824 at Fri Dec 18 12:16:43 2015
 By Everything Fonts
Copyright (C) 2002, 2007 Hoefler &#38; Co. http://www.typography.com
</metadata>
<defs>
<font id="ChronicleTextG1Roman" horiz-adv-x="568" >
  <font-face 
    font-family="ChronicleTextG1Roman"
    font-weight="325"
    font-stretch="normal"
    units-per-em="1000"
    panose-1="0 0 0 0 0 0 0 0 0 0"
    ascent="800"
    descent="-200"
    x-height="459"
    cap-height="658"
    bbox="-53 -312 1492 1089"
    underline-thickness="50"
    underline-position="-150"
    unicode-range="U+0020-FB04"
  />
<missing-glyph horiz-adv-x="500" 
d="M0 -200v1000h500v-1000h-500zM71 750l179 -390l179 390h-358zM50 -76l172 376l-172 376v-752zM450 676l-172 -376l172 -376v752zM250 240l-179 -390h358z" />
    <glyph glyph-name="f_f" unicode="ff" horiz-adv-x="608" 
d="M310 703q46 0 78 -19.5t42 -46.5l16 18q48 48 110 48q53 0 81.5 -22t28.5 -53q0 -23 -13 -37.5t-35 -14.5t-38 15.5t-16 47.5q0 12 3 27q-13 6 -25 6q-25 0 -42 -17q-28 -28 -28 -129v-69h127v-42h-127v-349q0 -18 20.5 -25.5t79.5 -9.5v-31h-246v31q37 1 49.5 8.5
t12.5 26.5v349h-198v-349q0 -19 12.5 -26.5t48.5 -8.5v-31h-219v31q42 1 58 9t16 26v347h-85v28l85 18v3q0 127 56 183q58 58 148 58zM388 478q0 55 10 92q-8 -2 -13 -2q-22 0 -38 15.5t-16 47.5q0 11 6 29q-13 12 -40 12q-40 0 -69 -29q-38 -38 -38 -137v-49h198v21z" />
    <glyph glyph-name="fi" unicode="fi" 
d="M32 0v31q42 1 58 9t16 26v347h-85v28l85 18v3q0 127 56 183q58 58 148 58q62 0 100.5 -25t38.5 -63q0 -25 -15.5 -40.5t-39.5 -15.5q-26 0 -43 16t-17 46q0 20 11 35q-18 16 -46 16q-42 0 -71 -29q-38 -38 -38 -137v-49h127l155 4v-395q0 -19 15 -26.5t58 -8.5v-31h-219
v31q37 1 49.5 8.5t12.5 26.5v349h-198v-349q0 -19 12.5 -26.5t48.5 -8.5v-31h-219z" />
    <glyph glyph-name="fl" unicode="fl" 
d="M388 415h-198v-349q0 -19 12.5 -26.5t48.5 -8.5v-31h-219v31q42 1 58 9t16 26v347h-85v28l85 18v3q0 127 56 183q58 58 148 58q42 0 72 -12l90 11v-636q0 -19 15 -26.5t58 -8.5v-31h-219v31q37 1 49.5 8.5t12.5 26.5v349zM388 559q-24 2 -39 18t-15 44q0 20 11 35
q-18 16 -46 16q-42 0 -71 -29q-38 -38 -38 -137v-49h198v102z" />
    <glyph glyph-name="f_f_i" unicode="ffi" horiz-adv-x="850" 
d="M310 703q48 0 81 -22t40 -50l13 14q58 58 148 58q62 0 100.5 -25t38.5 -63q0 -25 -15.5 -40.5t-39.5 -15.5q-26 0 -43 16t-17 46q0 20 11 35q-18 16 -46 16q-42 0 -71 -29q-38 -38 -38 -137v-49h127l155 4v-395q0 -19 15 -26.5t58 -8.5v-31h-219v31q37 1 49.5 8.5
t12.5 26.5v349h-198v-349q0 -19 12.5 -26.5t48.5 -8.5v-31h-207v31q37 1 49.5 8.5t12.5 26.5v349h-198v-349q0 -19 12.5 -26.5t48.5 -8.5v-31h-219v31q42 1 58 9t16 26v347h-85v28l85 18v3q0 127 56 183q58 58 148 58zM388 457v5q0 65 13 108q-10 -2 -16 -2q-22 0 -38 15.5
t-16 47.5q0 11 6 29q-13 12 -40 12q-40 0 -69 -29q-38 -38 -38 -137v-49h198z" />
    <glyph glyph-name="f_f_l" unicode="ffl" horiz-adv-x="850" 
d="M326 0v31q37 1 49.5 8.5t12.5 26.5v349h-198v-349q0 -19 12.5 -26.5t48.5 -8.5v-31h-219v31q42 1 58 9t16 26v347h-85v28l85 18v3q0 127 56 183q58 58 148 58q48 0 81 -22t40 -50l13 14q58 58 148 58q42 0 72 -12l90 11v-636q0 -19 15 -26.5t58 -8.5v-31h-219v31
q37 1 49.5 8.5t12.5 26.5v349h-198v-349q0 -19 12.5 -26.5t48.5 -8.5v-31h-207zM388 462q0 65 13 108q-10 -2 -16 -2q-22 0 -38 15.5t-16 47.5q0 11 6 29q-13 12 -40 12q-40 0 -69 -29q-38 -38 -38 -137v-49h198v5zM670 457v102q-24 2 -39 18t-15 44q0 20 11 35
q-18 16 -46 16q-42 0 -71 -29q-38 -38 -38 -137v-49h198z" />
    <glyph glyph-name="f_b" unicode="fb" horiz-adv-x="847" 
d="M388 559q-24 2 -39 18t-15 44q0 20 11 35q-18 16 -46 16q-42 0 -71 -29q-38 -38 -38 -137v-49h198v102zM585 23q128 0 128 214q0 80 -36.5 131t-93.5 51q-59 0 -111 -43v-265q32 -88 113 -88zM290 0h-258v31q42 1 58 9t16 26v347h-85v28l85 18v3q0 127 56 183
q58 58 148 58q42 0 72 -12l90 11v-293q68 58 143 58q88 0 139.5 -63t51.5 -162q0 -104 -58.5 -177t-155.5 -73q-79 0 -145 49l-40 -53h-22l3 88v339h-198v-349q0 -18 20.5 -25.5t79.5 -9.5v-31z" />
    <glyph glyph-name="f_h" unicode="fh" horiz-adv-x="857" 
d="M388 559q-24 2 -39 18t-15 44q0 20 11 35q-18 16 -46 16q-42 0 -71 -29q-38 -38 -38 -137v-49h198v102zM535 0h-209v31q37 1 49.5 8.5t12.5 26.5v349h-198v-349q0 -19 12.5 -26.5t48.5 -8.5v-31h-219v31q42 1 58 9t16 26v347h-85v28l85 18v3q0 127 56 183q58 58 148 58
q42 0 72 -12l90 11v-309q104 71 180 71q52 0 82 -36.5t30 -102.5v-259q0 -19 15.5 -26.5t57.5 -8.5v-31h-221v31q37 1 50.5 9t13.5 26v223q0 64 -23.5 88.5t-71.5 24.5q-58 0 -113 -41v-295q0 -19 13.5 -26.5t49.5 -8.5v-31z" />
    <glyph glyph-name="f_j" unicode="fj" horiz-adv-x="563" 
d="M290 0h-258v31q42 1 58 9t16 26v347h-85v28l85 18v3q0 127 56 183q58 58 148 58q62 0 100.5 -25t38.5 -63q0 -25 -15.5 -40.5t-39.5 -15.5q-26 0 -43 16t-17 46q0 20 11 35q-18 16 -46 16q-42 0 -71 -29q-38 -38 -38 -137v-49h127l155 4v-457q0 -65 -9.5 -102t-36.5 -64
q-39 -39 -99 -39q-47 0 -77.5 22t-30.5 51q0 24 13.5 39.5t35.5 15.5t38 -16.5t16 -42.5q0 -19 -6 -31q12 -4 23 -4q20 0 34.5 20t14.5 69v493h-198v-349q0 -18 20.5 -25.5t79.5 -9.5v-31z" />
    <glyph glyph-name="f_k" unicode="fk" horiz-adv-x="813" 
d="M388 559q-24 2 -39 18t-15 44q0 20 11 35q-18 16 -46 16q-42 0 -71 -29q-38 -38 -38 -137v-49h198v102zM526 0h-200v31q37 1 49.5 8.5t12.5 26.5v349h-198v-349q0 -19 12.5 -26.5t48.5 -8.5v-31h-219v31q42 1 58 9t16 26v347h-85v28l85 18v3q0 127 56 183q58 58 148 58
q42 0 72 -12l90 11v-482l148 152q47 48 -40 58v29h212v-29q-38 -6 -59 -18t-54 -42l-93 -87l151 -208q18 -24 32.5 -33t48.5 -13v-29h-219v29q38 5 46.5 14t-7.5 35l-107 153l-59 -55v-110q0 -18 12 -26t42 -9v-31z" />
    <glyph glyph-name="f_f_b" unicode="ffb" horiz-adv-x="1129" 
d="M572 0h-246v31q37 1 49.5 8.5t12.5 26.5v349h-198v-349q0 -19 12.5 -26.5t48.5 -8.5v-31h-219v31q42 1 58 9t16 26v347h-85v28l85 18v3q0 127 56 183q58 58 148 58q48 0 81 -22t40 -50l13 14q58 58 148 58q42 0 72 -12l90 11v-293q68 58 143 58q88 0 139.5 -63t51.5 -162
q0 -104 -58.5 -177t-155.5 -73q-79 0 -145 49l-40 -53h-22l3 88v339h-198v-349q0 -18 20.5 -25.5t79.5 -9.5v-31zM867 23q128 0 128 214q0 80 -36.5 131t-93.5 51q-59 0 -111 -43v-265q32 -88 113 -88zM388 462q0 65 13 108q-10 -2 -16 -2q-22 0 -38 15.5t-16 47.5
q0 11 6 29q-13 12 -40 12q-40 0 -69 -29q-38 -38 -38 -137v-49h198v5zM670 457v102q-24 2 -39 18t-15 44q0 20 11 35q-18 16 -46 16q-42 0 -71 -29q-38 -38 -38 -137v-49h198z" />
    <glyph glyph-name="f_f_h" unicode="ffh" horiz-adv-x="1139" 
d="M326 0v31q37 1 49.5 8.5t12.5 26.5v349h-198v-349q0 -19 12.5 -26.5t48.5 -8.5v-31h-219v31q42 1 58 9t16 26v347h-85v28l85 18v3q0 127 56 183q58 58 148 58q48 0 81 -22t40 -50l13 14q58 58 148 58q42 0 72 -12l90 11v-309q104 71 180 71q52 0 82 -36.5t30 -102.5v-259
q0 -19 15.5 -26.5t57.5 -8.5v-31h-221v31q37 1 50.5 9t13.5 26v223q0 64 -23.5 88.5t-71.5 24.5q-58 0 -113 -41v-295q0 -19 13.5 -26.5t49.5 -8.5v-31h-209v31q37 1 49.5 8.5t12.5 26.5v349h-198v-349q0 -19 12.5 -26.5t48.5 -8.5v-31h-207zM388 462q0 65 13 108
q-10 -2 -16 -2q-22 0 -38 15.5t-16 47.5q0 11 6 29q-13 12 -40 12q-40 0 -69 -29q-38 -38 -38 -137v-49h198v5zM670 457v102q-24 2 -39 18t-15 44q0 20 11 35q-18 16 -46 16q-42 0 -71 -29q-38 -38 -38 -137v-49h198z" />
    <glyph glyph-name="f_f_j" unicode="ffj" horiz-adv-x="845" 
d="M572 0h-246v31q37 1 49.5 8.5t12.5 26.5v349h-198v-349q0 -19 12.5 -26.5t48.5 -8.5v-31h-219v31q42 1 58 9t16 26v347h-85v28l85 18v3q0 127 56 183q58 58 148 58q48 0 81 -22t40 -50l13 14q58 58 148 58q62 0 100.5 -25t38.5 -63q0 -25 -15.5 -40.5t-39.5 -15.5
q-26 0 -43 16t-17 46q0 20 11 35q-18 16 -46 16q-42 0 -71 -29q-38 -38 -38 -137v-49h127l155 4v-457q0 -65 -9.5 -102t-36.5 -64q-39 -39 -99 -39q-47 0 -77.5 22t-30.5 51q0 24 13.5 39.5t35.5 15.5t38 -16.5t16 -42.5q0 -19 -6 -31q12 -4 23 -4q20 0 34.5 20t14.5 69v493
h-198v-349q0 -18 20.5 -25.5t79.5 -9.5v-31zM388 462q0 65 13 108q-10 -2 -16 -2q-22 0 -38 15.5t-16 47.5q0 11 6 29q-13 12 -40 12q-40 0 -69 -29q-38 -38 -38 -137v-49h198v5z" />
    <glyph glyph-name="f_f_k" unicode="ffk" horiz-adv-x="1095" 
d="M326 0v31q37 1 49.5 8.5t12.5 26.5v349h-198v-349q0 -19 12.5 -26.5t48.5 -8.5v-31h-219v31q42 1 58 9t16 26v347h-85v28l85 18v3q0 127 56 183q58 58 148 58q48 0 81 -22t40 -50l13 14q58 58 148 58q42 0 72 -12l90 11v-482l148 152q47 48 -40 58v29h212v-29
q-38 -6 -59 -18t-54 -42l-93 -87l151 -208q18 -24 32.5 -33t48.5 -13v-29h-219v29q38 5 46.5 14t-7.5 35l-107 153l-59 -55v-110q0 -18 12 -26t42 -9v-31h-200v31q37 1 49.5 8.5t12.5 26.5v349h-198v-349q0 -19 12.5 -26.5t48.5 -8.5v-31h-207zM388 462q0 65 13 108
q-10 -2 -16 -2q-22 0 -38 15.5t-16 47.5q0 11 6 29q-13 12 -40 12q-40 0 -69 -29q-38 -38 -38 -137v-49h198v5zM670 457v102q-24 2 -39 18t-15 44q0 20 11 35q-18 16 -46 16q-42 0 -71 -29q-38 -38 -38 -137v-49h198z" />
    <glyph glyph-name=".notdef" horiz-adv-x="500" 
d="M0 -200v1000h500v-1000h-500zM71 750l179 -390l179 390h-358zM50 -76l172 376l-172 376v-752zM450 676l-172 -376l172 -376v752zM250 240l-179 -390h358z" />
    <glyph glyph-name=".null" horiz-adv-x="0" 
 />
    <glyph glyph-name="nonmarkingreturn" horiz-adv-x="333" 
 />
    <glyph glyph-name="space" unicode=" " horiz-adv-x="184" 
 />
    <glyph glyph-name="exclam" unicode="!" horiz-adv-x="279" 
d="M124 185q-6 98 -23 242t-17 187q0 34 15.5 52t40.5 18t40 -18t15 -52q0 -43 -17 -187t-23 -242h-31zM140 -16q-25 0 -43 17.5t-18 42.5t18 42.5t43 17.5t42.5 -17.5t17.5 -42.5t-17.5 -42.5t-42.5 -17.5z" />
    <glyph glyph-name="quotedbl" unicode="&#x22;" horiz-adv-x="393" 
d="M248 412l-23 11l20 90q24 106 28 115q16 34 44 34q22 0 33.5 -14t11.5 -32q0 -11 -5 -24q-12 -30 -60 -104zM83 412l-23 11l20 90q22 100 28 115q16 34 44 34q22 0 33.5 -14t11.5 -32q0 -11 -5 -24q-12 -30 -60 -104z" />
    <glyph glyph-name="numbersign" unicode="#" horiz-adv-x="663" 
d="M315 663l-40 -201h175l40 201h51l-40 -201h130v-43h-138l-42 -215h137v-43h-146l-39 -201h-51l39 201h-175l-39 -201h-51l39 201h-129v43h138l42 215h-137v43h145l40 201h51zM267 419l-42 -215h175l42 215h-175z" />
    <glyph glyph-name="dollar" unicode="$" horiz-adv-x="533" 
d="M253 -60v78q-83 4 -141.5 38t-58.5 86q0 27 15.5 45t44.5 18q26 0 41 -15.5t15 -38.5q0 -34 -34 -53q13 -16 47 -28.5t71 -15.5v223q-91 30 -121 51q-54 38 -54 104q0 69 49.5 116t125.5 55v70h40v-68q78 -3 130.5 -38t52.5 -78q0 -28 -13.5 -44.5t-37.5 -16.5
q-28 0 -42.5 15.5t-14.5 38.5q0 34 32 47q-16 14 -45.5 26t-61.5 14v-207q5 -2 13 -4q40 -12 62.5 -21.5t51.5 -27.5t42.5 -45t13.5 -64q0 -68 -45 -121.5t-138 -60.5v-78h-40zM406 156q0 39 -25 61.5t-88 45.5v-210q56 4 84.5 34t28.5 69zM156 468q0 -34 22.5 -54.5
t74.5 -38.5v193q-46 -6 -71.5 -33t-25.5 -67z" />
    <glyph glyph-name="percent" unicode="%" horiz-adv-x="808" 
d="M589 20q56 0 96.5 71.5t40.5 136.5q0 82 -55 82q-40 0 -73.5 -37.5t-50.5 -88.5t-17 -97q0 -67 59 -67zM585 -15q-64 0 -98 37.5t-34 99.5q0 82 62 154t142 72q50 0 79.5 -32t29.5 -91q0 -43 -20 -96.5t-63.5 -98.5t-97.5 -45zM315 507q0 19 -3 36q-45 15 -80 42
q-48 -18 -80.5 -86t-32.5 -132q0 -68 59 -68q56 0 96.5 71.5t40.5 136.5zM246 628q62 0 91 -49q45 -19 100 -19q98 0 166 82h41l-437 -668h-58l403 586l-3 3q-48 -38 -129 -38q-35 0 -67 7q2 -16 2 -28q0 -43 -20 -96.5t-63.5 -98.5t-97.5 -45q-64 0 -98 38t-34 100
q0 82 62 154t142 72z" />
    <glyph glyph-name="ampersand" unicode="&#x26;" horiz-adv-x="730" 
d="M308 370q50 34 68 64.5t18 68.5q0 92 -82 92q-32 0 -55 -24t-23 -65q0 -32 18.5 -63.5t55.5 -72.5zM245 313q-50 -27 -71.5 -59.5t-21.5 -81.5q0 -58 34.5 -96.5t90.5 -38.5q40 0 71 18.5t64 57.5q-71 116 -167 200zM464 191q79 152 158 152q33 0 51.5 -18.5t18.5 -48.5
q0 -25 -14.5 -40.5t-39.5 -15.5q-21 0 -35.5 13.5t-14.5 32.5q0 15 6 25l-3 5q-51 -27 -105 -137q36 -67 59 -91.5t51 -24.5q22 0 36.5 6t36.5 24l16 -21q-71 -68 -127 -68q-47 0 -72 21.5t-56 77.5q-76 -99 -180 -99q-97 0 -145.5 49.5t-48.5 113.5q0 126 171 185
q-35 40 -52.5 71t-17.5 67q0 69 49.5 113t119.5 44q63 0 101 -34.5t38 -83.5q0 -47 -30 -83t-105 -77q83 -75 134 -158z" />
    <glyph glyph-name="quotesingle" unicode="'" horiz-adv-x="228" 
d="M83 412l-23 11l20 90q22 100 28 115q16 34 44 34q22 0 33.5 -14t11.5 -32q0 -11 -5 -24q-12 -30 -60 -104z" />
    <glyph glyph-name="parenleft" unicode="(" horiz-adv-x="361" 
d="M372 -157q-130 56 -214 166t-84 273t84 273t214 166l17 -27q-224 -119 -224 -412t224 -412z" />
    <glyph glyph-name="parenright" unicode=")" horiz-adv-x="361" 
d="M-11 -157l-17 27q224 119 224 412t-224 412l17 27q130 -56 214 -166t84 -273t-84 -273t-214 -166z" />
    <glyph glyph-name="asterisk" unicode="*" horiz-adv-x="437" 
d="M277 332q-33 -10 -47 34q-7 19 -11 129l-12 4q-70 -87 -85 -98q-38 -27 -58 0q-21 27 18 55q18 13 120 51v12q-102 38 -120 51q-38 27 -18 55q20 27 58 0q15 -11 85 -98l12 4q4 110 11 129q14 44 47 34q32 -10 18 -55q-5 -15 -67 -112l7 -9q116 29 126 29q47 0 47 -34
t-47 -34q-10 0 -126 29l-7 -9q62 -97 67 -112q14 -45 -18 -55z" />
    <glyph glyph-name="plus" unicode="+" horiz-adv-x="525" 
d="M51 282v49h186v185h52v-185h185v-49h-185v-188h-52v188h-186z" />
    <glyph glyph-name="comma" unicode="," horiz-adv-x="231" 
d="M34 -149l-16 26q112 50 122 122l-6 3q-16 -10 -29 -10q-20 0 -34 14.5t-14 36.5q0 25 16.5 43t41.5 18q32 0 51 -21.5t19 -56.5q0 -110 -151 -175z" />
    <glyph glyph-name="hyphen" unicode="-" horiz-adv-x="366" 
d="M55 216v67h256v-67h-256z" />
    <glyph glyph-name="period" unicode="." horiz-adv-x="231" 
d="M116 -16q-25 0 -43 17.5t-18 42.5t18 42.5t43 17.5t42.5 -17.5t17.5 -42.5t-17.5 -42.5t-42.5 -17.5z" />
    <glyph glyph-name="slash" unicode="/" horiz-adv-x="431" 
d="M-3 -203l200 453l196 454h49l-200 -454l-196 -453h-49z" />
    <glyph glyph-name="zero" unicode="0" horiz-adv-x="576" 
d="M288 -15q-112 0 -178 90.5t-66 228.5q0 137 67.5 230.5t176.5 93.5q112 0 178 -91t66 -229q0 -137 -67.5 -230t-176.5 -93zM292 20q136 0 136 286q0 139 -36 213t-108 74q-136 0 -136 -287q0 -286 144 -286z" />
    <glyph glyph-name="one" unicode="1" horiz-adv-x="408" 
d="M50 0v32q68 1 93.5 7.5t25.5 23.5v459q0 31 -25 42.5t-98 10.5v31l214 16v-559q0 -17 25.5 -23.5t93.5 -7.5v-32h-329z" />
    <glyph glyph-name="two" unicode="2" horiz-adv-x="543" 
d="M59 0v65l139 118q109 92 144 149.5t35 125.5q0 63 -32 99t-84 36q-78 0 -110 -60q39 -22 39 -62q0 -27 -16 -46.5t-45 -19.5t-47.5 20t-18.5 48q0 62 61 108.5t145 46.5q103 0 156 -47.5t53 -123.5q0 -65 -44.5 -123t-146.5 -136l-150 -119v-4h214q53 0 74 19.5t42 81.5
l28 -2l-5 -174h-431z" />
    <glyph glyph-name="three" unicode="3" horiz-adv-x="531" 
d="M253 -15q-83 0 -145.5 36.5t-62.5 94.5q0 28 18 47.5t46 19.5q27 0 42 -18.5t15 -43.5q0 -38 -33 -58q50 -43 125 -43q64 0 94.5 37.5t30.5 104.5q0 65 -42.5 99.5t-141.5 34.5h-16v38h11q98 0 135.5 35t37.5 104q0 60 -31 90t-84 30q-71 0 -106 -56q37 -22 37 -57
q0 -25 -15 -43.5t-42 -18.5q-26 0 -43.5 19t-17.5 45q0 59 57.5 102.5t140.5 43.5q99 0 151 -41.5t52 -106.5q0 -52 -41.5 -95t-129.5 -65v-3q187 -23 187 -154q0 -76 -61 -127t-168 -51z" />
    <glyph glyph-name="four" unicode="4" horiz-adv-x="548" 
d="M531 194h-140v-131q0 -17 21 -23.5t68 -7.5v-32h-272v32q94 2 94 31v131h-272v48l297 381h64v-371h140v-58zM298 529l-213 -277h217v277h-4z" />
    <glyph glyph-name="five" unicode="5" horiz-adv-x="526" 
d="M259 -15q-87 0 -148 37t-61 97q0 29 18.5 48.5t47.5 19.5q27 0 41.5 -17.5t14.5 -43.5q0 -39 -37 -61q42 -45 117 -45q128 0 128 162q0 73 -39 113t-111 40q-58 0 -121 -38l-18 18l12 298h356l-10 -80h-299l-8 -186q58 30 122 30q111 0 163 -52.5t52 -133.5
q0 -80 -58 -143t-162 -63z" />
    <glyph glyph-name="six" unicode="6" horiz-adv-x="542" 
d="M282 -15q-109 0 -170 71.5t-61 184.5q0 160 96 256q58 58 128 91t176 49v-31q-34 -7 -66.5 -17.5t-73 -33.5t-72 -53t-56.5 -79t-33 -108l4 -1q26 44 67.5 67t88.5 23q86 0 139 -51.5t53 -135.5q0 -99 -57.5 -165.5t-162.5 -66.5zM288 19q115 0 115 186q0 160 -117 160
q-54 0 -93.5 -47.5t-39.5 -132.5q0 -74 39 -120t96 -46z" />
    <glyph glyph-name="seven" unicode="7" horiz-adv-x="506" 
d="M108 -9v19l314 528h-248q-44 0 -58 -20t-31 -91h-31l6 186h424v-29l-168 -340l-117 -253h-91z" />
    <glyph glyph-name="eight" unicode="8" horiz-adv-x="529" 
d="M49 143q0 50 34.5 92t97.5 67q-112 52 -112 155q0 74 54.5 122.5t144.5 48.5t145 -41.5t55 -101.5q0 -52 -29 -86.5t-97 -68.5q81 -33 112.5 -73t31.5 -97q0 -74 -62 -124.5t-151 -50.5q-109 0 -166.5 43.5t-57.5 114.5zM226 284q-1 0 -2.5 0.5t-2.5 0.5
q-42 -19 -66.5 -54.5t-24.5 -83.5q0 -56 35.5 -91.5t96.5 -35.5q60 0 94.5 31t34.5 88q0 50 -36 82t-129 63zM159 482q0 -44 34 -77.5t109 -60.5q49 24 67 55.5t18 75.5q0 50 -33 84t-87 34q-50 0 -79 -28.5t-29 -82.5z" />
    <glyph glyph-name="nine" unicode="9" horiz-adv-x="542" 
d="M91 -24v31q44 9 85.5 25.5t89.5 48.5t82 88t44 129l-4 1q-52 -90 -156 -90q-85 0 -138.5 56t-53.5 141q0 94 62 158t168 64q108 0 164.5 -71t56.5 -185q0 -158 -96 -254q-58 -58 -128.5 -92t-175.5 -50zM269 248q51 0 85.5 49.5t34.5 126.5t-34.5 123.5t-90.5 46.5
q-58 0 -91.5 -50.5t-33.5 -131.5q0 -74 36.5 -119t93.5 -45z" />
    <glyph glyph-name="colon" unicode=":" horiz-adv-x="241" 
d="M121 281q-25 0 -43 17.5t-18 42.5t18 42.5t43 17.5t42.5 -17.5t17.5 -42.5t-17.5 -42.5t-42.5 -17.5zM121 -16q-25 0 -43 17.5t-18 42.5t18 42.5t43 17.5t42.5 -17.5t17.5 -42.5t-17.5 -42.5t-42.5 -17.5z" />
    <glyph glyph-name="semicolon" unicode=";" horiz-adv-x="241" 
d="M124 281q-25 0 -42.5 17.5t-17.5 42.5t17.5 42.5t42.5 17.5t42.5 -17.5t17.5 -42.5t-17.5 -42.5t-42.5 -17.5zM34 -149l-16 26q112 50 122 122l-6 3q-16 -10 -29 -10q-20 0 -34 14.5t-14 36.5q0 25 16.5 43t41.5 18q32 0 51 -21.5t19 -56.5q0 -110 -151 -175z" />
    <glyph glyph-name="less" unicode="&#x3c;" horiz-adv-x="524" 
d="M79 283v47l366 188v-50l-316 -162l316 -161v-51z" />
    <glyph glyph-name="equal" unicode="=" horiz-adv-x="525" 
d="M56 188v49h413v-49h-413zM56 375v49h413v-49h-413z" />
    <glyph glyph-name="greater" unicode="&#x3e;" horiz-adv-x="524" 
d="M445 282l-366 -188v50l316 162l-316 161v51l366 -189v-47z" />
    <glyph glyph-name="question" unicode="?" horiz-adv-x="453" 
d="M172 185l-3 144q92 26 125.5 63.5t33.5 112.5q0 71 -30 107.5t-85 36.5q-65 0 -100 -50q39 -22 39 -62q0 -27 -16 -46.5t-45 -19.5t-47.5 20t-18.5 48q0 62 55.5 103.5t140.5 41.5q102 0 153.5 -49t51.5 -126q0 -69 -53.5 -122t-160.5 -81v-121h-40zM194 -16
q-25 0 -43 17.5t-18 42.5t18 42.5t43 17.5t42.5 -17.5t17.5 -42.5t-17.5 -42.5t-42.5 -17.5z" />
    <glyph glyph-name="at" unicode="@" horiz-adv-x="909" 
d="M469 -146q-179 0 -293.5 112t-114.5 295q0 184 120 303.5t307 119.5q150 0 255 -96.5t105 -241.5q0 -134 -67 -209.5t-158 -75.5q-51 0 -83 24.5t-34 62.5l-4 1q-60 -80 -125 -80q-54 0 -86.5 35.5t-32.5 98.5q0 103 67 188.5t160 85.5q62 0 85 -68h6l17 60l76 10
l-50 -140l-40 -142q-13 -47 3.5 -73t53.5 -26q69 0 119.5 67t50.5 177q0 130 -92 219t-231 89q-169 0 -274.5 -111t-105.5 -274q0 -164 100.5 -270.5t270.5 -106.5q132 0 247 86l19 -28q-120 -92 -271 -92zM405 118q57 0 107 94l37 121q0 53 -17.5 83t-45.5 30
q-46 0 -81.5 -43t-51.5 -96t-16 -100q0 -89 68 -89z" />
    <glyph glyph-name="A" unicode="A" horiz-adv-x="652" 
d="M460 106l-49 141h-224l-38 -98q-28 -70 -19 -90t74 -30v-29h-217v29q48 10 72 39.5t52 99.5l201 500h45l202 -557q14 -40 36.5 -57.5t75.5 -24.5v-29h-295v29q64 4 81 20.5t3 56.5zM201 283h197l-91 265h-4z" />
    <glyph glyph-name="B" unicode="B" horiz-adv-x="639" 
d="M41 0v32q63 2 83.5 11t20.5 32v508q0 23 -20.5 32t-83.5 11v32h270q139 0 199 -44t60 -115q0 -22 -7 -42.5t-23 -41.5t-47.5 -37.5t-76.5 -25.5v-4q91 -7 138.5 -53.5t47.5 -104.5q0 -87 -67 -138.5t-215 -51.5h-279zM240 364h73q88 0 123.5 31t35.5 97q0 65 -34 97.5
t-123 32.5h-75v-258zM240 36h84q56 0 92.5 11t54.5 33t24.5 47t6.5 61q0 65 -46 102.5t-143 37.5h-73v-292z" />
    <glyph glyph-name="C" unicode="C" horiz-adv-x="669" 
d="M364 -16q-142 0 -230.5 93t-88.5 244q0 150 97.5 251.5t239.5 101.5q86 0 163 -46l28 43h31v-216h-30q-68 183 -202 183q-91 0 -155 -83.5t-64 -229.5q0 -136 72 -212.5t165 -76.5q143 0 214 153l33 -16q-35 -80 -103.5 -134.5t-169.5 -54.5z" />
    <glyph glyph-name="D" unicode="D" horiz-adv-x="726" 
d="M41 0v32q63 2 83.5 11t20.5 32v508q0 23 -20.5 32t-83.5 11v32h274q180 0 272.5 -85t92.5 -231q0 -148 -89 -245t-267 -97h-283zM240 36h77q146 0 200.5 74t54.5 226q0 286 -264 286h-68v-586z" />
    <glyph glyph-name="E" unicode="E" horiz-adv-x="654" 
d="M41 0v32q63 2 83.5 11t20.5 32v508q0 23 -20.5 32t-83.5 11v32h534l3 -184l-31 -1q-28 91 -56.5 119.5t-108.5 28.5h-142v-261h59q60 0 84.5 18.5t42.5 92.5h27v-260h-27q-18 74 -42.5 92.5t-84.5 18.5h-59v-284h142q65 0 103.5 19.5t57.5 52t38 96.5l31 -1l-5 -205h-566
z" />
    <glyph glyph-name="F" unicode="F" horiz-adv-x="629" 
d="M41 0v32q63 2 83.5 11t20.5 32v508q0 23 -20.5 32t-83.5 11v32h532l7 -189l-31 -1q-27 88 -62.5 120.5t-116.5 32.5h-130v-269h66q57 0 77.5 18t40.5 91h27v-258h-27q-18 75 -39 93t-79 18h-66v-239q0 -24 21.5 -32.5t88.5 -10.5v-32h-309z" />
    <glyph glyph-name="G" unicode="G" horiz-adv-x="706" 
d="M392 -16q-147 0 -247 90t-100 253q0 151 100 249t241 98q90 0 160 -32l27 32h31v-193h-30q-59 157 -198 157q-90 0 -156.5 -81t-66.5 -228q0 -146 70 -227.5t161 -81.5t134 34v186q0 23 -20.5 32t-83.5 11v32h265v-32q-44 -2 -55 -9.5t-11 -33.5v-205
q-41 -22 -105.5 -36.5t-115.5 -14.5z" />
    <glyph glyph-name="H" unicode="H" horiz-adv-x="789" 
d="M41 0v32q63 2 83.5 11t20.5 32v508q0 23 -20.5 32t-83.5 11v32h295v-32q-65 -2 -80.5 -9.5t-15.5 -33.5v-224h309v224q0 26 -15.5 33.5t-80.5 9.5v32h295v-32q-63 -2 -83.5 -11t-20.5 -32v-508q0 -23 20.5 -32t83.5 -11v-32h-295v32q65 2 80.5 9.5t15.5 33.5v248h-309
v-248q0 -26 15.5 -33.5t80.5 -9.5v-32h-295z" />
    <glyph glyph-name="I" unicode="I" horiz-adv-x="405" 
d="M51 0v32q63 2 83.5 11t20.5 32v508q0 23 -20.5 32t-83.5 11v32h303v-32q-63 -2 -83.5 -11t-20.5 -32v-508q0 -23 20.5 -32t83.5 -11v-32h-303z" />
    <glyph glyph-name="J" unicode="J" horiz-adv-x="519" 
d="M202 -16q-72 0 -120 37t-48 94q0 28 18.5 48.5t45.5 20.5q26 0 43 -17.5t17 -42.5q0 -48 -45 -65q29 -32 76 -32q108 0 108 166v390q0 25 -17.5 33t-88.5 10v32h300v-32q-63 -2 -81 -10.5t-18 -32.5v-378q0 -100 -46.5 -160.5t-143.5 -60.5z" />
    <glyph glyph-name="K" unicode="K" horiz-adv-x="724" 
d="M240 313l222 222q45 43 40 65t-69 29v29h254v-29q-56 -9 -87.5 -28.5t-94.5 -79.5l-134 -130l210 -288q26 -36 51 -52t75 -22v-29h-283v29q60 8 70.5 22.5t-13.5 43.5l-171 237l-70 -68v-189q0 -26 14 -33.5t71 -9.5v-32h-284v32q63 2 83.5 11t20.5 32v508q0 23 -20.5 32
t-83.5 11v32h295v-32q-65 -2 -80.5 -9.5t-15.5 -33.5v-270z" />
    <glyph glyph-name="L" unicode="L" horiz-adv-x="610" 
d="M41 0v32q63 2 83.5 11t20.5 32v508q0 23 -20.5 32t-83.5 11v32h303v-32q-63 -2 -83.5 -11t-20.5 -32v-545h109q95 0 133 37.5t68 145.5l31 -2l-7 -219h-533z" />
    <glyph glyph-name="M" unicode="M" horiz-adv-x="921" 
d="M41 0v29q66 11 85.5 35t19.5 94v410q0 29 -22 42.5t-83 15.5v32h229l190 -524h6l186 524h228v-32q-63 -2 -83.5 -11t-20.5 -32v-508q0 -23 20.5 -32t83.5 -11v-32h-285v32q57 2 71.5 10t14.5 33v521h-5l-219 -596h-41l-225 596h-5v-438q0 -71 16.5 -94t81.5 -35v-29h-243
z" />
    <glyph glyph-name="N" unicode="N" horiz-adv-x="751" 
d="M602 -16l-415 570h-1v-396q0 -71 19 -95t89 -34v-29h-253v29q66 11 85.5 35t19.5 94v400q0 65 -105 68v32h187l372 -511h1v354q0 68 -22.5 92.5t-93.5 35.5v29h254v-29q-65 -12 -81.5 -35t-16.5 -93v-517h-39z" />
    <glyph glyph-name="O" unicode="O" horiz-adv-x="720" 
d="M360 -16q-137 0 -225.5 93.5t-88.5 249.5q0 155 90 251t224 96q137 0 225.5 -93.5t88.5 -249.5t-90 -251.5t-224 -95.5zM364 20q94 0 148 76.5t54 232.5q0 154 -57.5 231.5t-152.5 77.5q-94 0 -148 -77t-54 -232t57 -232t153 -77z" />
    <glyph glyph-name="P" unicode="P" horiz-adv-x="606" 
d="M41 0v32q63 2 83.5 11t20.5 32v508q0 23 -20.5 32t-83.5 11v32h270q263 0 263 -179q0 -36 -14 -69t-44 -62t-84.5 -46.5t-127.5 -17.5h-64v-209q0 -24 21.5 -32.5t88.5 -10.5v-32h-309zM240 320h71q92 0 126.5 40t34.5 117q0 145 -158 145h-74v-302z" />
    <glyph glyph-name="Q" unicode="Q" horiz-adv-x="720" 
d="M363 20q94 0 148 76.5t54 232.5q0 154 -57.5 231.5t-152.5 77.5q-94 0 -148 -77t-54 -232t57 -232t153 -77zM397 -14q37 -14 71.5 -51t62 -64.5t54.5 -27.5q28 0 28 26q0 10 -17 25.5t-17 36.5q0 22 15.5 37.5t38.5 15.5q22 0 39 -19.5t17 -44.5q0 -50 -40 -80t-104 -30
q-36 0 -66 13.5t-50.5 33t-38 39t-37 33t-39.5 13.5q-58 0 -134 -76l-24 26q66 77 137 98q-111 21 -179 111t-68 226q0 155 90 251t223 96q137 0 225.5 -93.5t88.5 -249.5q0 -144 -78 -237.5t-198 -107.5z" />
    <glyph glyph-name="R" unicode="R" horiz-adv-x="667" 
d="M240 347h77q90 0 123.5 36.5t33.5 111.5q0 66 -37.5 96.5t-126.5 30.5h-70v-275zM240 311v-236q0 -25 18.5 -33t84.5 -10v-32h-302v32q63 2 83.5 11t20.5 32v508q0 23 -20.5 32t-83.5 11v32h276q139 0 199 -44.5t60 -115.5q0 -128 -167 -165v-3q44 -4 72 -14.5t43 -29.5
t21.5 -37.5t11.5 -50.5l15 -95q7 -43 28 -58t74 -19v-32q-4 0 -17 -0.5t-16 -0.5q-102 0 -134 24.5t-37 95.5l-6 77q-6 71 -39 96t-113 25h-72z" />
    <glyph glyph-name="S" unicode="S" horiz-adv-x="533" 
d="M47 -20v214h31q78 -174 201 -174q69 0 105 38.5t36 88.5q0 52 -37.5 80.5t-136.5 63.5q-91 32 -121 52q-66 45 -66 130q0 92 63 146.5t159 54.5q67 0 128 -23l32 28h22v-192h-31q-25 72 -67.5 111.5t-99.5 39.5q-53 0 -87 -32.5t-34 -89.5q0 -50 36.5 -75t128.5 -56
q31 -11 46 -16.5t41.5 -17.5t40 -24.5t29 -30.5t22 -42.5t6.5 -54.5q0 -86 -55 -150.5t-169 -64.5q-82 0 -149 28l-50 -32h-24z" />
    <glyph glyph-name="T" unicode="T" horiz-adv-x="648" 
d="M167 0v32q66 2 88.5 11t22.5 32v547h-50q-66 0 -93 -34.5t-61 -136.5l-31 2l6 205h554l7 -205l-31 -2q-28 96 -57 133.5t-97 37.5h-52v-547q0 -23 22.5 -32t88.5 -11v-32h-317z" />
    <glyph glyph-name="U" unicode="U" horiz-adv-x="733" 
d="M375 -16q-114 0 -182 53.5t-68 141.5v404q0 23 -20.5 32t-83.5 11v32h295v-32q-65 -2 -80.5 -9.5t-15.5 -33.5v-388q0 -84 50.5 -126t135.5 -42q77 0 127 50q28 28 39.5 58t11.5 84v282q0 68 -22.5 92.5t-93.5 35.5v29h254v-29q-65 -12 -81.5 -35t-16.5 -93v-312
q0 -84 -67.5 -144.5t-181.5 -60.5z" />
    <glyph glyph-name="V" unicode="V" horiz-adv-x="665" 
d="M309 -16l-211 574q-12 33 -32 46.5t-75 24.5v29h293v-29q-63 -4 -81 -18t-7 -45l161 -459h4l148 394q14 39 18 60t-5 35.5t-27.5 20.5t-56.5 12v29h237v-29q-49 -10 -71 -35t-48 -92l-202 -518h-45z" />
    <glyph glyph-name="W" unicode="W" horiz-adv-x="958" 
d="M470 498l-15 48q-13 41 -33.5 58.5t-66.5 24.5v29h272v-29q-58 -4 -74 -19t-7 -44l135 -434h4l121 369q24 74 12 95.5t-83 32.5v29h242v-29q-51 -10 -77.5 -37.5t-47.5 -89.5l-172 -518h-45l-143 446l-170 -446h-45l-175 574q-10 34 -29.5 47t-75.5 24v29h275v-29
q-54 -4 -67.5 -18t-4.5 -45l126 -435h3z" />
    <glyph glyph-name="X" unicode="X" horiz-adv-x="668" 
d="M355 384l100 145q35 50 25.5 72.5t-69.5 27.5v29h241v-29q-50 -8 -82 -31.5t-79 -88.5l-113 -158l178 -261q24 -35 38.5 -43.5t70.5 -17.5v-29h-285v29q58 6 72 23t-7 42l-129 195l-112 -160q-34 -46 -25 -70.5t68 -29.5v-29h-240v29q51 10 82 31.5t79 88.5l125 174
l-162 238q-23 33 -43.5 46.5t-72.5 21.5v29h286v-29q-56 -3 -70 -21t7 -44z" />
    <glyph glyph-name="Y" unicode="Y" horiz-adv-x="642" 
d="M350 325l114 194q35 58 27.5 79.5t-72.5 30.5v29h227v-29q-45 -9 -69.5 -27.5t-56.5 -72.5l-148 -245v-209q0 -23 20.5 -32t83.5 -11v-32h-303v32q63 2 83.5 11t20.5 32v198l-170 295q-17 29 -35 41t-62 20v29h283v-29q-63 -4 -79.5 -20.5t2.5 -44.5z" />
    <glyph glyph-name="Z" unicode="Z" horiz-adv-x="610" 
d="M44 0l-2 19l407 603h-181q-64 0 -98.5 -38t-73.5 -132l-32 2l21 204h480l2 -19l-407 -603h201q21 0 38.5 4.5t30.5 9.5t26 19.5t21 24t20.5 35t18.5 39.5l21 49l32 -2l-22 -215h-503z" />
    <glyph glyph-name="bracketleft" unicode="[" horiz-adv-x="343" 
d="M93 -156v877h272v-36h-195v-805h195v-36h-272z" />
    <glyph glyph-name="backslash" unicode="\" horiz-adv-x="431" 
d="M385 -203l-196 453l-200 454h49l196 -454l200 -453h-49z" />
    <glyph glyph-name="bracketright" unicode="]" horiz-adv-x="343" 
d="M-22 -156v36h195v805h-195v36h272v-877h-272z" />
    <glyph glyph-name="asciicircum" unicode="^" horiz-adv-x="333" 
d="M24 517l132 200h29l124 -200h-31l-111 112l-112 -112h-31z" />
    <glyph glyph-name="underscore" unicode="_" horiz-adv-x="440" 
d="M-2 0v41h444v-41h-444z" />
    <glyph glyph-name="grave" unicode="`" horiz-adv-x="238" 
d="M140 535l-79 86q-39 42 -39 69q0 17 11.5 29t28.5 12q19 0 31.5 -16.5t29.5 -56.5l52 -123h-35z" />
    <glyph glyph-name="a" unicode="a" horiz-adv-x="480" 
d="M166 -6q-59 0 -90 30.5t-31 74.5q0 71 61 104q33 18 82.5 33t85.5 24t42 13v29q0 73 -21.5 102t-71.5 29q-42 0 -68 -26q12 -26 12 -47q0 -23 -14 -38.5t-39 -15.5q-23 0 -36.5 15.5t-13.5 38.5q0 43 50.5 73.5t122.5 30.5q163 0 163 -143v-229q0 -38 14.5 -48.5
t62.5 -4.5l4 -24q-53 -19 -93 -19q-38 0 -50.5 16.5t-17.5 60.5h-4q-70 -79 -150 -79zM214 47q28 0 56 18.5t46 43.5v131q-108 -23 -142.5 -46t-34.5 -72q0 -33 19 -54t56 -21z" />
    <glyph glyph-name="b" unicode="b" horiz-adv-x="541" 
d="M79 -12l3 88v537q0 48 -77 49v31l161 4v-288q68 58 143 58q88 0 139.5 -63t51.5 -162q0 -104 -58.5 -177t-155.5 -73q-79 0 -145 49l-40 -53h-22zM279 23q128 0 128 214q0 80 -36.5 131t-93.5 51q-59 0 -111 -43v-265q32 -88 113 -88z" />
    <glyph glyph-name="c" unicode="c" horiz-adv-x="456" 
d="M252 -8q-96 0 -153.5 65.5t-57.5 167.5q0 104 63.5 173t157.5 69q74 0 116.5 -33.5t42.5 -74.5q0 -24 -14 -40.5t-37 -16.5q-25 0 -39 14t-14 37q0 36 32 54q-31 29 -85 29q-59 0 -97 -49t-38 -140q0 -90 42 -144t114 -54q71 0 130 68l20 -19q-35 -51 -77.5 -78.5
t-105.5 -27.5z" />
    <glyph glyph-name="d" unicode="d" horiz-adv-x="547" 
d="M237 -8q-90 0 -143 65t-53 165q0 106 61.5 175.5t160.5 69.5q62 0 108 -27v173q0 48 -77 49v31l161 4v-631q0 -19 15 -27t58 -9v-30l-155 -4v53q-55 -57 -136 -57zM276 40q46 0 95 42v296q-20 30 -43.5 44t-59.5 14q-56 0 -95 -55.5t-39 -153.5q0 -82 38 -134.5
t104 -52.5z" />
    <glyph glyph-name="e" unicode="e" horiz-adv-x="483" 
d="M255 -8q-102 0 -158 65t-56 168q0 105 59 173.5t155 68.5q93 0 141.5 -67.5t41.5 -156.5h-307v-6v-2q0 -85 40.5 -137.5t112.5 -52.5t141 85l20 -19q-33 -55 -77 -87t-113 -32zM248 436q-48 0 -79 -40t-37 -123l215 5q8 66 -19 112t-80 46z" />
    <glyph glyph-name="f" unicode="f" horiz-adv-x="326" 
d="M32 0v31q42 1 58 9t16 26v347h-85v28l85 18v19q0 119 58 177q48 48 110 48q53 0 81.5 -22t28.5 -53q0 -23 -13 -37.5t-35 -14.5t-38 15.5t-16 47.5q0 12 3 27q-14 6 -25 6q-25 0 -42 -17q-28 -28 -28 -129v-69h127v-42h-127v-349q0 -18 20.5 -25.5t79.5 -9.5v-31h-258z
" />
    <glyph glyph-name="g" unicode="g" horiz-adv-x="475" 
d="M251 -172q64 0 105.5 27.5t41.5 72.5q0 34 -28.5 52t-102.5 18h-83q-86 -23 -86 -82q0 -40 37 -64t116 -24zM239 186q86 0 86 125q0 59 -27 92t-68 33q-86 0 -86 -125q0 -65 26.5 -95t68.5 -30zM235 464q47 0 85 -16q39 77 100 77q26 0 40.5 -13.5t14.5 -34.5
q0 -16 -11 -27.5t-27 -11.5q-17 0 -29 13t-12 35q-35 -11 -55 -48q71 -41 71 -125q0 -71 -49.5 -113t-127.5 -42q-29 0 -58 6q-49 -22 -49 -47q0 -38 102 -38h41q97 0 144 -29t47 -94q0 -64 -62 -110.5t-175 -46.5q-90 0 -143.5 31t-53.5 76q0 36 34.5 66t89.5 37v5
q-46 9 -65 27t-19 51q0 44 74 83q-85 37 -85 134q0 71 49.5 113t128.5 42z" />
    <glyph glyph-name="h" unicode="h" horiz-adv-x="570" 
d="M27 0v31q42 1 58 9t16 26v547q0 48 -77 49v31l161 4v-304q104 71 180 71q52 0 82 -36.5t30 -102.5v-259q0 -19 15.5 -26.5t57.5 -8.5v-31h-221v31q37 1 50.5 9t13.5 26v223q0 64 -23.5 88.5t-71.5 24.5q-58 0 -113 -41v-295q0 -19 13.5 -26.5t49.5 -8.5v-31h-221z" />
    <glyph glyph-name="i" unicode="i" horiz-adv-x="293" 
d="M153 575q-26 0 -41.5 16t-15.5 42t16 43.5t41 17.5t41 -16.5t16 -42.5t-16 -43t-41 -17zM40 0v31q42 1 57.5 8.5t15.5 26.5v311q0 24 -15.5 36t-56.5 13v31l156 4v-395q0 -19 15 -26.5t58 -8.5v-31h-230z" />
    <glyph glyph-name="j" unicode="j" horiz-adv-x="291" 
d="M156 575q-26 0 -41.5 16t-15.5 42t16 43.5t41 17.5t41 -16.5t16 -42.5t-16 -43t-41 -17zM55 -201q-47 0 -77.5 22t-30.5 51q0 24 13.5 39.5t35.5 15.5t38 -16.5t16 -42.5q0 -19 -6 -31q12 -4 23 -4q20 0 34.5 20t14.5 69v451q0 31 -14.5 42t-65.5 11v31l164 4v-457
q0 -65 -9.5 -102t-36.5 -64q-39 -39 -99 -39z" />
    <glyph glyph-name="k" unicode="k" horiz-adv-x="526" 
d="M185 176v-110q0 -18 12 -26t42 -9v-31h-212v31q42 1 58 9t16 26v547q0 48 -77 49v31l161 4v-477l148 152q47 48 -40 58v29h212v-29q-38 -6 -59 -18t-54 -42l-93 -87l151 -208q18 -24 32.5 -33t48.5 -13v-29h-219v29q38 5 46.5 14t-7.5 35l-107 153z" />
    <glyph glyph-name="l" unicode="l" horiz-adv-x="288" 
d="M33 0v31q42 1 57.5 8.5t15.5 26.5v547q0 48 -77 49v31l161 4v-631q0 -19 15 -26.5t58 -8.5v-31h-230z" />
    <glyph glyph-name="m" unicode="m" horiz-adv-x="856" 
d="M338 0v31q36 1 47 8.5t11 26.5v222q0 64 -24 89t-72 25t-103 -41v-295q0 -19 10.5 -26.5t46.5 -8.5v-31h-214v31q42 1 57.5 8.5t15.5 26.5v311q0 24 -16 36t-57 13v31l155 4v-69q33 23 54.5 36t54 24.5t63.5 11.5q81 0 105 -85q96 85 182 85q52 0 80.5 -36t28.5 -103
v-259q0 -19 15.5 -26.5t57.5 -8.5v-31h-215v31q36 1 47 8.5t11 26.5v222q0 64 -22.5 89t-69.5 25q-46 0 -109 -51q2 -28 2 -32v-253q0 -19 13 -26.5t54 -8.5v-31h-209z" />
    <glyph glyph-name="n" unicode="n" horiz-adv-x="582" 
d="M40 0v31q42 1 57.5 8.5t15.5 26.5v311q0 24 -16 36t-57 13v31l155 4v-69q103 72 181 72q53 0 83 -36t30 -103v-259q0 -19 15 -26.5t58 -8.5v-31h-221v31q37 1 50.5 8.5t13.5 26.5v223q0 64 -23.5 88.5t-71.5 24.5q-58 0 -113 -41v-295q0 -19 13.5 -26.5t49.5 -8.5v-31
h-220z" />
    <glyph glyph-name="o" unicode="o" horiz-adv-x="529" 
d="M265 -8q-105 0 -164.5 64.5t-59.5 171.5q0 106 61 172.5t163 66.5q104 0 163.5 -64.5t59.5 -170.5t-61 -173t-162 -67zM269 23q60 0 93 52t33 155q0 102 -36.5 154t-98.5 52q-126 0 -126 -206q0 -102 36.5 -154.5t98.5 -52.5z" />
    <glyph glyph-name="p" unicode="p" horiz-adv-x="552" 
d="M24 -192v30q43 1 58 9t15 27v503q0 24 -16 36t-57 13v31l155 4v-64q40 35 73.5 52.5t76.5 17.5q87 0 134.5 -61.5t47.5 -162.5q0 -107 -54 -177.5t-148 -70.5q-64 0 -128 32v-153q0 -19 20.5 -27t74.5 -9v-30h-252zM294 26q52 0 88 56t36 156q0 83 -33 132t-88 49
q-61 0 -116 -55v-250q13 -47 40 -67.5t73 -20.5z" />
    <glyph glyph-name="q" unicode="q" horiz-adv-x="534" 
d="M283 -192v30q52 2 72 9.5t20 26.5v179q-68 -58 -143 -58q-88 0 -139.5 63t-51.5 161q0 104 58.5 176t155.5 72q79 0 145 -49l40 53h22l-3 -88v-509q0 -19 15 -27t58 -9v-30h-249zM264 43q59 0 111 43v262q-32 88 -113 88q-128 0 -128 -212q0 -79 36.5 -130t93.5 -51z" />
    <glyph glyph-name="r" unicode="r" horiz-adv-x="411" 
d="M40 0v31q42 1 57.5 8.5t15.5 26.5v311q0 24 -16 36t-57 13v31l155 4v-78q64 81 133 81q36 0 55 -20.5t19 -48.5q0 -24 -14.5 -40.5t-37.5 -16.5q-24 0 -39.5 13.5t-15.5 38.5q0 5 2 17q-58 3 -100 -58v-283q0 -19 18 -26.5t66 -8.5v-31h-241z" />
    <glyph glyph-name="s" unicode="s" horiz-adv-x="420" 
d="M51 -8v153h29q74 -122 150 -122q38 0 60 22.5t22 53.5q0 35 -24.5 54t-94.5 40q-75 22 -106 51t-31 77q0 66 43.5 106t117.5 40q54 0 95 -26l18 26h23v-136h-29q-54 105 -119 105q-36 0 -58 -21t-22 -54q0 -30 26 -48.5t88 -36.5q72 -21 104 -50.5t32 -79.5
q0 -66 -40.5 -110t-114.5 -44q-27 0 -61 9.5t-55 22.5l-30 -32h-23z" />
    <glyph glyph-name="t" unicode="t" horiz-adv-x="360" 
d="M213 -8q-51 0 -79 31.5t-28 93.5v296h-85v28l87 18v128l82 36v-166h145v-42h-145v-287q0 -81 62 -81q35 0 73 54l23 -16q-28 -51 -58 -72t-77 -21z" />
    <glyph glyph-name="u" unicode="u" horiz-adv-x="563" 
d="M216 -8q-55 0 -87 36.5t-32 102.5v255q0 23 -15 30.5t-59 9.5v31l158 5v-295q0 -64 24.5 -88.5t76.5 -24.5q51 0 105 34v298q0 23 -15.5 30.5t-58.5 9.5v31l158 5v-396q0 -19 15 -27t58 -9v-30h-155v58q-92 -66 -173 -66z" />
    <glyph glyph-name="v" unicode="v" horiz-adv-x="485" 
d="M222 -6l-150 373q-13 33 -28.5 46t-48.5 17v29h224v-29q-66 -4 -66 -32q0 -7 4 -19l111 -282h4l93 239q13 34 13 50q0 36 -59 45v28h177v-28q-49 -6 -78 -78l-149 -359h-47z" />
    <glyph glyph-name="w" unicode="w" horiz-adv-x="727" 
d="M356 338l-11 29q-12 33 -26.5 46t-43.5 17v29h208v-29q-64 -4 -64 -33q0 -6 4 -18l98 -272h4l78 229q13 41 13 51q0 33 -59 43v29h184v-29q-37 -4 -55 -21t-31 -54l-132 -361h-42l-106 290l-118 -290h-44l-140 373q-13 35 -26.5 46.5t-48.5 16.5v29h214v-29
q-60 -4 -60 -32q0 -7 4 -19l101 -272h4z" />
    <glyph glyph-name="x" unicode="x" horiz-adv-x="499" 
d="M263 275l59 79q29 35 27 51.5t-42 24.5v29h181v-29q-58 -10 -106 -68l-97 -117l122 -165q19 -25 36.5 -36t47.5 -15v-29h-214v29q43 2 50.5 15.5t-10.5 33.5l-77 110l-63 -84q-30 -37 -27.5 -52t46.5 -23v-29h-185v29q65 14 109 69l98 121l-122 162q-19 25 -35 35t-47 14
v29h210v-29q-41 -2 -47 -14t13 -35z" />
    <glyph glyph-name="y" unicode="y" horiz-adv-x="496" 
d="M238 3l-159 364q-15 35 -29 47t-45 16v29h226v-29q-46 -2 -60.5 -15t-4.5 -36l115 -273l95 230q20 45 10.5 65.5t-59.5 28.5v29h184v-29q-53 -7 -81 -75l-168 -398q-36 -88 -74.5 -123t-84.5 -35q-38 0 -60.5 19.5t-22.5 48.5q0 25 14.5 42.5t39.5 17.5q22 0 37.5 -16
t15.5 -39q0 -17 -6 -29q27 0 52 32.5t60 115.5z" />
    <glyph glyph-name="z" unicode="z" horiz-adv-x="462" 
d="M40 0l-2 16l284 407h-97q-61 0 -85.5 -24t-53.5 -93l-29 2l9 151h362l2 -16l-283 -407h98q65 0 93.5 27.5t56.5 96.5l29 -2l-9 -158h-375z" />
    <glyph glyph-name="braceleft" unicode="{" horiz-adv-x="388" 
d="M395 -150q-224 8 -224 184q0 25 8 70t8 60q0 45 -44 71.5t-117 35.5v41q161 19 161 103q0 15 -8 58t-8 68q0 172 224 180v-26q-80 -6 -107 -38.5t-27 -104.5q0 -12 2 -47.5t2 -55.5q0 -71 -37.5 -102t-124.5 -46v-19q86 -15 124 -47.5t38 -104.5q0 -20 -2 -57.5t-2 -49.5
q0 -72 27 -106.5t107 -40.5v-26z" />
    <glyph glyph-name="bar" unicode="|" horiz-adv-x="289" 
d="M122 -203v907h45v-907h-45z" />
    <glyph glyph-name="braceright" unicode="}" horiz-adv-x="388" 
d="M-7 -150v26q80 6 107 40.5t27 106.5q0 12 -2 49.5t-2 57.5q0 72 38 104.5t124 47.5v19q-87 15 -124.5 46t-37.5 102q0 20 2 55.5t2 47.5q0 72 -27 104.5t-107 38.5v26q224 -8 224 -180q0 -25 -8 -68t-8 -58q0 -84 161 -103v-41q-73 -9 -117 -35.5t-44 -71.5q0 -15 8 -60
t8 -70q0 -176 -224 -184z" />
    <glyph glyph-name="asciitilde" unicode="~" horiz-adv-x="371" 
d="M38 251q11 64 31 92t64 28q27 0 72.5 -24t59.5 -24q26 0 42 57h30q-11 -63 -32 -91.5t-63 -28.5q-27 0 -72.5 24t-59.5 24q-27 0 -42 -57h-30z" />
    <glyph glyph-name="uni00A0" unicode="&#xa0;" horiz-adv-x="184" 
 />
    <glyph glyph-name="exclamdown" unicode="&#xa1;" horiz-adv-x="279" 
d="M139 564q-25 0 -42.5 17.5t-17.5 42.5t17.5 42.5t42.5 17.5t43 -17.5t18 -42.5t-18 -42.5t-43 -17.5zM139 -16q-25 0 -40 18t-15 52q0 43 17 187t23 242h31q6 -98 23 -242t17 -187q0 -34 -15.5 -52t-40.5 -18z" />
    <glyph glyph-name="cent" unicode="&#xa2;" horiz-adv-x="519" 
d="M268 -86v79q-90 7 -143.5 71.5t-53.5 160.5q0 92 56.5 159t140.5 80v71h40v-68q74 -1 123.5 -37t49.5 -84q0 -26 -13.5 -43t-37.5 -17q-25 0 -39 14t-14 37q0 36 32 54q-42 44 -101 45v-387h12q37 0 77.5 20.5t66.5 50.5l20 -19q-67 -98 -176 -108v-79h-40zM159 247
q0 -71 29 -121.5t80 -68.5v374q-48 -14 -78.5 -61t-30.5 -123z" />
    <glyph glyph-name="sterling" unicode="&#xa3;" 
d="M436 333v-38h-160q12 -39 12 -74q0 -65 -56 -117q12 -3 40.5 -11.5t46 -13t43.5 -9t47 -4.5q41 0 64.5 24.5t29.5 89.5l31 -1q1 -88 -37 -141t-101 -53q-34 0 -92 25t-109 59q-10 -35 -33 -59.5t-50 -24.5q-28 0 -43.5 15t-15.5 38q0 33 31.5 54.5t88.5 21.5q6 0 22 -2
q12 30 12 60q0 55 -32 123h-106v38h88q-24 54 -24 95q0 95 59 147.5t149 52.5q70 0 117 -38t47 -83q0 -28 -15.5 -47t-40.5 -19q-29 0 -46.5 17t-17.5 48q0 13 7.5 27.5t17.5 22.5q-29 37 -78 37t-78 -31t-29 -93q0 -46 37 -136h174z" />
    <glyph glyph-name="yen" unicode="&#xa5;" horiz-adv-x="648" 
d="M90 276v38h156l-124 209q-16 27 -34.5 39t-60.5 22v29h273v-32q-64 -3 -76.5 -19t7.5 -43l119 -212l98 167q34 54 26 77t-72 36v26h216v-26q-34 -8 -58.5 -29.5t-55.5 -73.5l-103 -170h156v-38h-179l-9 -15v-66h188v-38h-188v-82q0 -23 20.5 -32t83.5 -11v-32h-299v32
q63 2 83.5 11t20.5 32v82h-188v38h188v66l-9 15h-179z" />
    <glyph glyph-name="brokenbar" unicode="&#xa6;" horiz-adv-x="289" 
d="M167 316h-45v388h45v-388zM122 184h45v-387h-45v387z" />
    <glyph glyph-name="section" unicode="&#xa7;" horiz-adv-x="525" 
d="M81 230q0 91 116 129v4q-51 21 -76 47.5t-25 63.5q0 68 53 111t130 43q71 0 118.5 -32.5t47.5 -74.5q0 -27 -14.5 -43.5t-38.5 -16.5q-25 0 -39.5 15.5t-14.5 37.5q0 16 9 29.5t21 18.5q-33 31 -94 31q-50 0 -79 -25.5t-29 -58.5t29 -54t120 -54q75 -27 108 -57t33 -82
q0 -42 -25 -76.5t-75 -52.5v-4q44 -18 67 -42t23 -66q0 -64 -45.5 -113t-139.5 -49q-78 0 -135 33t-57 83q0 28 16 47.5t44 19.5q26 0 41 -16t15 -40q0 -35 -34 -54q15 -17 48 -27.5t70 -10.5q57 0 85.5 25t28.5 61q0 33 -29 56.5t-113 51.5q-86 29 -123 59.5t-37 82.5z
M301 151q88 19 88 81q0 31 -26.5 54.5t-94.5 47.5l-22 8q-92 -20 -92 -88q0 -32 30 -52.5t105 -46.5z" />
    <glyph glyph-name="dieresis" unicode="&#xa8;" horiz-adv-x="322" 
d="M254 543q-24 0 -39.5 15.5t-15.5 40.5t15.5 42t39.5 17t39.5 -16t15.5 -41t-15.5 -41.5t-39.5 -16.5zM68 543q-24 0 -39.5 15.5t-15.5 40.5t15.5 42t39.5 17t39.5 -16t15.5 -41t-15.5 -41.5t-39.5 -16.5z" />
    <glyph glyph-name="copyright" unicode="&#xa9;" horiz-adv-x="787" 
d="M393 -32q-153 0 -257 104t-104 258q0 152 104.5 256t256.5 104q153 0 257.5 -104t104.5 -256q0 -154 -104.5 -258t-257.5 -104zM393 -2q139 0 233 95.5t94 236.5q0 139 -94 234.5t-233 95.5q-138 0 -232 -95.5t-94 -234.5q0 -140 94 -236t232 -96zM393 141
q-77 0 -125.5 50.5t-48.5 137.5q0 83 53.5 139t127.5 56q49 0 88 -39l20 35h23v-123h-27q-37 95 -105 95q-48 0 -79 -40t-31 -121q0 -75 35 -112.5t83 -37.5q71 0 111 85l27 -15q-51 -110 -152 -110z" />
    <glyph glyph-name="ordfeminine" unicode="&#xaa;" horiz-adv-x="410" 
d="M145 312q-44 0 -66 21.5t-22 53.5q0 53 51 82q24 13 57.5 23t57.5 15t28 8v21q0 52 -13 70.5t-48 18.5q-27 0 -48 -14q9 -18 9 -35t-12 -29.5t-32 -12.5q-17 0 -27.5 12.5t-10.5 29.5q0 31 38 53.5t91 22.5q121 0 121 -102v-164q0 -27 10.5 -34.5t46.5 -3.5l3 -21
q-42 -14 -69 -14q-28 0 -37.5 12t-13.5 44h-6q-52 -57 -108 -57zM181 354q36 0 70 44v92q-76 -16 -98 -34t-22 -53q0 -49 50 -49z" />
    <glyph glyph-name="guillemotleft" unicode="&#xab;" horiz-adv-x="500" 
d="M429 30l-165 160q-21 21 -21 34t21 34l165 160l23 -16l-119 -178l119 -179zM229 30l-165 160q-21 21 -21 34t21 34l165 160l23 -16l-119 -178l119 -179z" />
    <glyph glyph-name="registered" unicode="&#xae;" horiz-adv-x="517" 
d="M258 256q-92 0 -154.5 62t-62.5 156q0 93 62 154.5t155 61.5t155.5 -61.5t62.5 -154.5q0 -94 -62.5 -156t-155.5 -62zM258 279q85 0 137.5 54.5t52.5 140.5q0 85 -52.5 139t-137.5 54q-84 0 -136.5 -54t-52.5 -139q0 -86 52.5 -140.5t136.5 -54.5zM234 485h27q50 0 50 45
q0 41 -49 41h-28v-86zM234 466v-69q0 -9 6.5 -12t28.5 -4v-18h-113v18q38 1 38 16v160q0 15 -38 16v18h106q47 0 69.5 -16.5t22.5 -40.5q0 -22 -14 -34t-51 -21v-6q30 -4 42.5 -12.5t15.5 -27.5l5 -32q2 -12 8.5 -17t25.5 -5v-19h-27q-32 0 -42.5 10t-10.5 34v26
q0 19 -12 27.5t-44 8.5h-16z" />
    <glyph glyph-name="macron" unicode="&#xaf;" horiz-adv-x="321" 
d="M20 559v57h281v-57h-281z" />
    <glyph glyph-name="degree" unicode="&#xb0;" horiz-adv-x="402" 
d="M202 353q-72 0 -116.5 45t-44.5 114q0 68 46 115t115 47q71 0 115 -45t44 -114q0 -68 -45.5 -115t-113.5 -47zM204 391q41 0 64.5 31.5t23.5 91.5q0 58 -26 90t-68 32q-41 0 -64 -31.5t-23 -90.5t25.5 -91t67.5 -32z" />
    <glyph glyph-name="plusminus" unicode="&#xb1;" horiz-adv-x="485" 
d="M55 381v47h163v162h50v-162h162v-47h-162v-165h-50v165h-163zM55 98v45h375v-45h-375z" />
    <glyph glyph-name="two.sup" unicode="&#xb2;" horiz-adv-x="405" 
d="M44 248v57l36 26q63 46 103 85.5t56.5 71.5t21.5 53t5 48q0 42 -21 67t-59 25q-47 0 -74 -36q29 -17 29 -46q0 -20 -12.5 -34.5t-33.5 -14.5t-35 15t-14 36q0 46 45 80t108 34q77 0 115 -34.5t38 -91.5q0 -94 -176 -224l-69 -51v-3h140q40 0 56 14.5t31 60.5l26 -2
l-4 -136h-312z" />
    <glyph glyph-name="three.sup" unicode="&#xb3;" horiz-adv-x="405" 
d="M192 233q-60 0 -105.5 27t-45.5 70q0 20 13.5 34.5t33.5 14.5q21 0 32.5 -13.5t11.5 -32.5q0 -28 -25 -43q34 -23 79 -23q44 0 67.5 27t23.5 72q0 47 -27.5 72t-93.5 25h-12v36h8q66 0 89.5 24t23.5 72q0 86 -75 86q-44 0 -73 -33q28 -18 28 -42q0 -19 -11.5 -32.5
t-31.5 -13.5t-33 14t-13 33q0 44 42.5 76t103.5 32q72 0 110 -32.5t38 -81.5q0 -86 -126 -117v-2q138 -17 138 -115q0 -57 -45 -95.5t-125 -38.5z" />
    <glyph glyph-name="acute" unicode="&#xb4;" horiz-adv-x="238" 
d="M50 535l52 123q17 40 29.5 56.5t31.5 16.5q17 0 28.5 -12t11.5 -29q0 -27 -39 -69l-79 -86h-35z" />
    <glyph glyph-name="paragraph" unicode="&#xb6;" horiz-adv-x="642" 
d="M323 -104v277q-120 2 -196 60.5t-76 159.5t73.5 161t210.5 59h270v-26q-64 -7 -81 -24.5t-17 -65.5v-601h-48v681h-88v-681h-48z" />
    <glyph glyph-name="periodcentered" unicode="&#xb7;" horiz-adv-x="231" 
d="M116 258q-25 0 -43 17.5t-18 42.5t18 42.5t43 17.5t42.5 -17.5t17.5 -42.5t-17.5 -42.5t-42.5 -17.5z" />
    <glyph glyph-name="cedilla" unicode="&#xb8;" horiz-adv-x="282" 
d="M112 -251q-58 0 -103 31l17 25q36 -23 73 -23q58 0 58 49q0 23 -20 36t-52 13q-18 0 -34 -4l-12 16l105 105h39l-73 -71l1 -3q54 -3 81.5 -25t27.5 -56q0 -42 -30.5 -67.5t-77.5 -25.5z" />
    <glyph glyph-name="one.sup" unicode="&#xb9;" horiz-adv-x="405" 
d="M69 248v32q61 0 85 4.5t24 18.5v325q0 24 -21.5 32t-90.5 7v30l190 13v-407q0 -14 24 -18.5t84 -4.5v-32h-295z" />
    <glyph glyph-name="ordmasculine" unicode="&#xba;" horiz-adv-x="420" 
d="M211 312q-79 0 -123 46t-44 123q0 76 45.5 123.5t121.5 47.5q77 0 121 -46t44 -122t-45.5 -124t-119.5 -48zM213 339q87 0 87 145q0 141 -93 141q-87 0 -87 -141q0 -145 93 -145z" />
    <glyph glyph-name="guillemotright" unicode="&#xbb;" horiz-adv-x="500" 
d="M271 30l-23 15l119 179l-119 178l23 16l165 -160q21 -21 21 -34t-21 -34zM71 30l-23 15l119 179l-119 178l23 16l165 -160q21 -21 21 -34t-21 -34z" />
    <glyph glyph-name="onequarter" unicode="&#xbc;" horiz-adv-x="1080" 
d="M49 172v32q61 0 85 4.5t24 18.5v325q0 24 -21.5 32t-90.5 7v30l190 13v-407q0 -14 24 -18.5t84 -4.5v-32h-295zM835 114v209h-16l-155 -209h171zM906 114h75v-47h-75v-79q0 -13 13 -18t48 -5v-32h-200v32q68 0 68 23v79h-210v49l212 285h69v-287zM266 -82l267 387
l229 334h49l-231 -334l-265 -387h-49z" />
    <glyph glyph-name="onehalf" unicode="&#xbd;" horiz-adv-x="1080" 
d="M49 172v32q61 0 85 4.5t24 18.5v325q0 24 -21.5 32t-90.5 7v30l190 13v-407q0 -14 24 -18.5t84 -4.5v-32h-295zM689 -67v57l36 26q63 46 103 85.5t56.5 71.5t21.5 53t5 48q0 42 -21 67t-59 25q-47 0 -74 -36q29 -17 29 -46q0 -20 -12.5 -34.5t-33.5 -14.5t-35 15t-14 36
q0 46 45 80t108 34q77 0 115 -34.5t38 -91.5q0 -94 -176 -224l-69 -51v-3h140q40 0 56 14.5t31 60.5l26 -2l-4 -136h-312zM266 -82l267 387l229 334h49l-231 -334l-265 -387h-49z" />
    <glyph glyph-name="threequarters" unicode="&#xbe;" horiz-adv-x="1080" 
d="M222 157q-60 0 -105.5 27t-45.5 70q0 20 13.5 34.5t33.5 14.5q21 0 32.5 -13.5t11.5 -32.5q0 -28 -25 -43q34 -23 79 -23q44 0 67.5 27t23.5 72q0 47 -27.5 72t-93.5 25h-12v36h8q66 0 89.5 24t23.5 72q0 86 -75 86q-44 0 -73 -33q28 -18 28 -42q0 -19 -11.5 -32.5
t-31.5 -13.5t-33 14t-13 33q0 44 42.5 76t103.5 32q72 0 110 -32.5t38 -81.5q0 -86 -126 -117v-2q138 -17 138 -115q0 -57 -45 -95.5t-125 -38.5zM837 114v209h-16l-155 -209h171zM908 114h75v-47h-75v-79q0 -13 13 -18t48 -5v-32h-200v32q68 0 68 23v79h-210v49l212 285h69
v-287zM268 -82l267 387l229 334h49l-231 -334l-265 -387h-49z" />
    <glyph glyph-name="questiondown" unicode="&#xbf;" horiz-adv-x="473" 
d="M277 564q-25 0 -42.5 17.5t-17.5 42.5t17.5 42.5t42.5 17.5t43 -17.5t18 -42.5t-18 -42.5t-43 -17.5zM250 -16q-102 0 -153.5 49t-51.5 126q0 69 53.5 122t160.5 81v121h40l3 -144q-92 -26 -125.5 -63.5t-33.5 -112.5q0 -71 30 -107.5t85 -36.5q65 0 100 50
q-39 22 -39 62q0 27 16 46.5t45 19.5t47.5 -20t18.5 -48q0 -62 -55.5 -103.5t-140.5 -41.5z" />
    <glyph glyph-name="Agrave" unicode="&#xc0;" horiz-adv-x="652" 
d="M460 106l-49 141h-224l-38 -98q-28 -70 -19 -90t74 -30v-29h-217v29q48 10 72 39.5t52 99.5l201 500h45l202 -557q14 -40 36.5 -57.5t75.5 -24.5v-29h-295v29q64 4 81 20.5t3 56.5zM201 283h197l-91 265h-4zM325 743l-79 86q-39 42 -39 69q0 17 11.5 29t28.5 12
q19 0 31.5 -16.5t29.5 -56.5l52 -123h-35z" />
    <glyph glyph-name="Aacute" unicode="&#xc1;" horiz-adv-x="652" 
d="M460 106l-49 141h-224l-38 -98q-28 -70 -19 -90t74 -30v-29h-217v29q48 10 72 39.5t52 99.5l201 500h45l202 -557q14 -40 36.5 -57.5t75.5 -24.5v-29h-295v29q64 4 81 20.5t3 56.5zM201 283h197l-91 265h-4zM307 743l52 123q17 40 29.5 56.5t31.5 16.5q17 0 28.5 -12
t11.5 -29q0 -27 -39 -69l-79 -86h-35z" />
    <glyph glyph-name="Acircumflex" unicode="&#xc2;" horiz-adv-x="652" 
d="M460 106l-49 141h-224l-38 -98q-28 -70 -19 -90t74 -30v-29h-217v29q48 10 72 39.5t52 99.5l201 500h45l202 -557q14 -40 36.5 -57.5t75.5 -24.5v-29h-295v29q64 4 81 20.5t3 56.5zM201 283h197l-91 265h-4zM195 743l121 183h29l113 -183h-31l-100 100l-101 -100h-31z
" />
    <glyph glyph-name="Atilde" unicode="&#xc3;" horiz-adv-x="652" 
d="M460 106l-49 141h-224l-38 -98q-28 -70 -19 -90t74 -30v-29h-217v29q48 10 72 39.5t52 99.5l201 500h45l202 -557q14 -40 36.5 -57.5t75.5 -24.5v-29h-295v29q64 4 81 20.5t3 56.5zM201 283h197l-91 265h-4zM187 743q11 64 31 92t64 28q27 0 72.5 -24t59.5 -24
q26 0 42 57h30q-11 -63 -32 -91.5t-63 -28.5q-27 0 -72.5 24t-59.5 24q-27 0 -42 -57h-30z" />
    <glyph glyph-name="Adieresis" unicode="&#xc4;" horiz-adv-x="652" 
d="M460 106l-49 141h-224l-38 -98q-28 -70 -19 -90t74 -30v-29h-217v29q48 10 72 39.5t52 99.5l201 500h45l202 -557q14 -40 36.5 -57.5t75.5 -24.5v-29h-295v29q64 4 81 20.5t3 56.5zM201 283h197l-91 265h-4zM427 751q-24 0 -39.5 15.5t-15.5 40.5t15.5 42t39.5 17
t39.5 -16t15.5 -41t-15.5 -41.5t-39.5 -16.5zM241 751q-24 0 -39.5 15.5t-15.5 40.5t15.5 42t39.5 17t39.5 -16t15.5 -41t-15.5 -41.5t-39.5 -16.5z" />
    <glyph glyph-name="Aring" unicode="&#xc5;" horiz-adv-x="652" 
d="M187 247l-38 -98q-28 -70 -19 -90.5t74 -32.5v-26h-217v26q48 11 72 41.5t52 100.5l198 491q-35 8 -55.5 35t-20.5 63q0 42 28 71t73 29t73 -29t28 -71q0 -36 -20 -62.5t-55 -34.5l199 -549q14 -40 36.5 -57.5t75.5 -24.5v-29h-295v32q65 4 81.5 19t2.5 55l-49 141h-224z
M398 283l-91 265h-4l-102 -265h197zM334 682q27 0 43 20.5t16 54.5q0 75 -59 75t-59 -75q0 -34 16 -54.5t43 -20.5z" />
    <glyph glyph-name="AE" unicode="&#xc6;" horiz-adv-x="965" 
d="M230 257l-67 -108q-37 -60 -37 -80q0 -29 58 -40v-29h-217v29q49 11 83.5 43t74.5 96l249 393q12 18 12 31q-2 27 -94 39v27h594l3 -184l-31 -1q-28 91 -56.5 119.5t-108.5 28.5h-142v-261h59q60 0 84.5 18.5t42.5 92.5h27v-260h-27q-18 74 -42.5 92.5t-84.5 18.5h-59
v-284h142q65 0 103.5 19.5t57.5 52t38 96.5l31 -1l-5 -205h-566v32q63 2 83.5 11t20.5 32v182h-226zM456 293v304h-15l-189 -304h204z" />
    <glyph glyph-name="Ccedilla" unicode="&#xc7;" horiz-adv-x="669" 
d="M339 -251q-58 0 -103 31l17 25q36 -23 73 -23q58 0 58 49q0 23 -20 36t-52 13q-18 0 -34 -4l-12 16l92 92q-140 2 -226.5 94.5t-86.5 242.5t97.5 251.5t239.5 101.5q86 0 163 -46l28 43h31v-216h-30q-68 183 -202 183q-91 0 -155 -83.5t-64 -229.5q0 -136 72 -212.5
t165 -76.5q143 0 214 153l33 -16q-32 -73 -92 -125t-147 -62l-61 -60l1 -3q54 -3 81.5 -25t27.5 -56q0 -42 -30.5 -67.5t-77.5 -25.5z" />
    <glyph glyph-name="Egrave" unicode="&#xc8;" horiz-adv-x="654" 
d="M41 0v32q63 2 83.5 11t20.5 32v508q0 23 -20.5 32t-83.5 11v32h534l3 -184l-31 -1q-28 91 -56.5 119.5t-108.5 28.5h-142v-261h59q60 0 84.5 18.5t42.5 92.5h27v-260h-27q-18 74 -42.5 92.5t-84.5 18.5h-59v-284h142q65 0 103.5 19.5t57.5 52t38 96.5l31 -1l-5 -205h-566
zM348 743l-79 86q-39 42 -39 69q0 17 11.5 29t28.5 12q19 0 31.5 -16.5t29.5 -56.5l52 -123h-35z" />
    <glyph glyph-name="Eacute" unicode="&#xc9;" horiz-adv-x="654" 
d="M41 0v32q63 2 83.5 11t20.5 32v508q0 23 -20.5 32t-83.5 11v32h534l3 -184l-31 -1q-28 91 -56.5 119.5t-108.5 28.5h-142v-261h59q60 0 84.5 18.5t42.5 92.5h27v-260h-27q-18 74 -42.5 92.5t-84.5 18.5h-59v-284h142q65 0 103.5 19.5t57.5 52t38 96.5l31 -1l-5 -205h-566
zM312 743l52 123q17 40 29.5 56.5t31.5 16.5q17 0 28.5 -12t11.5 -29q0 -27 -39 -69l-79 -86h-35z" />
    <glyph glyph-name="Ecircumflex" unicode="&#xca;" horiz-adv-x="654" 
d="M41 0v32q63 2 83.5 11t20.5 32v508q0 23 -20.5 32t-83.5 11v32h534l3 -184l-31 -1q-28 91 -56.5 119.5t-108.5 28.5h-142v-261h59q60 0 84.5 18.5t42.5 92.5h27v-260h-27q-18 74 -42.5 92.5t-84.5 18.5h-59v-284h142q65 0 103.5 19.5t57.5 52t38 96.5l31 -1l-5 -205h-566
zM196 743l121 183h29l113 -183h-31l-100 100l-101 -100h-31z" />
    <glyph glyph-name="Edieresis" unicode="&#xcb;" horiz-adv-x="654" 
d="M41 0v32q63 2 83.5 11t20.5 32v508q0 23 -20.5 32t-83.5 11v32h534l3 -184l-31 -1q-28 91 -56.5 119.5t-108.5 28.5h-142v-261h59q60 0 84.5 18.5t42.5 92.5h27v-260h-27q-18 74 -42.5 92.5t-84.5 18.5h-59v-284h142q65 0 103.5 19.5t57.5 52t38 96.5l31 -1l-5 -205h-566
zM433 751q-24 0 -39.5 15.5t-15.5 40.5t15.5 42t39.5 17t39.5 -16t15.5 -41t-15.5 -41.5t-39.5 -16.5zM247 751q-24 0 -39.5 15.5t-15.5 40.5t15.5 42t39.5 17t39.5 -16t15.5 -41t-15.5 -41.5t-39.5 -16.5z" />
    <glyph glyph-name="Igrave" unicode="&#xcc;" horiz-adv-x="405" 
d="M51 0v32q63 2 83.5 11t20.5 32v508q0 23 -20.5 32t-83.5 11v32h303v-32q-63 -2 -83.5 -11t-20.5 -32v-508q0 -23 20.5 -32t83.5 -11v-32h-303zM213 743l-79 86q-39 42 -39 69q0 17 11.5 29t28.5 12q19 0 31.5 -16.5t29.5 -56.5l52 -123h-35z" />
    <glyph glyph-name="Iacute" unicode="&#xcd;" horiz-adv-x="405" 
d="M51 0v32q63 2 83.5 11t20.5 32v508q0 23 -20.5 32t-83.5 11v32h303v-32q-63 -2 -83.5 -11t-20.5 -32v-508q0 -23 20.5 -32t83.5 -11v-32h-303zM176 743l52 123q17 40 29.5 56.5t31.5 16.5q17 0 28.5 -12t11.5 -29q0 -27 -39 -69l-79 -86h-35z" />
    <glyph glyph-name="Icircumflex" unicode="&#xce;" horiz-adv-x="405" 
d="M51 0v32q63 2 83.5 11t20.5 32v508q0 23 -20.5 32t-83.5 11v32h303v-32q-63 -2 -83.5 -11t-20.5 -32v-508q0 -23 20.5 -32t83.5 -11v-32h-303zM71 743l121 183h29l113 -183h-31l-100 100l-101 -100h-31z" />
    <glyph glyph-name="Idieresis" unicode="&#xcf;" horiz-adv-x="405" 
d="M51 0v32q63 2 83.5 11t20.5 32v508q0 23 -20.5 32t-83.5 11v32h303v-32q-63 -2 -83.5 -11t-20.5 -32v-508q0 -23 20.5 -32t83.5 -11v-32h-303zM299 751q-24 0 -39.5 15.5t-15.5 40.5t15.5 42t39.5 17t39.5 -16t15.5 -41t-15.5 -41.5t-39.5 -16.5zM113 751
q-24 0 -39.5 15.5t-15.5 40.5t15.5 42t39.5 17t39.5 -16t15.5 -41t-15.5 -41.5t-39.5 -16.5z" />
    <glyph glyph-name="Eth" unicode="&#xd0;" horiz-adv-x="726" 
d="M41 0v32q63 2 83.5 11t20.5 32v247h-96v41h96v220q0 23 -20.5 32t-83.5 11v32h274q180 0 272.5 -85t92.5 -231q0 -148 -89 -245t-267 -97h-283zM240 36h77q146 0 200.5 74t54.5 226q0 286 -264 286h-68v-259h127v-41h-127v-286z" />
    <glyph glyph-name="Ntilde" unicode="&#xd1;" horiz-adv-x="751" 
d="M602 -16l-415 570h-1v-396q0 -71 19 -95t89 -34v-29h-253v29q66 11 85.5 35t19.5 94v400q0 65 -105 68v32h187l372 -511h1v354q0 68 -22.5 92.5t-93.5 35.5v29h254v-29q-65 -12 -81.5 -35t-16.5 -93v-517h-39zM255 743q11 64 31 92t64 28q27 0 72.5 -24t59.5 -24
q26 0 42 57h30q-11 -63 -32 -91.5t-63 -28.5q-27 0 -72.5 24t-59.5 24q-27 0 -42 -57h-30z" />
    <glyph glyph-name="Ograve" unicode="&#xd2;" horiz-adv-x="720" 
d="M360 -16q-137 0 -225.5 93.5t-88.5 249.5q0 155 90 251t224 96q137 0 225.5 -93.5t88.5 -249.5t-90 -251.5t-224 -95.5zM364 20q94 0 148 76.5t54 232.5q0 154 -57.5 231.5t-152.5 77.5q-94 0 -148 -77t-54 -232t57 -232t153 -77zM361 743l-79 86q-39 42 -39 69
q0 17 11.5 29t28.5 12q19 0 31.5 -16.5t29.5 -56.5l52 -123h-35z" />
    <glyph glyph-name="Oacute" unicode="&#xd3;" horiz-adv-x="720" 
d="M360 -16q-137 0 -225.5 93.5t-88.5 249.5q0 155 90 251t224 96q137 0 225.5 -93.5t88.5 -249.5t-90 -251.5t-224 -95.5zM364 20q94 0 148 76.5t54 232.5q0 154 -57.5 231.5t-152.5 77.5q-94 0 -148 -77t-54 -232t57 -232t153 -77zM331 743l52 123q17 40 29.5 56.5
t31.5 16.5q17 0 28.5 -12t11.5 -29q0 -27 -39 -69l-79 -86h-35z" />
    <glyph glyph-name="Ocircumflex" unicode="&#xd4;" horiz-adv-x="720" 
d="M360 -16q-137 0 -225.5 93.5t-88.5 249.5q0 155 90 251t224 96q137 0 225.5 -93.5t88.5 -249.5t-90 -251.5t-224 -95.5zM364 20q94 0 148 76.5t54 232.5q0 154 -57.5 231.5t-152.5 77.5q-94 0 -148 -77t-54 -232t57 -232t153 -77zM229 743l121 183h29l113 -183h-31
l-100 100l-101 -100h-31z" />
    <glyph glyph-name="Otilde" unicode="&#xd5;" horiz-adv-x="720" 
d="M360 -16q-137 0 -225.5 93.5t-88.5 249.5q0 155 90 251t224 96q137 0 225.5 -93.5t88.5 -249.5t-90 -251.5t-224 -95.5zM364 20q94 0 148 76.5t54 232.5q0 154 -57.5 231.5t-152.5 77.5q-94 0 -148 -77t-54 -232t57 -232t153 -77zM228 743q11 64 31 92t64 28
q27 0 72.5 -24t59.5 -24q26 0 42 57h30q-11 -63 -32 -91.5t-63 -28.5q-27 0 -72.5 24t-59.5 24q-27 0 -42 -57h-30z" />
    <glyph glyph-name="Odieresis" unicode="&#xd6;" horiz-adv-x="720" 
d="M360 -16q-137 0 -225.5 93.5t-88.5 249.5q0 155 90 251t224 96q137 0 225.5 -93.5t88.5 -249.5t-90 -251.5t-224 -95.5zM364 20q94 0 148 76.5t54 232.5q0 154 -57.5 231.5t-152.5 77.5q-94 0 -148 -77t-54 -232t57 -232t153 -77zM453 751q-24 0 -39.5 15.5t-15.5 40.5
t15.5 42t39.5 17t39.5 -16t15.5 -41t-15.5 -41.5t-39.5 -16.5zM267 751q-24 0 -39.5 15.5t-15.5 40.5t15.5 42t39.5 17t39.5 -16t15.5 -41t-15.5 -41.5t-39.5 -16.5z" />
    <glyph glyph-name="multiply" unicode="&#xd7;" horiz-adv-x="525" 
d="M415 493l34 -34l-153 -153l153 -152l-34 -34l-153 152l-152 -152l-34 34l152 152l-152 153l34 34l152 -153z" />
    <glyph glyph-name="Oslash" unicode="&#xd8;" horiz-adv-x="720" 
d="M360 -16q-115 0 -196 66l-66 -84h-49l87 110q-90 95 -90 251q0 155 90 251t224 96q112 0 195 -66l67 84h49l-87 -111q90 -95 90 -250q0 -156 -90 -251.5t-224 -95.5zM364 20q94 0 148 76.5t54 232.5q0 114 -33 188l-327 -414q55 -83 158 -83zM356 638q-94 0 -148 -77
t-54 -232q0 -114 33 -189l326 414q-56 84 -157 84z" />
    <glyph glyph-name="Ugrave" unicode="&#xd9;" horiz-adv-x="733" 
d="M375 -16q-114 0 -182 53.5t-68 141.5v404q0 23 -20.5 32t-83.5 11v32h295v-32q-65 -2 -80.5 -9.5t-15.5 -33.5v-388q0 -84 50.5 -126t135.5 -42q77 0 127 50q28 28 39.5 58t11.5 84v282q0 68 -22.5 92.5t-93.5 35.5v29h254v-29q-65 -12 -81.5 -35t-16.5 -93v-312
q0 -84 -67.5 -144.5t-181.5 -60.5zM387 743l-79 86q-39 42 -39 69q0 17 11.5 29t28.5 12q19 0 31.5 -16.5t29.5 -56.5l52 -123h-35z" />
    <glyph glyph-name="Uacute" unicode="&#xda;" horiz-adv-x="733" 
d="M375 -16q-114 0 -182 53.5t-68 141.5v404q0 23 -20.5 32t-83.5 11v32h295v-32q-65 -2 -80.5 -9.5t-15.5 -33.5v-388q0 -84 50.5 -126t135.5 -42q77 0 127 50q28 28 39.5 58t11.5 84v282q0 68 -22.5 92.5t-93.5 35.5v29h254v-29q-65 -12 -81.5 -35t-16.5 -93v-312
q0 -84 -67.5 -144.5t-181.5 -60.5zM367 743l52 123q17 40 29.5 56.5t31.5 16.5q17 0 28.5 -12t11.5 -29q0 -27 -39 -69l-79 -86h-35z" />
    <glyph glyph-name="Ucircumflex" unicode="&#xdb;" horiz-adv-x="733" 
d="M375 -16q-114 0 -182 53.5t-68 141.5v404q0 23 -20.5 32t-83.5 11v32h295v-32q-65 -2 -80.5 -9.5t-15.5 -33.5v-388q0 -84 50.5 -126t135.5 -42q77 0 127 50q28 28 39.5 58t11.5 84v282q0 68 -22.5 92.5t-93.5 35.5v29h254v-29q-65 -12 -81.5 -35t-16.5 -93v-312
q0 -84 -67.5 -144.5t-181.5 -60.5zM269 743l121 183h29l113 -183h-31l-100 100l-101 -100h-31z" />
    <glyph glyph-name="Udieresis" unicode="&#xdc;" horiz-adv-x="733" 
d="M375 -16q-114 0 -182 53.5t-68 141.5v404q0 23 -20.5 32t-83.5 11v32h295v-32q-65 -2 -80.5 -9.5t-15.5 -33.5v-388q0 -84 50.5 -126t135.5 -42q77 0 127 50q28 28 39.5 58t11.5 84v282q0 68 -22.5 92.5t-93.5 35.5v29h254v-29q-65 -12 -81.5 -35t-16.5 -93v-312
q0 -84 -67.5 -144.5t-181.5 -60.5zM482 751q-24 0 -39.5 15.5t-15.5 40.5t15.5 42t39.5 17t39.5 -16t15.5 -41t-15.5 -41.5t-39.5 -16.5zM296 751q-24 0 -39.5 15.5t-15.5 40.5t15.5 42t39.5 17t39.5 -16t15.5 -41t-15.5 -41.5t-39.5 -16.5z" />
    <glyph glyph-name="Yacute" unicode="&#xdd;" horiz-adv-x="642" 
d="M350 325l114 194q35 58 27.5 79.5t-72.5 30.5v29h227v-29q-45 -9 -69.5 -27.5t-56.5 -72.5l-148 -245v-209q0 -23 20.5 -32t83.5 -11v-32h-303v32q63 2 83.5 11t20.5 32v198l-170 295q-17 29 -35 41t-62 20v29h283v-29q-63 -4 -79.5 -20.5t2.5 -44.5zM332 743l52 123
q17 40 29.5 56.5t31.5 16.5q17 0 28.5 -12t11.5 -29q0 -27 -39 -69l-79 -86h-35z" />
    <glyph glyph-name="Thorn" unicode="&#xde;" horiz-adv-x="611" 
d="M41 0v32q63 2 83.5 11t20.5 32v508q0 23 -20.5 32t-83.5 11v32h309v-32q-67 -2 -88.5 -10.5t-21.5 -32.5v-63h71q263 0 263 -174q0 -36 -14 -68.5t-44 -60.5t-84.5 -44.5t-127.5 -16.5h-64v-81q0 -24 21.5 -32.5t88.5 -10.5v-32h-309zM240 192h67q93 0 129 38.5t36 113.5
q0 140 -162 140h-70v-292z" />
    <glyph glyph-name="germandbls" unicode="&#xdf;" horiz-adv-x="561" 
d="M394 -11q-60 0 -100 26t-40 70q0 23 13.5 38.5t37.5 15.5q21 0 34 -14.5t13 -34.5q0 -27 -26 -43q29 -27 73 -27q36 0 56 21.5t20 57.5q0 30 -19 54.5t-72 56.5q-61 37 -82.5 62.5t-21.5 67.5q0 43 51 94q35 34 49.5 62t14.5 64q0 48 -26.5 80t-69.5 32q-109 0 -109 -176
v-496h-158v31q42 1 58 9t16 26v347h-85v28l85 18v19q0 58 20.5 103t52.5 70.5t66.5 38.5t67.5 13q70 0 116.5 -39t46.5 -99q0 -39 -23.5 -68.5t-70.5 -64.5q-43 -31 -43 -59q0 -22 20.5 -41t75.5 -54q53 -33 79.5 -64t26.5 -75q0 -62 -39.5 -106t-107.5 -44z" />
    <glyph glyph-name="agrave" unicode="&#xe0;" horiz-adv-x="480" 
d="M166 -6q-59 0 -90 30.5t-31 74.5q0 71 61 104q33 18 82.5 33t85.5 24t42 13v29q0 73 -21.5 102t-71.5 29q-42 0 -68 -26q12 -26 12 -47q0 -23 -14 -38.5t-39 -15.5q-23 0 -36.5 15.5t-13.5 38.5q0 43 50.5 73.5t122.5 30.5q163 0 163 -143v-229q0 -38 14.5 -48.5
t62.5 -4.5l4 -24q-53 -19 -93 -19q-38 0 -50.5 16.5t-17.5 60.5h-4q-70 -79 -150 -79zM214 47q28 0 56 18.5t46 43.5v131q-108 -23 -142.5 -46t-34.5 -72q0 -33 19 -54t56 -21zM231 535l-79 86q-39 42 -39 69q0 17 11.5 29t28.5 12q19 0 31.5 -16.5t29.5 -56.5l52 -123h-35z
" />
    <glyph glyph-name="aacute" unicode="&#xe1;" horiz-adv-x="480" 
d="M166 -6q-59 0 -90 30.5t-31 74.5q0 71 61 104q33 18 82.5 33t85.5 24t42 13v29q0 73 -21.5 102t-71.5 29q-42 0 -68 -26q12 -26 12 -47q0 -23 -14 -38.5t-39 -15.5q-23 0 -36.5 15.5t-13.5 38.5q0 43 50.5 73.5t122.5 30.5q163 0 163 -143v-229q0 -38 14.5 -48.5
t62.5 -4.5l4 -24q-53 -19 -93 -19q-38 0 -50.5 16.5t-17.5 60.5h-4q-70 -79 -150 -79zM214 47q28 0 56 18.5t46 43.5v131q-108 -23 -142.5 -46t-34.5 -72q0 -33 19 -54t56 -21zM209 535l52 123q17 40 29.5 56.5t31.5 16.5q17 0 28.5 -12t11.5 -29q0 -27 -39 -69l-79 -86h-35
z" />
    <glyph glyph-name="acircumflex" unicode="&#xe2;" horiz-adv-x="480" 
d="M166 -6q-59 0 -90 30.5t-31 74.5q0 71 61 104q33 18 82.5 33t85.5 24t42 13v29q0 73 -21.5 102t-71.5 29q-42 0 -68 -26q12 -26 12 -47q0 -23 -14 -38.5t-39 -15.5q-23 0 -36.5 15.5t-13.5 38.5q0 43 50.5 73.5t122.5 30.5q163 0 163 -143v-229q0 -38 14.5 -48.5
t62.5 -4.5l4 -24q-53 -19 -93 -19q-38 0 -50.5 16.5t-17.5 60.5h-4q-70 -79 -150 -79zM214 47q28 0 56 18.5t46 43.5v131q-108 -23 -142.5 -46t-34.5 -72q0 -33 19 -54t56 -21zM109 535l121 183h29l113 -183h-31l-100 100l-101 -100h-31z" />
    <glyph glyph-name="atilde" unicode="&#xe3;" horiz-adv-x="480" 
d="M166 -6q-59 0 -90 30.5t-31 74.5q0 71 61 104q33 18 82.5 33t85.5 24t42 13v29q0 73 -21.5 102t-71.5 29q-42 0 -68 -26q12 -26 12 -47q0 -23 -14 -38.5t-39 -15.5q-23 0 -36.5 15.5t-13.5 38.5q0 43 50.5 73.5t122.5 30.5q163 0 163 -143v-229q0 -38 14.5 -48.5
t62.5 -4.5l4 -24q-53 -19 -93 -19q-38 0 -50.5 16.5t-17.5 60.5h-4q-70 -79 -150 -79zM214 47q28 0 56 18.5t46 43.5v131q-108 -23 -142.5 -46t-34.5 -72q0 -33 19 -54t56 -21zM95 535q11 64 31 92t64 28q27 0 72.5 -24t59.5 -24q26 0 42 57h30q-11 -63 -32 -91.5t-63 -28.5
q-27 0 -72.5 24t-59.5 24q-27 0 -42 -57h-30z" />
    <glyph glyph-name="adieresis" unicode="&#xe4;" horiz-adv-x="480" 
d="M166 -6q-59 0 -90 30.5t-31 74.5q0 71 61 104q33 18 82.5 33t85.5 24t42 13v29q0 73 -21.5 102t-71.5 29q-42 0 -68 -26q12 -26 12 -47q0 -23 -14 -38.5t-39 -15.5q-23 0 -36.5 15.5t-13.5 38.5q0 43 50.5 73.5t122.5 30.5q163 0 163 -143v-229q0 -38 14.5 -48.5
t62.5 -4.5l4 -24q-53 -19 -93 -19q-38 0 -50.5 16.5t-17.5 60.5h-4q-70 -79 -150 -79zM214 47q28 0 56 18.5t46 43.5v131q-108 -23 -142.5 -46t-34.5 -72q0 -33 19 -54t56 -21zM335 543q-24 0 -39.5 15.5t-15.5 40.5t15.5 42t39.5 17t39.5 -16t15.5 -41t-15.5 -41.5
t-39.5 -16.5zM149 543q-24 0 -39.5 15.5t-15.5 40.5t15.5 42t39.5 17t39.5 -16t15.5 -41t-15.5 -41.5t-39.5 -16.5z" />
    <glyph glyph-name="aring" unicode="&#xe5;" horiz-adv-x="480" 
d="M166 -6q-59 0 -90 30.5t-31 74.5q0 71 61 104q33 18 82.5 33t85.5 24t42 13v29q0 73 -21.5 102t-71.5 29q-42 0 -68 -26q12 -26 12 -47q0 -23 -14 -38.5t-39 -15.5q-23 0 -36.5 15.5t-13.5 38.5q0 43 50.5 73.5t122.5 30.5q163 0 163 -143v-229q0 -38 14.5 -48.5
t62.5 -4.5l4 -24q-53 -19 -93 -19q-38 0 -50.5 16.5t-17.5 60.5h-4q-70 -79 -150 -79zM214 47q28 0 56 18.5t46 43.5v131q-108 -23 -142.5 -46t-34.5 -72q0 -33 19 -54t56 -21zM243 543q-48 0 -75.5 29.5t-27.5 72.5t27.5 72.5t75.5 29.5t75.5 -29.5t27.5 -72.5t-27.5 -72.5
t-75.5 -29.5zM243 571q27 0 43 21.5t16 52.5q0 74 -59 74q-28 0 -43.5 -19t-15.5 -55q0 -31 16 -52.5t43 -21.5z" />
    <glyph glyph-name="ae" unicode="&#xe6;" horiz-adv-x="758" 
d="M530 467q93 0 141.5 -67.5t41.5 -156.5h-300v-6v-2q0 -86 37.5 -138t108.5 -52q72 0 141 85l20 -19q-33 -55 -77 -87t-113 -32q-123 0 -174 96h-13q-84 -94 -177 -94q-59 0 -90 30.5t-31 74.5q0 71 61 104q33 18 84 33t89.5 24t43.5 13v29q0 131 -100 131q-42 0 -68 -26
q12 -26 12 -47q0 -23 -14 -38.5t-39 -15.5q-23 0 -36.5 15.5t-13.5 38.5q0 43 50.5 73.5t122.5 30.5q109 0 145 -66q58 69 148 69zM523 436q-99 0 -109 -163l208 5q8 66 -19 112t-80 46zM214 47q29 0 60.5 18.5t48.5 43.5v131q-110 -24 -147 -46.5t-37 -71.5q0 -33 19 -54
t56 -21z" />
    <glyph glyph-name="ccedilla" unicode="&#xe7;" horiz-adv-x="456" 
d="M236 -251q-58 0 -103 31l17 25q36 -23 73 -23q58 0 58 49q0 23 -20 36t-52 13q-18 0 -34 -4l-12 16l100 100h-11q-96 0 -153.5 65.5t-57.5 167.5q0 104 63.5 173t157.5 69q74 0 116.5 -33.5t42.5 -74.5q0 -24 -14 -40.5t-37 -16.5q-25 0 -39 14t-14 37q0 36 32 54
q-31 29 -85 29q-59 0 -97 -49t-38 -140q0 -90 42 -144t114 -54q71 0 130 68l20 -19q-59 -85 -134 -101h6l-73 -71l1 -3q54 -3 81.5 -25t27.5 -56q0 -42 -30.5 -67.5t-77.5 -25.5z" />
    <glyph glyph-name="egrave" unicode="&#xe8;" horiz-adv-x="483" 
d="M255 -8q-102 0 -158 65t-56 168q0 105 59 173.5t155 68.5q93 0 141.5 -67.5t41.5 -156.5h-307v-6v-2q0 -85 40.5 -137.5t112.5 -52.5t141 85l20 -19q-33 -55 -77 -87t-113 -32zM248 436q-48 0 -79 -40t-37 -123l215 5q8 66 -19 112t-80 46zM242 535l-79 86q-39 42 -39 69
q0 17 11.5 29t28.5 12q19 0 31.5 -16.5t29.5 -56.5l52 -123h-35z" />
    <glyph glyph-name="eacute" unicode="&#xe9;" horiz-adv-x="483" 
d="M255 -8q-102 0 -158 65t-56 168q0 105 59 173.5t155 68.5q93 0 141.5 -67.5t41.5 -156.5h-307v-6v-2q0 -85 40.5 -137.5t112.5 -52.5t141 85l20 -19q-33 -55 -77 -87t-113 -32zM248 436q-48 0 -79 -40t-37 -123l215 5q8 66 -19 112t-80 46zM222 535l52 123
q17 40 29.5 56.5t31.5 16.5q17 0 28.5 -12t11.5 -29q0 -27 -39 -69l-79 -86h-35z" />
    <glyph glyph-name="ecircumflex" unicode="&#xea;" horiz-adv-x="483" 
d="M255 -8q-102 0 -158 65t-56 168q0 105 59 173.5t155 68.5q93 0 141.5 -67.5t41.5 -156.5h-307v-6v-2q0 -85 40.5 -137.5t112.5 -52.5t141 85l20 -19q-33 -55 -77 -87t-113 -32zM248 436q-48 0 -79 -40t-37 -123l215 5q8 66 -19 112t-80 46zM118 535l121 183h29l113 -183
h-31l-100 100l-101 -100h-31z" />
    <glyph glyph-name="edieresis" unicode="&#xeb;" horiz-adv-x="483" 
d="M255 -8q-102 0 -158 65t-56 168q0 105 59 173.5t155 68.5q93 0 141.5 -67.5t41.5 -156.5h-307v-6v-2q0 -85 40.5 -137.5t112.5 -52.5t141 85l20 -19q-33 -55 -77 -87t-113 -32zM248 436q-48 0 -79 -40t-37 -123l215 5q8 66 -19 112t-80 46zM343 543q-24 0 -39.5 15.5
t-15.5 40.5t15.5 42t39.5 17t39.5 -16t15.5 -41t-15.5 -41.5t-39.5 -16.5zM157 543q-24 0 -39.5 15.5t-15.5 40.5t15.5 42t39.5 17t39.5 -16t15.5 -41t-15.5 -41.5t-39.5 -16.5z" />
    <glyph glyph-name="igrave" unicode="&#xec;" horiz-adv-x="293" 
d="M41 0v31q42 1 57 8.5t15 26.5v311q0 24 -15.5 36t-56.5 13v31l156 4v-395q0 -19 13.5 -26.5t50.5 -8.5v-31h-220zM137 535l-79 86q-39 42 -39 69q0 17 11.5 29t28.5 12q19 0 31.5 -16.5t29.5 -56.5l52 -123h-35z" />
    <glyph glyph-name="iacute" unicode="&#xed;" horiz-adv-x="293" 
d="M41 0v31q42 1 57 8.5t15 26.5v311q0 24 -15.5 36t-56.5 13v31l156 4v-395q0 -19 13.5 -26.5t50.5 -8.5v-31h-220zM107 535l52 123q17 40 29.5 56.5t31.5 16.5q17 0 28.5 -12t11.5 -29q0 -27 -39 -69l-79 -86h-35z" />
    <glyph glyph-name="icircumflex" unicode="&#xee;" horiz-adv-x="293" 
d="M41 0v31q42 1 57 8.5t15 26.5v311q0 24 -15.5 36t-56.5 13v31l156 4v-395q0 -19 13.5 -26.5t50.5 -8.5v-31h-220zM7 535l121 183h29l113 -183h-31l-100 100l-101 -100h-31z" />
    <glyph glyph-name="idieresis" unicode="&#xef;" horiz-adv-x="293" 
d="M41 0v31q42 1 57 8.5t15 26.5v311q0 24 -15.5 36t-56.5 13v31l156 4v-395q0 -19 13.5 -26.5t50.5 -8.5v-31h-220zM236 543q-24 0 -39.5 15.5t-15.5 40.5t15.5 42t39.5 17t39.5 -16t15.5 -41t-15.5 -41.5t-39.5 -16.5zM50 543q-24 0 -39.5 15.5t-15.5 40.5t15.5 42
t39.5 17t39.5 -16t15.5 -41t-15.5 -41.5t-39.5 -16.5z" />
    <glyph glyph-name="eth" unicode="&#xf0;" horiz-adv-x="522" 
d="M434 648l-92 -44q139 -113 139 -293q0 -151 -57.5 -235t-171.5 -84q-93 0 -152 66t-59 164q0 104 61.5 174.5t152.5 70.5q75 0 120 -51l6 5q-22 93 -89 159l-112 -54l-15 35l96 46q-48 38 -112 66l11 26q84 -29 147 -70l111 53zM269 23q53 0 85.5 59.5t32.5 164.5
q0 81 -31.5 135t-87.5 54t-95 -55.5t-39 -153.5q0 -84 36.5 -144t98.5 -60z" />
    <glyph glyph-name="ntilde" unicode="&#xf1;" horiz-adv-x="582" 
d="M40 0v31q42 1 57.5 8.5t15.5 26.5v311q0 24 -16 36t-57 13v31l155 4v-69q103 72 181 72q53 0 83 -36t30 -103v-259q0 -19 15 -26.5t58 -8.5v-31h-221v31q37 1 50.5 8.5t13.5 26.5v223q0 64 -23.5 88.5t-71.5 24.5q-58 0 -113 -41v-295q0 -19 13.5 -26.5t49.5 -8.5v-31
h-220zM142 535q11 64 31 92t64 28q27 0 72.5 -24t59.5 -24q26 0 42 57h30q-11 -63 -32 -91.5t-63 -28.5q-27 0 -72.5 24t-59.5 24q-27 0 -42 -57h-30z" />
    <glyph glyph-name="ograve" unicode="&#xf2;" horiz-adv-x="529" 
d="M265 -8q-105 0 -164.5 64.5t-59.5 171.5q0 106 61 172.5t163 66.5q104 0 163.5 -64.5t59.5 -170.5t-61 -173t-162 -67zM269 23q60 0 93 52t33 155q0 102 -36.5 154t-98.5 52q-126 0 -126 -206q0 -102 36.5 -154.5t98.5 -52.5zM255 535l-79 86q-39 42 -39 69q0 17 11.5 29
t28.5 12q19 0 31.5 -16.5t29.5 -56.5l52 -123h-35z" />
    <glyph glyph-name="oacute" unicode="&#xf3;" horiz-adv-x="529" 
d="M265 -8q-105 0 -164.5 64.5t-59.5 171.5q0 106 61 172.5t163 66.5q104 0 163.5 -64.5t59.5 -170.5t-61 -173t-162 -67zM269 23q60 0 93 52t33 155q0 102 -36.5 154t-98.5 52q-126 0 -126 -206q0 -102 36.5 -154.5t98.5 -52.5zM237 535l52 123q17 40 29.5 56.5t31.5 16.5
q17 0 28.5 -12t11.5 -29q0 -27 -39 -69l-79 -86h-35z" />
    <glyph glyph-name="ocircumflex" unicode="&#xf4;" horiz-adv-x="529" 
d="M265 -8q-105 0 -164.5 64.5t-59.5 171.5q0 106 61 172.5t163 66.5q104 0 163.5 -64.5t59.5 -170.5t-61 -173t-162 -67zM269 23q60 0 93 52t33 155q0 102 -36.5 154t-98.5 52q-126 0 -126 -206q0 -102 36.5 -154.5t98.5 -52.5zM136 535l121 183h29l113 -183h-31l-100 100
l-101 -100h-31z" />
    <glyph glyph-name="otilde" unicode="&#xf5;" horiz-adv-x="529" 
d="M265 -8q-105 0 -164.5 64.5t-59.5 171.5q0 106 61 172.5t163 66.5q104 0 163.5 -64.5t59.5 -170.5t-61 -173t-162 -67zM269 23q60 0 93 52t33 155q0 102 -36.5 154t-98.5 52q-126 0 -126 -206q0 -102 36.5 -154.5t98.5 -52.5zM115 535q11 64 31 92t64 28q27 0 72.5 -24
t59.5 -24q26 0 42 57h30q-11 -63 -32 -91.5t-63 -28.5q-27 0 -72.5 24t-59.5 24q-27 0 -42 -57h-30z" />
    <glyph glyph-name="odieresis" unicode="&#xf6;" horiz-adv-x="529" 
d="M265 -8q-105 0 -164.5 64.5t-59.5 171.5q0 106 61 172.5t163 66.5q104 0 163.5 -64.5t59.5 -170.5t-61 -173t-162 -67zM269 23q60 0 93 52t33 155q0 102 -36.5 154t-98.5 52q-126 0 -126 -206q0 -102 36.5 -154.5t98.5 -52.5zM357 543q-24 0 -39.5 15.5t-15.5 40.5
t15.5 42t39.5 17t39.5 -16t15.5 -41t-15.5 -41.5t-39.5 -16.5zM171 543q-24 0 -39.5 15.5t-15.5 40.5t15.5 42t39.5 17t39.5 -16t15.5 -41t-15.5 -41.5t-39.5 -16.5z" />
    <glyph glyph-name="divide" unicode="&#xf7;" horiz-adv-x="541" 
d="M51 282v49h439v-49h-439zM271 404q-25 0 -43 17.5t-18 42.5t18 42.5t43 17.5t42.5 -17.5t17.5 -42.5t-17.5 -42.5t-42.5 -17.5zM271 91q-25 0 -43 17.5t-18 42.5t18 42.5t43 17.5t42.5 -17.5t17.5 -42.5t-17.5 -42.5t-42.5 -17.5z" />
    <glyph glyph-name="oslash" unicode="&#xf8;" horiz-adv-x="529" 
d="M87 -26h-46l62 79q-62 65 -62 175q0 106 61 172.5t163 66.5q78 0 133 -38l44 56h46l-63 -80q63 -63 63 -173q0 -106 -61 -173t-162 -67q-81 0 -134 38zM134 230q0 -68 17 -116l209 267q-36 55 -100 55q-126 0 -126 -206zM269 23q60 0 93 52t33 155q0 67 -17 115
l-209 -267q36 -55 100 -55z" />
    <glyph glyph-name="ugrave" unicode="&#xf9;" horiz-adv-x="563" 
d="M216 -8q-55 0 -87 36.5t-32 102.5v255q0 23 -15 30.5t-59 9.5v31l158 5v-295q0 -64 24.5 -88.5t76.5 -24.5q51 0 105 34v298q0 23 -15.5 30.5t-58.5 9.5v31l158 5v-396q0 -19 15 -27t58 -9v-30h-155v58q-92 -66 -173 -66zM276 535l-79 86q-39 42 -39 69q0 17 11.5 29
t28.5 12q19 0 31.5 -16.5t29.5 -56.5l52 -123h-35z" />
    <glyph glyph-name="uacute" unicode="&#xfa;" horiz-adv-x="563" 
d="M216 -8q-55 0 -87 36.5t-32 102.5v255q0 23 -15 30.5t-59 9.5v31l158 5v-295q0 -64 24.5 -88.5t76.5 -24.5q51 0 105 34v298q0 23 -15.5 30.5t-58.5 9.5v31l158 5v-396q0 -19 15 -27t58 -9v-30h-155v58q-92 -66 -173 -66zM227 535l52 123q17 40 29.5 56.5t31.5 16.5
q17 0 28.5 -12t11.5 -29q0 -27 -39 -69l-79 -86h-35z" />
    <glyph glyph-name="ucircumflex" unicode="&#xfb;" horiz-adv-x="563" 
d="M216 -8q-55 0 -87 36.5t-32 102.5v255q0 23 -15 30.5t-59 9.5v31l158 5v-295q0 -64 24.5 -88.5t76.5 -24.5q51 0 105 34v298q0 23 -15.5 30.5t-58.5 9.5v31l158 5v-396q0 -19 15 -27t58 -9v-30h-155v58q-92 -66 -173 -66zM138 535l121 183h29l113 -183h-31l-100 100
l-101 -100h-31z" />
    <glyph glyph-name="udieresis" unicode="&#xfc;" horiz-adv-x="563" 
d="M216 -8q-55 0 -87 36.5t-32 102.5v255q0 23 -15 30.5t-59 9.5v31l158 5v-295q0 -64 24.5 -88.5t76.5 -24.5q51 0 105 34v298q0 23 -15.5 30.5t-58.5 9.5v31l158 5v-396q0 -19 15 -27t58 -9v-30h-155v58q-92 -66 -173 -66zM362 543q-24 0 -39.5 15.5t-15.5 40.5t15.5 42
t39.5 17t39.5 -16t15.5 -41t-15.5 -41.5t-39.5 -16.5zM176 543q-24 0 -39.5 15.5t-15.5 40.5t15.5 42t39.5 17t39.5 -16t15.5 -41t-15.5 -41.5t-39.5 -16.5z" />
    <glyph glyph-name="yacute" unicode="&#xfd;" horiz-adv-x="496" 
d="M238 3l-159 364q-15 35 -29 47t-45 16v29h226v-29q-46 -2 -60.5 -15t-4.5 -36l115 -273l95 230q20 45 10.5 65.5t-59.5 28.5v29h184v-29q-53 -7 -81 -75l-168 -398q-36 -88 -74.5 -123t-84.5 -35q-38 0 -60.5 19.5t-22.5 48.5q0 25 14.5 42.5t39.5 17.5q22 0 37.5 -16
t15.5 -39q0 -17 -6 -29q27 0 52 32.5t60 115.5zM259 535l52 123q17 40 29.5 56.5t31.5 16.5q17 0 28.5 -12t11.5 -29q0 -27 -39 -69l-79 -86h-35z" />
    <glyph glyph-name="thorn" unicode="&#xfe;" horiz-adv-x="537" 
d="M166 697v-300q40 35 72.5 52.5t75.5 17.5q87 0 134.5 -61.5t47.5 -162.5q0 -107 -54 -177.5t-148 -70.5q-64 0 -128 32v-153q0 -19 20.5 -27t74.5 -9v-30h-252v30q43 1 58 9t15 27v739q0 48 -77 49v31zM279 26q52 0 88 56t36 156q0 83 -33 132t-88 49q-61 0 -116 -55
v-250q13 -47 40 -67.5t73 -20.5z" />
    <glyph glyph-name="ydieresis" unicode="&#xff;" horiz-adv-x="496" 
d="M238 3l-159 364q-15 35 -29 47t-45 16v29h226v-29q-46 -2 -60.5 -15t-4.5 -36l115 -273l95 230q20 45 10.5 65.5t-59.5 28.5v29h184v-29q-53 -7 -81 -75l-168 -398q-36 -88 -74.5 -123t-84.5 -35q-38 0 -60.5 19.5t-22.5 48.5q0 25 14.5 42.5t39.5 17.5q22 0 37.5 -16
t15.5 -39q0 -17 -6 -29q27 0 52 32.5t60 115.5zM341 543q-24 0 -39.5 15.5t-15.5 40.5t15.5 42t39.5 17t39.5 -16t15.5 -41t-15.5 -41.5t-39.5 -16.5zM155 543q-24 0 -39.5 15.5t-15.5 40.5t15.5 42t39.5 17t39.5 -16t15.5 -41t-15.5 -41.5t-39.5 -16.5z" />
    <glyph glyph-name="Amacron" unicode="&#x100;" horiz-adv-x="652" 
d="M460 106l-49 141h-224l-38 -98q-28 -70 -19 -90t74 -30v-29h-217v29q48 10 72 39.5t52 99.5l201 500h45l202 -557q14 -40 36.5 -57.5t75.5 -24.5v-29h-295v29q64 4 81 20.5t3 56.5zM201 283h197l-91 265h-4zM193 767v57h281v-57h-281z" />
    <glyph glyph-name="amacron" unicode="&#x101;" horiz-adv-x="480" 
d="M166 -6q-59 0 -90 30.5t-31 74.5q0 71 61 104q33 18 82.5 33t85.5 24t42 13v29q0 73 -21.5 102t-71.5 29q-42 0 -68 -26q12 -26 12 -47q0 -23 -14 -38.5t-39 -15.5q-23 0 -36.5 15.5t-13.5 38.5q0 43 50.5 73.5t122.5 30.5q163 0 163 -143v-229q0 -38 14.5 -48.5
t62.5 -4.5l4 -24q-53 -19 -93 -19q-38 0 -50.5 16.5t-17.5 60.5h-4q-70 -79 -150 -79zM214 47q28 0 56 18.5t46 43.5v131q-108 -23 -142.5 -46t-34.5 -72q0 -33 19 -54t56 -21zM101 559v57h281v-57h-281z" />
    <glyph glyph-name="Abreve" unicode="&#x102;" horiz-adv-x="652" 
d="M460 106l-49 141h-224l-38 -98q-28 -70 -19 -90t74 -30v-29h-217v29q48 10 72 39.5t52 99.5l201 500h45l202 -557q14 -40 36.5 -57.5t75.5 -24.5v-29h-295v29q64 4 81 20.5t3 56.5zM201 283h197l-91 265h-4zM335 751q-58 0 -93 42t-41 111h25q18 -46 42.5 -67t66.5 -21
q41 0 65 20.5t42 67.5h25q-5 -69 -39.5 -111t-92.5 -42z" />
    <glyph glyph-name="abreve" unicode="&#x103;" horiz-adv-x="480" 
d="M166 -6q-59 0 -90 30.5t-31 74.5q0 71 61 104q33 18 82.5 33t85.5 24t42 13v29q0 73 -21.5 102t-71.5 29q-42 0 -68 -26q12 -26 12 -47q0 -23 -14 -38.5t-39 -15.5q-23 0 -36.5 15.5t-13.5 38.5q0 43 50.5 73.5t122.5 30.5q163 0 163 -143v-229q0 -38 14.5 -48.5
t62.5 -4.5l4 -24q-53 -19 -93 -19q-38 0 -50.5 16.5t-17.5 60.5h-4q-70 -79 -150 -79zM214 47q28 0 56 18.5t46 43.5v131q-108 -23 -142.5 -46t-34.5 -72q0 -33 19 -54t56 -21zM246 543q-58 0 -93 42t-41 111h25q18 -46 42.5 -67t66.5 -21q41 0 65 20.5t42 67.5h25
q-5 -69 -39.5 -111t-92.5 -42z" />
    <glyph glyph-name="Aogonek" unicode="&#x104;" horiz-adv-x="652" 
d="M532 -243q-47 0 -73.5 22.5t-26.5 59.5q0 32 20 63t63 73l25 25h-164v29q64 4 81 20.5t3 56.5l-49 141h-224l-38 -98q-28 -70 -19 -90t74 -30v-29h-217v29q48 10 72 39.5t52 99.5l201 500h45l202 -557q14 -40 36.5 -57.5t75.5 -24.5v-29h-96l-23 -29q-49 -61 -49 -114
q0 -60 53 -60q28 0 59 17l15 -26q-46 -31 -98 -31zM201 283h197l-91 265h-4z" />
    <glyph glyph-name="aogonek" unicode="&#x105;" horiz-adv-x="480" 
d="M481 15l-52 -44q-76 -64 -76 -118q0 -56 53 -56q28 0 59 17l15 -26q-46 -31 -98 -31q-47 0 -73.5 22.5t-26.5 59.5q0 66 114 144l22 15q-18 -2 -30 -2q-38 0 -50.5 16.5t-17.5 60.5h-4q-70 -79 -150 -79q-59 0 -90 30.5t-31 74.5q0 71 61 104q33 18 82.5 33t85.5 24
t42 13v29q0 73 -21.5 102t-71.5 29q-42 0 -68 -26q12 -26 12 -47q0 -23 -14 -38.5t-39 -15.5q-23 0 -36.5 15.5t-13.5 38.5q0 43 50.5 73.5t122.5 30.5q163 0 163 -143v-229q0 -38 14.5 -48.5t62.5 -4.5zM214 47q28 0 56 18.5t46 43.5v131q-108 -23 -142.5 -46t-34.5 -72
q0 -33 19 -54t56 -21z" />
    <glyph glyph-name="Cacute" unicode="&#x106;" horiz-adv-x="669" 
d="M364 -16q-142 0 -230.5 93t-88.5 244q0 150 97.5 251.5t239.5 101.5q86 0 163 -46l28 43h31v-216h-30q-68 183 -202 183q-91 0 -155 -83.5t-64 -229.5q0 -136 72 -212.5t165 -76.5q143 0 214 153l33 -16q-35 -80 -103.5 -134.5t-169.5 -54.5zM331 743l52 123
q17 40 29.5 56.5t31.5 16.5q17 0 28.5 -12t11.5 -29q0 -27 -39 -69l-79 -86h-35z" />
    <glyph glyph-name="cacute" unicode="&#x107;" horiz-adv-x="456" 
d="M252 -8q-96 0 -153.5 65.5t-57.5 167.5q0 104 63.5 173t157.5 69q74 0 116.5 -33.5t42.5 -74.5q0 -24 -14 -40.5t-37 -16.5q-25 0 -39 14t-14 37q0 36 32 54q-31 29 -85 29q-59 0 -97 -49t-38 -140q0 -90 42 -144t114 -54q71 0 130 68l20 -19q-35 -51 -77.5 -78.5
t-105.5 -27.5zM232 535l52 123q17 40 29.5 56.5t31.5 16.5q17 0 28.5 -12t11.5 -29q0 -27 -39 -69l-79 -86h-35z" />
    <glyph glyph-name="Cdotaccent" unicode="&#x10a;" horiz-adv-x="669" 
d="M364 -16q-142 0 -230.5 93t-88.5 244q0 150 97.5 251.5t239.5 101.5q86 0 163 -46l28 43h31v-216h-30q-68 183 -202 183q-91 0 -155 -83.5t-64 -229.5q0 -136 72 -212.5t165 -76.5q143 0 214 153l33 -16q-35 -80 -103.5 -134.5t-169.5 -54.5zM369 751q-26 0 -41.5 16
t-15.5 42t16 43.5t41 17.5t41 -16.5t16 -42.5t-16 -43t-41 -17z" />
    <glyph glyph-name="cdotaccent" unicode="&#x10b;" horiz-adv-x="456" 
d="M252 -8q-96 0 -153.5 65.5t-57.5 167.5q0 104 63.5 173t157.5 69q74 0 116.5 -33.5t42.5 -74.5q0 -24 -14 -40.5t-37 -16.5q-25 0 -39 14t-14 37q0 36 32 54q-31 29 -85 29q-59 0 -97 -49t-38 -140q0 -90 42 -144t114 -54q71 0 130 68l20 -19q-35 -51 -77.5 -78.5
t-105.5 -27.5zM258 543q-26 0 -41.5 16t-15.5 42t16 43.5t41 17.5t41 -16.5t16 -42.5t-16 -43t-41 -17z" />
    <glyph glyph-name="Ccaron" unicode="&#x10c;" horiz-adv-x="669" 
d="M364 -16q-142 0 -230.5 93t-88.5 244q0 150 97.5 251.5t239.5 101.5q86 0 163 -46l28 43h31v-216h-30q-68 183 -202 183q-91 0 -155 -83.5t-64 -229.5q0 -136 72 -212.5t165 -76.5q143 0 214 153l33 -16q-35 -80 -103.5 -134.5t-169.5 -54.5zM358 743l-113 183h31
l100 -100l101 100h31l-121 -183h-29z" />
    <glyph glyph-name="ccaron" unicode="&#x10d;" horiz-adv-x="456" 
d="M252 -8q-96 0 -153.5 65.5t-57.5 167.5q0 104 63.5 173t157.5 69q74 0 116.5 -33.5t42.5 -74.5q0 -24 -14 -40.5t-37 -16.5q-25 0 -39 14t-14 37q0 36 32 54q-31 29 -85 29q-59 0 -97 -49t-38 -140q0 -90 42 -144t114 -54q71 0 130 68l20 -19q-35 -51 -77.5 -78.5
t-105.5 -27.5zM245 535l-113 183h31l100 -100l101 100h31l-121 -183h-29z" />
    <glyph glyph-name="Dcaron" unicode="&#x10e;" horiz-adv-x="726" 
d="M41 0v32q63 2 83.5 11t20.5 32v508q0 23 -20.5 32t-83.5 11v32h274q180 0 272.5 -85t92.5 -231q0 -148 -89 -245t-267 -97h-283zM240 36h77q146 0 200.5 74t54.5 226q0 286 -264 286h-68v-586zM340 743l-113 183h31l100 -100l101 100h31l-121 -183h-29z" />
    <glyph glyph-name="dcaron" unicode="&#x10f;" horiz-adv-x="557" 
d="M237 -8q-90 0 -143 65t-53 165q0 106 61.5 175.5t160.5 69.5q62 0 108 -27v173q0 48 -77 49v31l161 4v-631q0 -19 15 -27t58 -9v-30l-155 -4v53q-55 -57 -136 -57zM276 40q46 0 95 42v296q-20 30 -43.5 44t-59.5 14q-56 0 -95 -55.5t-39 -153.5q0 -82 38 -134.5
t104 -52.5zM569 546l-9 113q-5 50 -5 67q0 26 12 39.5t30 13.5t29.5 -12.5t11.5 -35.5q0 -19 -12 -64l-33 -121h-24z" />
    <glyph glyph-name="Dcroat" unicode="&#x110;" horiz-adv-x="726" 
d="M41 0v32q63 2 83.5 11t20.5 32v247h-96v41h96v220q0 23 -20.5 32t-83.5 11v32h274q180 0 272.5 -85t92.5 -231q0 -148 -89 -245t-267 -97h-283zM240 36h77q146 0 200.5 74t54.5 226q0 286 -264 286h-68v-259h127v-41h-127v-286z" />
    <glyph glyph-name="dcroat" unicode="&#x111;" horiz-adv-x="547" 
d="M237 -8q-90 0 -143 65t-53 165q0 106 61.5 175.5t160.5 69.5q62 0 108 -27v108h-175v37h175v28q0 48 -77 49v31l161 4v-112h73v-37h-73v-482q0 -19 15 -27t58 -9v-30l-155 -4v53q-55 -57 -136 -57zM276 40q46 0 95 42v296q-20 30 -43.5 44t-59.5 14q-56 0 -95 -55.5
t-39 -153.5q0 -82 38 -134.5t104 -52.5z" />
    <glyph glyph-name="Emacron" unicode="&#x112;" horiz-adv-x="654" 
d="M41 0v32q63 2 83.5 11t20.5 32v508q0 23 -20.5 32t-83.5 11v32h534l3 -184l-31 -1q-28 91 -56.5 119.5t-108.5 28.5h-142v-261h59q60 0 84.5 18.5t42.5 92.5h27v-260h-27q-18 74 -42.5 92.5t-84.5 18.5h-59v-284h142q65 0 103.5 19.5t57.5 52t38 96.5l31 -1l-5 -205h-566
zM199 767v57h281v-57h-281z" />
    <glyph glyph-name="emacron" unicode="&#x113;" horiz-adv-x="483" 
d="M255 -8q-102 0 -158 65t-56 168q0 105 59 173.5t155 68.5q93 0 141.5 -67.5t41.5 -156.5h-307v-6v-2q0 -85 40.5 -137.5t112.5 -52.5t141 85l20 -19q-33 -55 -77 -87t-113 -32zM248 436q-48 0 -79 -40t-37 -123l215 5q8 66 -19 112t-80 46zM114 559v57h281v-57h-281z" />
    <glyph glyph-name="Ebreve" unicode="&#x114;" horiz-adv-x="654" 
d="M41 0v32q63 2 83.5 11t20.5 32v508q0 23 -20.5 32t-83.5 11v32h534l3 -184l-31 -1q-28 91 -56.5 119.5t-108.5 28.5h-142v-261h59q60 0 84.5 18.5t42.5 92.5h27v-260h-27q-18 74 -42.5 92.5t-84.5 18.5h-59v-284h142q65 0 103.5 19.5t57.5 52t38 96.5l31 -1l-5 -205h-566
zM341 751q-58 0 -93 42t-41 111h25q18 -46 42.5 -67t66.5 -21q41 0 65 20.5t42 67.5h25q-5 -69 -39.5 -111t-92.5 -42z" />
    <glyph glyph-name="ebreve" unicode="&#x115;" horiz-adv-x="483" 
d="M255 -8q-102 0 -158 65t-56 168q0 105 59 173.5t155 68.5q93 0 141.5 -67.5t41.5 -156.5h-307v-6v-2q0 -85 40.5 -137.5t112.5 -52.5t141 85l20 -19q-33 -55 -77 -87t-113 -32zM248 436q-48 0 -79 -40t-37 -123l215 5q8 66 -19 112t-80 46zM254 543q-58 0 -93 42t-41 111
h25q18 -46 42.5 -67t66.5 -21q41 0 65 20.5t42 67.5h25q-5 -69 -39.5 -111t-92.5 -42z" />
    <glyph glyph-name="Edotaccent" unicode="&#x116;" horiz-adv-x="654" 
d="M41 0v32q63 2 83.5 11t20.5 32v508q0 23 -20.5 32t-83.5 11v32h534l3 -184l-31 -1q-28 91 -56.5 119.5t-108.5 28.5h-142v-261h59q60 0 84.5 18.5t42.5 92.5h27v-260h-27q-18 74 -42.5 92.5t-84.5 18.5h-59v-284h142q65 0 103.5 19.5t57.5 52t38 96.5l31 -1l-5 -205h-566
zM340 751q-26 0 -41.5 16t-15.5 42t16 43.5t41 17.5t41 -16.5t16 -42.5t-16 -43t-41 -17z" />
    <glyph glyph-name="edotaccent" unicode="&#x117;" horiz-adv-x="483" 
d="M255 -8q-102 0 -158 65t-56 168q0 105 59 173.5t155 68.5q93 0 141.5 -67.5t41.5 -156.5h-307v-6v-2q0 -85 40.5 -137.5t112.5 -52.5t141 85l20 -19q-33 -55 -77 -87t-113 -32zM248 436q-48 0 -79 -40t-37 -123l215 5q8 66 -19 112t-80 46zM251 543q-26 0 -41.5 16
t-15.5 42t16 43.5t41 17.5t41 -16.5t16 -42.5t-16 -43t-41 -17z" />
    <glyph glyph-name="Eogonek" unicode="&#x118;" horiz-adv-x="654" 
d="M41 0v32q63 2 83.5 11t20.5 32v508q0 23 -20.5 32t-83.5 11v32h534l3 -184l-31 -1q-28 91 -56.5 119.5t-108.5 28.5h-142v-261h59q60 0 84.5 18.5t42.5 92.5h27v-260h-27q-18 74 -42.5 92.5t-84.5 18.5h-59v-284h142q65 0 103.5 19.5t57.5 52t38 96.5l31 -1l-5 -205h-55
l-23 -29q-49 -61 -49 -114q0 -60 53 -60q28 0 59 17l15 -26q-46 -31 -98 -31q-47 0 -73.5 22.5t-26.5 59.5q0 32 20 63t63 73l25 25h-476z" />
    <glyph glyph-name="eogonek" unicode="&#x119;" horiz-adv-x="483" 
d="M425 130l20 -19q-25 -42 -66 -79l-76 -68q-63 -56 -63 -113q0 -54 53 -54q28 0 59 17l15 -26q-46 -31 -98 -31q-47 0 -73.5 22.5t-26.5 59.5q0 33 23.5 64.5t74.5 71.5l26 20q-17 -3 -38 -3q-102 0 -158 65t-56 168q0 105 59 173.5t155 68.5q93 0 141.5 -67.5
t41.5 -156.5h-307v-6v-2q0 -85 40.5 -137.5t112.5 -52.5t141 85zM248 436q-48 0 -79 -40t-37 -123l215 5q8 66 -19 112t-80 46z" />
    <glyph glyph-name="Ecaron" unicode="&#x11a;" horiz-adv-x="654" 
d="M41 0v32q63 2 83.5 11t20.5 32v508q0 23 -20.5 32t-83.5 11v32h534l3 -184l-31 -1q-28 91 -56.5 119.5t-108.5 28.5h-142v-261h59q60 0 84.5 18.5t42.5 92.5h27v-260h-27q-18 74 -42.5 92.5t-84.5 18.5h-59v-284h142q65 0 103.5 19.5t57.5 52t38 96.5l31 -1l-5 -205h-566
zM322 743l-113 183h31l100 -100l101 100h31l-121 -183h-29z" />
    <glyph glyph-name="ecaron" unicode="&#x11b;" horiz-adv-x="483" 
d="M255 -8q-102 0 -158 65t-56 168q0 105 59 173.5t155 68.5q93 0 141.5 -67.5t41.5 -156.5h-307v-6v-2q0 -85 40.5 -137.5t112.5 -52.5t141 85l20 -19q-33 -55 -77 -87t-113 -32zM248 436q-48 0 -79 -40t-37 -123l215 5q8 66 -19 112t-80 46zM236 535l-113 183h31l100 -100
l101 100h31l-121 -183h-29z" />
    <glyph glyph-name="Gbreve" unicode="&#x11e;" horiz-adv-x="706" 
d="M392 -16q-147 0 -247 90t-100 253q0 151 100 249t241 98q90 0 160 -32l27 32h31v-193h-30q-59 157 -198 157q-90 0 -156.5 -81t-66.5 -228q0 -146 70 -227.5t161 -81.5t134 34v186q0 23 -20.5 32t-83.5 11v32h265v-32q-44 -2 -55 -9.5t-11 -33.5v-205
q-41 -22 -105.5 -36.5t-115.5 -14.5zM369 751q-58 0 -93 42t-41 111h25q18 -46 42.5 -67t66.5 -21q41 0 65 20.5t42 67.5h25q-5 -69 -39.5 -111t-92.5 -42z" />
    <glyph glyph-name="gbreve" unicode="&#x11f;" horiz-adv-x="475" 
d="M251 -172q64 0 105.5 27.5t41.5 72.5q0 34 -28.5 52t-102.5 18h-83q-86 -23 -86 -82q0 -40 37 -64t116 -24zM239 186q86 0 86 125q0 59 -27 92t-68 33q-86 0 -86 -125q0 -65 26.5 -95t68.5 -30zM235 464q47 0 85 -16q39 77 100 77q26 0 40.5 -13.5t14.5 -34.5
q0 -16 -11 -27.5t-27 -11.5q-17 0 -29 13t-12 35q-35 -11 -55 -48q71 -41 71 -125q0 -71 -49.5 -113t-127.5 -42q-29 0 -58 6q-49 -22 -49 -47q0 -38 102 -38h41q97 0 144 -29t47 -94q0 -64 -62 -110.5t-175 -46.5q-90 0 -143.5 31t-53.5 76q0 36 34.5 66t89.5 37v5
q-46 9 -65 27t-19 51q0 44 74 83q-85 37 -85 134q0 71 49.5 113t128.5 42zM249 548q-58 0 -93 42t-41 111h25q18 -46 42.5 -67t66.5 -21q41 0 65 20.5t42 67.5h25q-5 -69 -39.5 -111t-92.5 -42z" />
    <glyph glyph-name="Gdotaccent" unicode="&#x120;" horiz-adv-x="706" 
d="M392 -16q-147 0 -247 90t-100 253q0 151 100 249t241 98q90 0 160 -32l27 32h31v-193h-30q-59 157 -198 157q-90 0 -156.5 -81t-66.5 -228q0 -146 70 -227.5t161 -81.5t134 34v186q0 23 -20.5 32t-83.5 11v32h265v-32q-44 -2 -55 -9.5t-11 -33.5v-205
q-41 -22 -105.5 -36.5t-115.5 -14.5zM366 751q-26 0 -41.5 16t-15.5 42t16 43.5t41 17.5t41 -16.5t16 -42.5t-16 -43t-41 -17z" />
    <glyph glyph-name="gdotaccent" unicode="&#x121;" horiz-adv-x="475" 
d="M251 -172q64 0 105.5 27.5t41.5 72.5q0 34 -28.5 52t-102.5 18h-83q-86 -23 -86 -82q0 -40 37 -64t116 -24zM239 186q86 0 86 125q0 59 -27 92t-68 33q-86 0 -86 -125q0 -65 26.5 -95t68.5 -30zM235 464q47 0 85 -16q39 77 100 77q26 0 40.5 -13.5t14.5 -34.5
q0 -16 -11 -27.5t-27 -11.5q-17 0 -29 13t-12 35q-35 -11 -55 -48q71 -41 71 -125q0 -71 -49.5 -113t-127.5 -42q-29 0 -58 6q-49 -22 -49 -47q0 -38 102 -38h41q97 0 144 -29t47 -94q0 -64 -62 -110.5t-175 -46.5q-90 0 -143.5 31t-53.5 76q0 36 34.5 66t89.5 37v5
q-46 9 -65 27t-19 51q0 44 74 83q-85 37 -85 134q0 71 49.5 113t128.5 42zM236 543q-26 0 -41.5 16t-15.5 42t16 43.5t41 17.5t41 -16.5t16 -42.5t-16 -43t-41 -17z" />
    <glyph glyph-name="Gcommaaccent" unicode="&#x122;" horiz-adv-x="706" 
d="M392 -16q-147 0 -247 90t-100 253q0 151 100 249t241 98q90 0 160 -32l27 32h31v-193h-30q-59 157 -198 157q-90 0 -156.5 -81t-66.5 -228q0 -146 70 -227.5t161 -81.5t134 34v186q0 23 -20.5 32t-83.5 11v32h265v-32q-44 -2 -55 -9.5t-11 -33.5v-205
q-41 -22 -105.5 -36.5t-115.5 -14.5zM324 -312l-18 23q88 54 93 110l-7 2q-11 -11 -28 -11q-20 0 -33 14.5t-13 36.5q0 24 17 40.5t44 16.5q28 0 45 -21t17 -56q0 -90 -117 -155z" />
    <glyph glyph-name="gcommaaccent" unicode="&#x123;" horiz-adv-x="475" 
d="M251 -172q64 0 105.5 27.5t41.5 72.5q0 34 -28.5 52t-102.5 18h-83q-86 -23 -86 -82q0 -40 37 -64t116 -24zM239 186q86 0 86 125q0 59 -27 92t-68 33q-86 0 -86 -125q0 -65 26.5 -95t68.5 -30zM235 464q47 0 85 -16q39 77 100 77q26 0 40.5 -13.5t14.5 -34.5
q0 -16 -11 -27.5t-27 -11.5q-17 0 -29 13t-12 35q-35 -11 -55 -48q71 -41 71 -125q0 -71 -49.5 -113t-127.5 -42q-29 0 -58 6q-49 -22 -49 -47q0 -38 102 -38h41q97 0 144 -29t47 -94q0 -64 -62 -110.5t-175 -46.5q-90 0 -143.5 31t-53.5 76q0 36 34.5 66t89.5 37v5
q-46 9 -65 27t-19 51q0 44 74 83q-85 37 -85 134q0 71 49.5 113t128.5 42zM288 775l18 -23q-88 -54 -93 -110l7 -2q11 11 28 11q20 0 33 -14.5t13 -36.5q0 -24 -17 -40.5t-44 -16.5q-28 0 -45 21t-17 56q0 90 117 155z" />
    <glyph glyph-name="Hbar" unicode="&#x126;" horiz-adv-x="789" 
d="M41 0v32q63 2 83.5 11t20.5 32v399h-96v37h96v72q0 23 -20.5 32t-83.5 11v32h295v-32q-65 -2 -80.5 -9.5t-15.5 -33.5v-72h309v72q0 26 -15.5 33.5t-80.5 9.5v32h295v-32q-63 -2 -83.5 -11t-20.5 -32v-72h96v-37h-96v-399q0 -23 20.5 -32t83.5 -11v-32h-295v32
q65 2 80.5 9.5t15.5 33.5v243h-309v-243q0 -26 15.5 -33.5t80.5 -9.5v-32h-295zM240 354h309v120h-309v-120z" />
    <glyph glyph-name="hbar" unicode="&#x127;" horiz-adv-x="570" 
d="M27 0v31q42 1 58 9t16 26v482h-73v37h73v28q0 48 -77 49v31l161 4v-112h175v-37h-175v-155q104 71 180 71q52 0 82 -36.5t30 -102.5v-259q0 -19 15.5 -26.5t57.5 -8.5v-31h-221v31q37 1 50.5 9t13.5 26v223q0 64 -23.5 88.5t-71.5 24.5q-58 0 -113 -41v-295
q0 -19 13.5 -26.5t49.5 -8.5v-31h-221z" />
    <glyph glyph-name="Imacron" unicode="&#x12a;" horiz-adv-x="405" 
d="M51 0v32q63 2 83.5 11t20.5 32v508q0 23 -20.5 32t-83.5 11v32h303v-32q-63 -2 -83.5 -11t-20.5 -32v-508q0 -23 20.5 -32t83.5 -11v-32h-303zM65 767v57h281v-57h-281z" />
    <glyph glyph-name="imacron" unicode="&#x12b;" horiz-adv-x="293" 
d="M17 559v57h251v-57h-251zM41 0v31q42 1 57 8.5t15 26.5v311q0 24 -15.5 36t-56.5 13v31l156 4v-395q0 -19 13.5 -26.5t50.5 -8.5v-31h-220z" />
    <glyph glyph-name="Ibreve" unicode="&#x12c;" horiz-adv-x="405" 
d="M51 0v32q63 2 83.5 11t20.5 32v508q0 23 -20.5 32t-83.5 11v32h303v-32q-63 -2 -83.5 -11t-20.5 -32v-508q0 -23 20.5 -32t83.5 -11v-32h-303zM207 751q-58 0 -93 42t-41 111h25q18 -46 42.5 -67t66.5 -21q41 0 65 20.5t42 67.5h25q-5 -69 -39.5 -111t-92.5 -42z" />
    <glyph glyph-name="ibreve" unicode="&#x12d;" horiz-adv-x="293" 
d="M41 0v31q42 1 57 8.5t15 26.5v311q0 24 -15.5 36t-56.5 13v31l156 4v-395q0 -19 13.5 -26.5t50.5 -8.5v-31h-220zM144 543q-58 0 -93 42t-41 111h25q18 -46 42.5 -67t66.5 -21q41 0 65 20.5t42 67.5h25q-5 -69 -39.5 -111t-92.5 -42z" />
    <glyph glyph-name="Iogonek" unicode="&#x12e;" horiz-adv-x="405" 
d="M51 0v32q63 2 83.5 11t20.5 32v508q0 23 -20.5 32t-83.5 11v32h303v-32q-63 -2 -83.5 -11t-20.5 -32v-508q0 -23 20.5 -32t83.5 -11v-32h-118l-23 -29q-49 -61 -49 -114q0 -60 53 -60q28 0 59 17l15 -26q-46 -31 -98 -31q-47 0 -73.5 22.5t-26.5 59.5q0 32 20 63t63 73
l25 25h-150z" />
    <glyph glyph-name="iogonek" unicode="&#x12f;" horiz-adv-x="293" 
d="M40 0v31q42 1 57.5 8.5t15.5 26.5v311q0 24 -15.5 36t-56.5 13v31l156 4v-395q0 -19 15 -26.5t58 -8.5v-31h-85l-23 -29q-49 -61 -49 -114q0 -60 53 -60q28 0 59 17l15 -26q-46 -31 -98 -31q-47 0 -73.5 22.5t-26.5 59.5q0 32 20 63t63 73l25 25h-110zM153 575
q-26 0 -41.5 16t-15.5 42t16 43.5t41 17.5t41 -16.5t16 -42.5t-16 -43t-41 -17z" />
    <glyph glyph-name="Idotaccent" unicode="&#x130;" horiz-adv-x="405" 
d="M51 0v32q63 2 83.5 11t20.5 32v508q0 23 -20.5 32t-83.5 11v32h303v-32q-63 -2 -83.5 -11t-20.5 -32v-508q0 -23 20.5 -32t83.5 -11v-32h-303zM203 751q-26 0 -41.5 16t-15.5 42t16 43.5t41 17.5t41 -16.5t16 -42.5t-16 -43t-41 -17z" />
    <glyph glyph-name="dotlessi" unicode="&#x131;" horiz-adv-x="293" 
d="M41 0v31q42 1 57 8.5t15 26.5v311q0 24 -15.5 36t-56.5 13v31l156 4v-395q0 -19 13.5 -26.5t50.5 -8.5v-31h-220z" />
    <glyph glyph-name="Kcommaaccent" unicode="&#x136;" horiz-adv-x="724" 
d="M240 313l222 222q45 43 40 65t-69 29v29h254v-29q-56 -9 -87.5 -28.5t-94.5 -79.5l-134 -130l210 -288q26 -36 51 -52t75 -22v-29h-283v29q60 8 70.5 22.5t-13.5 43.5l-171 237l-70 -68v-189q0 -26 14 -33.5t71 -9.5v-32h-284v32q63 2 83.5 11t20.5 32v508q0 23 -20.5 32
t-83.5 11v32h295v-32q-65 -2 -80.5 -9.5t-15.5 -33.5v-270zM310 -312l-18 23q88 54 93 110l-7 2q-11 -11 -28 -11q-20 0 -33 14.5t-13 36.5q0 24 17 40.5t44 16.5q28 0 45 -21t17 -56q0 -90 -117 -155z" />
    <glyph glyph-name="kcommaaccent" unicode="&#x137;" horiz-adv-x="526" 
d="M185 176v-110q0 -18 12 -26t42 -9v-31h-212v31q42 1 58 9t16 26v547q0 48 -77 49v31l161 4v-477l148 152q47 48 -40 58v29h212v-29q-38 -6 -59 -18t-54 -42l-93 -87l151 -208q18 -24 32.5 -33t48.5 -13v-29h-219v29q38 5 46.5 14t-7.5 35l-107 153zM214 -312l-18 23
q88 54 93 110l-7 2q-11 -11 -28 -11q-20 0 -33 14.5t-13 36.5q0 24 17 40.5t44 16.5q28 0 45 -21t17 -56q0 -90 -117 -155z" />
    <glyph glyph-name="Lacute" unicode="&#x139;" horiz-adv-x="610" 
d="M41 0v32q63 2 83.5 11t20.5 32v508q0 23 -20.5 32t-83.5 11v32h303v-32q-63 -2 -83.5 -11t-20.5 -32v-545h109q95 0 133 37.5t68 145.5l31 -2l-7 -219h-533zM202 743l52 123q17 40 29.5 56.5t31.5 16.5q17 0 28.5 -12t11.5 -29q0 -27 -39 -69l-79 -86h-35z" />
    <glyph glyph-name="lacute" unicode="&#x13a;" horiz-adv-x="288" 
d="M33 0v31q42 1 57.5 8.5t15.5 26.5v547q0 48 -77 49v31l161 4v-631q0 -19 15 -26.5t58 -8.5v-31h-230zM116 773l52 123q17 40 29.5 56.5t31.5 16.5q17 0 28.5 -12t11.5 -29q0 -27 -39 -69l-79 -86h-35z" />
    <glyph glyph-name="Lcommaaccent" unicode="&#x13b;" horiz-adv-x="610" 
d="M41 0v32q63 2 83.5 11t20.5 32v508q0 23 -20.5 32t-83.5 11v32h303v-32q-63 -2 -83.5 -11t-20.5 -32v-545h109q95 0 133 37.5t68 145.5l31 -2l-7 -219h-533zM276 -312l-18 23q88 54 93 110l-7 2q-11 -11 -28 -11q-20 0 -33 14.5t-13 36.5q0 24 17 40.5t44 16.5
q28 0 45 -21t17 -56q0 -90 -117 -155z" />
    <glyph glyph-name="lcommaaccent" unicode="&#x13c;" horiz-adv-x="288" 
d="M33 0v31q42 1 57.5 8.5t15.5 26.5v547q0 48 -77 49v31l161 4v-631q0 -19 15 -26.5t58 -8.5v-31h-230zM87 -312l-18 23q88 54 93 110l-7 2q-11 -11 -28 -11q-20 0 -33 14.5t-13 36.5q0 24 17 40.5t44 16.5q28 0 45 -21t17 -56q0 -90 -117 -155z" />
    <glyph glyph-name="Lcaron" unicode="&#x13d;" horiz-adv-x="610" 
d="M41 0v32q63 2 83.5 11t20.5 32v508q0 23 -20.5 32t-83.5 11v32h303v-32q-63 -2 -83.5 -11t-20.5 -32v-545h109q95 0 133 37.5t68 145.5l31 -2l-7 -219h-533zM443 507l-9 113q-5 50 -5 67q0 26 12 39.5t30 13.5t29.5 -12.5t11.5 -35.5q0 -19 -12 -64l-33 -121h-24z" />
    <glyph glyph-name="lcaron" unicode="&#x13e;" horiz-adv-x="298" 
d="M33 0v31q42 1 57.5 8.5t15.5 26.5v547q0 48 -77 49v31l161 4v-631q0 -19 15 -26.5t58 -8.5v-31h-230zM304 546l-9 113q-5 50 -5 67q0 26 12 39.5t30 13.5t29.5 -12.5t11.5 -35.5q0 -19 -12 -64l-33 -121h-24z" />
    <glyph glyph-name="Ldot" unicode="&#x13f;" horiz-adv-x="610" 
d="M41 0v32q63 2 83.5 11t20.5 32v508q0 23 -20.5 32t-83.5 11v32h303v-32q-63 -2 -83.5 -11t-20.5 -32v-545h109q95 0 133 35.5t68 137.5l31 -2l-7 -209h-533zM483 298q-26 0 -41.5 16t-15.5 42t16 43.5t41 17.5t41 -16.5t16 -42.5t-16 -43t-41 -17z" />
    <glyph glyph-name="ldot" unicode="&#x140;" horiz-adv-x="344" 
d="M320 291q-26 0 -41.5 16t-15.5 42t16 43.5t41 17.5t41 -16.5t16 -42.5t-16 -43t-41 -17zM33 0v31q42 1 57.5 8.5t15.5 26.5v547q0 48 -77 49v31l161 4v-631q0 -19 15 -26.5t58 -8.5v-31h-230z" />
    <glyph glyph-name="Lslash" unicode="&#x141;" horiz-adv-x="610" 
d="M41 0v32q63 2 83.5 11t20.5 32v215l-80 -21l-11 40l91 24v250q0 23 -20.5 32t-83.5 11v32h303v-32q-63 -2 -83.5 -11t-20.5 -32v-224l121 32l11 -39l-132 -36v-278h109q95 0 133 37.5t68 145.5l31 -2l-7 -219h-533z" />
    <glyph glyph-name="lslash" unicode="&#x142;" horiz-adv-x="308" 
d="M53 0v31q42 1 57.5 8.5t15.5 26.5v252l-86 -23l-11 40l97 25v253q0 48 -77 49v31l161 4v-315l92 25l11 -39l-103 -28v-274q0 -19 15 -26.5t58 -8.5v-31h-230z" />
    <glyph glyph-name="Nacute" unicode="&#x143;" horiz-adv-x="751" 
d="M602 -16l-415 570h-1v-396q0 -71 19 -95t89 -34v-29h-253v29q66 11 85.5 35t19.5 94v400q0 65 -105 68v32h187l372 -511h1v354q0 68 -22.5 92.5t-93.5 35.5v29h254v-29q-65 -12 -81.5 -35t-16.5 -93v-517h-39zM372 743l52 123q17 40 29.5 56.5t31.5 16.5q17 0 28.5 -12
t11.5 -29q0 -27 -39 -69l-79 -86h-35z" />
    <glyph glyph-name="nacute" unicode="&#x144;" horiz-adv-x="582" 
d="M40 0v31q42 1 57.5 8.5t15.5 26.5v311q0 24 -16 36t-57 13v31l155 4v-69q103 72 181 72q53 0 83 -36t30 -103v-259q0 -19 15 -26.5t58 -8.5v-31h-221v31q37 1 50.5 8.5t13.5 26.5v223q0 64 -23.5 88.5t-71.5 24.5q-58 0 -113 -41v-295q0 -19 13.5 -26.5t49.5 -8.5v-31
h-220zM256 535l52 123q17 40 29.5 56.5t31.5 16.5q17 0 28.5 -12t11.5 -29q0 -27 -39 -69l-79 -86h-35z" />
    <glyph glyph-name="Ncommaaccent" unicode="&#x145;" horiz-adv-x="751" 
d="M602 -16l-415 570h-1v-396q0 -71 19 -95t89 -34v-29h-253v29q66 11 85.5 35t19.5 94v400q0 65 -105 68v32h187l372 -511h1v354q0 68 -22.5 92.5t-93.5 35.5v29h254v-29q-65 -12 -81.5 -35t-16.5 -93v-517h-39zM316 -312l-18 23q88 54 93 110l-7 2q-11 -11 -28 -11
q-20 0 -33 14.5t-13 36.5q0 24 17 40.5t44 16.5q28 0 45 -21t17 -56q0 -90 -117 -155z" />
    <glyph glyph-name="ncommaaccent" unicode="&#x146;" horiz-adv-x="582" 
d="M40 0v31q42 1 57.5 8.5t15.5 26.5v311q0 24 -16 36t-57 13v31l155 4v-69q103 72 181 72q53 0 83 -36t30 -103v-259q0 -19 15 -26.5t58 -8.5v-31h-221v31q37 1 50.5 8.5t13.5 26.5v223q0 64 -23.5 88.5t-71.5 24.5q-58 0 -113 -41v-295q0 -19 13.5 -26.5t49.5 -8.5v-31
h-220zM235 -312l-18 23q88 54 93 110l-7 2q-11 -11 -28 -11q-20 0 -33 14.5t-13 36.5q0 24 17 40.5t44 16.5q28 0 45 -21t17 -56q0 -90 -117 -155z" />
    <glyph glyph-name="Ncaron" unicode="&#x147;" horiz-adv-x="751" 
d="M602 -16l-415 570h-1v-396q0 -71 19 -95t89 -34v-29h-253v29q66 11 85.5 35t19.5 94v400q0 65 -105 68v32h187l372 -511h1v354q0 68 -22.5 92.5t-93.5 35.5v29h254v-29q-65 -12 -81.5 -35t-16.5 -93v-517h-39zM380 743l-113 183h31l100 -100l101 100h31l-121 -183h-29z
" />
    <glyph glyph-name="ncaron" unicode="&#x148;" horiz-adv-x="582" 
d="M40 0v31q42 1 57.5 8.5t15.5 26.5v311q0 24 -16 36t-57 13v31l155 4v-69q103 72 181 72q53 0 83 -36t30 -103v-259q0 -19 15 -26.5t58 -8.5v-31h-221v31q37 1 50.5 8.5t13.5 26.5v223q0 64 -23.5 88.5t-71.5 24.5q-58 0 -113 -41v-295q0 -19 13.5 -26.5t49.5 -8.5v-31
h-220zM278 535l-113 183h31l100 -100l101 100h31l-121 -183h-29z" />
    <glyph glyph-name="Omacron" unicode="&#x14c;" horiz-adv-x="720" 
d="M360 -16q-137 0 -225.5 93.5t-88.5 249.5q0 155 90 251t224 96q137 0 225.5 -93.5t88.5 -249.5t-90 -251.5t-224 -95.5zM364 20q94 0 148 76.5t54 232.5q0 154 -57.5 231.5t-152.5 77.5q-94 0 -148 -77t-54 -232t57 -232t153 -77zM222 767v57h281v-57h-281z" />
    <glyph glyph-name="omacron" unicode="&#x14d;" horiz-adv-x="529" 
d="M265 -8q-105 0 -164.5 64.5t-59.5 171.5q0 106 61 172.5t163 66.5q104 0 163.5 -64.5t59.5 -170.5t-61 -173t-162 -67zM269 23q60 0 93 52t33 155q0 102 -36.5 154t-98.5 52q-126 0 -126 -206q0 -102 36.5 -154.5t98.5 -52.5zM125 559v57h281v-57h-281z" />
    <glyph glyph-name="Obreve" unicode="&#x14e;" horiz-adv-x="720" 
d="M360 -16q-137 0 -225.5 93.5t-88.5 249.5q0 155 90 251t224 96q137 0 225.5 -93.5t88.5 -249.5t-90 -251.5t-224 -95.5zM364 20q94 0 148 76.5t54 232.5q0 154 -57.5 231.5t-152.5 77.5q-94 0 -148 -77t-54 -232t57 -232t153 -77zM365 751q-58 0 -93 42t-41 111h25
q18 -46 42.5 -67t66.5 -21q41 0 65 20.5t42 67.5h25q-5 -69 -39.5 -111t-92.5 -42z" />
    <glyph glyph-name="obreve" unicode="&#x14f;" horiz-adv-x="529" 
d="M265 -8q-105 0 -164.5 64.5t-59.5 171.5q0 106 61 172.5t163 66.5q104 0 163.5 -64.5t59.5 -170.5t-61 -173t-162 -67zM269 23q60 0 93 52t33 155q0 102 -36.5 154t-98.5 52q-126 0 -126 -206q0 -102 36.5 -154.5t98.5 -52.5zM267 543q-58 0 -93 42t-41 111h25
q18 -46 42.5 -67t66.5 -21q41 0 65 20.5t42 67.5h25q-5 -69 -39.5 -111t-92.5 -42z" />
    <glyph glyph-name="Ohungarumlaut" unicode="&#x150;" horiz-adv-x="720" 
d="M360 -16q-137 0 -225.5 93.5t-88.5 249.5q0 155 90 251t224 96q137 0 225.5 -93.5t88.5 -249.5t-90 -251.5t-224 -95.5zM364 20q94 0 148 76.5t54 232.5q0 154 -57.5 231.5t-152.5 77.5q-94 0 -148 -77t-54 -232t57 -232t153 -77zM413 743l58 123q19 40 32.5 56.5
t31.5 16.5q17 0 27.5 -12t10.5 -29q0 -26 -41 -69l-82 -86h-37zM263 743l58 123q19 40 32.5 56.5t31.5 16.5q17 0 27.5 -12t10.5 -29q0 -26 -41 -69l-82 -86h-37z" />
    <glyph glyph-name="ohungarumlaut" unicode="&#x151;" horiz-adv-x="529" 
d="M265 -8q-105 0 -164.5 64.5t-59.5 171.5q0 106 61 172.5t163 66.5q104 0 163.5 -64.5t59.5 -170.5t-61 -173t-162 -67zM269 23q60 0 93 52t33 155q0 102 -36.5 154t-98.5 52q-126 0 -126 -206q0 -102 36.5 -154.5t98.5 -52.5zM324 535l58 123q19 40 32.5 56.5t31.5 16.5
q17 0 27.5 -12t10.5 -29q0 -26 -41 -69l-82 -86h-37zM174 535l58 123q19 40 32.5 56.5t31.5 16.5q17 0 27.5 -12t10.5 -29q0 -26 -41 -69l-82 -86h-37z" />
    <glyph glyph-name="OE" unicode="&#x152;" horiz-adv-x="1015" 
d="M431 0q-187 0 -286 86t-99 232q0 147 95 243.5t281 96.5h514l3 -184l-31 -1q-28 91 -56.5 119.5t-108.5 28.5h-142v-261h59q60 0 84.5 18.5t42.5 92.5h27v-260h-27q-18 74 -42.5 92.5t-84.5 18.5h-59v-284h142q65 0 103.5 19.5t57.5 52t38 96.5l31 -1l-5 -205h-537z
M418 36q38 0 63 12t25 37v488q0 27 -22.5 38t-74.5 11q-132 0 -193.5 -70.5t-61.5 -220.5q0 -144 74 -219.5t190 -75.5z" />
    <glyph glyph-name="oe" unicode="&#x153;" horiz-adv-x="840" 
d="M612 -8q-115 0 -172 86q-61 -86 -175 -86q-105 0 -164.5 64.5t-59.5 171.5q0 106 61 172.5t163 66.5q121 0 179 -87q61 87 168 87q93 0 141.5 -67.5t41.5 -156.5h-307v-6v-2q0 -85 40.5 -137.5t112.5 -52.5t141 85l20 -19q-33 -55 -77 -87t-113 -32zM395 230
q0 102 -36.5 154t-98.5 52q-126 0 -126 -206q0 -102 36.5 -154.5t98.5 -52.5q60 0 93 52t33 155zM605 436q-48 0 -79 -40t-37 -123l215 5q8 66 -19 112t-80 46z" />
    <glyph glyph-name="Racute" unicode="&#x154;" horiz-adv-x="667" 
d="M240 347h77q90 0 123.5 36.5t33.5 111.5q0 66 -37.5 96.5t-126.5 30.5h-70v-275zM240 311v-236q0 -25 18.5 -33t84.5 -10v-32h-302v32q63 2 83.5 11t20.5 32v508q0 23 -20.5 32t-83.5 11v32h276q139 0 199 -44.5t60 -115.5q0 -128 -167 -165v-3q44 -4 72 -14.5t43 -29.5
t21.5 -37.5t11.5 -50.5l15 -95q7 -43 28 -58t74 -19v-32q-4 0 -17 -0.5t-16 -0.5q-102 0 -134 24.5t-37 95.5l-6 77q-6 71 -39 96t-113 25h-72zM307 743l52 123q17 40 29.5 56.5t31.5 16.5q17 0 28.5 -12t11.5 -29q0 -27 -39 -69l-79 -86h-35z" />
    <glyph glyph-name="racute" unicode="&#x155;" horiz-adv-x="411" 
d="M40 0v31q42 1 57.5 8.5t15.5 26.5v311q0 24 -16 36t-57 13v31l155 4v-78q64 81 133 81q36 0 55 -20.5t19 -48.5q0 -24 -14.5 -40.5t-37.5 -16.5q-24 0 -39.5 13.5t-15.5 38.5q0 5 2 17q-58 3 -100 -58v-283q0 -19 18 -26.5t66 -8.5v-31h-241zM180 535l52 123
q17 40 29.5 56.5t31.5 16.5q17 0 28.5 -12t11.5 -29q0 -27 -39 -69l-79 -86h-35z" />
    <glyph glyph-name="Rcommaaccent" unicode="&#x156;" horiz-adv-x="667" 
d="M240 347h77q90 0 123.5 36.5t33.5 111.5q0 66 -37.5 96.5t-126.5 30.5h-70v-275zM240 311v-236q0 -25 18.5 -33t84.5 -10v-32h-302v32q63 2 83.5 11t20.5 32v508q0 23 -20.5 32t-83.5 11v32h276q139 0 199 -44.5t60 -115.5q0 -128 -167 -165v-3q44 -4 72 -14.5t43 -29.5
t21.5 -37.5t11.5 -50.5l15 -95q7 -43 28 -58t74 -19v-32q-4 0 -17 -0.5t-16 -0.5q-102 0 -134 24.5t-37 95.5l-6 77q-6 71 -39 96t-113 25h-72zM278 -312l-18 23q88 54 93 110l-7 2q-11 -11 -28 -11q-20 0 -33 14.5t-13 36.5q0 24 17 40.5t44 16.5q28 0 45 -21t17 -56
q0 -90 -117 -155z" />
    <glyph glyph-name="rcommaaccent" unicode="&#x157;" horiz-adv-x="411" 
d="M40 0v31q42 1 57.5 8.5t15.5 26.5v311q0 24 -16 36t-57 13v31l155 4v-78q64 81 133 81q36 0 55 -20.5t19 -48.5q0 -24 -14.5 -40.5t-37.5 -16.5q-24 0 -39.5 13.5t-15.5 38.5q0 5 2 17q-58 3 -100 -58v-283q0 -19 18 -26.5t66 -8.5v-31h-241zM102 -312l-18 23
q88 54 93 110l-7 2q-11 -11 -28 -11q-20 0 -33 14.5t-13 36.5q0 24 17 40.5t44 16.5q28 0 45 -21t17 -56q0 -90 -117 -155z" />
    <glyph glyph-name="Rcaron" unicode="&#x158;" horiz-adv-x="667" 
d="M240 347h77q90 0 123.5 36.5t33.5 111.5q0 66 -37.5 96.5t-126.5 30.5h-70v-275zM240 311v-236q0 -25 18.5 -33t84.5 -10v-32h-302v32q63 2 83.5 11t20.5 32v508q0 23 -20.5 32t-83.5 11v32h276q139 0 199 -44.5t60 -115.5q0 -128 -167 -165v-3q44 -4 72 -14.5t43 -29.5
t21.5 -37.5t11.5 -50.5l15 -95q7 -43 28 -58t74 -19v-32q-4 0 -17 -0.5t-16 -0.5q-102 0 -134 24.5t-37 95.5l-6 77q-6 71 -39 96t-113 25h-72zM318 743l-113 183h31l100 -100l101 100h31l-121 -183h-29z" />
    <glyph glyph-name="rcaron" unicode="&#x159;" horiz-adv-x="411" 
d="M40 0v31q42 1 57.5 8.5t15.5 26.5v311q0 24 -16 36t-57 13v31l155 4v-78q64 81 133 81q36 0 55 -20.5t19 -48.5q0 -24 -14.5 -40.5t-37.5 -16.5q-24 0 -39.5 13.5t-15.5 38.5q0 5 2 17q-58 3 -100 -58v-283q0 -19 18 -26.5t66 -8.5v-31h-241zM188 535l-113 183h31
l100 -100l101 100h31l-121 -183h-29z" />
    <glyph glyph-name="Sacute" unicode="&#x15a;" horiz-adv-x="533" 
d="M47 -20v214h31q78 -174 201 -174q69 0 105 38.5t36 88.5q0 52 -37.5 80.5t-136.5 63.5q-91 32 -121 52q-66 45 -66 130q0 92 63 146.5t159 54.5q67 0 128 -23l32 28h22v-192h-31q-25 72 -67.5 111.5t-99.5 39.5q-53 0 -87 -32.5t-34 -89.5q0 -50 36.5 -75t128.5 -56
q31 -11 46 -16.5t41.5 -17.5t40 -24.5t29 -30.5t22 -42.5t6.5 -54.5q0 -86 -55 -150.5t-169 -64.5q-82 0 -149 28l-50 -32h-24zM234 743l52 123q17 40 29.5 56.5t31.5 16.5q17 0 28.5 -12t11.5 -29q0 -27 -39 -69l-79 -86h-35z" />
    <glyph glyph-name="sacute" unicode="&#x15b;" horiz-adv-x="420" 
d="M51 -8v153h29q74 -122 150 -122q38 0 60 22.5t22 53.5q0 35 -24.5 54t-94.5 40q-75 22 -106 51t-31 77q0 66 43.5 106t117.5 40q54 0 95 -26l18 26h23v-136h-29q-54 105 -119 105q-36 0 -58 -21t-22 -54q0 -30 26 -48.5t88 -36.5q72 -21 104 -50.5t32 -79.5
q0 -66 -40.5 -110t-114.5 -44q-27 0 -61 9.5t-55 22.5l-30 -32h-23zM181 535l52 123q17 40 29.5 56.5t31.5 16.5q17 0 28.5 -12t11.5 -29q0 -27 -39 -69l-79 -86h-35z" />
    <glyph glyph-name="Scedilla" unicode="&#x15e;" horiz-adv-x="533" 
d="M247 -251q-58 0 -103 31l17 25q36 -23 73 -23q58 0 58 49q0 23 -20 36t-52 13q-18 0 -34 -4l-12 16l92 92q-80 2 -145 28l-50 -32h-24v214h31q78 -174 201 -174q69 0 105 38.5t36 88.5q0 52 -37.5 80.5t-136.5 63.5q-91 32 -121 52q-66 45 -66 130q0 92 63 146.5
t159 54.5q67 0 128 -23l32 28h22v-192h-31q-25 72 -67.5 111.5t-99.5 39.5q-53 0 -87 -32.5t-34 -89.5q0 -50 36.5 -75t128.5 -56q31 -11 46 -16.5t41.5 -17.5t40 -24.5t29 -30.5t22 -42.5t6.5 -54.5q0 -78 -46 -140t-141 -73l-62 -60l1 -3q54 -3 81.5 -25t27.5 -56
q0 -42 -30.5 -67.5t-77.5 -25.5z" />
    <glyph glyph-name="scedilla" unicode="&#x15f;" horiz-adv-x="420" 
d="M188 -251q-58 0 -103 31l17 25q36 -23 73 -23q58 0 58 49q0 23 -20 36t-52 13q-18 0 -34 -4l-12 16l100 100q-65 3 -111 32l-30 -32h-23v153h29q74 -122 150 -122q38 0 60 22.5t22 53.5q0 35 -24.5 54t-94.5 40q-75 22 -106 51t-31 77q0 66 43.5 106t117.5 40
q54 0 95 -26l18 26h23v-136h-29q-54 105 -119 105q-36 0 -58 -21t-22 -54q0 -30 26 -48.5t88 -36.5q72 -21 104 -50.5t32 -79.5q0 -57 -30.5 -98.5t-87.5 -51.5l-71 -70l1 -3q54 -3 81.5 -25t27.5 -56q0 -42 -30.5 -67.5t-77.5 -25.5z" />
    <glyph glyph-name="Scaron" unicode="&#x160;" horiz-adv-x="533" 
d="M47 -20v214h31q78 -174 201 -174q69 0 105 38.5t36 88.5q0 52 -37.5 80.5t-136.5 63.5q-91 32 -121 52q-66 45 -66 130q0 92 63 146.5t159 54.5q67 0 128 -23l32 28h22v-192h-31q-25 72 -67.5 111.5t-99.5 39.5q-53 0 -87 -32.5t-34 -89.5q0 -50 36.5 -75t128.5 -56
q31 -11 46 -16.5t41.5 -17.5t40 -24.5t29 -30.5t22 -42.5t6.5 -54.5q0 -86 -55 -150.5t-169 -64.5q-82 0 -149 28l-50 -32h-24zM266 743l-113 183h31l100 -100l101 100h31l-121 -183h-29z" />
    <glyph glyph-name="scaron" unicode="&#x161;" horiz-adv-x="420" 
d="M51 -8v153h29q74 -122 150 -122q38 0 60 22.5t22 53.5q0 35 -24.5 54t-94.5 40q-75 22 -106 51t-31 77q0 66 43.5 106t117.5 40q54 0 95 -26l18 26h23v-136h-29q-54 105 -119 105q-36 0 -58 -21t-22 -54q0 -30 26 -48.5t88 -36.5q72 -21 104 -50.5t32 -79.5
q0 -66 -40.5 -110t-114.5 -44q-27 0 -61 9.5t-55 22.5l-30 -32h-23zM203 535l-113 183h31l100 -100l101 100h31l-121 -183h-29z" />
    <glyph glyph-name="Tcommaaccent" unicode="&#x162;" horiz-adv-x="648" 
d="M167 0v32q66 2 88.5 11t22.5 32v547h-50q-66 0 -93 -34.5t-61 -136.5l-31 2l6 205h554l7 -205l-31 -2q-28 96 -57 133.5t-97 37.5h-52v-547q0 -23 22.5 -32t88.5 -11v-32h-317zM261 -312l-18 23q88 54 93 110l-7 2q-11 -11 -28 -11q-20 0 -33 14.5t-13 36.5q0 24 17 40.5
t44 16.5q28 0 45 -21t17 -56q0 -90 -117 -155z" />
    <glyph glyph-name="tcommaaccent" unicode="&#x163;" horiz-adv-x="360" 
d="M213 -8q-51 0 -79 31.5t-28 93.5v296h-85v28l87 18v128l82 36v-166h145v-42h-145v-287q0 -81 62 -81q35 0 73 54l23 -16q-28 -51 -58 -72t-77 -21zM145 -312l-18 23q88 54 93 110l-7 2q-11 -11 -28 -11q-20 0 -33 14.5t-13 36.5q0 24 17 40.5t44 16.5q28 0 45 -21t17 -56
q0 -90 -117 -155z" />
    <glyph glyph-name="Tcaron" unicode="&#x164;" horiz-adv-x="648" 
d="M167 0v32q66 2 88.5 11t22.5 32v547h-50q-66 0 -93 -34.5t-61 -136.5l-31 2l6 205h554l7 -205l-31 -2q-28 96 -57 133.5t-97 37.5h-52v-547q0 -23 22.5 -32t88.5 -11v-32h-317zM312 743l-113 183h31l100 -100l101 100h31l-121 -183h-29z" />
    <glyph glyph-name="tcaron" unicode="&#x165;" horiz-adv-x="370" 
d="M213 -8q-51 0 -79 31.5t-28 93.5v296h-85v28l87 18v128l82 36v-166h145v-42h-145v-287q0 -81 62 -81q35 0 73 54l23 -16q-28 -51 -58 -72t-77 -21zM298 546l-9 113q-5 50 -5 67q0 26 12 39.5t30 13.5t29.5 -12.5t11.5 -35.5q0 -19 -12 -64l-33 -121h-24z" />
    <glyph glyph-name="Umacron" unicode="&#x16a;" horiz-adv-x="733" 
d="M375 -16q-114 0 -182 53.5t-68 141.5v404q0 23 -20.5 32t-83.5 11v32h295v-32q-65 -2 -80.5 -9.5t-15.5 -33.5v-388q0 -84 50.5 -126t135.5 -42q77 0 127 50q28 28 39.5 58t11.5 84v282q0 68 -22.5 92.5t-93.5 35.5v29h254v-29q-65 -12 -81.5 -35t-16.5 -93v-312
q0 -84 -67.5 -144.5t-181.5 -60.5zM248 767v57h281v-57h-281z" />
    <glyph glyph-name="umacron" unicode="&#x16b;" horiz-adv-x="563" 
d="M216 -8q-55 0 -87 36.5t-32 102.5v255q0 23 -15 30.5t-59 9.5v31l158 5v-295q0 -64 24.5 -88.5t76.5 -24.5q51 0 105 34v298q0 23 -15.5 30.5t-58.5 9.5v31l158 5v-396q0 -19 15 -27t58 -9v-30h-155v58q-92 -66 -173 -66zM130 559v57h281v-57h-281z" />
    <glyph glyph-name="Ubreve" unicode="&#x16c;" horiz-adv-x="733" 
d="M375 -16q-114 0 -182 53.5t-68 141.5v404q0 23 -20.5 32t-83.5 11v32h295v-32q-65 -2 -80.5 -9.5t-15.5 -33.5v-388q0 -84 50.5 -126t135.5 -42q77 0 127 50q28 28 39.5 58t11.5 84v282q0 68 -22.5 92.5t-93.5 35.5v29h254v-29q-65 -12 -81.5 -35t-16.5 -93v-312
q0 -84 -67.5 -144.5t-181.5 -60.5zM390 751q-58 0 -93 42t-41 111h25q18 -46 42.5 -67t66.5 -21q41 0 65 20.5t42 67.5h25q-5 -69 -39.5 -111t-92.5 -42z" />
    <glyph glyph-name="ubreve" unicode="&#x16d;" horiz-adv-x="563" 
d="M216 -8q-55 0 -87 36.5t-32 102.5v255q0 23 -15 30.5t-59 9.5v31l158 5v-295q0 -64 24.5 -88.5t76.5 -24.5q51 0 105 34v298q0 23 -15.5 30.5t-58.5 9.5v31l158 5v-396q0 -19 15 -27t58 -9v-30h-155v58q-92 -66 -173 -66zM272 543q-58 0 -93 42t-41 111h25
q18 -46 42.5 -67t66.5 -21q41 0 65 20.5t42 67.5h25q-5 -69 -39.5 -111t-92.5 -42z" />
    <glyph glyph-name="Uring" unicode="&#x16e;" horiz-adv-x="733" 
d="M375 -16q-114 0 -182 53.5t-68 141.5v404q0 23 -20.5 32t-83.5 11v32h295v-32q-65 -2 -80.5 -9.5t-15.5 -33.5v-388q0 -84 50.5 -126t135.5 -42q77 0 127 50q28 28 39.5 58t11.5 84v282q0 68 -22.5 92.5t-93.5 35.5v29h254v-29q-65 -12 -81.5 -35t-16.5 -93v-312
q0 -84 -67.5 -144.5t-181.5 -60.5zM389 751q-48 0 -75.5 29.5t-27.5 72.5t27.5 72.5t75.5 29.5t75.5 -29.5t27.5 -72.5t-27.5 -72.5t-75.5 -29.5zM389 779q27 0 43 21.5t16 52.5q0 74 -59 74q-28 0 -43.5 -19t-15.5 -55q0 -31 16 -52.5t43 -21.5z" />
    <glyph glyph-name="uring" unicode="&#x16f;" horiz-adv-x="563" 
d="M216 -8q-55 0 -87 36.5t-32 102.5v255q0 23 -15 30.5t-59 9.5v31l158 5v-295q0 -64 24.5 -88.5t76.5 -24.5q51 0 105 34v298q0 23 -15.5 30.5t-58.5 9.5v31l158 5v-396q0 -19 15 -27t58 -9v-30h-155v58q-92 -66 -173 -66zM269 543q-48 0 -75.5 29.5t-27.5 72.5t27.5 72.5
t75.5 29.5t75.5 -29.5t27.5 -72.5t-27.5 -72.5t-75.5 -29.5zM269 571q27 0 43 21.5t16 52.5q0 74 -59 74q-28 0 -43.5 -19t-15.5 -55q0 -31 16 -52.5t43 -21.5z" />
    <glyph glyph-name="Uhungarumlaut" unicode="&#x170;" horiz-adv-x="733" 
d="M375 -16q-114 0 -182 53.5t-68 141.5v404q0 23 -20.5 32t-83.5 11v32h295v-32q-65 -2 -80.5 -9.5t-15.5 -33.5v-388q0 -84 50.5 -126t135.5 -42q77 0 127 50q28 28 39.5 58t11.5 84v282q0 68 -22.5 92.5t-93.5 35.5v29h254v-29q-65 -12 -81.5 -35t-16.5 -93v-312
q0 -84 -67.5 -144.5t-181.5 -60.5zM439 743l58 123q19 40 32.5 56.5t31.5 16.5q17 0 27.5 -12t10.5 -29q0 -26 -41 -69l-82 -86h-37zM289 743l58 123q19 40 32.5 56.5t31.5 16.5q17 0 27.5 -12t10.5 -29q0 -26 -41 -69l-82 -86h-37z" />
    <glyph glyph-name="uhungarumlaut" unicode="&#x171;" horiz-adv-x="563" 
d="M216 -8q-55 0 -87 36.5t-32 102.5v255q0 23 -15 30.5t-59 9.5v31l158 5v-295q0 -64 24.5 -88.5t76.5 -24.5q51 0 105 34v298q0 23 -15.5 30.5t-58.5 9.5v31l158 5v-396q0 -19 15 -27t58 -9v-30h-155v58q-92 -66 -173 -66zM314 535l58 123q19 40 32.5 56.5t31.5 16.5
q17 0 27.5 -12t10.5 -29q0 -26 -41 -69l-82 -86h-37zM164 535l58 123q19 40 32.5 56.5t31.5 16.5q17 0 27.5 -12t10.5 -29q0 -26 -41 -69l-82 -86h-37z" />
    <glyph glyph-name="Uogonek" unicode="&#x172;" horiz-adv-x="733" 
d="M380 -243q-47 0 -73.5 22.5t-26.5 59.5q0 32 20 63t63 73l9 9q-113 1 -180 54.5t-67 140.5v404q0 23 -20.5 32t-83.5 11v32h295v-32q-65 -2 -80.5 -9.5t-15.5 -33.5v-388q0 -84 50.5 -126t135.5 -42q77 0 127 50q28 28 39.5 58t11.5 84v282q0 68 -22.5 92.5t-93.5 35.5
v29h254v-29q-65 -12 -81.5 -35t-16.5 -93v-312q0 -76 -57 -134.5t-155 -68.5l-12 -15q-49 -61 -49 -114q0 -60 53 -60q28 0 59 17l15 -26q-46 -31 -98 -31z" />
    <glyph glyph-name="uogonek" unicode="&#x173;" horiz-adv-x="563" 
d="M216 -8q-55 0 -87 36.5t-32 102.5v255q0 23 -15 30.5t-59 9.5v31l158 5v-295q0 -64 24.5 -88.5t76.5 -24.5q51 0 105 34v298q0 23 -15.5 30.5t-58.5 9.5v31l158 5v-396q0 -19 15 -27t58 -9v-30h-5l-43 -32q-79 -59 -79 -115t53 -56q28 0 59 17l15 -26q-46 -31 -98 -31
q-47 0 -73.5 22.5t-26.5 61.5q0 68 116 140l31 19h-104v58q-92 -66 -173 -66z" />
    <glyph glyph-name="Wcircumflex" unicode="&#x174;" horiz-adv-x="958" 
d="M470 498l-15 48q-13 41 -33.5 58.5t-66.5 24.5v29h272v-29q-58 -4 -74 -19t-7 -44l135 -434h4l121 369q24 74 12 95.5t-83 32.5v29h242v-29q-51 -10 -77.5 -37.5t-47.5 -89.5l-172 -518h-45l-143 446l-170 -446h-45l-175 574q-10 34 -29.5 47t-75.5 24v29h275v-29
q-54 -4 -67.5 -18t-4.5 -45l126 -435h3zM360 743l121 183h29l113 -183h-31l-100 100l-101 -100h-31z" />
    <glyph glyph-name="wcircumflex" unicode="&#x175;" horiz-adv-x="732" 
d="M361 338l-11 29q-12 33 -26.5 46t-43.5 17v29h208v-29q-64 -4 -64 -33q0 -6 4 -18l98 -272h4l78 229q13 41 13 51q0 33 -59 43v29h184v-29q-37 -4 -55 -21t-31 -54l-132 -361h-42l-106 290l-118 -290h-44l-140 373q-13 35 -26.5 46.5t-48.5 16.5v29h214v-29
q-60 -4 -60 -32q0 -7 4 -19l101 -272h4zM257 535l121 183h29l113 -183h-31l-100 100l-101 -100h-31z" />
    <glyph glyph-name="Ycircumflex" unicode="&#x176;" horiz-adv-x="642" 
d="M350 325l114 194q35 58 27.5 79.5t-72.5 30.5v29h227v-29q-45 -9 -69.5 -27.5t-56.5 -72.5l-148 -245v-209q0 -23 20.5 -32t83.5 -11v-32h-303v32q63 2 83.5 11t20.5 32v198l-170 295q-17 29 -35 41t-62 20v29h283v-29q-63 -4 -79.5 -20.5t2.5 -44.5zM213 743l121 183h29
l113 -183h-31l-100 100l-101 -100h-31z" />
    <glyph glyph-name="ycircumflex" unicode="&#x177;" horiz-adv-x="496" 
d="M238 3l-159 364q-15 35 -29 47t-45 16v29h226v-29q-46 -2 -60.5 -15t-4.5 -36l115 -273l95 230q20 45 10.5 65.5t-59.5 28.5v29h184v-29q-53 -7 -81 -75l-168 -398q-36 -88 -74.5 -123t-84.5 -35q-38 0 -60.5 19.5t-22.5 48.5q0 25 14.5 42.5t39.5 17.5q22 0 37.5 -16
t15.5 -39q0 -17 -6 -29q27 0 52 32.5t60 115.5zM151 535l121 183h29l113 -183h-31l-100 100l-101 -100h-31z" />
    <glyph glyph-name="Ydieresis" unicode="&#x178;" horiz-adv-x="642" 
d="M350 325l114 194q35 58 27.5 79.5t-72.5 30.5v29h227v-29q-45 -9 -69.5 -27.5t-56.5 -72.5l-148 -245v-209q0 -23 20.5 -32t83.5 -11v-32h-303v32q63 2 83.5 11t20.5 32v198l-170 295q-17 29 -35 41t-62 20v29h283v-29q-63 -4 -79.5 -20.5t2.5 -44.5zM414 751
q-24 0 -39.5 15.5t-15.5 40.5t15.5 42t39.5 17t39.5 -16t15.5 -41t-15.5 -41.5t-39.5 -16.5zM228 751q-24 0 -39.5 15.5t-15.5 40.5t15.5 42t39.5 17t39.5 -16t15.5 -41t-15.5 -41.5t-39.5 -16.5z" />
    <glyph glyph-name="Zacute" unicode="&#x179;" horiz-adv-x="610" 
d="M44 0l-2 19l407 603h-181q-64 0 -98.5 -38t-73.5 -132l-32 2l21 204h480l2 -19l-407 -603h201q21 0 38.5 4.5t30.5 9.5t26 19.5t21 24t20.5 35t18.5 39.5l21 49l32 -2l-22 -215h-503zM295 743l52 123q17 40 29.5 56.5t31.5 16.5q17 0 28.5 -12t11.5 -29q0 -27 -39 -69
l-79 -86h-35z" />
    <glyph glyph-name="zacute" unicode="&#x17a;" horiz-adv-x="462" 
d="M40 0l-2 16l284 407h-97q-61 0 -85.5 -24t-53.5 -93l-29 2l9 151h362l2 -16l-283 -407h98q65 0 93.5 27.5t56.5 96.5l29 -2l-9 -158h-375zM214 535l52 123q17 40 29.5 56.5t31.5 16.5q17 0 28.5 -12t11.5 -29q0 -27 -39 -69l-79 -86h-35z" />
    <glyph glyph-name="Zdotaccent" unicode="&#x17b;" horiz-adv-x="610" 
d="M44 0l-2 19l407 603h-181q-64 0 -98.5 -38t-73.5 -132l-32 2l21 204h480l2 -19l-407 -603h201q21 0 38.5 4.5t30.5 9.5t26 19.5t21 24t20.5 35t18.5 39.5l21 49l32 -2l-22 -215h-503zM325 751q-26 0 -41.5 16t-15.5 42t16 43.5t41 17.5t41 -16.5t16 -42.5t-16 -43
t-41 -17z" />
    <glyph glyph-name="zdotaccent" unicode="&#x17c;" horiz-adv-x="462" 
d="M40 0l-2 16l284 407h-97q-61 0 -85.5 -24t-53.5 -93l-29 2l9 151h362l2 -16l-283 -407h98q65 0 93.5 27.5t56.5 96.5l29 -2l-9 -158h-375zM246 543q-26 0 -41.5 16t-15.5 42t16 43.5t41 17.5t41 -16.5t16 -42.5t-16 -43t-41 -17z" />
    <glyph glyph-name="Zcaron" unicode="&#x17d;" horiz-adv-x="610" 
d="M44 0l-2 19l407 603h-181q-64 0 -98.5 -38t-73.5 -132l-32 2l21 204h480l2 -19l-407 -603h201q21 0 38.5 4.5t30.5 9.5t26 19.5t21 24t20.5 35t18.5 39.5l21 49l32 -2l-22 -215h-503zM288 743l-113 183h31l100 -100l101 100h31l-121 -183h-29z" />
    <glyph glyph-name="zcaron" unicode="&#x17e;" horiz-adv-x="462" 
d="M40 0l-2 16l284 407h-97q-61 0 -85.5 -24t-53.5 -93l-29 2l9 151h362l2 -16l-283 -407h98q65 0 93.5 27.5t56.5 96.5l29 -2l-9 -158h-375zM214 535l-113 183h31l100 -100l101 100h31l-121 -183h-29z" />
    <glyph glyph-name="Aringacute" unicode="&#x1fa;" horiz-adv-x="652" 
d="M187 247l-38 -98q-28 -70 -19 -90.5t74 -32.5v-26h-217v26q48 11 72 41.5t52 100.5l198 491q-35 8 -55.5 35t-20.5 63q0 42 28 71t73 29t73 -29t28 -71q0 -36 -20 -62.5t-55 -34.5l199 -549q14 -40 36.5 -57.5t75.5 -24.5v-29h-295v32q65 4 81.5 19t2.5 55l-49 141h-224z
M398 283l-91 265h-4l-102 -265h197zM334 682q27 0 43 20.5t16 54.5q0 75 -59 75t-59 -75q0 -34 16 -54.5t43 -20.5zM307 893l52 123q17 40 29.5 56.5t31.5 16.5q17 0 28.5 -12t11.5 -29q0 -27 -39 -69l-79 -86h-35z" />
    <glyph glyph-name="aringacute" unicode="&#x1fb;" horiz-adv-x="480" 
d="M166 -6q-59 0 -90 30.5t-31 74.5q0 71 61 104q33 18 82.5 33t85.5 24t42 13v29q0 73 -21.5 102t-71.5 29q-42 0 -68 -26q12 -26 12 -47q0 -23 -14 -38.5t-39 -15.5q-23 0 -36.5 15.5t-13.5 38.5q0 43 50.5 73.5t122.5 30.5q163 0 163 -143v-229q0 -38 14.5 -48.5
t62.5 -4.5l4 -24q-53 -19 -93 -19q-38 0 -50.5 16.5t-17.5 60.5h-4q-70 -79 -150 -79zM214 47q28 0 56 18.5t46 43.5v131q-108 -23 -142.5 -46t-34.5 -72q0 -33 19 -54t56 -21zM243 543q-48 0 -75.5 29.5t-27.5 72.5t27.5 72.5t75.5 29.5t75.5 -29.5t27.5 -72.5t-27.5 -72.5
t-75.5 -29.5zM243 571q27 0 43 21.5t16 52.5q0 74 -59 74q-28 0 -43.5 -19t-15.5 -55q0 -31 16 -52.5t43 -21.5zM209 789l52 123q17 40 29.5 56.5t31.5 16.5q17 0 28.5 -12t11.5 -29q0 -27 -39 -69l-79 -86h-35z" />
    <glyph glyph-name="AEacute" unicode="&#x1fc;" horiz-adv-x="965" 
d="M230 257l-67 -108q-37 -60 -37 -80q0 -29 58 -40v-29h-217v29q49 11 83.5 43t74.5 96l249 393q12 18 12 31q-2 27 -94 39v27h594l3 -184l-31 -1q-28 91 -56.5 119.5t-108.5 28.5h-142v-261h59q60 0 84.5 18.5t42.5 92.5h27v-260h-27q-18 74 -42.5 92.5t-84.5 18.5h-59
v-284h142q65 0 103.5 19.5t57.5 52t38 96.5l31 -1l-5 -205h-566v32q63 2 83.5 11t20.5 32v182h-226zM456 293v304h-15l-189 -304h204zM564 743l52 123q17 40 29.5 56.5t31.5 16.5q17 0 28.5 -12t11.5 -29q0 -27 -39 -69l-79 -86h-35z" />
    <glyph glyph-name="aeacute" unicode="&#x1fd;" horiz-adv-x="758" 
d="M530 467q93 0 141.5 -67.5t41.5 -156.5h-300v-6v-2q0 -86 37.5 -138t108.5 -52q72 0 141 85l20 -19q-33 -55 -77 -87t-113 -32q-123 0 -174 96h-13q-84 -94 -177 -94q-59 0 -90 30.5t-31 74.5q0 71 61 104q33 18 84 33t89.5 24t43.5 13v29q0 131 -100 131q-42 0 -68 -26
q12 -26 12 -47q0 -23 -14 -38.5t-39 -15.5q-23 0 -36.5 15.5t-13.5 38.5q0 43 50.5 73.5t122.5 30.5q109 0 145 -66q58 69 148 69zM523 436q-99 0 -109 -163l208 5q8 66 -19 112t-80 46zM214 47q29 0 60.5 18.5t48.5 43.5v131q-110 -24 -147 -46.5t-37 -71.5q0 -33 19 -54
t56 -21zM351 535l52 123q17 40 29.5 56.5t31.5 16.5q17 0 28.5 -12t11.5 -29q0 -27 -39 -69l-79 -86h-35z" />
    <glyph glyph-name="Oslashacute" unicode="&#x1fe;" horiz-adv-x="720" 
d="M360 -16q134 0 224 95.5t90 251.5q0 155 -90 250l87 111h-49l-67 -84q-83 66 -195 66q-134 0 -224 -96t-90 -251q0 -156 90 -251l-87 -110h49l66 84q81 -66 196 -66zM364 20q-103 0 -158 83l327 414q33 -74 33 -188q0 -156 -54 -232.5t-148 -76.5zM356 638q101 0 157 -84
l-326 -414q-33 75 -33 189q0 155 54 232t148 77zM331 743l52 123q17 40 29.5 56.5t31.5 16.5q17 0 28.5 -12t11.5 -29q0 -27 -39 -69l-79 -86h-35z" />
    <glyph glyph-name="oslashacute" unicode="&#x1ff;" horiz-adv-x="529" 
d="M87 -26h-46l62 79q-62 65 -62 175q0 106 61 172.5t163 66.5q78 0 133 -38l44 56h46l-63 -80q63 -63 63 -173q0 -106 -61 -173t-162 -67q-81 0 -134 38zM134 230q0 -68 17 -116l209 267q-36 55 -100 55q-126 0 -126 -206zM269 23q60 0 93 52t33 155q0 67 -17 115
l-209 -267q36 -55 100 -55zM237 535l52 123q17 40 29.5 56.5t31.5 16.5q17 0 28.5 -12t11.5 -29q0 -27 -39 -69l-79 -86h-35z" />
    <glyph glyph-name="Scommaaccent" unicode="&#x218;" horiz-adv-x="533" 
d="M47 -20v214h31q78 -174 201 -174q69 0 105 38.5t36 88.5q0 52 -37.5 80.5t-136.5 63.5q-91 32 -121 52q-66 45 -66 130q0 92 63 146.5t159 54.5q67 0 128 -23l32 28h22v-192h-31q-25 72 -67.5 111.5t-99.5 39.5q-53 0 -87 -32.5t-34 -89.5q0 -50 36.5 -75t128.5 -56
q31 -11 46 -16.5t41.5 -17.5t40 -24.5t29 -30.5t22 -42.5t6.5 -54.5q0 -86 -55 -150.5t-169 -64.5q-82 0 -149 28l-50 -32h-24zM212 -312l-18 23q88 54 93 110l-7 2q-11 -11 -28 -11q-20 0 -33 14.5t-13 36.5q0 24 17 40.5t44 16.5q28 0 45 -21t17 -56q0 -90 -117 -155z" />
    <glyph glyph-name="scommaaccent" unicode="&#x219;" horiz-adv-x="420" 
d="M51 -8v153h29q74 -122 150 -122q38 0 60 22.5t22 53.5q0 35 -24.5 54t-94.5 40q-75 22 -106 51t-31 77q0 66 43.5 106t117.5 40q54 0 95 -26l18 26h23v-136h-29q-54 105 -119 105q-36 0 -58 -21t-22 -54q0 -30 26 -48.5t88 -36.5q72 -21 104 -50.5t32 -79.5
q0 -66 -40.5 -110t-114.5 -44q-27 0 -61 9.5t-55 22.5l-30 -32h-23zM154 -312l-18 23q88 54 93 110l-7 2q-11 -11 -28 -11q-20 0 -33 14.5t-13 36.5q0 24 17 40.5t44 16.5q28 0 45 -21t17 -56q0 -90 -117 -155z" />
    <glyph glyph-name="schwa" unicode="&#x259;" horiz-adv-x="483" 
d="M228 467q102 0 158 -65t56 -168q0 -105 -59 -173.5t-155 -68.5q-93 0 -141.5 67.5t-41.5 156.5h307v6v2q0 85 -40.5 137.5t-112.5 52.5t-141 -85l-20 19q33 55 77 87t113 32zM235 23q104 0 115 162l-214 -4q-8 -66 19 -112t80 -46z" />
    <glyph glyph-name="circumflex" unicode="&#x2c6;" horiz-adv-x="299" 
d="M18 535l121 183h29l113 -183h-31l-100 100l-101 -100h-31z" />
    <glyph glyph-name="caron" unicode="&#x2c7;" horiz-adv-x="299" 
d="M132 535l-113 183h31l100 -100l101 100h31l-121 -183h-29z" />
    <glyph glyph-name="breve" unicode="&#x2d8;" horiz-adv-x="336" 
d="M169 543q-58 0 -93 42t-41 111h25q18 -46 42.5 -67t66.5 -21q41 0 65 20.5t42 67.5h25q-5 -69 -39.5 -111t-92.5 -42z" />
    <glyph glyph-name="dotaccent" unicode="&#x2d9;" horiz-adv-x="192" 
d="M96 543q-26 0 -41.5 16t-15.5 42t16 43.5t41 17.5t41 -16.5t16 -42.5t-16 -43t-41 -17z" />
    <glyph glyph-name="ring" unicode="&#x2da;" horiz-adv-x="258" 
d="M129 543q-48 0 -75.5 29.5t-27.5 72.5t27.5 72.5t75.5 29.5t75.5 -29.5t27.5 -72.5t-27.5 -72.5t-75.5 -29.5zM129 571q27 0 43 21.5t16 52.5q0 74 -59 74q-28 0 -43.5 -19t-15.5 -55q0 -31 16 -52.5t43 -21.5z" />
    <glyph glyph-name="ogonek" unicode="&#x2db;" horiz-adv-x="208" 
d="M102 -243q-47 0 -73.5 22.5t-26.5 59.5q0 32 20 63t63 73l39 39h33l-35 -43q-49 -61 -49 -114q0 -60 53 -60q28 0 59 17l15 -26q-46 -31 -98 -31z" />
    <glyph glyph-name="tilde" unicode="&#x2dc;" horiz-adv-x="331" 
d="M16 535q11 64 31 92t64 28q27 0 72.5 -24t59.5 -24q26 0 42 57h30q-11 -63 -32 -91.5t-63 -28.5q-27 0 -72.5 24t-59.5 24q-27 0 -42 -57h-30z" />
    <glyph glyph-name="hungarumlaut" unicode="&#x2dd;" horiz-adv-x="288" 
d="M137 535l58 123q19 40 32.5 56.5t31.5 16.5q17 0 27.5 -12t10.5 -29q0 -26 -41 -69l-82 -86h-37zM-13 535l58 123q19 40 32.5 56.5t31.5 16.5q17 0 27.5 -12t10.5 -29q0 -26 -41 -69l-82 -86h-37z" />
    <glyph glyph-name="commaaccent" unicode="&#x326;" horiz-adv-x="235" 
d="M66 -312l-18 23q88 54 93 110l-7 2q-11 -11 -28 -11q-20 0 -33 14.5t-13 36.5q0 24 17 40.5t44 16.5q28 0 45 -21t17 -56q0 -90 -117 -155z" />
    <glyph glyph-name="Wgrave" unicode="&#x1e80;" horiz-adv-x="958" 
d="M470 498l-15 48q-13 41 -33.5 58.5t-66.5 24.5v29h272v-29q-58 -4 -74 -19t-7 -44l135 -434h4l121 369q24 74 12 95.5t-83 32.5v29h242v-29q-51 -10 -77.5 -37.5t-47.5 -89.5l-172 -518h-45l-143 446l-170 -446h-45l-175 574q-10 34 -29.5 47t-75.5 24v29h275v-29
q-54 -4 -67.5 -18t-4.5 -45l126 -435h3zM472 743l-79 86q-39 42 -39 69q0 17 11.5 29t28.5 12q19 0 31.5 -16.5t29.5 -56.5l52 -123h-35z" />
    <glyph glyph-name="wgrave" unicode="&#x1e81;" horiz-adv-x="732" 
d="M361 338l-11 29q-12 33 -26.5 46t-43.5 17v29h208v-29q-64 -4 -64 -33q0 -6 4 -18l98 -272h4l78 229q13 41 13 51q0 33 -59 43v29h184v-29q-37 -4 -55 -21t-31 -54l-132 -361h-42l-106 290l-118 -290h-44l-140 373q-13 35 -26.5 46.5t-48.5 16.5v29h214v-29
q-60 -4 -60 -32q0 -7 4 -19l101 -272h4zM367 535l-79 86q-39 42 -39 69q0 17 11.5 29t28.5 12q19 0 31.5 -16.5t29.5 -56.5l52 -123h-35z" />
    <glyph glyph-name="Wacute" unicode="&#x1e82;" horiz-adv-x="958" 
d="M470 498l-15 48q-13 41 -33.5 58.5t-66.5 24.5v29h272v-29q-58 -4 -74 -19t-7 -44l135 -434h4l121 369q24 74 12 95.5t-83 32.5v29h242v-29q-51 -10 -77.5 -37.5t-47.5 -89.5l-172 -518h-45l-143 446l-170 -446h-45l-175 574q-10 34 -29.5 47t-75.5 24v29h275v-29
q-54 -4 -67.5 -18t-4.5 -45l126 -435h3zM467 743l52 123q17 40 29.5 56.5t31.5 16.5q17 0 28.5 -12t11.5 -29q0 -27 -39 -69l-79 -86h-35z" />
    <glyph glyph-name="wacute" unicode="&#x1e83;" horiz-adv-x="732" 
d="M361 338l-11 29q-12 33 -26.5 46t-43.5 17v29h208v-29q-64 -4 -64 -33q0 -6 4 -18l98 -272h4l78 229q13 41 13 51q0 33 -59 43v29h184v-29q-37 -4 -55 -21t-31 -54l-132 -361h-42l-106 290l-118 -290h-44l-140 373q-13 35 -26.5 46.5t-48.5 16.5v29h214v-29
q-60 -4 -60 -32q0 -7 4 -19l101 -272h4zM361 535l52 123q17 40 29.5 56.5t31.5 16.5q17 0 28.5 -12t11.5 -29q0 -27 -39 -69l-79 -86h-35z" />
    <glyph glyph-name="Wdieresis" unicode="&#x1e84;" horiz-adv-x="958" 
d="M470 498l-15 48q-13 41 -33.5 58.5t-66.5 24.5v29h272v-29q-58 -4 -74 -19t-7 -44l135 -434h4l121 369q24 74 12 95.5t-83 32.5v29h242v-29q-51 -10 -77.5 -37.5t-47.5 -89.5l-172 -518h-45l-143 446l-170 -446h-45l-175 574q-10 34 -29.5 47t-75.5 24v29h275v-29
q-54 -4 -67.5 -18t-4.5 -45l126 -435h3zM587 751q-24 0 -39.5 15.5t-15.5 40.5t15.5 42t39.5 17t39.5 -16t15.5 -41t-15.5 -41.5t-39.5 -16.5zM401 751q-24 0 -39.5 15.5t-15.5 40.5t15.5 42t39.5 17t39.5 -16t15.5 -41t-15.5 -41.5t-39.5 -16.5z" />
    <glyph glyph-name="wdieresis" unicode="&#x1e85;" horiz-adv-x="732" 
d="M361 338l-11 29q-12 33 -26.5 46t-43.5 17v29h208v-29q-64 -4 -64 -33q0 -6 4 -18l98 -272h4l78 229q13 41 13 51q0 33 -59 43v29h184v-29q-37 -4 -55 -21t-31 -54l-132 -361h-42l-106 290l-118 -290h-44l-140 373q-13 35 -26.5 46.5t-48.5 16.5v29h214v-29
q-60 -4 -60 -32q0 -7 4 -19l101 -272h4zM480 543q-24 0 -39.5 15.5t-15.5 40.5t15.5 42t39.5 17t39.5 -16t15.5 -41t-15.5 -41.5t-39.5 -16.5zM294 543q-24 0 -39.5 15.5t-15.5 40.5t15.5 42t39.5 17t39.5 -16t15.5 -41t-15.5 -41.5t-39.5 -16.5z" />
    <glyph glyph-name="Ygrave" unicode="&#x1ef2;" horiz-adv-x="642" 
d="M350 325l114 194q35 58 27.5 79.5t-72.5 30.5v29h227v-29q-45 -9 -69.5 -27.5t-56.5 -72.5l-148 -245v-209q0 -23 20.5 -32t83.5 -11v-32h-303v32q63 2 83.5 11t20.5 32v198l-170 295q-17 29 -35 41t-62 20v29h283v-29q-63 -4 -79.5 -20.5t2.5 -44.5zM317 743l-79 86
q-39 42 -39 69q0 17 11.5 29t28.5 12q19 0 31.5 -16.5t29.5 -56.5l52 -123h-35z" />
    <glyph glyph-name="ygrave" unicode="&#x1ef3;" horiz-adv-x="496" 
d="M238 3l-159 364q-15 35 -29 47t-45 16v29h226v-29q-46 -2 -60.5 -15t-4.5 -36l115 -273l95 230q20 45 10.5 65.5t-59.5 28.5v29h184v-29q-53 -7 -81 -75l-168 -398q-36 -88 -74.5 -123t-84.5 -35q-38 0 -60.5 19.5t-22.5 48.5q0 25 14.5 42.5t39.5 17.5q22 0 37.5 -16
t15.5 -39q0 -17 -6 -29q27 0 52 32.5t60 115.5zM250 535l-79 86q-39 42 -39 69q0 17 11.5 29t28.5 12q19 0 31.5 -16.5t29.5 -56.5l52 -123h-35z" />
    <glyph glyph-name="enspace" unicode="&#x2002;" horiz-adv-x="500" 
 />
    <glyph glyph-name="emspace" unicode="&#x2003;" horiz-adv-x="1000" 
 />
    <glyph glyph-name="threeperemspace" unicode="&#x2004;" horiz-adv-x="333" 
 />
    <glyph glyph-name="fourperemspace" unicode="&#x2005;" horiz-adv-x="250" 
 />
    <glyph glyph-name="thinspace" unicode="&#x2009;" horiz-adv-x="133" 
 />
    <glyph glyph-name="hairspace" unicode="&#x200a;" horiz-adv-x="75" 
 />
    <glyph glyph-name="endash" unicode="&#x2013;" horiz-adv-x="540" 
d="M55 221v51h430v-51h-430z" />
    <glyph glyph-name="emdash" unicode="&#x2014;" horiz-adv-x="790" 
d="M55 221v51h680v-51h-680z" />
    <glyph glyph-name="quoteleft" unicode="&#x2018;" horiz-adv-x="231" 
d="M120 428q-32 0 -51 21.5t-19 56.5q0 110 151 175l16 -26q-112 -50 -122 -122l6 -3q16 10 29 10q20 0 34 -14.5t14 -36.5q0 -25 -16.5 -43t-41.5 -18z" />
    <glyph glyph-name="quoteright" unicode="&#x2019;" horiz-adv-x="231" 
d="M34 421l-16 26q112 50 122 122l-6 3q-16 -10 -29 -10q-20 0 -34 14.5t-14 36.5q0 25 16.5 43t41.5 18q32 0 51 -21.5t19 -56.5q0 -110 -151 -175z" />
    <glyph glyph-name="quotesinglbase" unicode="&#x201a;" horiz-adv-x="231" 
d="M34 -149l-16 26q112 50 122 122l-6 3q-16 -10 -29 -10q-20 0 -34 14.5t-14 36.5q0 25 16.5 43t41.5 18q32 0 51 -21.5t19 -56.5q0 -110 -151 -175z" />
    <glyph glyph-name="quotedblleft" unicode="&#x201c;" horiz-adv-x="420" 
d="M309 428q-32 0 -51 21.5t-19 56.5q0 110 151 175l16 -26q-112 -50 -122 -122l6 -3q16 10 29 10q20 0 34 -14.5t14 -36.5q0 -25 -16.5 -43t-41.5 -18zM120 428q-32 0 -51 21.5t-19 56.5q0 110 151 175l16 -26q-112 -50 -122 -122l6 -3q16 10 29 10q20 0 34 -14.5t14 -36.5
q0 -25 -16.5 -43t-41.5 -18z" />
    <glyph glyph-name="quotedblright" unicode="&#x201d;" horiz-adv-x="420" 
d="M223 421l-16 26q112 50 122 122l-6 3q-16 -10 -29 -10q-20 0 -34 14.5t-14 36.5q0 25 16.5 43t41.5 18q32 0 51 -21.5t19 -56.5q0 -110 -151 -175zM34 421l-16 26q112 50 122 122l-6 3q-16 -10 -29 -10q-20 0 -34 14.5t-14 36.5q0 25 16.5 43t41.5 18q32 0 51 -21.5
t19 -56.5q0 -110 -151 -175z" />
    <glyph glyph-name="quotedblbase" unicode="&#x201e;" horiz-adv-x="420" 
d="M223 -149l-16 26q112 50 122 122l-6 3q-16 -10 -29 -10q-20 0 -34 14.5t-14 36.5q0 25 16.5 43t41.5 18q32 0 51 -21.5t19 -56.5q0 -110 -151 -175zM34 -149l-16 26q112 50 122 122l-6 3q-16 -10 -29 -10q-20 0 -34 14.5t-14 36.5q0 25 16.5 43t41.5 18q32 0 51 -21.5
t19 -56.5q0 -110 -151 -175z" />
    <glyph glyph-name="dagger" unicode="&#x2020;" horiz-adv-x="518" 
d="M248 -104l-40 400l30 67q7 15 7 29q0 41 -54 41q-22 0 -56 -16.5t-58 -16.5q-19 0 -33.5 9.5t-14.5 28.5q0 23 19.5 35t51.5 12q52 0 146 -48l4 5l-17 90q-18 90 -18 109q0 28 11.5 45t32.5 17t32.5 -17t11.5 -45q0 -19 -18 -109l-17 -90l4 -5q94 48 146 48
q32 0 51.5 -12t19.5 -35q0 -19 -14.5 -28.5t-33.5 -9.5q-24 0 -58 16.5t-56 16.5q-54 0 -54 -41q0 -14 7 -29l30 -67l-40 -400h-22z" />
    <glyph glyph-name="daggerdbl" unicode="&#x2021;" horiz-adv-x="518" 
d="M259 -103q-21 0 -32.5 17t-11.5 45q0 30 18 109l17 76l-4 5q-83 -46 -143 -46q-33 0 -53.5 12.5t-20.5 34.5q0 19 14.5 28.5t33.5 9.5q24 0 58 -16.5t56 -16.5q54 0 54 36q0 19 -8 40l-26 68l26 70q8 26 8 40q0 36 -54 36q-22 0 -56 -16.5t-58 -16.5q-19 0 -33.5 9.5
t-14.5 28.5q0 22 20.5 34.5t53.5 12.5q60 0 143 -46l4 5l-17 76q-18 79 -18 109q0 28 11.5 45t32.5 17t32.5 -17t11.5 -45t-18 -109l-17 -76l4 -5q83 46 143 46q33 0 53.5 -12.5t20.5 -34.5q0 -19 -14.5 -28.5t-33.5 -9.5q-24 0 -58 16.5t-56 16.5q-54 0 -54 -36
q0 -14 8 -40l26 -70l-26 -68q-8 -21 -8 -40q0 -36 54 -36q22 0 56 16.5t58 16.5q19 0 33.5 -9.5t14.5 -28.5q0 -22 -20.5 -34.5t-53.5 -12.5q-60 0 -143 46l-4 -5l17 -76q18 -81 18 -109t-11.5 -45t-32.5 -17z" />
    <glyph glyph-name="bullet" unicode="&#x2022;" horiz-adv-x="490" 
d="M244 184q-56 0 -95 39.5t-39 95.5q0 55 39 94.5t95 39.5t95.5 -39t39.5 -95t-39.5 -95.5t-95.5 -39.5z" />
    <glyph glyph-name="ellipsis" unicode="&#x2026;" horiz-adv-x="673" 
d="M558 -16q-25 0 -43 17.5t-18 42.5t18 42.5t43 17.5t42.5 -17.5t17.5 -42.5t-17.5 -42.5t-42.5 -17.5zM337 -16q-25 0 -43 17.5t-18 42.5t18 42.5t43 17.5t42.5 -17.5t17.5 -42.5t-17.5 -42.5t-42.5 -17.5zM116 -16q-25 0 -43 17.5t-18 42.5t18 42.5t43 17.5t42.5 -17.5
t17.5 -42.5t-17.5 -42.5t-42.5 -17.5z" />
    <glyph glyph-name="guilsinglleft" unicode="&#x2039;" horiz-adv-x="300" 
d="M229 30l-165 160q-21 21 -21 34t21 34l165 160l23 -16l-119 -178l119 -179z" />
    <glyph glyph-name="guilsinglright" unicode="&#x203a;" horiz-adv-x="300" 
d="M71 30l-23 15l119 179l-119 178l23 16l165 -160q21 -21 21 -34t-21 -34z" />
    <glyph glyph-name="fraction" unicode="&#x2044;" horiz-adv-x="540" 
d="M-3 -82l267 387l229 334h49l-231 -334l-265 -387h-49z" />
    <glyph glyph-name="Euro" unicode="&#x20ac;" horiz-adv-x="633" 
d="M412 231h-193q16 -88 65 -140.5t127 -52.5q86 0 150 101l33 -21q-40 -63 -88.5 -98t-122.5 -35q-116 0 -181.5 68t-82.5 178h-90v38h86q-1 12 -1 36q0 23 3 45h-88v38h94q24 104 98.5 172t179.5 68q83 0 136 -38t53 -90q0 -28 -17 -48t-43 -20q-29 0 -46.5 17t-17.5 48
q0 15 10 32.5t23 24.5q-39 39 -101 39q-67 0 -116.5 -51.5t-63.5 -153.5h194v-38h-198q-1 -13 -1 -41q0 -27 1 -40h198v-38z" />
    <glyph glyph-name="published" unicode="&#x2117;" horiz-adv-x="787" 
d="M393 -32q-153 0 -257 104t-104 258q0 152 104.5 256t256.5 104q153 0 257.5 -104t104.5 -256q0 -154 -104.5 -258t-257.5 -104zM393 -2q139 0 233 95.5t94 236.5q0 139 -94 234.5t-233 95.5q-138 0 -232 -95.5t-94 -234.5q0 -140 94 -236t232 -96zM245 148v28
q36 1 47.5 5.5t11.5 18.5v265q0 14 -11.5 18.5t-47.5 5.5v28h161q79 0 115.5 -28.5t36.5 -75.5q0 -45 -36 -77.5t-114 -32.5h-41v-103q0 -14 10.5 -18.5t47.5 -5.5v-28h-180zM367 333h48q75 0 75 80q0 74 -75 74h-48v-154z" />
    <glyph glyph-name="servicemark" unicode="&#x2120;" horiz-adv-x="775" 
d="M46 465h24q37 -86 99 -86q30 0 44.5 14.5t14.5 33.5q0 22 -18.5 35.5t-63.5 26.5q-46 13 -71.5 33t-25.5 55q0 37 30.5 62t76.5 25q38 0 72 -17l15 19h17v-105h-23q-18 42 -38 60t-49 18q-23 0 -37 -12t-14 -30q0 -20 17 -31t62 -26q48 -16 72.5 -34.5t24.5 -55.5
q0 -40 -28.5 -68t-84.5 -28q-46 0 -80 16l-18 -18h-18v113zM316 361v22q26 5 35.5 16t9.5 40v165q0 29 -45 30v24h134l73 -218h9l73 218h130v-24q-45 -1 -45 -23v-202q0 -21 45 -24v-24h-140v24q24 1 31 6.5t7 17.5v202h-14l-86 -250h-37l-88 250h-17v-172q0 -29 8.5 -40
t34.5 -16v-22h-118z" />
    <glyph glyph-name="trademark" unicode="&#x2122;" horiz-adv-x="831" 
d="M371 361v22q26 5 35.5 16t9.5 40v165q0 29 -45 30v24h134l73 -218h9l73 218h130v-24q-45 -1 -45 -23v-202q0 -21 45 -24v-24h-140v24q24 1 31 6.5t7 17.5v202h-14l-86 -250h-37l-88 250h-17v-172q0 -29 8.5 -40t34.5 -16v-22h-118zM105 361v24q55 3 55 24v224h-13
q-32 0 -50 -20t-33 -63l-20 1l5 107h278l6 -107l-21 -1q-12 41 -30.5 62t-52.5 21h-13v-224q0 -21 55 -24v-24h-166z" />
    <glyph glyph-name="minus" unicode="&#x2212;" horiz-adv-x="509" 
d="M51 282v49h407v-49h-407z" />
    <glyph glyph-name="a.sc" 
d="M387 91l-31 86h-199l-21 -53q-21 -52 -13.5 -70t58.5 -25v-29h-180v29q36 8 55.5 30t42.5 79l152 379h72l159 -423q11 -30 29 -44.5t60 -20.5v-29h-252v29q52 5 65.5 18.5t2.5 43.5zM170 211h173l-81 223h-6z" />
    <glyph glyph-name="b.sc" horiz-adv-x="544" 
d="M41 31q46 1 63 9t17 28v373q0 19 -17 27.5t-63 9.5v31h217q225 0 225 -123q0 -86 -133 -115v-2q74 -9 111 -43.5t37 -80.5q0 -67 -57.5 -106t-175.5 -39h-224v31zM261 285q129 0 129 96q0 47 -31.5 70.5t-101.5 23.5h-45v-190h49zM265 34q138 0 138 109q0 108 -142 108
h-49v-217h53z" />
    <glyph glyph-name="c.sc" horiz-adv-x="564" 
d="M303 -12q-117 0 -186.5 71.5t-69.5 189.5q0 117 76 194.5t189 77.5q73 0 133 -34l21 33h31v-201h-38q-24 84 -60 126.5t-95 42.5q-66 0 -111 -62t-45 -171q0 -105 53 -162t127 -57q106 0 162 115l29 -14q-28 -65 -81.5 -107t-134.5 -42z" />
    <glyph glyph-name="d.sc" horiz-adv-x="614" 
d="M121 68v373q0 19 -17 27.5t-63 9.5v31h229q143 0 219.5 -65.5t76.5 -178.5q0 -115 -73 -190t-215 -75h-237v31q46 1 63 9t17 28zM465 259q0 112 -50 164t-153 52h-50v-441h57q111 0 153.5 54t42.5 171z" />
    <glyph glyph-name="e.sc" horiz-adv-x="552" 
d="M41 0v31q46 1 63 9t17 28v373q0 19 -17 27.5t-63 9.5v31h443l3 -156l-35 -1q-21 75 -42.5 99t-81.5 24h-116v-196h36q43 0 62 14t33 68h29v-198h-29q-14 55 -33 68.5t-62 13.5h-36v-210h105q71 0 100.5 29t52.5 105h32l-4 -169h-457z" />
    <glyph glyph-name="f.sc" horiz-adv-x="512" 
d="M41 0v31q46 1 63 9t17 28v373q0 19 -17 27.5t-63 9.5v31h432l4 -162l-34 -1q-20 74 -47.5 101.5t-88.5 27.5h-95v-202h42q41 0 58 14t33 70h25v-204h-25q-15 57 -32.5 71.5t-58.5 14.5h-42v-171q0 -21 16 -28.5t69 -8.5v-31h-256z" />
    <glyph glyph-name="g.sc" horiz-adv-x="591" 
d="M327 -12q-121 0 -200 69.5t-79 195.5q0 118 78.5 193t190.5 75q80 0 134 -30l19 31h31v-164h-40q-46 131 -152 131q-66 0 -113 -60t-47 -174q0 -115 51.5 -175t127.5 -60q53 0 89 22v135q0 18 -19 27t-68 11v30h229v-30q-34 -2 -43.5 -9.5t-9.5 -28.5v-149
q-82 -40 -179 -40z" />
    <glyph glyph-name="h.sc" horiz-adv-x="659" 
d="M41 0v31q46 1 63 9t17 28v373q0 19 -17 27.5t-63 9.5v31h247v-31q-46 -1 -61 -9t-15 -28v-160h235v160q0 20 -15 28t-61 9v31h247v-31q-46 -1 -63 -9.5t-17 -27.5v-373q0 -20 17 -28t63 -9v-31h-247v31q46 1 61 9t15 28v179h-235v-179q0 -20 15 -28t61 -9v-31h-247z" />
    <glyph glyph-name="i.sc" horiz-adv-x="349" 
d="M49 0v31q46 1 63 9t17 28v373q0 19 -17 27.5t-63 9.5v31h251v-31q-46 -1 -63 -9.5t-17 -27.5v-373q0 -20 17 -28t63 -9v-31h-251z" />
    <glyph glyph-name="j.sc" horiz-adv-x="446" 
d="M106 57q6 -12 23 -20.5t37 -8.5q89 0 89 133v280q0 20 -17 28t-66 9v31h249v-31q-43 -1 -59 -9.5t-16 -27.5v-269q0 -84 -44.5 -134t-126.5 -50q-60 0 -101 33.5t-41 83.5q0 27 16.5 45t41.5 18q23 0 38 -15.5t15 -37.5q0 -40 -38 -58z" />
    <glyph glyph-name="k.sc" horiz-adv-x="611" 
d="M419 396l-93 -94l162 -209q27 -35 46 -47.5t53 -16.5v-29h-238v29q47 4 54 15t-16 39l-120 161l-55 -56v-120q0 -20 13 -28t50 -9v-31h-234v31q46 1 63 9t17 28v373q0 19 -17 27.5t-63 9.5v31h245v-31q-45 -1 -59.5 -9t-14.5 -28v-207l163 170q37 38 32.5 55t-51.5 21v29
h215v-29q-47 -4 -75.5 -20t-76.5 -64z" />
    <glyph glyph-name="l.sc" horiz-adv-x="506" 
d="M212 35h62q74 0 106.5 32t57.5 114l30 -2l-4 -179h-423v31q46 1 63 9t17 28v373q0 19 -17 27.5t-63 9.5v31h247v-31q-46 -1 -61 -9t-15 -28v-406z" />
    <glyph glyph-name="m.sc" horiz-adv-x="774" 
d="M390 121l140 388h203v-31q-47 -1 -64 -9.5t-17 -27.5v-373q0 -19 17 -27.5t64 -9.5v-31h-241v31q41 1 55 9t14 28v384h-7l-169 -452h-46l-168 452h-6v-316q0 -57 13.5 -77.5t65.5 -29.5v-29h-202v29q52 8 67.5 29.5t15.5 77.5v289q0 24 -18 38t-65 15v31h205l137 -388h6z
" />
    <glyph glyph-name="n.sc" horiz-adv-x="644" 
d="M490 -11l-320 427h-2v-281q0 -58 16.5 -78.5t82.5 -29.5v-27h-225v27q52 8 67.5 30t15.5 78v281q0 27 -20 44t-63 18v31h171l288 -383h2v248q0 56 -19.5 78.5t-81.5 29.5v27h221v-27q-51 -8 -64.5 -29t-13.5 -79v-385h-55z" />
    <glyph glyph-name="o.sc" horiz-adv-x="608" 
d="M304 -12q-109 0 -182.5 73t-73.5 192q0 118 75 193t181 75q109 0 182.5 -73.5t73.5 -191.5t-75 -193t-181 -75zM308 20q70 0 110.5 58.5t40.5 176.5q0 116 -43 175t-115 59q-70 0 -111 -58.5t-41 -175.5t43.5 -176t115.5 -59z" />
    <glyph glyph-name="p.sc" horiz-adv-x="512" 
d="M41 0v31q46 1 63 9t17 28v373q0 19 -17 27.5t-63 9.5v31h222q114 0 167 -39.5t53 -106.5t-55.5 -112t-168.5 -45h-47v-138q0 -21 16.5 -28.5t70.5 -8.5v-31h-258zM212 239h49q71 0 98 30.5t27 91.5q0 114 -123 114h-51v-236z" />
    <glyph glyph-name="q.sc" horiz-adv-x="608" 
d="M459 255q0 116 -43 175t-115 59q-70 0 -111 -58.5t-41 -175.5t43.5 -176t115.5 -59q70 0 110.5 58.5t40.5 176.5zM577 -71q0 -39 -33 -64.5t-87 -25.5q-35 0 -64.5 16.5t-47 36t-40.5 36t-45 16.5q-39 0 -102 -57l-21 22q57 69 112 84q-89 19 -145 88.5t-56 171.5
q0 118 75 193t181 75q109 0 182.5 -73.5t73.5 -191.5q0 -112 -67 -185t-166 -82q31 -12 62 -41.5t53.5 -52t39.5 -22.5q20 0 20 14q0 6 -9.5 21t-9.5 28q0 18 13 31.5t33 13.5q19 0 33.5 -16t14.5 -36z" />
    <glyph glyph-name="r.sc" horiz-adv-x="565" 
d="M212 234v-166q0 -20 16.5 -28t61.5 -9v-31h-249v31q46 1 63 9t17 28v373q0 19 -17 27.5t-63 9.5v31h227q112 0 164 -36t52 -90q0 -104 -142 -129v-3q70 -5 95 -29.5t33 -72.5l11 -66q5 -32 20 -42.5t58 -13.5v-31q-7 0 -22 -0.5t-18 -0.5q-80 0 -106 19.5t-30 72.5l-4 56
q-4 54 -31.5 72.5t-91.5 18.5h-44zM212 267h49q72 0 99.5 27.5t27.5 85.5q0 50 -30.5 72.5t-101.5 22.5h-44v-208z" />
    <glyph glyph-name="s.sc" horiz-adv-x="463" 
d="M54 -14v185h38q56 -151 153 -151q54 0 79 28t25 65q0 43 -29.5 64.5t-105.5 45.5q-74 23 -115 56.5t-41 94.5t49.5 104t121.5 43q60 0 116 -29l23 32h28v-171h-38q-26 72 -58.5 104t-78.5 32q-43 0 -65 -23t-22 -57q0 -40 27.5 -59t102.5 -44q73 -24 114 -58t41 -97
q0 -68 -45.5 -115t-134.5 -47q-76 0 -128 28l-28 -31h-29z" />
    <glyph glyph-name="t.sc" horiz-adv-x="539" 
d="M138 0v31q51 1 69 9t18 28v407h-29q-49 0 -71 -29.5t-49 -112.5l-36 1l5 175h451l6 -175l-36 -1q-23 80 -46.5 111t-74.5 31h-29v-407q0 -20 18 -28t69 -9v-31h-265z" />
    <glyph glyph-name="u.sc" horiz-adv-x="615" 
d="M317 -12q-102 0 -155.5 48.5t-53.5 130.5v274q0 19 -17 27.5t-63 9.5v31h247v-31q-46 -1 -61 -9t-15 -28v-265q0 -146 143 -146q64 0 98 35q39 41 39 125v183q0 56 -17.5 78t-73.5 29v29h207v-29q-51 -8 -64 -28.5t-13 -78.5v-198q0 -85 -50 -136t-151 -51z" />
    <glyph glyph-name="v.sc" horiz-adv-x="561" 
d="M187 429l121 -335h4l106 285q22 55 12 74t-66 27v29h193v-29q-39 -8 -56 -27.5t-38 -73.5l-151 -390h-56l-164 436q-9 25 -24.5 36.5t-52.5 18.5v29h242v-29q-51 -3 -65 -15t-5 -36z" />
    <glyph glyph-name="w.sc" horiz-adv-x="774" 
d="M177 429l92 -323h3l102 267l-12 39q-10 31 -26 46.5t-51 21.5v29h228v-29q-45 -2 -58.5 -14.5t-6.5 -36.5l101 -322h3l86 271q19 55 9 74.5t-63 27.5v29h197v-29q-39 -8 -60.5 -31t-38.5 -73l-128 -388h-53l-107 324l-121 -324h-56l-134 433q-8 26 -24.5 39t-55.5 20v29
h225v-29q-39 -2 -48.5 -15t-2.5 -36z" />
    <glyph glyph-name="x.sc" horiz-adv-x="573" 
d="M345 480v29h200v-29q-37 -6 -62 -25.5t-68 -74.5l-85 -108l135 -184q20 -27 38 -39.5t54 -19.5v-29h-237v29q80 5 45 53l-96 133l-79 -105q-31 -37 -25.5 -57.5t55.5 -23.5v-29h-201v29q39 7 63.5 25.5t68.5 73.5l95 120l-128 173q-19 27 -39 40t-54 19v29h237v-29
q-79 -5 -44 -53l88 -122l70 93q30 38 24.5 58.5t-55.5 23.5z" />
    <glyph glyph-name="y.sc" horiz-adv-x="547" 
d="M351 480v29h183v-29q-31 -6 -49.5 -22t-47.5 -61l-113 -177v-152q0 -20 17 -28t63 -9v-31h-251v31q46 1 63 9t17 28v143l-133 217q-15 25 -32.5 35.5t-51.5 16.5v29h238v-29q-25 -1 -39 -5t-17.5 -11t-1.5 -15t9 -21l98 -169l82 132q28 42 22 63t-56 26z" />
    <glyph glyph-name="z.sc" horiz-adv-x="526" 
d="M47 0l-2 31l331 445h-130q-53 0 -86 -33t-62 -121l-36 2l15 185h403l3 -30l-332 -446h139q57 0 89.5 33.5t63.5 124.5l36 -3l-15 -188h-417z" />
    <glyph glyph-name="aacute.sc" 
d="M387 91l-31 86h-199l-21 -53q-21 -52 -13.5 -70t58.5 -25v-29h-180v29q36 8 55.5 30t42.5 79l152 379h72l159 -423q11 -30 29 -44.5t60 -20.5v-29h-252v29q52 5 65.5 18.5t2.5 43.5zM170 211h173l-81 223h-6zM255 575l52 123q17 40 29.5 56.5t31.5 16.5q17 0 28.5 -12
t11.5 -29q0 -27 -39 -69l-79 -86h-35z" />
    <glyph glyph-name="abreve.sc" 
d="M387 91l-31 86h-199l-21 -53q-21 -52 -13.5 -70t58.5 -25v-29h-180v29q36 8 55.5 30t42.5 79l152 379h72l159 -423q11 -30 29 -44.5t60 -20.5v-29h-252v29q52 5 65.5 18.5t2.5 43.5zM170 211h173l-81 223h-6zM291 583q-58 0 -93 42t-41 111h25q18 -46 42.5 -67t66.5 -21
q41 0 65 20.5t42 67.5h25q-5 -69 -39.5 -111t-92.5 -42z" />
    <glyph glyph-name="acircumflex.sc" 
d="M387 91l-31 86h-199l-21 -53q-21 -52 -13.5 -70t58.5 -25v-29h-180v29q36 8 55.5 30t42.5 79l152 379h72l159 -423q11 -30 29 -44.5t60 -20.5v-29h-252v29q52 5 65.5 18.5t2.5 43.5zM170 211h173l-81 223h-6zM159 575l121 183h29l113 -183h-31l-100 100l-101 -100h-31z
" />
    <glyph glyph-name="adieresis.sc" 
d="M387 91l-31 86h-199l-21 -53q-21 -52 -13.5 -70t58.5 -25v-29h-180v29q36 8 55.5 30t42.5 79l152 379h72l159 -423q11 -30 29 -44.5t60 -20.5v-29h-252v29q52 5 65.5 18.5t2.5 43.5zM170 211h173l-81 223h-6zM383 583q-24 0 -39.5 15.5t-15.5 40.5t15.5 42t39.5 17
t39.5 -16t15.5 -41t-15.5 -41.5t-39.5 -16.5zM197 583q-24 0 -39.5 15.5t-15.5 40.5t15.5 42t39.5 17t39.5 -16t15.5 -41t-15.5 -41.5t-39.5 -16.5z" />
    <glyph glyph-name="ae.sc" horiz-adv-x="785" 
d="M-27 0v29q36 6 57 25t60 79l187 291q20 27 6.5 41t-73.5 17v27h507l3 -156l-35 -1q-21 75 -42.5 99t-81.5 24h-111v-196h31q43 0 62 14t33 68h29v-198h-29q-14 55 -33 68.5t-62 13.5h-31v-210h100q71 0 100.5 29t52.5 105h32l-4 -169h-452v31q46 1 63 9t17 28v123h-184
l-46 -73q-29 -43 -23 -63.5t55 -25.5v-29h-188zM196 225h163v236h-15z" />
    <glyph glyph-name="aeacute.sc" horiz-adv-x="785" 
d="M-27 0v29q36 6 57 25t60 79l187 291q20 27 6.5 41t-73.5 17v27h507l3 -156l-35 -1q-21 75 -42.5 99t-81.5 24h-111v-196h31q43 0 62 14t33 68h29v-198h-29q-14 55 -33 68.5t-62 13.5h-31v-210h100q71 0 100.5 29t52.5 105h32l-4 -169h-452v31q46 1 63 9t17 28v123h-184
l-46 -73q-29 -43 -23 -63.5t55 -25.5v-29h-188zM196 225h163v236h-15zM430 575l52 123q17 40 29.5 56.5t31.5 16.5q17 0 28.5 -12t11.5 -29q0 -27 -39 -69l-79 -86h-35z" />
    <glyph glyph-name="agrave.sc" 
d="M387 91l-31 86h-199l-21 -53q-21 -52 -13.5 -70t58.5 -25v-29h-180v29q36 8 55.5 30t42.5 79l152 379h72l159 -423q11 -30 29 -44.5t60 -20.5v-29h-252v29q52 5 65.5 18.5t2.5 43.5zM170 211h173l-81 223h-6zM295 575l-79 86q-39 42 -39 69q0 17 11.5 29t28.5 12
q19 0 31.5 -16.5t29.5 -56.5l52 -123h-35z" />
    <glyph glyph-name="amacron.sc" 
d="M387 91l-31 86h-199l-21 -53q-21 -52 -13.5 -70t58.5 -25v-29h-180v29q36 8 55.5 30t42.5 79l152 379h72l159 -423q11 -30 29 -44.5t60 -20.5v-29h-252v29q52 5 65.5 18.5t2.5 43.5zM170 211h173l-81 223h-6zM150 599v57h281v-57h-281z" />
    <glyph glyph-name="aogonek.sc" 
d="M445 -243q-47 0 -73.5 22.5t-26.5 59.5q0 32 20 63t63 73l25 25h-134v29q52 5 65.5 18.5t2.5 43.5l-31 86h-199l-21 -53q-21 -52 -13.5 -70t58.5 -25v-29h-180v29q36 8 55.5 30t42.5 79l152 379h72l159 -423q11 -30 29 -44.5t60 -20.5v-29h-83l-23 -29q-49 -61 -49 -114
q0 -60 53 -60q28 0 59 17l15 -26q-46 -31 -98 -31zM170 211h173l-81 223h-6z" />
    <glyph glyph-name="aring.sc" 
d="M387 91l-31 86h-199l-21 -53q-21 -52 -13.5 -70.5t58.5 -26.5v-27h-180v27q35 8 54.5 30.5t43.5 80.5l147 368q-29 10 -46 36t-17 58q0 42 28 71t73 29t73 -29t28 -71q0 -66 -59 -92l156 -414q11 -30 29 -45t60 -21v-28h-252v31q52 3 66 16t2 44zM284 525q27 0 43 20.5
t16 54.5q0 75 -59 75t-59 -75q0 -34 16 -54.5t43 -20.5zM256 434l-86 -223h173l-81 223h-6z" />
    <glyph glyph-name="aringacute.sc" 
d="M387 91l-31 86h-199l-21 -53q-21 -52 -13.5 -70.5t58.5 -26.5v-27h-180v27q35 8 54.5 30.5t43.5 80.5l147 368q-29 10 -46 36t-17 58q0 42 28 71t73 29t73 -29t28 -71q0 -66 -59 -92l156 -414q11 -30 29 -45t60 -21v-28h-252v31q52 3 66 16t2 44zM284 525q27 0 43 20.5
t16 54.5q0 75 -59 75t-59 -75q0 -34 16 -54.5t43 -20.5zM256 434l-86 -223h173l-81 223h-6zM269 736l52 123q17 40 29.5 56.5t31.5 16.5q17 0 28.5 -12t11.5 -29q0 -27 -39 -69l-79 -86h-35z" />
    <glyph glyph-name="atilde.sc" 
d="M387 91l-31 86h-199l-21 -53q-21 -52 -13.5 -70t58.5 -25v-29h-180v29q36 8 55.5 30t42.5 79l152 379h72l159 -423q11 -30 29 -44.5t60 -20.5v-29h-252v29q52 5 65.5 18.5t2.5 43.5zM170 211h173l-81 223h-6zM141 575q11 64 31 92t64 28q27 0 72.5 -24t59.5 -24
q26 0 42 57h30q-11 -63 -32 -91.5t-63 -28.5q-27 0 -72.5 24t-59.5 24q-27 0 -42 -57h-30z" />
    <glyph glyph-name="cacute.sc" horiz-adv-x="564" 
d="M303 -12q-117 0 -186.5 71.5t-69.5 189.5q0 117 76 194.5t189 77.5q73 0 133 -34l21 33h31v-201h-38q-24 84 -60 126.5t-95 42.5q-66 0 -111 -62t-45 -171q0 -105 53 -162t127 -57q106 0 162 115l29 -14q-28 -65 -81.5 -107t-134.5 -42zM280 575l52 123q17 40 29.5 56.5
t31.5 16.5q17 0 28.5 -12t11.5 -29q0 -27 -39 -69l-79 -86h-35z" />
    <glyph glyph-name="ccaron.sc" horiz-adv-x="564" 
d="M303 -12q-117 0 -186.5 71.5t-69.5 189.5q0 117 76 194.5t189 77.5q73 0 133 -34l21 33h31v-201h-38q-24 84 -60 126.5t-95 42.5q-66 0 -111 -62t-45 -171q0 -105 53 -162t127 -57q106 0 162 115l29 -14q-28 -65 -81.5 -107t-134.5 -42zM297 575l-113 183h31l100 -100
l101 100h31l-121 -183h-29z" />
    <glyph glyph-name="ccedilla.sc" horiz-adv-x="564" 
d="M272 -251q-58 0 -103 31l17 25q36 -23 73 -23q58 0 58 49q0 23 -20 36t-52 13q-18 0 -34 -4l-12 16l96 96q-114 3 -181 74t-67 187q0 117 76 194.5t189 77.5q73 0 133 -34l21 33h31v-201h-38q-24 84 -60 126.5t-95 42.5q-66 0 -111 -62t-45 -171q0 -105 53 -162t127 -57
q106 0 162 115l29 -14q-56 -131 -184 -147l-65 -64l1 -3q54 -3 81.5 -25t27.5 -56q0 -42 -30.5 -67.5t-77.5 -25.5z" />
    <glyph glyph-name="cdotaccent.sc" horiz-adv-x="564" 
d="M303 -12q-117 0 -186.5 71.5t-69.5 189.5q0 117 76 194.5t189 77.5q73 0 133 -34l21 33h31v-201h-38q-24 84 -60 126.5t-95 42.5q-66 0 -111 -62t-45 -171q0 -105 53 -162t127 -57q106 0 162 115l29 -14q-28 -65 -81.5 -107t-134.5 -42zM315 583q-26 0 -41.5 16t-15.5 42
t16 43.5t41 17.5t41 -16.5t16 -42.5t-16 -43t-41 -17z" />
    <glyph glyph-name="dcaron.sc" horiz-adv-x="614" 
d="M121 68v373q0 19 -17 27.5t-63 9.5v31h229q143 0 219.5 -65.5t76.5 -178.5q0 -115 -73 -190t-215 -75h-237v31q46 1 63 9t17 28zM465 259q0 112 -50 164t-153 52h-50v-441h57q111 0 153.5 54t42.5 171zM278 575l-113 183h31l100 -100l101 100h31l-121 -183h-29z" />
    <glyph glyph-name="dcroat.sc" horiz-adv-x="615" 
d="M466 259q0 112 -50 164t-153 52h-50v-191h108v-38h-108v-212h57q111 0 153.5 54t42.5 171zM122 68v178h-73v38h73v157q0 19 -17 27.5t-63 9.5v31h229q143 0 219.5 -65.5t76.5 -178.5q0 -115 -73 -190t-215 -75h-237v31q46 1 63 9t17 28z" />
    <glyph glyph-name="eacute.sc" horiz-adv-x="552" 
d="M41 0v31q46 1 63 9t17 28v373q0 19 -17 27.5t-63 9.5v31h443l3 -156l-35 -1q-21 75 -42.5 99t-81.5 24h-116v-196h36q43 0 62 14t33 68h29v-198h-29q-14 55 -33 68.5t-62 13.5h-36v-210h105q71 0 100.5 29t52.5 105h32l-4 -169h-457zM255 575l52 123q17 40 29.5 56.5
t31.5 16.5q17 0 28.5 -12t11.5 -29q0 -27 -39 -69l-79 -86h-35z" />
    <glyph glyph-name="ebreve.sc" horiz-adv-x="552" 
d="M41 0v31q46 1 63 9t17 28v373q0 19 -17 27.5t-63 9.5v31h443l3 -156l-35 -1q-21 75 -42.5 99t-81.5 24h-116v-196h36q43 0 62 14t33 68h29v-198h-29q-14 55 -33 68.5t-62 13.5h-36v-210h105q71 0 100.5 29t52.5 105h32l-4 -169h-457zM291 583q-58 0 -93 42t-41 111h25
q18 -46 42.5 -67t66.5 -21q41 0 65 20.5t42 67.5h25q-5 -69 -39.5 -111t-92.5 -42z" />
    <glyph glyph-name="ecaron.sc" horiz-adv-x="552" 
d="M41 0v31q46 1 63 9t17 28v373q0 19 -17 27.5t-63 9.5v31h443l3 -156l-35 -1q-21 75 -42.5 99t-81.5 24h-116v-196h36q43 0 62 14t33 68h29v-198h-29q-14 55 -33 68.5t-62 13.5h-36v-210h105q71 0 100.5 29t52.5 105h32l-4 -169h-457zM272 575l-113 183h31l100 -100
l101 100h31l-121 -183h-29z" />
    <glyph glyph-name="ecircumflex.sc" horiz-adv-x="552" 
d="M41 0v31q46 1 63 9t17 28v373q0 19 -17 27.5t-63 9.5v31h443l3 -156l-35 -1q-21 75 -42.5 99t-81.5 24h-116v-196h36q43 0 62 14t33 68h29v-198h-29q-14 55 -33 68.5t-62 13.5h-36v-210h105q71 0 100.5 29t52.5 105h32l-4 -169h-457zM159 575l121 183h29l113 -183h-31
l-100 100l-101 -100h-31z" />
    <glyph glyph-name="edieresis.sc" horiz-adv-x="552" 
d="M41 0v31q46 1 63 9t17 28v373q0 19 -17 27.5t-63 9.5v31h443l3 -156l-35 -1q-21 75 -42.5 99t-81.5 24h-116v-196h36q43 0 62 14t33 68h29v-198h-29q-14 55 -33 68.5t-62 13.5h-36v-210h105q71 0 100.5 29t52.5 105h32l-4 -169h-457zM383 583q-24 0 -39.5 15.5
t-15.5 40.5t15.5 42t39.5 17t39.5 -16t15.5 -41t-15.5 -41.5t-39.5 -16.5zM197 583q-24 0 -39.5 15.5t-15.5 40.5t15.5 42t39.5 17t39.5 -16t15.5 -41t-15.5 -41.5t-39.5 -16.5z" />
    <glyph glyph-name="edotaccent.sc" horiz-adv-x="552" 
d="M41 0v31q46 1 63 9t17 28v373q0 19 -17 27.5t-63 9.5v31h443l3 -156l-35 -1q-21 75 -42.5 99t-81.5 24h-116v-196h36q43 0 62 14t33 68h29v-198h-29q-14 55 -33 68.5t-62 13.5h-36v-210h105q71 0 100.5 29t52.5 105h32l-4 -169h-457zM290 583q-26 0 -41.5 16t-15.5 42
t16 43.5t41 17.5t41 -16.5t16 -42.5t-16 -43t-41 -17z" />
    <glyph glyph-name="egrave.sc" horiz-adv-x="552" 
d="M41 0v31q46 1 63 9t17 28v373q0 19 -17 27.5t-63 9.5v31h443l3 -156l-35 -1q-21 75 -42.5 99t-81.5 24h-116v-196h36q43 0 62 14t33 68h29v-198h-29q-14 55 -33 68.5t-62 13.5h-36v-210h105q71 0 100.5 29t52.5 105h32l-4 -169h-457zM295 575l-79 86q-39 42 -39 69
q0 17 11.5 29t28.5 12q19 0 31.5 -16.5t29.5 -56.5l52 -123h-35z" />
    <glyph glyph-name="emacron.sc" horiz-adv-x="552" 
d="M41 0v31q46 1 63 9t17 28v373q0 19 -17 27.5t-63 9.5v31h443l3 -156l-35 -1q-21 75 -42.5 99t-81.5 24h-116v-196h36q43 0 62 14t33 68h29v-198h-29q-14 55 -33 68.5t-62 13.5h-36v-210h105q71 0 100.5 29t52.5 105h32l-4 -169h-457zM150 599v57h281v-57h-281z" />
    <glyph glyph-name="eogonek.sc" horiz-adv-x="548" 
d="M42 0v31q46 1 63 9t17 28v373q0 19 -17 27.5t-63 9.5v31h443l3 -156l-35 -1q-21 75 -42.5 99t-81.5 24h-116v-196h36q43 0 62 14t33 68h29v-198h-29q-14 55 -33 68.5t-62 13.5h-36v-210h105q71 0 100.5 29t52.5 105h32l-4 -169h-59l-23 -29q-49 -61 -49 -114
q0 -60 53 -60q28 0 59 17l15 -26q-46 -31 -98 -31q-47 0 -73.5 22.5t-26.5 59.5q0 32 20 63t63 73l25 25h-363z" />
    <glyph glyph-name="eth.sc" horiz-adv-x="615" 
d="M122 68v178h-73v38h73v157q0 19 -17 27.5t-63 9.5v31h229q143 0 219.5 -65.5t76.5 -178.5q0 -115 -73 -190t-215 -75h-237v31q46 1 63 9t17 28zM466 259q0 112 -50 164t-153 52h-50v-191h108v-38h-108v-212h57q111 0 153.5 54t42.5 171z" />
    <glyph glyph-name="gbreve.sc" horiz-adv-x="591" 
d="M327 -12q-121 0 -200 69.5t-79 195.5q0 118 78.5 193t190.5 75q80 0 134 -30l19 31h31v-164h-40q-46 131 -152 131q-66 0 -113 -60t-47 -174q0 -115 51.5 -175t127.5 -60q53 0 89 22v135q0 18 -19 27t-68 11v30h229v-30q-34 -2 -43.5 -9.5t-9.5 -28.5v-149
q-82 -40 -179 -40zM311 583q-58 0 -93 42t-41 111h25q18 -46 42.5 -67t66.5 -21q41 0 65 20.5t42 67.5h25q-5 -69 -39.5 -111t-92.5 -42z" />
    <glyph glyph-name="gcommaaccent.sc" horiz-adv-x="591" 
d="M327 -12q-121 0 -200 69.5t-79 195.5q0 118 78.5 193t190.5 75q80 0 134 -30l19 31h31v-164h-40q-46 131 -152 131q-66 0 -113 -60t-47 -174q0 -115 51.5 -175t127.5 -60q53 0 89 22v135q0 18 -19 27t-68 11v30h229v-30q-34 -2 -43.5 -9.5t-9.5 -28.5v-149
q-82 -40 -179 -40zM247 -312l-18 23q88 54 93 110l-7 2q-11 -11 -28 -11q-20 0 -33 14.5t-13 36.5q0 24 17 40.5t44 16.5q28 0 45 -21t17 -56q0 -90 -117 -155z" />
    <glyph glyph-name="gdotaccent.sc" horiz-adv-x="591" 
d="M327 -12q-121 0 -200 69.5t-79 195.5q0 118 78.5 193t190.5 75q80 0 134 -30l19 31h31v-164h-40q-46 131 -152 131q-66 0 -113 -60t-47 -174q0 -115 51.5 -175t127.5 -60q53 0 89 22v135q0 18 -19 27t-68 11v30h229v-30q-34 -2 -43.5 -9.5t-9.5 -28.5v-149
q-82 -40 -179 -40zM310 583q-26 0 -41.5 16t-15.5 42t16 43.5t41 17.5t41 -16.5t16 -42.5t-16 -43t-41 -17z" />
    <glyph glyph-name="hbar.sc" horiz-adv-x="661" 
d="M42 0v31q46 1 63 9t17 28v292h-73v34h73v47q0 19 -17 27.5t-63 9.5v31h247v-31q-46 -1 -61 -9t-15 -28v-47h235v47q0 20 -15 28t-61 9v31h247v-31q-46 -1 -63 -9.5t-17 -27.5v-47h73v-34h-73v-292q0 -20 17 -28t63 -9v-31h-247v31q46 1 61 9t15 28v167h-235v-167
q0 -20 15 -28t61 -9v-31h-247zM213 269h235v91h-235v-91z" />
    <glyph glyph-name="iacute.sc" horiz-adv-x="349" 
d="M49 0v31q46 1 63 9t17 28v373q0 19 -17 27.5t-63 9.5v31h251v-31q-46 -1 -63 -9.5t-17 -27.5v-373q0 -20 17 -28t63 -9v-31h-251zM140 575l52 123q17 40 29.5 56.5t31.5 16.5q17 0 28.5 -12t11.5 -29q0 -27 -39 -69l-79 -86h-35z" />
    <glyph glyph-name="ibreve.sc" horiz-adv-x="349" 
d="M49 0v31q46 1 63 9t17 28v373q0 19 -17 27.5t-63 9.5v31h251v-31q-46 -1 -63 -9.5t-17 -27.5v-373q0 -20 17 -28t63 -9v-31h-251zM176 583q-58 0 -93 42t-41 111h25q18 -46 42.5 -67t66.5 -21q41 0 65 20.5t42 67.5h25q-5 -69 -39.5 -111t-92.5 -42z" />
    <glyph glyph-name="icircumflex.sc" horiz-adv-x="349" 
d="M49 0v31q46 1 63 9t17 28v373q0 19 -17 27.5t-63 9.5v31h251v-31q-46 -1 -63 -9.5t-17 -27.5v-373q0 -20 17 -28t63 -9v-31h-251zM44 575l121 183h29l113 -183h-31l-100 100l-101 -100h-31z" />
    <glyph glyph-name="idieresis.sc" horiz-adv-x="349" 
d="M49 0v31q46 1 63 9t17 28v373q0 19 -17 27.5t-63 9.5v31h251v-31q-46 -1 -63 -9.5t-17 -27.5v-373q0 -20 17 -28t63 -9v-31h-251zM268 583q-24 0 -39.5 15.5t-15.5 40.5t15.5 42t39.5 17t39.5 -16t15.5 -41t-15.5 -41.5t-39.5 -16.5zM82 583q-24 0 -39.5 15.5t-15.5 40.5
t15.5 42t39.5 17t39.5 -16t15.5 -41t-15.5 -41.5t-39.5 -16.5z" />
    <glyph glyph-name="idotaccent.sc" horiz-adv-x="349" 
d="M49 0v31q46 1 63 9t17 28v373q0 19 -17 27.5t-63 9.5v31h251v-31q-46 -1 -63 -9.5t-17 -27.5v-373q0 -20 17 -28t63 -9v-31h-251zM175 583q-26 0 -41.5 16t-15.5 42t16 43.5t41 17.5t41 -16.5t16 -42.5t-16 -43t-41 -17z" />
    <glyph glyph-name="dotlessi.sc" horiz-adv-x="351" 
d="M50 0v31q46 1 63 9t17 28v373q0 19 -17 27.5t-63 9.5v31h251v-31q-46 -1 -63 -9.5t-17 -27.5v-373q0 -20 17 -28t63 -9v-31h-251z" />
    <glyph glyph-name="igrave.sc" horiz-adv-x="349" 
d="M49 0v31q46 1 63 9t17 28v373q0 19 -17 27.5t-63 9.5v31h251v-31q-46 -1 -63 -9.5t-17 -27.5v-373q0 -20 17 -28t63 -9v-31h-251zM180 575l-79 86q-39 42 -39 69q0 17 11.5 29t28.5 12q19 0 31.5 -16.5t29.5 -56.5l52 -123h-35z" />
    <glyph glyph-name="imacron.sc" horiz-adv-x="349" 
d="M49 0v31q46 1 63 9t17 28v373q0 19 -17 27.5t-63 9.5v31h251v-31q-46 -1 -63 -9.5t-17 -27.5v-373q0 -20 17 -28t63 -9v-31h-251zM35 599v57h281v-57h-281z" />
    <glyph glyph-name="iogonek.sc" horiz-adv-x="351" 
d="M50 0v31q46 1 63 9t17 28v373q0 19 -17 27.5t-63 9.5v31h251v-31q-46 -1 -63 -9.5t-17 -27.5v-373q0 -20 17 -28t63 -9v-31h-98l-23 -29q-49 -61 -49 -114q0 -60 53 -60q28 0 59 17l15 -26q-46 -31 -98 -31q-47 0 -73.5 22.5t-26.5 59.5q0 32 20 63t63 73l25 25h-118z
" />
    <glyph glyph-name="kcommaaccent.sc" horiz-adv-x="611" 
d="M419 396l-93 -94l162 -209q27 -35 46 -47.5t53 -16.5v-29h-238v29q47 4 54 15t-16 39l-120 161l-55 -56v-120q0 -20 13 -28t50 -9v-31h-234v31q46 1 63 9t17 28v373q0 19 -17 27.5t-63 9.5v31h245v-31q-45 -1 -59.5 -9t-14.5 -28v-207l163 170q37 38 32.5 55t-51.5 21v29
h215v-29q-47 -4 -75.5 -20t-76.5 -64zM255 -312l-18 23q88 54 93 110l-7 2q-11 -11 -28 -11q-20 0 -33 14.5t-13 36.5q0 24 17 40.5t44 16.5q28 0 45 -21t17 -56q0 -90 -117 -155z" />
    <glyph glyph-name="lacute.sc" horiz-adv-x="507" 
d="M213 35h62q74 0 106.5 32t57.5 114l30 -2l-4 -179h-423v31q46 1 63 9t17 28v373q0 19 -17 27.5t-63 9.5v31h247v-31q-46 -1 -61 -9t-15 -28v-406zM145 575l52 123q17 40 29.5 56.5t31.5 16.5q17 0 28.5 -12t11.5 -29q0 -27 -39 -69l-79 -86h-35z" />
    <glyph glyph-name="lcaron.sc" horiz-adv-x="507" 
d="M213 35h62q74 0 106.5 32t57.5 114l30 -2l-4 -179h-423v31q46 1 63 9t17 28v373q0 19 -17 27.5t-63 9.5v31h247v-31q-46 -1 -61 -9t-15 -28v-406zM377 347l-9 113q-5 50 -5 67q0 26 12 39.5t30 13.5t29.5 -12.5t11.5 -35.5q0 -19 -12 -64l-33 -121h-24z" />
    <glyph glyph-name="lcommaaccent.sc" horiz-adv-x="506" 
d="M212 35h62q74 0 106.5 32t57.5 114l30 -2l-4 -179h-423v31q46 1 63 9t17 28v373q0 19 -17 27.5t-63 9.5v31h247v-31q-46 -1 -61 -9t-15 -28v-406zM212 -312l-18 23q88 54 93 110l-7 2q-11 -11 -28 -11q-20 0 -33 14.5t-13 36.5q0 24 17 40.5t44 16.5q28 0 45 -21t17 -56
q0 -90 -117 -155z" />
    <glyph glyph-name="ldot.sc" horiz-adv-x="507" 
d="M413 244q-25 0 -40 15.5t-15 40.5q0 26 15 42.5t40 16.5t40 -15.5t15 -41.5t-15 -42t-40 -16zM213 35h62q74 0 106.5 30.5t57.5 108.5l30 -2l-4 -172h-423v31q46 1 63 9t17 28v373q0 19 -17 27.5t-63 9.5v31h247v-31q-46 -1 -61 -9t-15 -28v-406z" />
    <glyph glyph-name="lslash.sc" horiz-adv-x="507" 
d="M212 35h62q74 0 106.5 32t57.5 114l30 -2l-4 -179h-423v31q46 1 63 9t17 28v150l-70 -19l-11 38l81 22v182q0 19 -17 27.5t-63 9.5v31h247v-31q-46 -1 -61 -9t-15 -28v-158l124 34l11 -37l-135 -37v-208z" />
    <glyph glyph-name="nacute.sc" horiz-adv-x="644" 
d="M490 -11l-320 427h-2v-281q0 -58 16.5 -78.5t82.5 -29.5v-27h-225v27q52 8 67.5 30t15.5 78v281q0 27 -20 44t-63 18v31h171l288 -383h2v248q0 56 -19.5 78.5t-81.5 29.5v27h221v-27q-51 -8 -64.5 -29t-13.5 -79v-385h-55zM305 575l52 123q17 40 29.5 56.5t31.5 16.5
q17 0 28.5 -12t11.5 -29q0 -27 -39 -69l-79 -86h-35z" />
    <glyph glyph-name="ncaron.sc" horiz-adv-x="644" 
d="M490 -11l-320 427h-2v-281q0 -58 16.5 -78.5t82.5 -29.5v-27h-225v27q52 8 67.5 30t15.5 78v281q0 27 -20 44t-63 18v31h171l288 -383h2v248q0 56 -19.5 78.5t-81.5 29.5v27h221v-27q-51 -8 -64.5 -29t-13.5 -79v-385h-55zM322 575l-113 183h31l100 -100l101 100h31
l-121 -183h-29z" />
    <glyph glyph-name="ncommaaccent.sc" horiz-adv-x="644" 
d="M490 -11l-320 427h-2v-281q0 -58 16.5 -78.5t82.5 -29.5v-27h-225v27q52 8 67.5 30t15.5 78v281q0 27 -20 44t-63 18v31h171l288 -383h2v248q0 56 -19.5 78.5t-81.5 29.5v27h221v-27q-51 -8 -64.5 -29t-13.5 -79v-385h-55zM267 -312l-18 23q88 54 93 110l-7 2
q-11 -11 -28 -11q-20 0 -33 14.5t-13 36.5q0 24 17 40.5t44 16.5q28 0 45 -21t17 -56q0 -90 -117 -155z" />
    <glyph glyph-name="ntilde.sc" horiz-adv-x="644" 
d="M490 -11l-320 427h-2v-281q0 -58 16.5 -78.5t82.5 -29.5v-27h-225v27q52 8 67.5 30t15.5 78v281q0 27 -20 44t-63 18v31h171l288 -383h2v248q0 56 -19.5 78.5t-81.5 29.5v27h221v-27q-51 -8 -64.5 -29t-13.5 -79v-385h-55zM191 575q11 64 31 92t64 28q27 0 72.5 -24
t59.5 -24q26 0 42 57h30q-11 -63 -32 -91.5t-63 -28.5q-27 0 -72.5 24t-59.5 24q-27 0 -42 -57h-30z" />
    <glyph glyph-name="oacute.sc" horiz-adv-x="608" 
d="M304 -12q-109 0 -182.5 73t-73.5 192q0 118 75 193t181 75q109 0 182.5 -73.5t73.5 -191.5t-75 -193t-181 -75zM308 20q70 0 110.5 58.5t40.5 176.5q0 116 -43 175t-115 59q-70 0 -111 -58.5t-41 -175.5t43.5 -176t115.5 -59zM269 575l52 123q17 40 29.5 56.5t31.5 16.5
q17 0 28.5 -12t11.5 -29q0 -27 -39 -69l-79 -86h-35z" />
    <glyph glyph-name="obreve.sc" horiz-adv-x="608" 
d="M304 -12q-109 0 -182.5 73t-73.5 192q0 118 75 193t181 75q109 0 182.5 -73.5t73.5 -191.5t-75 -193t-181 -75zM308 20q70 0 110.5 58.5t40.5 176.5q0 116 -43 175t-115 59q-70 0 -111 -58.5t-41 -175.5t43.5 -176t115.5 -59zM305 583q-58 0 -93 42t-41 111h25
q18 -46 42.5 -67t66.5 -21q41 0 65 20.5t42 67.5h25q-5 -69 -39.5 -111t-92.5 -42z" />
    <glyph glyph-name="ocircumflex.sc" horiz-adv-x="608" 
d="M304 -12q-109 0 -182.5 73t-73.5 192q0 118 75 193t181 75q109 0 182.5 -73.5t73.5 -191.5t-75 -193t-181 -75zM308 20q70 0 110.5 58.5t40.5 176.5q0 116 -43 175t-115 59q-70 0 -111 -58.5t-41 -175.5t43.5 -176t115.5 -59zM173 575l121 183h29l113 -183h-31l-100 100
l-101 -100h-31z" />
    <glyph glyph-name="odieresis.sc" horiz-adv-x="608" 
d="M304 -12q-109 0 -182.5 73t-73.5 192q0 118 75 193t181 75q109 0 182.5 -73.5t73.5 -191.5t-75 -193t-181 -75zM308 20q70 0 110.5 58.5t40.5 176.5q0 116 -43 175t-115 59q-70 0 -111 -58.5t-41 -175.5t43.5 -176t115.5 -59zM397 583q-24 0 -39.5 15.5t-15.5 40.5
t15.5 42t39.5 17t39.5 -16t15.5 -41t-15.5 -41.5t-39.5 -16.5zM211 583q-24 0 -39.5 15.5t-15.5 40.5t15.5 42t39.5 17t39.5 -16t15.5 -41t-15.5 -41.5t-39.5 -16.5z" />
    <glyph glyph-name="oe.sc" horiz-adv-x="828" 
d="M344 0q-143 0 -219.5 65.5t-76.5 178.5q0 115 73 190t215 75h424l3 -156l-35 -1q-21 75 -42.5 99t-81.5 24h-111v-196h31q43 0 62 14t33 68h29v-198h-29q-14 55 -33 68.5t-62 13.5h-31v-210h100q71 0 100.5 29t52.5 105h32l-4 -169h-430zM340 475q-105 0 -148 -54.5
t-43 -170.5q0 -216 198 -216q29 0 42 10t13 32v357q0 23 -14 32.5t-48 9.5z" />
    <glyph glyph-name="ograve.sc" horiz-adv-x="608" 
d="M304 -12q-109 0 -182.5 73t-73.5 192q0 118 75 193t181 75q109 0 182.5 -73.5t73.5 -191.5t-75 -193t-181 -75zM308 20q70 0 110.5 58.5t40.5 176.5q0 116 -43 175t-115 59q-70 0 -111 -58.5t-41 -175.5t43.5 -176t115.5 -59zM309 575l-79 86q-39 42 -39 69q0 17 11.5 29
t28.5 12q19 0 31.5 -16.5t29.5 -56.5l52 -123h-35z" />
    <glyph glyph-name="ohungarumlaut.sc" horiz-adv-x="608" 
d="M304 -12q-109 0 -182.5 73t-73.5 192q0 118 75 193t181 75q109 0 182.5 -73.5t73.5 -191.5t-75 -193t-181 -75zM308 20q70 0 110.5 58.5t40.5 176.5q0 116 -43 175t-115 59q-70 0 -111 -58.5t-41 -175.5t43.5 -176t115.5 -59zM351 575l58 123q19 40 32.5 56.5t31.5 16.5
q17 0 27.5 -12t10.5 -29q0 -26 -41 -69l-82 -86h-37zM201 575l58 123q19 40 32.5 56.5t31.5 16.5q17 0 27.5 -12t10.5 -29q0 -26 -41 -69l-82 -86h-37z" />
    <glyph glyph-name="omacron.sc" horiz-adv-x="608" 
d="M304 -12q-109 0 -182.5 73t-73.5 192q0 118 75 193t181 75q109 0 182.5 -73.5t73.5 -191.5t-75 -193t-181 -75zM308 20q70 0 110.5 58.5t40.5 176.5q0 116 -43 175t-115 59q-70 0 -111 -58.5t-41 -175.5t43.5 -176t115.5 -59zM164 599v57h281v-57h-281z" />
    <glyph glyph-name="oslash.sc" horiz-adv-x="608" 
d="M97 -25h-47l70 87q-72 74 -72 191q0 118 75 193t181 75q83 0 147 -45l54 67h47l-72 -90q80 -75 80 -197q0 -118 -75 -193t-181 -75q-92 0 -157 50zM308 20q70 0 110.5 58.5t40.5 176.5q0 85 -25 141l-247 -309q41 -67 121 -67zM149 255q0 -79 20 -131l246 307
q-42 58 -114 58q-70 0 -111 -58.5t-41 -175.5z" />
    <glyph glyph-name="oslashacute.sc" horiz-adv-x="608" 
d="M97 -25h-47l70 87q-72 74 -72 191q0 118 75 193t181 75q83 0 147 -45l54 67h47l-72 -90q80 -75 80 -197q0 -118 -75 -193t-181 -75q-92 0 -157 50zM308 20q70 0 110.5 58.5t40.5 176.5q0 85 -25 141l-247 -309q41 -67 121 -67zM149 255q0 -79 20 -131l246 307
q-42 58 -114 58q-70 0 -111 -58.5t-41 -175.5zM269 575l52 123q17 40 29.5 56.5t31.5 16.5q17 0 28.5 -12t11.5 -29q0 -27 -39 -69l-79 -86h-35z" />
    <glyph glyph-name="otilde.sc" horiz-adv-x="608" 
d="M304 -12q-109 0 -182.5 73t-73.5 192q0 118 75 193t181 75q109 0 182.5 -73.5t73.5 -191.5t-75 -193t-181 -75zM308 20q70 0 110.5 58.5t40.5 176.5q0 116 -43 175t-115 59q-70 0 -111 -58.5t-41 -175.5t43.5 -176t115.5 -59zM155 575q11 64 31 92t64 28q27 0 72.5 -24
t59.5 -24q26 0 42 57h30q-11 -63 -32 -91.5t-63 -28.5q-27 0 -72.5 24t-59.5 24q-27 0 -42 -57h-30z" />
    <glyph glyph-name="racute.sc" horiz-adv-x="565" 
d="M212 234v-166q0 -20 16.5 -28t61.5 -9v-31h-249v31q46 1 63 9t17 28v373q0 19 -17 27.5t-63 9.5v31h227q112 0 164 -36t52 -90q0 -104 -142 -129v-3q70 -5 95 -29.5t33 -72.5l11 -66q5 -32 20 -42.5t58 -13.5v-31q-7 0 -22 -0.5t-18 -0.5q-80 0 -106 19.5t-30 72.5l-4 56
q-4 54 -31.5 72.5t-91.5 18.5h-44zM212 267h49q72 0 99.5 27.5t27.5 85.5q0 50 -30.5 72.5t-101.5 22.5h-44v-208zM236 575l52 123q17 40 29.5 56.5t31.5 16.5q17 0 28.5 -12t11.5 -29q0 -27 -39 -69l-79 -86h-35z" />
    <glyph glyph-name="rcaron.sc" horiz-adv-x="565" 
d="M212 234v-166q0 -20 16.5 -28t61.5 -9v-31h-249v31q46 1 63 9t17 28v373q0 19 -17 27.5t-63 9.5v31h227q112 0 164 -36t52 -90q0 -104 -142 -129v-3q70 -5 95 -29.5t33 -72.5l11 -66q5 -32 20 -42.5t58 -13.5v-31q-7 0 -22 -0.5t-18 -0.5q-80 0 -106 19.5t-30 72.5l-4 56
q-4 54 -31.5 72.5t-91.5 18.5h-44zM212 267h49q72 0 99.5 27.5t27.5 85.5q0 50 -30.5 72.5t-101.5 22.5h-44v-208zM253 575l-113 183h31l100 -100l101 100h31l-121 -183h-29z" />
    <glyph glyph-name="rcommaaccent.sc" horiz-adv-x="565" 
d="M212 234v-166q0 -20 16.5 -28t61.5 -9v-31h-249v31q46 1 63 9t17 28v373q0 19 -17 27.5t-63 9.5v31h227q112 0 164 -36t52 -90q0 -104 -142 -129v-3q70 -5 95 -29.5t33 -72.5l11 -66q5 -32 20 -42.5t58 -13.5v-31q-7 0 -22 -0.5t-18 -0.5q-80 0 -106 19.5t-30 72.5l-4 56
q-4 54 -31.5 72.5t-91.5 18.5h-44zM212 267h49q72 0 99.5 27.5t27.5 85.5q0 50 -30.5 72.5t-101.5 22.5h-44v-208zM236 -312l-18 23q88 54 93 110l-7 2q-11 -11 -28 -11q-20 0 -33 14.5t-13 36.5q0 24 17 40.5t44 16.5q28 0 45 -21t17 -56q0 -90 -117 -155z" />
    <glyph glyph-name="sacute.sc" horiz-adv-x="463" 
d="M54 -14v185h38q56 -151 153 -151q54 0 79 28t25 65q0 43 -29.5 64.5t-105.5 45.5q-74 23 -115 56.5t-41 94.5t49.5 104t121.5 43q60 0 116 -29l23 32h28v-171h-38q-26 72 -58.5 104t-78.5 32q-43 0 -65 -23t-22 -57q0 -40 27.5 -59t102.5 -44q73 -24 114 -58t41 -97
q0 -68 -45.5 -115t-134.5 -47q-76 0 -128 28l-28 -31h-29zM207 575l52 123q17 40 29.5 56.5t31.5 16.5q17 0 28.5 -12t11.5 -29q0 -27 -39 -69l-79 -86h-35z" />
    <glyph glyph-name="scaron.sc" horiz-adv-x="463" 
d="M54 -14v185h38q56 -151 153 -151q54 0 79 28t25 65q0 43 -29.5 64.5t-105.5 45.5q-74 23 -115 56.5t-41 94.5t49.5 104t121.5 43q60 0 116 -29l23 32h28v-171h-38q-26 72 -58.5 104t-78.5 32q-43 0 -65 -23t-22 -57q0 -40 27.5 -59t102.5 -44q73 -24 114 -58t41 -97
q0 -68 -45.5 -115t-134.5 -47q-76 0 -128 28l-28 -31h-29zM224 575l-113 183h31l100 -100l101 100h31l-121 -183h-29z" />
    <glyph glyph-name="scedilla.sc" horiz-adv-x="463" 
d="M212 -251q-58 0 -103 31l17 25q36 -23 73 -23q58 0 58 49q0 23 -20 36t-52 13q-18 0 -34 -4l-12 16l97 97q-77 2 -125 28l-28 -31h-29v185h38q56 -151 153 -151q54 0 79 28t25 65q0 43 -29.5 64.5t-105.5 45.5q-74 23 -115 56.5t-41 94.5t49.5 104t121.5 43q60 0 116 -29
l23 32h28v-171h-38q-26 72 -58.5 104t-78.5 32q-43 0 -65 -23t-22 -57q0 -40 27.5 -59t102.5 -44q73 -24 114 -58t41 -97q0 -59 -36 -104t-106 -55l-67 -66l1 -3q54 -3 81.5 -25t27.5 -56q0 -42 -30.5 -67.5t-77.5 -25.5z" />
    <glyph glyph-name="scommaaccent.sc" horiz-adv-x="463" 
d="M54 -14v185h38q56 -151 153 -151q54 0 79 28t25 65q0 43 -29.5 64.5t-105.5 45.5q-74 23 -115 56.5t-41 94.5t49.5 104t121.5 43q60 0 116 -29l23 32h28v-171h-38q-26 72 -58.5 104t-78.5 32q-43 0 -65 -23t-22 -57q0 -40 27.5 -59t102.5 -44q73 -24 114 -58t41 -97
q0 -68 -45.5 -115t-134.5 -47q-76 0 -128 28l-28 -31h-29zM178 -312l-18 23q88 54 93 110l-7 2q-11 -11 -28 -11q-20 0 -33 14.5t-13 36.5q0 24 17 40.5t44 16.5q28 0 45 -21t17 -56q0 -90 -117 -155z" />
    <glyph glyph-name="tcaron.sc" horiz-adv-x="539" 
d="M138 0v31q51 1 69 9t18 28v407h-29q-49 0 -71 -29.5t-49 -112.5l-36 1l5 175h451l6 -175l-36 -1q-23 80 -46.5 111t-74.5 31h-29v-407q0 -20 18 -28t69 -9v-31h-265zM258 575l-113 183h31l100 -100l101 100h31l-121 -183h-29z" />
    <glyph glyph-name="tcommaaccent.sc" horiz-adv-x="539" 
d="M138 0v31q51 1 69 9t18 28v407h-29q-49 0 -71 -29.5t-49 -112.5l-36 1l5 175h451l6 -175l-36 -1q-23 80 -46.5 111t-74.5 31h-29v-407q0 -20 18 -28t69 -9v-31h-265zM213 -312l-18 23q88 54 93 110l-7 2q-11 -11 -28 -11q-20 0 -33 14.5t-13 36.5q0 24 17 40.5t44 16.5
q28 0 45 -21t17 -56q0 -90 -117 -155z" />
    <glyph glyph-name="thorn.sc" horiz-adv-x="521" 
d="M42 31q46 1 63 9t17 28v373q0 19 -17 27.5t-63 9.5v31h258v-31q-54 -1 -70.5 -8.5t-16.5 -28.5v-31h56q112 0 166 -38t54 -103t-56.5 -108.5t-167.5 -43.5h-52v-49q0 -21 16.5 -28.5t70.5 -8.5v-31h-258v31zM213 150h54q69 0 97 29t28 88q0 109 -123 109h-56v-226z" />
    <glyph glyph-name="uacute.sc" horiz-adv-x="615" 
d="M317 -12q-102 0 -155.5 48.5t-53.5 130.5v274q0 19 -17 27.5t-63 9.5v31h247v-31q-46 -1 -61 -9t-15 -28v-265q0 -146 143 -146q64 0 98 35q39 41 39 125v183q0 56 -17.5 78t-73.5 29v29h207v-29q-51 -8 -64 -28.5t-13 -78.5v-198q0 -85 -50 -136t-151 -51zM295 575
l52 123q17 40 29.5 56.5t31.5 16.5q17 0 28.5 -12t11.5 -29q0 -27 -39 -69l-79 -86h-35z" />
    <glyph glyph-name="ubreve.sc" horiz-adv-x="615" 
d="M317 -12q-102 0 -155.5 48.5t-53.5 130.5v274q0 19 -17 27.5t-63 9.5v31h247v-31q-46 -1 -61 -9t-15 -28v-265q0 -146 143 -146q64 0 98 35q39 41 39 125v183q0 56 -17.5 78t-73.5 29v29h207v-29q-51 -8 -64 -28.5t-13 -78.5v-198q0 -85 -50 -136t-151 -51zM331 583
q-58 0 -93 42t-41 111h25q18 -46 42.5 -67t66.5 -21q41 0 65 20.5t42 67.5h25q-5 -69 -39.5 -111t-92.5 -42z" />
    <glyph glyph-name="ucircumflex.sc" horiz-adv-x="615" 
d="M317 -12q-102 0 -155.5 48.5t-53.5 130.5v274q0 19 -17 27.5t-63 9.5v31h247v-31q-46 -1 -61 -9t-15 -28v-265q0 -146 143 -146q64 0 98 35q39 41 39 125v183q0 56 -17.5 78t-73.5 29v29h207v-29q-51 -8 -64 -28.5t-13 -78.5v-198q0 -85 -50 -136t-151 -51zM199 575
l121 183h29l113 -183h-31l-100 100l-101 -100h-31z" />
    <glyph glyph-name="udieresis.sc" horiz-adv-x="615" 
d="M317 -12q-102 0 -155.5 48.5t-53.5 130.5v274q0 19 -17 27.5t-63 9.5v31h247v-31q-46 -1 -61 -9t-15 -28v-265q0 -146 143 -146q64 0 98 35q39 41 39 125v183q0 56 -17.5 78t-73.5 29v29h207v-29q-51 -8 -64 -28.5t-13 -78.5v-198q0 -85 -50 -136t-151 -51zM423 583
q-24 0 -39.5 15.5t-15.5 40.5t15.5 42t39.5 17t39.5 -16t15.5 -41t-15.5 -41.5t-39.5 -16.5zM237 583q-24 0 -39.5 15.5t-15.5 40.5t15.5 42t39.5 17t39.5 -16t15.5 -41t-15.5 -41.5t-39.5 -16.5z" />
    <glyph glyph-name="ugrave.sc" horiz-adv-x="615" 
d="M317 -12q-102 0 -155.5 48.5t-53.5 130.5v274q0 19 -17 27.5t-63 9.5v31h247v-31q-46 -1 -61 -9t-15 -28v-265q0 -146 143 -146q64 0 98 35q39 41 39 125v183q0 56 -17.5 78t-73.5 29v29h207v-29q-51 -8 -64 -28.5t-13 -78.5v-198q0 -85 -50 -136t-151 -51zM335 575
l-79 86q-39 42 -39 69q0 17 11.5 29t28.5 12q19 0 31.5 -16.5t29.5 -56.5l52 -123h-35z" />
    <glyph glyph-name="uhungarumlaut.sc" horiz-adv-x="615" 
d="M317 -12q-102 0 -155.5 48.5t-53.5 130.5v274q0 19 -17 27.5t-63 9.5v31h247v-31q-46 -1 -61 -9t-15 -28v-265q0 -146 143 -146q64 0 98 35q39 41 39 125v183q0 56 -17.5 78t-73.5 29v29h207v-29q-51 -8 -64 -28.5t-13 -78.5v-198q0 -85 -50 -136t-151 -51zM377 575
l58 123q19 40 32.5 56.5t31.5 16.5q17 0 27.5 -12t10.5 -29q0 -26 -41 -69l-82 -86h-37zM227 575l58 123q19 40 32.5 56.5t31.5 16.5q17 0 27.5 -12t10.5 -29q0 -26 -41 -69l-82 -86h-37z" />
    <glyph glyph-name="umacron.sc" horiz-adv-x="615" 
d="M317 -12q-102 0 -155.5 48.5t-53.5 130.5v274q0 19 -17 27.5t-63 9.5v31h247v-31q-46 -1 -61 -9t-15 -28v-265q0 -146 143 -146q64 0 98 35q39 41 39 125v183q0 56 -17.5 78t-73.5 29v29h207v-29q-51 -8 -64 -28.5t-13 -78.5v-198q0 -85 -50 -136t-151 -51zM190 599v57
h281v-57h-281z" />
    <glyph glyph-name="uogonek.sc" horiz-adv-x="616" 
d="M312 -243q-47 0 -73.5 22.5t-26.5 59.5q0 32 20 63t63 73l13 13q-98 3 -148.5 51t-50.5 128v274q0 19 -17 27.5t-63 9.5v31h247v-31q-46 -1 -61 -9t-15 -28v-265q0 -146 143 -146q64 0 98 35q39 41 39 125v183q0 56 -17.5 78t-73.5 29v29h207v-29q-51 -8 -64 -28.5
t-13 -78.5v-198q0 -79 -42.5 -128.5t-129.5 -56.5l-15 -19q-49 -61 -49 -114q0 -60 53 -60q28 0 59 17l15 -26q-46 -31 -98 -31z" />
    <glyph glyph-name="uring.sc" horiz-adv-x="615" 
d="M317 -12q-102 0 -155.5 48.5t-53.5 130.5v274q0 19 -17 27.5t-63 9.5v31h247v-31q-46 -1 -61 -9t-15 -28v-265q0 -146 143 -146q64 0 98 35q39 41 39 125v183q0 56 -17.5 78t-73.5 29v29h207v-29q-51 -8 -64 -28.5t-13 -78.5v-198q0 -85 -50 -136t-151 -51zM330 583
q-48 0 -75.5 29.5t-27.5 72.5t27.5 72.5t75.5 29.5t75.5 -29.5t27.5 -72.5t-27.5 -72.5t-75.5 -29.5zM330 611q27 0 43 21.5t16 52.5q0 74 -59 74q-28 0 -43.5 -19t-15.5 -55q0 -31 16 -52.5t43 -21.5z" />
    <glyph glyph-name="wacute.sc" horiz-adv-x="774" 
d="M177 429l92 -323h3l102 267l-12 39q-10 31 -26 46.5t-51 21.5v29h228v-29q-45 -2 -58.5 -14.5t-6.5 -36.5l101 -322h3l86 271q19 55 9 74.5t-63 27.5v29h197v-29q-39 -8 -60.5 -31t-38.5 -73l-128 -388h-53l-107 324l-121 -324h-56l-134 433q-8 26 -24.5 39t-55.5 20v29
h225v-29q-39 -2 -48.5 -15t-2.5 -36zM380 575l52 123q17 40 29.5 56.5t31.5 16.5q17 0 28.5 -12t11.5 -29q0 -27 -39 -69l-79 -86h-35z" />
    <glyph glyph-name="wcircumflex.sc" horiz-adv-x="774" 
d="M177 429l92 -323h3l102 267l-12 39q-10 31 -26 46.5t-51 21.5v29h228v-29q-45 -2 -58.5 -14.5t-6.5 -36.5l101 -322h3l86 271q19 55 9 74.5t-63 27.5v29h197v-29q-39 -8 -60.5 -31t-38.5 -73l-128 -388h-53l-107 324l-121 -324h-56l-134 433q-8 26 -24.5 39t-55.5 20v29
h225v-29q-39 -2 -48.5 -15t-2.5 -36zM284 575l121 183h29l113 -183h-31l-100 100l-101 -100h-31z" />
    <glyph glyph-name="wdieresis.sc" horiz-adv-x="774" 
d="M177 429l92 -323h3l102 267l-12 39q-10 31 -26 46.5t-51 21.5v29h228v-29q-45 -2 -58.5 -14.5t-6.5 -36.5l101 -322h3l86 271q19 55 9 74.5t-63 27.5v29h197v-29q-39 -8 -60.5 -31t-38.5 -73l-128 -388h-53l-107 324l-121 -324h-56l-134 433q-8 26 -24.5 39t-55.5 20v29
h225v-29q-39 -2 -48.5 -15t-2.5 -36zM508 583q-24 0 -39.5 15.5t-15.5 40.5t15.5 42t39.5 17t39.5 -16t15.5 -41t-15.5 -41.5t-39.5 -16.5zM322 583q-24 0 -39.5 15.5t-15.5 40.5t15.5 42t39.5 17t39.5 -16t15.5 -41t-15.5 -41.5t-39.5 -16.5z" />
    <glyph glyph-name="wgrave.sc" horiz-adv-x="774" 
d="M177 429l92 -323h3l102 267l-12 39q-10 31 -26 46.5t-51 21.5v29h228v-29q-45 -2 -58.5 -14.5t-6.5 -36.5l101 -322h3l86 271q19 55 9 74.5t-63 27.5v29h197v-29q-39 -8 -60.5 -31t-38.5 -73l-128 -388h-53l-107 324l-121 -324h-56l-134 433q-8 26 -24.5 39t-55.5 20v29
h225v-29q-39 -2 -48.5 -15t-2.5 -36zM420 575l-79 86q-39 42 -39 69q0 17 11.5 29t28.5 12q19 0 31.5 -16.5t29.5 -56.5l52 -123h-35z" />
    <glyph glyph-name="yacute.sc" horiz-adv-x="547" 
d="M351 480v29h183v-29q-31 -6 -49.5 -22t-47.5 -61l-113 -177v-152q0 -20 17 -28t63 -9v-31h-251v31q46 1 63 9t17 28v143l-133 217q-15 25 -32.5 35.5t-51.5 16.5v29h238v-29q-25 -1 -39 -5t-17.5 -11t-1.5 -15t9 -21l98 -169l82 132q28 42 22 63t-56 26zM260 575l52 123
q17 40 29.5 56.5t31.5 16.5q17 0 28.5 -12t11.5 -29q0 -27 -39 -69l-79 -86h-35z" />
    <glyph glyph-name="ycircumflex.sc" horiz-adv-x="547" 
d="M351 480v29h183v-29q-31 -6 -49.5 -22t-47.5 -61l-113 -177v-152q0 -20 17 -28t63 -9v-31h-251v31q46 1 63 9t17 28v143l-133 217q-15 25 -32.5 35.5t-51.5 16.5v29h238v-29q-25 -1 -39 -5t-17.5 -11t-1.5 -15t9 -21l98 -169l82 132q28 42 22 63t-56 26zM164 575l121 183
h29l113 -183h-31l-100 100l-101 -100h-31z" />
    <glyph glyph-name="ydieresis.sc" horiz-adv-x="547" 
d="M351 480v29h183v-29q-31 -6 -49.5 -22t-47.5 -61l-113 -177v-152q0 -20 17 -28t63 -9v-31h-251v31q46 1 63 9t17 28v143l-133 217q-15 25 -32.5 35.5t-51.5 16.5v29h238v-29q-25 -1 -39 -5t-17.5 -11t-1.5 -15t9 -21l98 -169l82 132q28 42 22 63t-56 26zM388 583
q-24 0 -39.5 15.5t-15.5 40.5t15.5 42t39.5 17t39.5 -16t15.5 -41t-15.5 -41.5t-39.5 -16.5zM202 583q-24 0 -39.5 15.5t-15.5 40.5t15.5 42t39.5 17t39.5 -16t15.5 -41t-15.5 -41.5t-39.5 -16.5z" />
    <glyph glyph-name="ygrave.sc" horiz-adv-x="547" 
d="M351 480v29h183v-29q-31 -6 -49.5 -22t-47.5 -61l-113 -177v-152q0 -20 17 -28t63 -9v-31h-251v31q46 1 63 9t17 28v143l-133 217q-15 25 -32.5 35.5t-51.5 16.5v29h238v-29q-25 -1 -39 -5t-17.5 -11t-1.5 -15t9 -21l98 -169l82 132q28 42 22 63t-56 26zM300 575l-79 86
q-39 42 -39 69q0 17 11.5 29t28.5 12q19 0 31.5 -16.5t29.5 -56.5l52 -123h-35z" />
    <glyph glyph-name="zacute.sc" horiz-adv-x="526" 
d="M47 0l-2 31l331 445h-130q-53 0 -86 -33t-62 -121l-36 2l15 185h403l3 -30l-332 -446h139q57 0 89.5 33.5t63.5 124.5l36 -3l-15 -188h-417zM235 575l52 123q17 40 29.5 56.5t31.5 16.5q17 0 28.5 -12t11.5 -29q0 -27 -39 -69l-79 -86h-35z" />
    <glyph glyph-name="zcaron.sc" horiz-adv-x="526" 
d="M47 0l-2 31l331 445h-130q-53 0 -86 -33t-62 -121l-36 2l15 185h403l3 -30l-332 -446h139q57 0 89.5 33.5t63.5 124.5l36 -3l-15 -188h-417zM252 575l-113 183h31l100 -100l101 100h31l-121 -183h-29z" />
    <glyph glyph-name="zdotaccent.sc" horiz-adv-x="526" 
d="M47 0l-2 31l331 445h-130q-53 0 -86 -33t-62 -121l-36 2l15 185h403l3 -30l-332 -446h139q57 0 89.5 33.5t63.5 124.5l36 -3l-15 -188h-417zM270 583q-26 0 -41.5 16t-15.5 42t16 43.5t41 17.5t41 -16.5t16 -42.5t-16 -43t-41 -17z" />
    <glyph glyph-name="registered.alt" horiz-adv-x="787" 
d="M393 -32q-153 0 -257 104t-104 258q0 152 104.5 256t256.5 104q153 0 257.5 -104t104.5 -256q0 -154 -104.5 -258t-257.5 -104zM393 -2q139 0 233 95.5t94 236.5q0 139 -94 234.5t-233 95.5q-138 0 -232 -95.5t-94 -234.5q0 -140 94 -236t232 -96zM355 345h50
q41 0 59.5 18.5t18.5 57.5q0 66 -82 66h-46v-142zM355 314v-114q0 -14 10.5 -18.5t47.5 -5.5v-28h-180v28q36 1 47.5 5.5t11.5 18.5v265q0 14 -11.5 18.5t-47.5 5.5v28h167q78 0 114.5 -26.5t36.5 -65.5q0 -38 -21 -58.5t-71 -33.5v-4q41 -5 58 -21t22 -49l7 -53
q2 -20 12.5 -26t44.5 -8v-28h-26q-58 0 -76 13.5t-21 53.5l-3 43q-3 39 -20.5 49.5t-64.5 10.5h-37z" />
    <glyph glyph-name="percent.alt" horiz-adv-x="802" 
d="M354 464q0 -72 -44 -119.5t-112 -47.5q-72 0 -115 46t-43 118t44.5 119.5t113.5 47.5q71 0 113.5 -46t42.5 -118zM141 -10l244 327l221 306h55l-242 -324l-223 -309h-55zM194 600q-78 0 -78 -137q0 -138 84 -138q79 0 79 138q0 137 -85 137zM448 149q0 72 44 119.5
t112 47.5q72 0 115 -46t43 -118t-44.5 -119.5t-113.5 -47.5q-71 0 -113.5 46t-42.5 118zM608 13q78 0 78 137q0 138 -84 138q-79 0 -79 -138q0 -137 85 -137z" />
    <glyph glyph-name="NUL" horiz-adv-x="1000" 
 />
    <glyph glyph-name="hcoslug" horiz-adv-x="694" 
d="M273 18h-26q0 -12 10 -12q8 0 9 7h7q-3 -14 -18 -14q-21 0 -21 20q0 9 6 15t14 6q21 0 19 -22zM254 35q-7 0 -7 -12h14q0 12 -7 12zM195 78q8 0 8 16q0 15 -8 15t-8 -15q0 -16 8 -16zM210 4q8 0 8 16q0 15 -8 15t-8 -15q0 -16 8 -16zM210 -1q-21 0 -21 21q0 20 21 20
t21 -20q0 -9 -6 -15t-15 -6zM546 4q8 0 8 16q0 15 -8 15t-8 -15q0 -16 8 -16zM546 -1q-21 0 -21 21q0 20 21 20t21 -20q0 -9 -6 -15t-15 -6zM125 74v7h7v41h-7v7h51v-20h-8q-2 13 -11 13h-12v-18h4q5 0 6 8h7v-23h-7q-1 8 -6 8h-4v-16h10v-7h-30zM195 73q-21 0 -21 21
q0 20 21 20t21 -20q0 -9 -6 -15t-15 -6zM644 -100v800h-594v-800h594zM498 -1q-29 0 -29 28q0 13 8 21.5t19 8.5q9 0 16 -7l1 6h8v-22h-8q-5 16 -15 16q-14 0 -14 -22t16 -22q12 0 14 16h8q-2 -23 -24 -23zM372 80q7 0 7 13t-7 13q-8 0 -8 -13t8 -13zM276 0v7h6v25h-7v7h7v1
q0 19 19 19q5 0 9 -2l10 2v-52h6v-7h-23v7h5v25h-14v-25h5v-7h-23zM368 0v7h6v25h-6v7h18v-10q4 11 12 11t8 -8q0 -7 -7 -7q-6 0 -6 6v1q-3 0 -7 -9v-16h8v-7h-26zM352 73v52h-6v7h18v-27q3 9 13 9q15 0 15 -20q0 -21 -16 -21q-9 0 -14 8l-4 -8h-6zM400 75q5 0 6.5 -4
t-1.5 -6q6 0 8 8l-16 33h-5v7h25v-7h-6l9 -20l8 20h-5v7h17v-7h-5l-13 -31q-6 -16 -18 -16q-11 0 -11 9q0 7 7 7zM247 428q0 13 7.5 21t19.5 8q13 0 21 -10.5t8 -27.5q0 -22 -18 -50q-15 14 -21 20.5t-11.5 17t-5.5 21.5zM302 74v14h7q6 -9 12 -9q5 0 5 4q0 3 -12 6.5
t-12 12.5q0 12 14 12q8 0 11 -5l2 5h6v-13h-7q-5 7 -10 7t-5 -4q0 -3 12 -6t12 -12q0 -13 -14 -13q-5 0 -13 5l-1 -4h-7zM261 219q-22 0 -37 15.5t-15 38.5q0 24 16 40q34 -32 74 -82q-15 -12 -38 -12zM274 122l12 2v-11h13v-7h-13v-20q0 -5 4 -5t5 7l5 -2q-3 -13 -14 -13
q-12 0 -12 13v20h-7v7h7v9zM428 306q-26 -16 -46 -42q35 -41 62 -41q26 0 43 29l7 -2q-1 -43 -24 -68.5t-56 -25.5q-41 0 -85 45q-41 -45 -104 -45q-45 0 -77 27t-32 66q0 63 82 91q-31 32 -31 69q0 34 30.5 59.5t78.5 25.5q44 0 69.5 -22.5t25.5 -51.5q0 -19 -9 -34
q46 2 49 -37q25 38 60 38q21 0 35.5 -14.5t14.5 -37.5t-14.5 -38.5t-35.5 -15.5q-28 0 -43 25zM219 74v7h6v25h-6v7h17v-10q5 11 14 11q12 0 12 -14v-19h6v-7h-22v7h4v18q0 7 -6 7q-7 0 -7 -10v-15h4v-7h-22zM446 33h18v-7h-5q-3 -6 -9 -14q3 -5 6 -5t4 5l5 -1
q-3 -12 -13 -12q-7 0 -12 6q-6 -6 -15 -6q-18 0 -18 14q0 11 13 15q-6 6 -6 12q0 14 17 14q14 0 14 -12q0 -7 -11 -12q3 -3 6.5 -7t5.5 -6q4 5 6 9h-6v7zM429 6q3 0 8 3q-10 12 -14 16q-4 -4 -4 -9q0 -10 10 -10zM294 42v-3h14v5q-6 0 -6 6l1 3q-1 1 -3 1q-6 0 -6 -12z
M425 43q0 -4 6 -10q5 3 5 9t-6 6q-5 0 -5 -5zM312 342q30 20 42 34q29 -29 -1 -80q-33 38 -41 46zM366 18h-26q0 -12 10 -12q8 0 9 7h7q-4 -14 -18 -14q-21 0 -21 20q0 9 6 15t14 6q21 0 19 -22zM347 35q-7 0 -7 -12h14q0 12 -7 12zM124 0v7h8v41h-8v7h29v-7h-8v-16h22v16
h-8v7h29v-7h-8v-41h8v-7h-29v7h8v18h-22v-18h8v-7h-29zM576 13q7 0 7 -7t-7 -7t-7 7t7 7z" />
    <glyph glyph-name="A.sc" 
d="M387 91l-31 86h-199l-21 -53q-21 -52 -13.5 -70t58.5 -25v-29h-180v29q36 8 55.5 30t42.5 79l152 379h72l159 -423q11 -30 29 -44.5t60 -20.5v-29h-252v29q52 5 65.5 18.5t2.5 43.5zM170 211h173l-81 223h-6z" />
    <glyph glyph-name="B.sc" horiz-adv-x="544" 
d="M41 31q46 1 63 9t17 28v373q0 19 -17 27.5t-63 9.5v31h217q225 0 225 -123q0 -86 -133 -115v-2q74 -9 111 -43.5t37 -80.5q0 -67 -57.5 -106t-175.5 -39h-224v31zM261 285q129 0 129 96q0 47 -31.5 70.5t-101.5 23.5h-45v-190h49zM265 34q138 0 138 109q0 108 -142 108
h-49v-217h53z" />
    <glyph glyph-name="C.sc" horiz-adv-x="564" 
d="M303 -12q-117 0 -186.5 71.5t-69.5 189.5q0 117 76 194.5t189 77.5q73 0 133 -34l21 33h31v-201h-38q-24 84 -60 126.5t-95 42.5q-66 0 -111 -62t-45 -171q0 -105 53 -162t127 -57q106 0 162 115l29 -14q-28 -65 -81.5 -107t-134.5 -42z" />
    <glyph glyph-name="D.sc" horiz-adv-x="614" 
d="M121 68v373q0 19 -17 27.5t-63 9.5v31h229q143 0 219.5 -65.5t76.5 -178.5q0 -115 -73 -190t-215 -75h-237v31q46 1 63 9t17 28zM465 259q0 112 -50 164t-153 52h-50v-441h57q111 0 153.5 54t42.5 171z" />
    <glyph glyph-name="E.sc" horiz-adv-x="552" 
d="M41 0v31q46 1 63 9t17 28v373q0 19 -17 27.5t-63 9.5v31h443l3 -156l-35 -1q-21 75 -42.5 99t-81.5 24h-116v-196h36q43 0 62 14t33 68h29v-198h-29q-14 55 -33 68.5t-62 13.5h-36v-210h105q71 0 100.5 29t52.5 105h32l-4 -169h-457z" />
    <glyph glyph-name="F.sc" horiz-adv-x="512" 
d="M41 0v31q46 1 63 9t17 28v373q0 19 -17 27.5t-63 9.5v31h432l4 -162l-34 -1q-20 74 -47.5 101.5t-88.5 27.5h-95v-202h42q41 0 58 14t33 70h25v-204h-25q-15 57 -32.5 71.5t-58.5 14.5h-42v-171q0 -21 16 -28.5t69 -8.5v-31h-256z" />
    <glyph glyph-name="G.sc" horiz-adv-x="591" 
d="M327 -12q-121 0 -200 69.5t-79 195.5q0 118 78.5 193t190.5 75q80 0 134 -30l19 31h31v-164h-40q-46 131 -152 131q-66 0 -113 -60t-47 -174q0 -115 51.5 -175t127.5 -60q53 0 89 22v135q0 18 -19 27t-68 11v30h229v-30q-34 -2 -43.5 -9.5t-9.5 -28.5v-149
q-82 -40 -179 -40z" />
    <glyph glyph-name="H.sc" horiz-adv-x="659" 
d="M41 0v31q46 1 63 9t17 28v373q0 19 -17 27.5t-63 9.5v31h247v-31q-46 -1 -61 -9t-15 -28v-160h235v160q0 20 -15 28t-61 9v31h247v-31q-46 -1 -63 -9.5t-17 -27.5v-373q0 -20 17 -28t63 -9v-31h-247v31q46 1 61 9t15 28v179h-235v-179q0 -20 15 -28t61 -9v-31h-247z" />
    <glyph glyph-name="I.sc" horiz-adv-x="349" 
d="M49 0v31q46 1 63 9t17 28v373q0 19 -17 27.5t-63 9.5v31h251v-31q-46 -1 -63 -9.5t-17 -27.5v-373q0 -20 17 -28t63 -9v-31h-251z" />
    <glyph glyph-name="J.sc" horiz-adv-x="446" 
d="M106 57q6 -12 23 -20.5t37 -8.5q89 0 89 133v280q0 20 -17 28t-66 9v31h249v-31q-43 -1 -59 -9.5t-16 -27.5v-269q0 -84 -44.5 -134t-126.5 -50q-60 0 -101 33.5t-41 83.5q0 27 16.5 45t41.5 18q23 0 38 -15.5t15 -37.5q0 -40 -38 -58z" />
    <glyph glyph-name="K.sc" horiz-adv-x="611" 
d="M419 396l-93 -94l162 -209q27 -35 46 -47.5t53 -16.5v-29h-238v29q47 4 54 15t-16 39l-120 161l-55 -56v-120q0 -20 13 -28t50 -9v-31h-234v31q46 1 63 9t17 28v373q0 19 -17 27.5t-63 9.5v31h245v-31q-45 -1 -59.5 -9t-14.5 -28v-207l163 170q37 38 32.5 55t-51.5 21v29
h215v-29q-47 -4 -75.5 -20t-76.5 -64z" />
    <glyph glyph-name="L.sc" horiz-adv-x="506" 
d="M212 35h62q74 0 106.5 32t57.5 114l30 -2l-4 -179h-423v31q46 1 63 9t17 28v373q0 19 -17 27.5t-63 9.5v31h247v-31q-46 -1 -61 -9t-15 -28v-406z" />
    <glyph glyph-name="M.sc" horiz-adv-x="774" 
d="M390 121l140 388h203v-31q-47 -1 -64 -9.5t-17 -27.5v-373q0 -19 17 -27.5t64 -9.5v-31h-241v31q41 1 55 9t14 28v384h-7l-169 -452h-46l-168 452h-6v-316q0 -57 13.5 -77.5t65.5 -29.5v-29h-202v29q52 8 67.5 29.5t15.5 77.5v289q0 24 -18 38t-65 15v31h205l137 -388h6z
" />
    <glyph glyph-name="N.sc" horiz-adv-x="644" 
d="M490 -11l-320 427h-2v-281q0 -58 16.5 -78.5t82.5 -29.5v-27h-225v27q52 8 67.5 30t15.5 78v281q0 27 -20 44t-63 18v31h171l288 -383h2v248q0 56 -19.5 78.5t-81.5 29.5v27h221v-27q-51 -8 -64.5 -29t-13.5 -79v-385h-55z" />
    <glyph glyph-name="O.sc" horiz-adv-x="608" 
d="M304 -12q-109 0 -182.5 73t-73.5 192q0 118 75 193t181 75q109 0 182.5 -73.5t73.5 -191.5t-75 -193t-181 -75zM308 20q70 0 110.5 58.5t40.5 176.5q0 116 -43 175t-115 59q-70 0 -111 -58.5t-41 -175.5t43.5 -176t115.5 -59z" />
    <glyph glyph-name="P.sc" horiz-adv-x="512" 
d="M41 0v31q46 1 63 9t17 28v373q0 19 -17 27.5t-63 9.5v31h222q114 0 167 -39.5t53 -106.5t-55.5 -112t-168.5 -45h-47v-138q0 -21 16.5 -28.5t70.5 -8.5v-31h-258zM212 239h49q71 0 98 30.5t27 91.5q0 114 -123 114h-51v-236z" />
    <glyph glyph-name="Q.sc" horiz-adv-x="608" 
d="M459 255q0 116 -43 175t-115 59q-70 0 -111 -58.5t-41 -175.5t43.5 -176t115.5 -59q70 0 110.5 58.5t40.5 176.5zM577 -71q0 -39 -33 -64.5t-87 -25.5q-35 0 -64.5 16.5t-47 36t-40.5 36t-45 16.5q-39 0 -102 -57l-21 22q57 69 112 84q-89 19 -145 88.5t-56 171.5
q0 118 75 193t181 75q109 0 182.5 -73.5t73.5 -191.5q0 -112 -67 -185t-166 -82q31 -12 62 -41.5t53.5 -52t39.5 -22.5q20 0 20 14q0 6 -9.5 21t-9.5 28q0 18 13 31.5t33 13.5q19 0 33.5 -16t14.5 -36z" />
    <glyph glyph-name="R.sc" horiz-adv-x="565" 
d="M212 234v-166q0 -20 16.5 -28t61.5 -9v-31h-249v31q46 1 63 9t17 28v373q0 19 -17 27.5t-63 9.5v31h227q112 0 164 -36t52 -90q0 -104 -142 -129v-3q70 -5 95 -29.5t33 -72.5l11 -66q5 -32 20 -42.5t58 -13.5v-31q-7 0 -22 -0.5t-18 -0.5q-80 0 -106 19.5t-30 72.5l-4 56
q-4 54 -31.5 72.5t-91.5 18.5h-44zM212 267h49q72 0 99.5 27.5t27.5 85.5q0 50 -30.5 72.5t-101.5 22.5h-44v-208z" />
    <glyph glyph-name="S.sc" horiz-adv-x="463" 
d="M54 -14v185h38q56 -151 153 -151q54 0 79 28t25 65q0 43 -29.5 64.5t-105.5 45.5q-74 23 -115 56.5t-41 94.5t49.5 104t121.5 43q60 0 116 -29l23 32h28v-171h-38q-26 72 -58.5 104t-78.5 32q-43 0 -65 -23t-22 -57q0 -40 27.5 -59t102.5 -44q73 -24 114 -58t41 -97
q0 -68 -45.5 -115t-134.5 -47q-76 0 -128 28l-28 -31h-29z" />
    <glyph glyph-name="T.sc" horiz-adv-x="539" 
d="M138 0v31q51 1 69 9t18 28v407h-29q-49 0 -71 -29.5t-49 -112.5l-36 1l5 175h451l6 -175l-36 -1q-23 80 -46.5 111t-74.5 31h-29v-407q0 -20 18 -28t69 -9v-31h-265z" />
    <glyph glyph-name="U.sc" horiz-adv-x="615" 
d="M317 -12q-102 0 -155.5 48.5t-53.5 130.5v274q0 19 -17 27.5t-63 9.5v31h247v-31q-46 -1 -61 -9t-15 -28v-265q0 -146 143 -146q64 0 98 35q39 41 39 125v183q0 56 -17.5 78t-73.5 29v29h207v-29q-51 -8 -64 -28.5t-13 -78.5v-198q0 -85 -50 -136t-151 -51z" />
    <glyph glyph-name="V.sc" horiz-adv-x="561" 
d="M187 429l121 -335h4l106 285q22 55 12 74t-66 27v29h193v-29q-39 -8 -56 -27.5t-38 -73.5l-151 -390h-56l-164 436q-9 25 -24.5 36.5t-52.5 18.5v29h242v-29q-51 -3 -65 -15t-5 -36z" />
    <glyph glyph-name="W.sc" horiz-adv-x="774" 
d="M177 429l92 -323h3l102 267l-12 39q-10 31 -26 46.5t-51 21.5v29h228v-29q-45 -2 -58.5 -14.5t-6.5 -36.5l101 -322h3l86 271q19 55 9 74.5t-63 27.5v29h197v-29q-39 -8 -60.5 -31t-38.5 -73l-128 -388h-53l-107 324l-121 -324h-56l-134 433q-8 26 -24.5 39t-55.5 20v29
h225v-29q-39 -2 -48.5 -15t-2.5 -36z" />
    <glyph glyph-name="X.sc" horiz-adv-x="573" 
d="M345 480v29h200v-29q-37 -6 -62 -25.5t-68 -74.5l-85 -108l135 -184q20 -27 38 -39.5t54 -19.5v-29h-237v29q80 5 45 53l-96 133l-79 -105q-31 -37 -25.5 -57.5t55.5 -23.5v-29h-201v29q39 7 63.5 25.5t68.5 73.5l95 120l-128 173q-19 27 -39 40t-54 19v29h237v-29
q-79 -5 -44 -53l88 -122l70 93q30 38 24.5 58.5t-55.5 23.5z" />
    <glyph glyph-name="Y.sc" horiz-adv-x="547" 
d="M351 480v29h183v-29q-31 -6 -49.5 -22t-47.5 -61l-113 -177v-152q0 -20 17 -28t63 -9v-31h-251v31q46 1 63 9t17 28v143l-133 217q-15 25 -32.5 35.5t-51.5 16.5v29h238v-29q-25 -1 -39 -5t-17.5 -11t-1.5 -15t9 -21l98 -169l82 132q28 42 22 63t-56 26z" />
    <glyph glyph-name="Z.sc" horiz-adv-x="526" 
d="M47 0l-2 31l331 445h-130q-53 0 -86 -33t-62 -121l-36 2l15 185h403l3 -30l-332 -446h139q57 0 89.5 33.5t63.5 124.5l36 -3l-15 -188h-417z" />
    <glyph glyph-name="Aacute.sc" 
d="M387 91l-31 86h-199l-21 -53q-21 -52 -13.5 -70t58.5 -25v-29h-180v29q36 8 55.5 30t42.5 79l152 379h72l159 -423q11 -30 29 -44.5t60 -20.5v-29h-252v29q52 5 65.5 18.5t2.5 43.5zM170 211h173l-81 223h-6zM255 575l52 123q17 40 29.5 56.5t31.5 16.5q17 0 28.5 -12
t11.5 -29q0 -27 -39 -69l-79 -86h-35z" />
    <glyph glyph-name="Abreve.sc" 
d="M387 91l-31 86h-199l-21 -53q-21 -52 -13.5 -70t58.5 -25v-29h-180v29q36 8 55.5 30t42.5 79l152 379h72l159 -423q11 -30 29 -44.5t60 -20.5v-29h-252v29q52 5 65.5 18.5t2.5 43.5zM170 211h173l-81 223h-6zM291 583q-58 0 -93 42t-41 111h25q18 -46 42.5 -67t66.5 -21
q41 0 65 20.5t42 67.5h25q-5 -69 -39.5 -111t-92.5 -42z" />
    <glyph glyph-name="Acircumflex.sc" 
d="M387 91l-31 86h-199l-21 -53q-21 -52 -13.5 -70t58.5 -25v-29h-180v29q36 8 55.5 30t42.5 79l152 379h72l159 -423q11 -30 29 -44.5t60 -20.5v-29h-252v29q52 5 65.5 18.5t2.5 43.5zM170 211h173l-81 223h-6zM159 575l121 183h29l113 -183h-31l-100 100l-101 -100h-31z
" />
    <glyph glyph-name="Adieresis.sc" 
d="M387 91l-31 86h-199l-21 -53q-21 -52 -13.5 -70t58.5 -25v-29h-180v29q36 8 55.5 30t42.5 79l152 379h72l159 -423q11 -30 29 -44.5t60 -20.5v-29h-252v29q52 5 65.5 18.5t2.5 43.5zM170 211h173l-81 223h-6zM383 583q-24 0 -39.5 15.5t-15.5 40.5t15.5 42t39.5 17
t39.5 -16t15.5 -41t-15.5 -41.5t-39.5 -16.5zM197 583q-24 0 -39.5 15.5t-15.5 40.5t15.5 42t39.5 17t39.5 -16t15.5 -41t-15.5 -41.5t-39.5 -16.5z" />
    <glyph glyph-name="AE.sc" horiz-adv-x="785" 
d="M-27 0v29q36 6 57 25t60 79l187 291q20 27 6.5 41t-73.5 17v27h507l3 -156l-35 -1q-21 75 -42.5 99t-81.5 24h-111v-196h31q43 0 62 14t33 68h29v-198h-29q-14 55 -33 68.5t-62 13.5h-31v-210h100q71 0 100.5 29t52.5 105h32l-4 -169h-452v31q46 1 63 9t17 28v123h-184
l-46 -73q-29 -43 -23 -63.5t55 -25.5v-29h-188zM196 225h163v236h-15z" />
    <glyph glyph-name="AEacute.sc" horiz-adv-x="785" 
d="M-27 0v29q36 6 57 25t60 79l187 291q20 27 6.5 41t-73.5 17v27h507l3 -156l-35 -1q-21 75 -42.5 99t-81.5 24h-111v-196h31q43 0 62 14t33 68h29v-198h-29q-14 55 -33 68.5t-62 13.5h-31v-210h100q71 0 100.5 29t52.5 105h32l-4 -169h-452v31q46 1 63 9t17 28v123h-184
l-46 -73q-29 -43 -23 -63.5t55 -25.5v-29h-188zM196 225h163v236h-15zM430 575l52 123q17 40 29.5 56.5t31.5 16.5q17 0 28.5 -12t11.5 -29q0 -27 -39 -69l-79 -86h-35z" />
    <glyph glyph-name="Agrave.sc" 
d="M387 91l-31 86h-199l-21 -53q-21 -52 -13.5 -70t58.5 -25v-29h-180v29q36 8 55.5 30t42.5 79l152 379h72l159 -423q11 -30 29 -44.5t60 -20.5v-29h-252v29q52 5 65.5 18.5t2.5 43.5zM170 211h173l-81 223h-6zM295 575l-79 86q-39 42 -39 69q0 17 11.5 29t28.5 12
q19 0 31.5 -16.5t29.5 -56.5l52 -123h-35z" />
    <glyph glyph-name="Amacron.sc" 
d="M387 91l-31 86h-199l-21 -53q-21 -52 -13.5 -70t58.5 -25v-29h-180v29q36 8 55.5 30t42.5 79l152 379h72l159 -423q11 -30 29 -44.5t60 -20.5v-29h-252v29q52 5 65.5 18.5t2.5 43.5zM170 211h173l-81 223h-6zM150 599v57h281v-57h-281z" />
    <glyph glyph-name="Aogonek.sc" 
d="M445 -243q-47 0 -73.5 22.5t-26.5 59.5q0 32 20 63t63 73l25 25h-134v29q52 5 65.5 18.5t2.5 43.5l-31 86h-199l-21 -53q-21 -52 -13.5 -70t58.5 -25v-29h-180v29q36 8 55.5 30t42.5 79l152 379h72l159 -423q11 -30 29 -44.5t60 -20.5v-29h-83l-23 -29q-49 -61 -49 -114
q0 -60 53 -60q28 0 59 17l15 -26q-46 -31 -98 -31zM170 211h173l-81 223h-6z" />
    <glyph glyph-name="Aring.sc" 
d="M387 91l-31 86h-199l-21 -53q-21 -52 -13.5 -70.5t58.5 -26.5v-27h-180v27q35 8 54.5 30.5t43.5 80.5l147 368q-29 10 -46 36t-17 58q0 42 28 71t73 29t73 -29t28 -71q0 -66 -59 -92l156 -414q11 -30 29 -45t60 -21v-28h-252v31q52 3 66 16t2 44zM284 525q27 0 43 20.5
t16 54.5q0 75 -59 75t-59 -75q0 -34 16 -54.5t43 -20.5zM256 434l-86 -223h173l-81 223h-6z" />
    <glyph glyph-name="Aringacute.sc" 
d="M387 91l-31 86h-199l-21 -53q-21 -52 -13.5 -70.5t58.5 -26.5v-27h-180v27q35 8 54.5 30.5t43.5 80.5l147 368q-29 10 -46 36t-17 58q0 42 28 71t73 29t73 -29t28 -71q0 -66 -59 -92l156 -414q11 -30 29 -45t60 -21v-28h-252v31q52 3 66 16t2 44zM284 525q27 0 43 20.5
t16 54.5q0 75 -59 75t-59 -75q0 -34 16 -54.5t43 -20.5zM256 434l-86 -223h173l-81 223h-6zM269 736l52 123q17 40 29.5 56.5t31.5 16.5q17 0 28.5 -12t11.5 -29q0 -27 -39 -69l-79 -86h-35z" />
    <glyph glyph-name="Atilde.sc" 
d="M387 91l-31 86h-199l-21 -53q-21 -52 -13.5 -70t58.5 -25v-29h-180v29q36 8 55.5 30t42.5 79l152 379h72l159 -423q11 -30 29 -44.5t60 -20.5v-29h-252v29q52 5 65.5 18.5t2.5 43.5zM170 211h173l-81 223h-6zM141 575q11 64 31 92t64 28q27 0 72.5 -24t59.5 -24
q26 0 42 57h30q-11 -63 -32 -91.5t-63 -28.5q-27 0 -72.5 24t-59.5 24q-27 0 -42 -57h-30z" />
    <glyph glyph-name="Cacute.sc" horiz-adv-x="564" 
d="M303 -12q-117 0 -186.5 71.5t-69.5 189.5q0 117 76 194.5t189 77.5q73 0 133 -34l21 33h31v-201h-38q-24 84 -60 126.5t-95 42.5q-66 0 -111 -62t-45 -171q0 -105 53 -162t127 -57q106 0 162 115l29 -14q-28 -65 -81.5 -107t-134.5 -42zM280 575l52 123q17 40 29.5 56.5
t31.5 16.5q17 0 28.5 -12t11.5 -29q0 -27 -39 -69l-79 -86h-35z" />
    <glyph glyph-name="Ccaron.sc" horiz-adv-x="564" 
d="M303 -12q-117 0 -186.5 71.5t-69.5 189.5q0 117 76 194.5t189 77.5q73 0 133 -34l21 33h31v-201h-38q-24 84 -60 126.5t-95 42.5q-66 0 -111 -62t-45 -171q0 -105 53 -162t127 -57q106 0 162 115l29 -14q-28 -65 -81.5 -107t-134.5 -42zM297 575l-113 183h31l100 -100
l101 100h31l-121 -183h-29z" />
    <glyph glyph-name="Ccedilla.sc" horiz-adv-x="564" 
d="M272 -251q-58 0 -103 31l17 25q36 -23 73 -23q58 0 58 49q0 23 -20 36t-52 13q-18 0 -34 -4l-12 16l96 96q-114 3 -181 74t-67 187q0 117 76 194.5t189 77.5q73 0 133 -34l21 33h31v-201h-38q-24 84 -60 126.5t-95 42.5q-66 0 -111 -62t-45 -171q0 -105 53 -162t127 -57
q106 0 162 115l29 -14q-56 -131 -184 -147l-65 -64l1 -3q54 -3 81.5 -25t27.5 -56q0 -42 -30.5 -67.5t-77.5 -25.5z" />
    <glyph glyph-name="Cdotaccent.sc" horiz-adv-x="564" 
d="M303 -12q-117 0 -186.5 71.5t-69.5 189.5q0 117 76 194.5t189 77.5q73 0 133 -34l21 33h31v-201h-38q-24 84 -60 126.5t-95 42.5q-66 0 -111 -62t-45 -171q0 -105 53 -162t127 -57q106 0 162 115l29 -14q-28 -65 -81.5 -107t-134.5 -42zM315 583q-26 0 -41.5 16t-15.5 42
t16 43.5t41 17.5t41 -16.5t16 -42.5t-16 -43t-41 -17z" />
    <glyph glyph-name="Dcaron.sc" horiz-adv-x="614" 
d="M121 68v373q0 19 -17 27.5t-63 9.5v31h229q143 0 219.5 -65.5t76.5 -178.5q0 -115 -73 -190t-215 -75h-237v31q46 1 63 9t17 28zM465 259q0 112 -50 164t-153 52h-50v-441h57q111 0 153.5 54t42.5 171zM278 575l-113 183h31l100 -100l101 100h31l-121 -183h-29z" />
    <glyph glyph-name="Dcroat.sc" horiz-adv-x="615" 
d="M122 68v178h-73v38h73v157q0 19 -17 27.5t-63 9.5v31h229q143 0 219.5 -65.5t76.5 -178.5q0 -115 -73 -190t-215 -75h-237v31q46 1 63 9t17 28zM466 259q0 112 -50 164t-153 52h-50v-191h108v-38h-108v-212h57q111 0 153.5 54t42.5 171z" />
    <glyph glyph-name="Eacute.sc" horiz-adv-x="552" 
d="M41 0v31q46 1 63 9t17 28v373q0 19 -17 27.5t-63 9.5v31h443l3 -156l-35 -1q-21 75 -42.5 99t-81.5 24h-116v-196h36q43 0 62 14t33 68h29v-198h-29q-14 55 -33 68.5t-62 13.5h-36v-210h105q71 0 100.5 29t52.5 105h32l-4 -169h-457zM255 575l52 123q17 40 29.5 56.5
t31.5 16.5q17 0 28.5 -12t11.5 -29q0 -27 -39 -69l-79 -86h-35z" />
    <glyph glyph-name="Ebreve.sc" horiz-adv-x="552" 
d="M41 0v31q46 1 63 9t17 28v373q0 19 -17 27.5t-63 9.5v31h443l3 -156l-35 -1q-21 75 -42.5 99t-81.5 24h-116v-196h36q43 0 62 14t33 68h29v-198h-29q-14 55 -33 68.5t-62 13.5h-36v-210h105q71 0 100.5 29t52.5 105h32l-4 -169h-457zM291 583q-58 0 -93 42t-41 111h25
q18 -46 42.5 -67t66.5 -21q41 0 65 20.5t42 67.5h25q-5 -69 -39.5 -111t-92.5 -42z" />
    <glyph glyph-name="Ecaron.sc" horiz-adv-x="552" 
d="M41 0v31q46 1 63 9t17 28v373q0 19 -17 27.5t-63 9.5v31h443l3 -156l-35 -1q-21 75 -42.5 99t-81.5 24h-116v-196h36q43 0 62 14t33 68h29v-198h-29q-14 55 -33 68.5t-62 13.5h-36v-210h105q71 0 100.5 29t52.5 105h32l-4 -169h-457zM272 575l-113 183h31l100 -100
l101 100h31l-121 -183h-29z" />
    <glyph glyph-name="Ecircumflex.sc" horiz-adv-x="552" 
d="M41 0v31q46 1 63 9t17 28v373q0 19 -17 27.5t-63 9.5v31h443l3 -156l-35 -1q-21 75 -42.5 99t-81.5 24h-116v-196h36q43 0 62 14t33 68h29v-198h-29q-14 55 -33 68.5t-62 13.5h-36v-210h105q71 0 100.5 29t52.5 105h32l-4 -169h-457zM159 575l121 183h29l113 -183h-31
l-100 100l-101 -100h-31z" />
    <glyph glyph-name="Edieresis.sc" horiz-adv-x="552" 
d="M41 0v31q46 1 63 9t17 28v373q0 19 -17 27.5t-63 9.5v31h443l3 -156l-35 -1q-21 75 -42.5 99t-81.5 24h-116v-196h36q43 0 62 14t33 68h29v-198h-29q-14 55 -33 68.5t-62 13.5h-36v-210h105q71 0 100.5 29t52.5 105h32l-4 -169h-457zM383 583q-24 0 -39.5 15.5
t-15.5 40.5t15.5 42t39.5 17t39.5 -16t15.5 -41t-15.5 -41.5t-39.5 -16.5zM197 583q-24 0 -39.5 15.5t-15.5 40.5t15.5 42t39.5 17t39.5 -16t15.5 -41t-15.5 -41.5t-39.5 -16.5z" />
    <glyph glyph-name="Edotaccent.sc" horiz-adv-x="552" 
d="M41 0v31q46 1 63 9t17 28v373q0 19 -17 27.5t-63 9.5v31h443l3 -156l-35 -1q-21 75 -42.5 99t-81.5 24h-116v-196h36q43 0 62 14t33 68h29v-198h-29q-14 55 -33 68.5t-62 13.5h-36v-210h105q71 0 100.5 29t52.5 105h32l-4 -169h-457zM290 583q-26 0 -41.5 16t-15.5 42
t16 43.5t41 17.5t41 -16.5t16 -42.5t-16 -43t-41 -17z" />
    <glyph glyph-name="Egrave.sc" horiz-adv-x="552" 
d="M41 0v31q46 1 63 9t17 28v373q0 19 -17 27.5t-63 9.5v31h443l3 -156l-35 -1q-21 75 -42.5 99t-81.5 24h-116v-196h36q43 0 62 14t33 68h29v-198h-29q-14 55 -33 68.5t-62 13.5h-36v-210h105q71 0 100.5 29t52.5 105h32l-4 -169h-457zM295 575l-79 86q-39 42 -39 69
q0 17 11.5 29t28.5 12q19 0 31.5 -16.5t29.5 -56.5l52 -123h-35z" />
    <glyph glyph-name="Emacron.sc" horiz-adv-x="552" 
d="M41 0v31q46 1 63 9t17 28v373q0 19 -17 27.5t-63 9.5v31h443l3 -156l-35 -1q-21 75 -42.5 99t-81.5 24h-116v-196h36q43 0 62 14t33 68h29v-198h-29q-14 55 -33 68.5t-62 13.5h-36v-210h105q71 0 100.5 29t52.5 105h32l-4 -169h-457zM150 599v57h281v-57h-281z" />
    <glyph glyph-name="Eogonek.sc" horiz-adv-x="548" 
d="M42 0v31q46 1 63 9t17 28v373q0 19 -17 27.5t-63 9.5v31h443l3 -156l-35 -1q-21 75 -42.5 99t-81.5 24h-116v-196h36q43 0 62 14t33 68h29v-198h-29q-14 55 -33 68.5t-62 13.5h-36v-210h105q71 0 100.5 29t52.5 105h32l-4 -169h-59l-23 -29q-49 -61 -49 -114
q0 -60 53 -60q28 0 59 17l15 -26q-46 -31 -98 -31q-47 0 -73.5 22.5t-26.5 59.5q0 32 20 63t63 73l25 25h-363z" />
    <glyph glyph-name="Eth.sc" horiz-adv-x="615" 
d="M122 68v178h-73v38h73v157q0 19 -17 27.5t-63 9.5v31h229q143 0 219.5 -65.5t76.5 -178.5q0 -115 -73 -190t-215 -75h-237v31q46 1 63 9t17 28zM321 284v-38h-108v-212h57q111 0 153.5 54t42.5 171q0 112 -50 164t-153 52h-50v-191h108z" />
    <glyph glyph-name="Gbreve.sc" horiz-adv-x="591" 
d="M327 -12q-121 0 -200 69.5t-79 195.5q0 118 78.5 193t190.5 75q80 0 134 -30l19 31h31v-164h-40q-46 131 -152 131q-66 0 -113 -60t-47 -174q0 -115 51.5 -175t127.5 -60q53 0 89 22v135q0 18 -19 27t-68 11v30h229v-30q-34 -2 -43.5 -9.5t-9.5 -28.5v-149
q-82 -40 -179 -40zM311 583q-58 0 -93 42t-41 111h25q18 -46 42.5 -67t66.5 -21q41 0 65 20.5t42 67.5h25q-5 -69 -39.5 -111t-92.5 -42z" />
    <glyph glyph-name="Gcommaaccent.sc" horiz-adv-x="591" 
d="M327 -12q-121 0 -200 69.5t-79 195.5q0 118 78.5 193t190.5 75q80 0 134 -30l19 31h31v-164h-40q-46 131 -152 131q-66 0 -113 -60t-47 -174q0 -115 51.5 -175t127.5 -60q53 0 89 22v135q0 18 -19 27t-68 11v30h229v-30q-34 -2 -43.5 -9.5t-9.5 -28.5v-149
q-82 -40 -179 -40zM247 -312l-18 23q88 54 93 110l-7 2q-11 -11 -28 -11q-20 0 -33 14.5t-13 36.5q0 24 17 40.5t44 16.5q28 0 45 -21t17 -56q0 -90 -117 -155z" />
    <glyph glyph-name="Gdotaccent.sc" horiz-adv-x="591" 
d="M327 -12q-121 0 -200 69.5t-79 195.5q0 118 78.5 193t190.5 75q80 0 134 -30l19 31h31v-164h-40q-46 131 -152 131q-66 0 -113 -60t-47 -174q0 -115 51.5 -175t127.5 -60q53 0 89 22v135q0 18 -19 27t-68 11v30h229v-30q-34 -2 -43.5 -9.5t-9.5 -28.5v-149
q-82 -40 -179 -40zM310 583q-26 0 -41.5 16t-15.5 42t16 43.5t41 17.5t41 -16.5t16 -42.5t-16 -43t-41 -17z" />
    <glyph glyph-name="Hbar.sc" horiz-adv-x="661" 
d="M42 0v31q46 1 63 9t17 28v292h-73v34h73v47q0 19 -17 27.5t-63 9.5v31h247v-31q-46 -1 -61 -9t-15 -28v-47h235v47q0 20 -15 28t-61 9v31h247v-31q-46 -1 -63 -9.5t-17 -27.5v-47h73v-34h-73v-292q0 -20 17 -28t63 -9v-31h-247v31q46 1 61 9t15 28v167h-235v-167
q0 -20 15 -28t61 -9v-31h-247zM213 269h235v91h-235v-91z" />
    <glyph glyph-name="Iacute.sc" horiz-adv-x="349" 
d="M49 0v31q46 1 63 9t17 28v373q0 19 -17 27.5t-63 9.5v31h251v-31q-46 -1 -63 -9.5t-17 -27.5v-373q0 -20 17 -28t63 -9v-31h-251zM140 575l52 123q17 40 29.5 56.5t31.5 16.5q17 0 28.5 -12t11.5 -29q0 -27 -39 -69l-79 -86h-35z" />
    <glyph glyph-name="Ibreve.sc" horiz-adv-x="349" 
d="M49 0v31q46 1 63 9t17 28v373q0 19 -17 27.5t-63 9.5v31h251v-31q-46 -1 -63 -9.5t-17 -27.5v-373q0 -20 17 -28t63 -9v-31h-251zM176 583q-58 0 -93 42t-41 111h25q18 -46 42.5 -67t66.5 -21q41 0 65 20.5t42 67.5h25q-5 -69 -39.5 -111t-92.5 -42z" />
    <glyph glyph-name="Icircumflex.sc" horiz-adv-x="349" 
d="M49 0v31q46 1 63 9t17 28v373q0 19 -17 27.5t-63 9.5v31h251v-31q-46 -1 -63 -9.5t-17 -27.5v-373q0 -20 17 -28t63 -9v-31h-251zM44 575l121 183h29l113 -183h-31l-100 100l-101 -100h-31z" />
    <glyph glyph-name="Idieresis.sc" horiz-adv-x="349" 
d="M49 0v31q46 1 63 9t17 28v373q0 19 -17 27.5t-63 9.5v31h251v-31q-46 -1 -63 -9.5t-17 -27.5v-373q0 -20 17 -28t63 -9v-31h-251zM268 583q-24 0 -39.5 15.5t-15.5 40.5t15.5 42t39.5 17t39.5 -16t15.5 -41t-15.5 -41.5t-39.5 -16.5zM82 583q-24 0 -39.5 15.5t-15.5 40.5
t15.5 42t39.5 17t39.5 -16t15.5 -41t-15.5 -41.5t-39.5 -16.5z" />
    <glyph glyph-name="Idotaccent.sc" horiz-adv-x="349" 
d="M49 0v31q46 1 63 9t17 28v373q0 19 -17 27.5t-63 9.5v31h251v-31q-46 -1 -63 -9.5t-17 -27.5v-373q0 -20 17 -28t63 -9v-31h-251zM175 583q-26 0 -41.5 16t-15.5 42t16 43.5t41 17.5t41 -16.5t16 -42.5t-16 -43t-41 -17z" />
    <glyph glyph-name="Igrave.sc" horiz-adv-x="349" 
d="M49 0v31q46 1 63 9t17 28v373q0 19 -17 27.5t-63 9.5v31h251v-31q-46 -1 -63 -9.5t-17 -27.5v-373q0 -20 17 -28t63 -9v-31h-251zM180 575l-79 86q-39 42 -39 69q0 17 11.5 29t28.5 12q19 0 31.5 -16.5t29.5 -56.5l52 -123h-35z" />
    <glyph glyph-name="Imacron.sc" horiz-adv-x="349" 
d="M49 0v31q46 1 63 9t17 28v373q0 19 -17 27.5t-63 9.5v31h251v-31q-46 -1 -63 -9.5t-17 -27.5v-373q0 -20 17 -28t63 -9v-31h-251zM35 599v57h281v-57h-281z" />
    <glyph glyph-name="Iogonek.sc" horiz-adv-x="351" 
d="M50 0v31q46 1 63 9t17 28v373q0 19 -17 27.5t-63 9.5v31h251v-31q-46 -1 -63 -9.5t-17 -27.5v-373q0 -20 17 -28t63 -9v-31h-98l-23 -29q-49 -61 -49 -114q0 -60 53 -60q28 0 59 17l15 -26q-46 -31 -98 -31q-47 0 -73.5 22.5t-26.5 59.5q0 32 20 63t63 73l25 25h-118z
" />
    <glyph glyph-name="Kcommaaccent.sc" horiz-adv-x="611" 
d="M419 396l-93 -94l162 -209q27 -35 46 -47.5t53 -16.5v-29h-238v29q47 4 54 15t-16 39l-120 161l-55 -56v-120q0 -20 13 -28t50 -9v-31h-234v31q46 1 63 9t17 28v373q0 19 -17 27.5t-63 9.5v31h245v-31q-45 -1 -59.5 -9t-14.5 -28v-207l163 170q37 38 32.5 55t-51.5 21v29
h215v-29q-47 -4 -75.5 -20t-76.5 -64zM255 -312l-18 23q88 54 93 110l-7 2q-11 -11 -28 -11q-20 0 -33 14.5t-13 36.5q0 24 17 40.5t44 16.5q28 0 45 -21t17 -56q0 -90 -117 -155z" />
    <glyph glyph-name="Lacute.sc" horiz-adv-x="507" 
d="M213 35h62q74 0 106.5 32t57.5 114l30 -2l-4 -179h-423v31q46 1 63 9t17 28v373q0 19 -17 27.5t-63 9.5v31h247v-31q-46 -1 -61 -9t-15 -28v-406zM145 575l52 123q17 40 29.5 56.5t31.5 16.5q17 0 28.5 -12t11.5 -29q0 -27 -39 -69l-79 -86h-35z" />
    <glyph glyph-name="Lcaron.sc" horiz-adv-x="507" 
d="M213 35h62q74 0 106.5 32t57.5 114l30 -2l-4 -179h-423v31q46 1 63 9t17 28v373q0 19 -17 27.5t-63 9.5v31h247v-31q-46 -1 -61 -9t-15 -28v-406zM377 347l-9 113q-5 50 -5 67q0 26 12 39.5t30 13.5t29.5 -12.5t11.5 -35.5q0 -19 -12 -64l-33 -121h-24z" />
    </font>
</defs>
</svg>
